<?xml version="1.0" encoding="UTF-8" standalone="no"?>
<!DOCTYPE svg PUBLIC "-//W3C//DTD SVG 1.1//EN"
 "http://www.w3.org/Graphics/SVG/1.1/DTD/svg11.dtd">
<!-- Generated by graphviz version 14.1.5 (20260411.2331)
 -->
<!-- Title: CmdProcessorBenefitEntrypointSelection Pages: 1 -->
<svg width="794pt" height="303pt"
 viewBox="0.00 0.00 794.00 303.00" xmlns="http://www.w3.org/2000/svg" xmlns:xlink="http://www.w3.org/1999/xlink">
<g id="graph0" class="graph" transform="scale(1 1) rotate(0) translate(14.4 288.4)">
<title>CmdProcessorBenefitEntrypointSelection</title>
<g id="clust1" class="cluster">
<title>cluster_entrypoints</title>
<path fill="#f8fafc" stroke="#cbd5e1" d="M12,-8C12,-8 184,-8 184,-8 190,-8 196,-14 196,-20 196,-20 196,-254 196,-254 196,-260 190,-266 184,-266 184,-266 12,-266 12,-266 6,-266 0,-260 0,-254 0,-254 0,-20 0,-20 0,-14 6,-8 12,-8"/>
<text xml:space="preserve" text-anchor="middle" x="98" y="-249.65" font-family="Pretendard" font-size="13.00">빌드/실행 설정: 진입점 하나를 선택</text>
</g>
<g id="clust2" class="cluster">
<title>cluster_processing</title>
<path fill="#f0f9ff" stroke="#bae6fd" d="M401.91,-38C401.91,-38 745.23,-38 745.23,-38 751.23,-38 757.23,-44 757.23,-50 757.23,-50 757.23,-205 757.23,-205 757.23,-211 751.23,-217 745.23,-217 745.23,-217 401.91,-217 401.91,-217 395.91,-217 389.91,-211 389.91,-205 389.91,-205 389.91,-50 389.91,-50 389.91,-44 395.91,-38 401.91,-38"/>
<text xml:space="preserve" text-anchor="middle" x="573.57" y="-200.65" font-family="Pretendard" font-size="13.00">공통 처리 뒤쪽</text>
</g>
<!-- file_entry -->
<g id="node1" class="node">
<title>file_entry</title>
<path fill="white" stroke="#64748b" d="M116.58,-223.6C116.58,-223.6 78.42,-223.6 78.42,-223.6 72.42,-223.6 66.42,-217.6 66.42,-211.6 66.42,-211.6 66.42,-196.4 66.42,-196.4 66.42,-190.4 72.42,-184.4 78.42,-184.4 78.42,-184.4 116.58,-184.4 116.58,-184.4 122.58,-184.4 128.58,-190.4 128.58,-196.4 128.58,-196.4 128.58,-211.6 128.58,-211.6 128.58,-217.6 122.58,-223.6 116.58,-223.6"/>
<text xml:space="preserve" text-anchor="middle" x="97.5" y="-206.68" font-family="Pretendard" font-size="11.00">파일 실행</text>
<text xml:space="preserve" text-anchor="middle" x="97.5" y="-192.43" font-family="Pretendard" font-size="11.00">SQL file</text>
</g>
<!-- shared_contract -->
<g id="node4" class="node">
<title>shared_contract</title>
<path fill="#dbeafe" stroke="#60a5fa" d="M340.91,-151.73C340.91,-151.73 245,-151.73 245,-151.73 239,-151.73 233,-145.73 233,-139.73 233,-139.73 233,-110.27 233,-110.27 233,-104.27 239,-98.27 245,-98.27 245,-98.27 340.91,-98.27 340.91,-98.27 346.91,-98.27 352.91,-104.27 352.91,-110.27 352.91,-110.27 352.91,-139.73 352.91,-139.73 352.91,-145.73 346.91,-151.73 340.91,-151.73"/>
<text xml:space="preserve" text-anchor="middle" x="292.96" y="-134.8" font-family="Pretendard" font-size="11.00">공통 요청 계약</text>
<text xml:space="preserve" text-anchor="middle" x="292.96" y="-120.55" font-family="Pretendard" font-size="11.00">입력 &#45;&gt; CmdRequest</text>
<text xml:space="preserve" text-anchor="middle" x="292.96" y="-106.3" font-family="Pretendard" font-size="11.00">submit + callback</text>
</g>
<!-- file_entry&#45;&gt;shared_contract -->
<g id="edge1" class="edge">
<title>file_entry&#45;&gt;shared_contract</title>
<path fill="none" stroke="#475569" d="M128.73,-191.66C154.4,-181.17 192.2,-165.74 224.96,-152.36"/>
<polygon fill="#475569" stroke="#475569" points="225.77,-154.67 231.33,-149.76 223.92,-150.14 225.77,-154.67"/>
</g>
<!-- repl_entry -->
<g id="node2" class="node">
<title>repl_entry</title>
<path fill="white" stroke="#64748b" d="M121.45,-144.6C121.45,-144.6 73.55,-144.6 73.55,-144.6 67.55,-144.6 61.55,-138.6 61.55,-132.6 61.55,-132.6 61.55,-117.39 61.55,-117.39 61.55,-111.39 67.55,-105.39 73.55,-105.39 73.55,-105.39 121.45,-105.39 121.45,-105.39 127.45,-105.39 133.45,-111.39 133.45,-117.39 133.45,-117.39 133.45,-132.6 133.45,-132.6 133.45,-138.6 127.45,-144.6 121.45,-144.6"/>
<text xml:space="preserve" text-anchor="middle" x="97.5" y="-127.67" font-family="Pretendard" font-size="11.00">REPL 입력</text>
<text xml:space="preserve" text-anchor="middle" x="97.5" y="-113.42" font-family="Pretendard" font-size="11.00">console</text>
</g>
<!-- repl_entry&#45;&gt;shared_contract -->
<g id="edge2" class="edge">
<title>repl_entry&#45;&gt;shared_contract</title>
<path fill="none" stroke="#475569" d="M133.53,-125C158.81,-125 193.74,-125 224.37,-125"/>
<polygon fill="#475569" stroke="#475569" points="224.37,-127.45 231.37,-125 224.37,-122.55 224.37,-127.45"/>
</g>
<!-- tcp_entry -->
<g id="node3" class="node">
<title>tcp_entry</title>
<path fill="white" stroke="#64748b" d="M118.08,-65.61C118.08,-65.61 76.92,-65.61 76.92,-65.61 70.92,-65.61 64.92,-59.61 64.92,-53.61 64.92,-53.61 64.92,-38.39 64.92,-38.39 64.92,-32.39 70.92,-26.39 76.92,-26.39 76.92,-26.39 118.08,-26.39 118.08,-26.39 124.08,-26.39 130.08,-32.39 130.08,-38.39 130.08,-38.39 130.08,-53.61 130.08,-53.61 130.08,-59.61 124.08,-65.61 118.08,-65.61"/>
<text xml:space="preserve" text-anchor="middle" x="97.5" y="-48.67" font-family="Pretendard" font-size="11.00">TCP 입력</text>
<text xml:space="preserve" text-anchor="middle" x="97.5" y="-34.42" font-family="Pretendard" font-size="11.00">JSONL</text>
</g>
<!-- tcp_entry&#45;&gt;shared_contract -->
<g id="edge3" class="edge">
<title>tcp_entry&#45;&gt;shared_contract</title>
<path fill="none" stroke="#475569" d="M130.45,-59.05C156.08,-69.51 192.94,-84.57 224.98,-97.65"/>
<polygon fill="#475569" stroke="#475569" points="223.78,-99.81 231.19,-100.18 225.63,-95.27 223.78,-99.81"/>
</g>
<!-- impl -->
<g id="node5" class="node">
<title>impl</title>
<path fill="white" stroke="#7dd3fc" d="M522.57,-144.6C522.57,-144.6 419.91,-144.6 419.91,-144.6 413.91,-144.6 407.91,-138.6 407.91,-132.6 407.91,-132.6 407.91,-117.39 407.91,-117.39 407.91,-111.39 413.91,-105.39 419.91,-105.39 419.91,-105.39 522.57,-105.39 522.57,-105.39 528.57,-105.39 534.57,-111.39 534.57,-117.39 534.57,-117.39 534.57,-132.6 534.57,-132.6 534.57,-138.6 528.57,-144.6 522.57,-144.6"/>
<text xml:space="preserve" text-anchor="middle" x="471.24" y="-127.67" font-family="Pretendard" font-size="11.00">선택된 처리 구현체</text>
<text xml:space="preserve" text-anchor="middle" x="471.24" y="-113.42" font-family="Pretendard" font-size="11.00">Engine / REPL / Mock</text>
</g>
<!-- shared_contract&#45;&gt;impl -->
<g id="edge4" class="edge">
<title>shared_contract&#45;&gt;impl</title>
<path fill="none" stroke="#475569" d="M353.15,-125C367.92,-125 383.9,-125 399.18,-125"/>
<polygon fill="#475569" stroke="#475569" points="399.07,-127.45 406.07,-125 399.07,-122.55 399.07,-127.45"/>
</g>
<!-- db -->
<g id="node6" class="node">
<title>db</title>
<path fill="#ffffff" stroke="#cbd5e1" d="M711.86,-95.61C711.86,-95.61 651.94,-95.61 651.94,-95.61 645.94,-95.61 639.94,-89.61 639.94,-83.61 639.94,-83.61 639.94,-68.39 639.94,-68.39 639.94,-62.39 645.94,-56.39 651.94,-56.39 651.94,-56.39 711.86,-56.39 711.86,-56.39 717.86,-56.39 723.86,-62.39 723.86,-68.39 723.86,-68.39 723.86,-83.61 723.86,-83.61 723.86,-89.61 717.86,-95.61 711.86,-95.61"/>
<text xml:space="preserve" text-anchor="middle" x="681.9" y="-78.67" font-family="Pretendard" font-size="11.00">DB BlackBox</text>
<text xml:space="preserve" text-anchor="middle" x="681.9" y="-66.67" font-family="Pretendard" font-size="11.00">SQL 실행</text>
</g>
<!-- impl&#45;&gt;db -->
<g id="edge5" class="edge">
<title>impl&#45;&gt;db</title>
<path fill="none" stroke="#475569" d="M534.84,-110.3C565.79,-103.03 602.59,-94.39 631.52,-87.6"/>
<polygon fill="#475569" stroke="#475569" points="631.73,-90.06 637.98,-86.08 630.61,-85.29 631.73,-90.06"/>
<text xml:space="preserve" text-anchor="middle" x="579.57" y="-105.18" font-family="Pretendard" font-size="10.00">SQL</text>
</g>
<!-- response -->
<g id="node7" class="node">
<title>response</title>
<path fill="#f8fafc" stroke="#cbd5e1" d="M727.23,-174.6C727.23,-174.6 636.57,-174.6 636.57,-174.6 630.57,-174.6 624.57,-168.6 624.57,-162.6 624.57,-162.6 624.57,-147.4 624.57,-147.4 624.57,-141.4 630.57,-135.4 636.57,-135.4 636.57,-135.4 727.23,-135.4 727.23,-135.4 733.23,-135.4 739.23,-141.4 739.23,-147.4 739.23,-147.4 739.23,-162.6 739.23,-162.6 739.23,-168.6 733.23,-174.6 727.23,-174.6"/>
<text xml:space="preserve" text-anchor="middle" x="681.9" y="-157.68" font-family="Pretendard" font-size="11.00">외부 응답 형식</text>
<text xml:space="preserve" text-anchor="middle" x="681.9" y="-143.43" font-family="Pretendard" font-size="11.00">console / TCP / test</text>
</g>
<!-- impl&#45;&gt;response -->
<g id="edge6" class="edge">
<title>impl&#45;&gt;response</title>
<path fill="none" stroke="#475569" stroke-dasharray="5,2" d="M534.84,-134C560.52,-137.69 590.22,-141.96 616.12,-145.69"/>
<polygon fill="#475569" stroke="#475569" points="615.6,-148.09 622.88,-146.66 616.3,-143.24 615.6,-148.09"/>
<text xml:space="preserve" text-anchor="middle" x="579.57" y="-144.44" font-family="Pretendard" font-size="10.00">callback</text>
</g>
</g>
</svg>
