<?xml version="1.0" encoding="UTF-8" standalone="no"?>
<!DOCTYPE svg PUBLIC "-//W3C//DTD SVG 1.1//EN"
 "http://www.w3.org/Graphics/SVG/1.1/DTD/svg11.dtd">
<!-- Generated by graphviz version 14.1.5 (20260411.2331)
 -->
<!-- Title: TcpMultiRequestInflightFlow Pages: 1 -->
<svg width="737pt" height="575pt"
 viewBox="0.00 0.00 737.00 575.00" xmlns="http://www.w3.org/2000/svg" xmlns:xlink="http://www.w3.org/1999/xlink">
<g id="graph0" class="graph" transform="scale(1 1) rotate(0) translate(14.4 560.24)">
<title>TcpMultiRequestInflightFlow</title>
<g id="clust1" class="cluster">
<title>cluster_client</title>
<path fill="#f8fafc" stroke="#cbd5e1" d="M102,-451.38C102,-451.38 548,-451.38 548,-451.38 554,-451.38 560,-457.38 560,-463.38 560,-463.38 560,-525.84 560,-525.84 560,-531.84 554,-537.84 548,-537.84 548,-537.84 102,-537.84 102,-537.84 96,-537.84 90,-531.84 90,-525.84 90,-525.84 90,-463.38 90,-463.38 90,-457.38 96,-451.38 102,-451.38"/>
<text xml:space="preserve" text-anchor="middle" x="325" y="-521.49" font-family="Pretendard" font-size="13.00">client</text>
</g>
<g id="clust2" class="cluster">
<title>cluster_tcp</title>
<path fill="#eff6ff" stroke="#93c5fd" d="M20,-189.96C20,-189.96 563,-189.96 563,-189.96 569,-189.96 575,-195.96 575,-201.96 575,-201.96 575,-431.38 575,-431.38 575,-437.38 569,-443.38 563,-443.38 563,-443.38 20,-443.38 20,-443.38 14,-443.38 8,-437.38 8,-431.38 8,-431.38 8,-201.96 8,-201.96 8,-195.96 14,-189.96 20,-189.96"/>
<text xml:space="preserve" text-anchor="middle" x="291.5" y="-427.03" font-family="Pretendard" font-size="13.00">TCPConnection</text>
</g>
<g id="clust3" class="cluster">
<title>cluster_processor</title>
<path fill="#f0f9ff" stroke="#bae6fd" d="M157,-8C157,-8 389,-8 389,-8 395,-8 401,-14 401,-20 401,-20 401,-169.96 401,-169.96 401,-175.96 395,-181.96 389,-181.96 389,-181.96 157,-181.96 157,-181.96 151,-181.96 145,-175.96 145,-169.96 145,-169.96 145,-20 145,-20 145,-14 151,-8 157,-8"/>
<text xml:space="preserve" text-anchor="middle" x="273" y="-165.61" font-family="Pretendard" font-size="13.00">CmdProcessor</text>
</g>
<!-- send_r1 -->
<g id="node1" class="node">
<title>send_r1</title>
<path fill="white" stroke="#64748b" d="M154.08,-502.34C154.08,-502.34 115.92,-502.34 115.92,-502.34 109.92,-502.34 103.92,-496.34 103.92,-490.34 103.92,-490.34 103.92,-477.38 103.92,-477.38 103.92,-471.38 109.92,-465.38 115.92,-465.38 115.92,-465.38 154.08,-465.38 154.08,-465.38 160.08,-465.38 166.08,-471.38 166.08,-477.38 166.08,-477.38 166.08,-490.34 166.08,-490.34 166.08,-496.34 160.08,-502.34 154.08,-502.34"/>
<text xml:space="preserve" text-anchor="middle" x="135" y="-485.41" font-family="Pretendard" font-size="11.00">send r1</text>
<text xml:space="preserve" text-anchor="middle" x="135" y="-473.41" font-family="Pretendard" font-size="11.00">sql delay</text>
</g>
<!-- read_r1 -->
<g id="node5" class="node">
<title>read_r1</title>
<path fill="white" stroke="#64748b" d="M116.2,-407.4C116.2,-407.4 33.79,-407.4 33.79,-407.4 27.79,-407.4 21.8,-401.4 21.8,-395.4 21.8,-395.4 21.8,-383.4 21.8,-383.4 21.8,-377.4 27.8,-371.4 33.8,-371.4 33.8,-371.4 116.2,-371.4 116.2,-371.4 122.2,-371.4 128.2,-377.4 128.2,-383.4 128.2,-383.4 128.2,-395.4 128.2,-395.4 128.2,-401.4 122.2,-407.4 116.2,-407.4"/>
<text xml:space="preserve" text-anchor="middle" x="75" y="-384.95" font-family="Pretendard" font-size="11.00">read JSON line r1</text>
</g>
<!-- send_r1&#45;&gt;read_r1 -->
<g id="edge1" class="edge">
<title>send_r1&#45;&gt;read_r1</title>
<path fill="none" stroke="#475569" d="M116.06,-465.2C116.06,-465.2 116.06,-416.22 116.06,-416.22"/>
<polygon fill="#475569" stroke="#475569" points="118.51,-416.22 116.06,-409.22 113.61,-416.22 118.51,-416.22"/>
</g>
<!-- send_r2 -->
<g id="node2" class="node">
<title>send_r2</title>
<path fill="white" stroke="#64748b" d="M250.08,-502.34C250.08,-502.34 217.92,-502.34 217.92,-502.34 211.92,-502.34 205.92,-496.34 205.92,-490.34 205.92,-490.34 205.92,-477.38 205.92,-477.38 205.92,-471.38 211.92,-465.38 217.92,-465.38 217.92,-465.38 250.08,-465.38 250.08,-465.38 256.08,-465.38 262.08,-471.38 262.08,-477.38 262.08,-477.38 262.08,-490.34 262.08,-490.34 262.08,-496.34 256.08,-502.34 250.08,-502.34"/>
<text xml:space="preserve" text-anchor="middle" x="234" y="-485.41" font-family="Pretendard" font-size="11.00">send r2</text>
<text xml:space="preserve" text-anchor="middle" x="234" y="-473.41" font-family="Pretendard" font-size="11.00">sql fast</text>
</g>
<!-- read_r2 -->
<g id="node8" class="node">
<title>read_r2</title>
<path fill="white" stroke="#64748b" d="M262.2,-407.4C262.2,-407.4 179.8,-407.4 179.8,-407.4 173.8,-407.4 167.8,-401.4 167.8,-395.4 167.8,-395.4 167.8,-383.4 167.8,-383.4 167.8,-377.4 173.8,-371.4 179.8,-371.4 179.8,-371.4 262.2,-371.4 262.2,-371.4 268.2,-371.4 274.2,-377.4 274.2,-383.4 274.2,-383.4 274.2,-395.4 274.2,-395.4 274.2,-401.4 268.2,-407.4 262.2,-407.4"/>
<text xml:space="preserve" text-anchor="middle" x="221" y="-384.95" font-family="Pretendard" font-size="11.00">read JSON line r2</text>
</g>
<!-- send_r2&#45;&gt;read_r2 -->
<g id="edge5" class="edge">
<title>send_r2&#45;&gt;read_r2</title>
<path fill="none" stroke="#475569" d="M234,-465.2C234,-465.2 234,-416.22 234,-416.22"/>
<polygon fill="#475569" stroke="#475569" points="236.45,-416.22 234,-409.22 231.55,-416.22 236.45,-416.22"/>
</g>
<!-- recv_r2 -->
<g id="node3" class="node">
<title>recv_r2</title>
<path fill="white" stroke="#64748b" d="M391.95,-502.34C391.95,-502.34 314.05,-502.34 314.05,-502.34 308.05,-502.34 302.05,-496.34 302.05,-490.34 302.05,-490.34 302.05,-477.38 302.05,-477.38 302.05,-471.38 308.05,-465.38 314.05,-465.38 314.05,-465.38 391.95,-465.38 391.95,-465.38 397.95,-465.38 403.95,-471.38 403.95,-477.38 403.95,-477.38 403.95,-490.34 403.95,-490.34 403.95,-496.34 397.95,-502.34 391.95,-502.34"/>
<text xml:space="preserve" text-anchor="middle" x="353" y="-485.41" font-family="Pretendard" font-size="11.00">receive response</text>
<text xml:space="preserve" text-anchor="middle" x="353" y="-473.41" font-family="Pretendard" font-size="11.00">id=r2</text>
</g>
<!-- recv_r1 -->
<g id="node4" class="node">
<title>recv_r1</title>
<path fill="white" stroke="#64748b" d="M533.96,-502.34C533.96,-502.34 456.05,-502.34 456.05,-502.34 450.05,-502.34 444.05,-496.34 444.05,-490.34 444.05,-490.34 444.05,-477.38 444.05,-477.38 444.05,-471.38 450.05,-465.38 456.05,-465.38 456.05,-465.38 533.96,-465.38 533.96,-465.38 539.96,-465.38 545.96,-471.38 545.96,-477.38 545.96,-477.38 545.96,-490.34 545.96,-490.34 545.96,-496.34 539.96,-502.34 533.96,-502.34"/>
<text xml:space="preserve" text-anchor="middle" x="495" y="-485.41" font-family="Pretendard" font-size="11.00">receive response</text>
<text xml:space="preserve" text-anchor="middle" x="495" y="-473.41" font-family="Pretendard" font-size="11.00">id=r1</text>
</g>
<!-- add_r1 -->
<g id="node6" class="node">
<title>add_r1</title>
<path fill="white" stroke="#64748b" d="M102.2,-323.92C102.2,-323.92 55.8,-323.92 55.8,-323.92 49.79,-323.92 43.8,-317.92 43.8,-311.92 43.8,-311.92 43.8,-298.96 43.8,-298.96 43.8,-292.96 49.8,-286.96 55.8,-286.96 55.8,-286.96 102.2,-286.96 102.2,-286.96 108.2,-286.96 114.2,-292.96 114.2,-298.96 114.2,-298.96 114.2,-311.92 114.2,-311.92 114.2,-317.92 108.2,-323.92 102.2,-323.92"/>
<text xml:space="preserve" text-anchor="middle" x="79" y="-306.99" font-family="Pretendard" font-size="11.00">inflight_ids</text>
<text xml:space="preserve" text-anchor="middle" x="79" y="-294.99" font-family="Pretendard" font-size="11.00">[r1]</text>
</g>
<!-- read_r1&#45;&gt;add_r1 -->
<g id="edge2" class="edge">
<title>read_r1&#45;&gt;add_r1</title>
<path fill="none" stroke="#475569" d="M79,-371.18C79,-371.18 79,-332.72 79,-332.72"/>
<polygon fill="#475569" stroke="#475569" points="81.45,-332.72 79,-325.72 76.55,-332.72 81.45,-332.72"/>
</g>
<!-- submit_r1 -->
<g id="node7" class="node">
<title>submit_r1</title>
<path fill="white" stroke="#64748b" d="M134.2,-239.96C134.2,-239.96 93.8,-239.96 93.8,-239.96 87.8,-239.96 81.8,-233.96 81.8,-227.96 81.8,-227.96 81.8,-215.96 81.8,-215.96 81.8,-209.96 87.8,-203.96 93.8,-203.96 93.8,-203.96 134.2,-203.96 134.2,-203.96 140.2,-203.96 146.2,-209.96 146.2,-215.96 146.2,-215.96 146.2,-227.96 146.2,-227.96 146.2,-233.96 140.2,-239.96 134.2,-239.96"/>
<text xml:space="preserve" text-anchor="middle" x="114" y="-217.51" font-family="Pretendard" font-size="11.00">submit r1</text>
</g>
<!-- add_r1&#45;&gt;submit_r1 -->
<g id="edge3" class="edge">
<title>add_r1&#45;&gt;submit_r1</title>
<path fill="none" stroke="#475569" d="M98,-286.5C98,-286.5 98,-248.77 98,-248.77"/>
<polygon fill="#475569" stroke="#475569" points="100.45,-248.77 98,-241.77 95.55,-248.77 100.45,-248.77"/>
</g>
<!-- run_r1 -->
<g id="node15" class="node">
<title>run_r1</title>
<path fill="white" stroke="#64748b" d="M219.58,-146.46C219.58,-146.46 178.42,-146.46 178.42,-146.46 172.42,-146.46 166.42,-140.46 166.42,-134.46 166.42,-134.46 166.42,-117 166.42,-117 166.42,-111 172.42,-105 178.42,-105 178.42,-105 219.58,-105 219.58,-105 225.58,-105 231.58,-111 231.58,-117 231.58,-117 231.58,-134.46 231.58,-134.46 231.58,-140.46 225.58,-146.46 219.58,-146.46"/>
<text xml:space="preserve" text-anchor="middle" x="199" y="-129.53" font-family="Pretendard" font-size="11.00">r1 처리 중</text>
<text xml:space="preserve" text-anchor="middle" x="199" y="-115.28" font-family="Pretendard" font-size="11.00">느린 요청</text>
</g>
<!-- submit_r1&#45;&gt;run_r1 -->
<g id="edge4" class="edge">
<title>submit_r1&#45;&gt;run_r1</title>
<path fill="none" stroke="#475569" d="M146.65,-222C171.58,-222 201.69,-222 201.69,-222 201.69,-222 201.69,-155.13 201.69,-155.13"/>
<polygon fill="#475569" stroke="#475569" points="204.14,-155.13 201.69,-148.13 199.24,-155.13 204.14,-155.13"/>
</g>
<!-- add_r2 -->
<g id="node9" class="node">
<title>add_r2</title>
<path fill="white" stroke="#64748b" d="M230.2,-323.92C230.2,-323.92 183.8,-323.92 183.8,-323.92 177.8,-323.92 171.8,-317.92 171.8,-311.92 171.8,-311.92 171.8,-298.96 171.8,-298.96 171.8,-292.96 177.8,-286.96 183.8,-286.96 183.8,-286.96 230.2,-286.96 230.2,-286.96 236.2,-286.96 242.2,-292.96 242.2,-298.96 242.2,-298.96 242.2,-311.92 242.2,-311.92 242.2,-317.92 236.2,-323.92 230.2,-323.92"/>
<text xml:space="preserve" text-anchor="middle" x="207" y="-306.99" font-family="Pretendard" font-size="11.00">inflight_ids</text>
<text xml:space="preserve" text-anchor="middle" x="207" y="-294.99" font-family="Pretendard" font-size="11.00">[r2, r1]</text>
</g>
<!-- read_r2&#45;&gt;add_r2 -->
<g id="edge6" class="edge">
<title>read_r2&#45;&gt;add_r2</title>
<path fill="none" stroke="#475569" d="M207,-371.18C207,-371.18 207,-332.72 207,-332.72"/>
<polygon fill="#475569" stroke="#475569" points="209.45,-332.72 207,-325.72 204.55,-332.72 209.45,-332.72"/>
</g>
<!-- submit_r2 -->
<g id="node10" class="node">
<title>submit_r2</title>
<path fill="white" stroke="#64748b" d="M284.2,-239.96C284.2,-239.96 243.8,-239.96 243.8,-239.96 237.8,-239.96 231.8,-233.96 231.8,-227.96 231.8,-227.96 231.8,-215.96 231.8,-215.96 231.8,-209.96 237.8,-203.96 243.8,-203.96 243.8,-203.96 284.2,-203.96 284.2,-203.96 290.2,-203.96 296.2,-209.96 296.2,-215.96 296.2,-215.96 296.2,-227.96 296.2,-227.96 296.2,-233.96 290.2,-239.96 284.2,-239.96"/>
<text xml:space="preserve" text-anchor="middle" x="264" y="-217.51" font-family="Pretendard" font-size="11.00">submit r2</text>
</g>
<!-- add_r2&#45;&gt;submit_r2 -->
<g id="edge7" class="edge">
<title>add_r2&#45;&gt;submit_r2</title>
<path fill="none" stroke="#475569" d="M237,-286.5C237,-286.5 237,-248.77 237,-248.77"/>
<polygon fill="#475569" stroke="#475569" points="239.45,-248.77 237,-241.77 234.55,-248.77 239.45,-248.77"/>
</g>
<!-- run_r2 -->
<g id="node16" class="node">
<title>run_r2</title>
<path fill="white" stroke="#64748b" d="M340.08,-146.46C340.08,-146.46 301.92,-146.46 301.92,-146.46 295.92,-146.46 289.92,-140.46 289.92,-134.46 289.92,-134.46 289.92,-117 289.92,-117 289.92,-111 295.92,-105 301.92,-105 301.92,-105 340.08,-105 340.08,-105 346.08,-105 352.08,-111 352.08,-117 352.08,-117 352.08,-134.46 352.08,-134.46 352.08,-140.46 346.08,-146.46 340.08,-146.46"/>
<text xml:space="preserve" text-anchor="middle" x="321" y="-129.53" font-family="Pretendard" font-size="11.00">r2 처리</text>
<text xml:space="preserve" text-anchor="middle" x="321" y="-115.28" font-family="Pretendard" font-size="11.00">빠른 요청</text>
</g>
<!-- submit_r2&#45;&gt;run_r2 -->
<g id="edge8" class="edge">
<title>submit_r2&#45;&gt;run_r2</title>
<path fill="none" stroke="#475569" d="M271.38,-203.91C271.38,-176.11 271.38,-126 271.38,-126 271.38,-126 281.06,-126 281.06,-126"/>
<polygon fill="#475569" stroke="#475569" points="281.06,-128.45 288.06,-126 281.06,-123.55 281.06,-128.45"/>
</g>
<!-- write_r2 -->
<g id="node11" class="node">
<title>write_r2</title>
<path fill="white" stroke="#64748b" d="M405.7,-407.88C405.7,-407.88 326.3,-407.88 326.3,-407.88 320.3,-407.88 314.3,-401.88 314.3,-395.88 314.3,-395.88 314.3,-382.92 314.3,-382.92 314.3,-376.92 320.3,-370.92 326.3,-370.92 326.3,-370.92 405.7,-370.92 405.7,-370.92 411.7,-370.92 417.7,-376.92 417.7,-382.92 417.7,-382.92 417.7,-395.88 417.7,-395.88 417.7,-401.88 411.7,-407.88 405.7,-407.88"/>
<text xml:space="preserve" text-anchor="middle" x="366" y="-390.95" font-family="Pretendard" font-size="11.00">write response r2</text>
<text xml:space="preserve" text-anchor="middle" x="366" y="-378.95" font-family="Pretendard" font-size="11.00">remove r2</text>
</g>
<!-- write_r2&#45;&gt;recv_r2 -->
<g id="edge11" class="edge">
<title>write_r2&#45;&gt;recv_r2</title>
<path fill="none" stroke="#475569" d="M359.12,-408.06C359.12,-408.06 359.12,-456.4 359.12,-456.4"/>
<polygon fill="#475569" stroke="#475569" points="356.68,-456.4 359.13,-463.4 361.58,-456.4 356.68,-456.4"/>
</g>
<!-- left_r1 -->
<g id="node12" class="node">
<title>left_r1</title>
<path fill="white" stroke="#64748b" d="M340.2,-323.92C340.2,-323.92 293.8,-323.92 293.8,-323.92 287.8,-323.92 281.8,-317.92 281.8,-311.92 281.8,-311.92 281.8,-298.96 281.8,-298.96 281.8,-292.96 287.8,-286.96 293.8,-286.96 293.8,-286.96 340.2,-286.96 340.2,-286.96 346.2,-286.96 352.2,-292.96 352.2,-298.96 352.2,-298.96 352.2,-311.92 352.2,-311.92 352.2,-317.92 346.2,-323.92 340.2,-323.92"/>
<text xml:space="preserve" text-anchor="middle" x="317" y="-306.99" font-family="Pretendard" font-size="11.00">inflight_ids</text>
<text xml:space="preserve" text-anchor="middle" x="317" y="-294.99" font-family="Pretendard" font-size="11.00">[r1]</text>
</g>
<!-- write_r2&#45;&gt;left_r1 -->
<g id="edge12" class="edge">
<title>write_r2&#45;&gt;left_r1</title>
<path fill="none" stroke="#475569" d="M333.25,-370.77C333.25,-370.77 333.25,-332.83 333.25,-332.83"/>
<polygon fill="#475569" stroke="#475569" points="335.7,-332.83 333.25,-325.83 330.8,-332.83 335.7,-332.83"/>
</g>
<!-- write_r1 -->
<g id="node13" class="node">
<title>write_r1</title>
<path fill="white" stroke="#64748b" d="M548.71,-407.88C548.71,-407.88 469.3,-407.88 469.3,-407.88 463.3,-407.88 457.3,-401.88 457.3,-395.88 457.3,-395.88 457.3,-382.92 457.3,-382.92 457.3,-376.92 463.3,-370.92 469.3,-370.92 469.3,-370.92 548.71,-370.92 548.71,-370.92 554.71,-370.92 560.71,-376.92 560.71,-382.92 560.71,-382.92 560.71,-395.88 560.71,-395.88 560.71,-401.88 554.71,-407.88 548.71,-407.88"/>
<text xml:space="preserve" text-anchor="middle" x="509" y="-390.95" font-family="Pretendard" font-size="11.00">write response r1</text>
<text xml:space="preserve" text-anchor="middle" x="509" y="-378.95" font-family="Pretendard" font-size="11.00">remove r1</text>
</g>
<!-- write_r1&#45;&gt;recv_r1 -->
<g id="edge15" class="edge">
<title>write_r1&#45;&gt;recv_r1</title>
<path fill="none" stroke="#475569" d="M501.62,-408.06C501.62,-408.06 501.62,-456.4 501.62,-456.4"/>
<polygon fill="#475569" stroke="#475569" points="499.18,-456.4 501.63,-463.4 504.08,-456.4 499.18,-456.4"/>
</g>
<!-- empty -->
<g id="node14" class="node">
<title>empty</title>
<path fill="white" stroke="#64748b" d="M450.2,-323.92C450.2,-323.92 403.8,-323.92 403.8,-323.92 397.8,-323.92 391.8,-317.92 391.8,-311.92 391.8,-311.92 391.8,-298.96 391.8,-298.96 391.8,-292.96 397.8,-286.96 403.8,-286.96 403.8,-286.96 450.2,-286.96 450.2,-286.96 456.2,-286.96 462.2,-292.96 462.2,-298.96 462.2,-298.96 462.2,-311.92 462.2,-311.92 462.2,-317.92 456.2,-323.92 450.2,-323.92"/>
<text xml:space="preserve" text-anchor="middle" x="427" y="-306.99" font-family="Pretendard" font-size="11.00">inflight_ids</text>
<text xml:space="preserve" text-anchor="middle" x="427" y="-294.99" font-family="Pretendard" font-size="11.00">[]</text>
</g>
<!-- write_r1&#45;&gt;empty -->
<g id="edge16" class="edge">
<title>write_r1&#45;&gt;empty</title>
<path fill="none" stroke="#475569" d="M456.91,-389C453.08,-389 450.67,-389 450.67,-389 450.67,-389 450.67,-332.91 450.67,-332.91"/>
<polygon fill="#475569" stroke="#475569" points="453.12,-332.91 450.67,-325.91 448.22,-332.91 453.12,-332.91"/>
</g>
<!-- cb_r1 -->
<g id="node18" class="node">
<title>cb_r1</title>
<path fill="white" stroke="#64748b" d="M240.83,-58C240.83,-58 171.17,-58 171.17,-58 165.17,-58 159.17,-52 159.17,-46 159.17,-46 159.17,-34 159.17,-34 159.17,-28 165.17,-22 171.17,-22 171.17,-22 240.83,-22 240.83,-22 246.83,-22 252.83,-28 252.83,-34 252.83,-34 252.83,-46 252.83,-46 252.83,-52 246.83,-58 240.83,-58"/>
<text xml:space="preserve" text-anchor="middle" x="206" y="-36.67" font-family="Pretendard" font-size="11.00">callback r1 나중</text>
</g>
<!-- run_r1&#45;&gt;cb_r1 -->
<g id="edge13" class="edge">
<title>run_r1&#45;&gt;cb_r1</title>
<path fill="none" stroke="#475569" d="M199,-104.54C199,-104.54 199,-66.85 199,-66.85"/>
<polygon fill="#475569" stroke="#475569" points="201.45,-66.85 199,-59.85 196.55,-66.85 201.45,-66.85"/>
</g>
<!-- cb_r2 -->
<g id="node17" class="node">
<title>cb_r2</title>
<path fill="white" stroke="#64748b" d="M374.83,-58C374.83,-58 305.17,-58 305.17,-58 299.17,-58 293.17,-52 293.17,-46 293.17,-46 293.17,-34 293.17,-34 293.17,-28 299.17,-22 305.17,-22 305.17,-22 374.83,-22 374.83,-22 380.83,-22 386.83,-28 386.83,-34 386.83,-34 386.83,-46 386.83,-46 386.83,-52 380.83,-58 374.83,-58"/>
<text xml:space="preserve" text-anchor="middle" x="340" y="-36.67" font-family="Pretendard" font-size="11.00">callback r2 먼저</text>
</g>
<!-- run_r2&#45;&gt;cb_r2 -->
<g id="edge9" class="edge">
<title>run_r2&#45;&gt;cb_r2</title>
<path fill="none" stroke="#475569" d="M322.62,-104.54C322.62,-104.54 322.62,-66.85 322.62,-66.85"/>
<polygon fill="#475569" stroke="#475569" points="325.08,-66.85 322.63,-59.85 320.18,-66.85 325.08,-66.85"/>
</g>
<!-- cb_r2&#45;&gt;write_r2 -->
<g id="edge10" class="edge">
<title>cb_r2&#45;&gt;write_r2</title>
<path fill="none" stroke="#475569" d="M369.52,-58.29C369.52,-58.29 369.52,-361.93 369.52,-361.93"/>
<polygon fill="#475569" stroke="#475569" points="367.07,-361.93 369.52,-368.93 371.97,-361.93 367.07,-361.93"/>
</g>
<!-- cb_r1&#45;&gt;write_r1 -->
<g id="edge14" class="edge">
<title>cb_r1&#45;&gt;write_r1</title>
<path fill="none" stroke="#475569" d="M242.31,-58.06C242.31,-69.44 242.31,-82 242.31,-82 242.31,-82 511.46,-82 511.46,-82 511.46,-82 511.46,-362.12 511.46,-362.12"/>
<polygon fill="#475569" stroke="#475569" points="509.01,-362.12 511.46,-369.12 513.91,-362.12 509.01,-362.12"/>
</g>
<!-- note -->
<g id="node19" class="node">
<title>note</title>
<path fill="#fefce8" stroke="#facc15" d="M696.08,-504.59C696.08,-504.59 597.92,-504.59 597.92,-504.59 591.92,-504.59 585.92,-498.59 585.92,-492.59 585.92,-492.59 585.92,-475.13 585.92,-475.13 585.92,-469.13 591.92,-463.13 597.92,-463.13 597.92,-463.13 696.08,-463.13 696.08,-463.13 702.08,-463.13 708.08,-469.13 708.08,-475.13 708.08,-475.13 708.08,-492.59 708.08,-492.59 708.08,-498.59 702.08,-504.59 696.08,-504.59"/>
<text xml:space="preserve" text-anchor="middle" x="647" y="-487.66" font-family="Pretendard" font-size="11.00">응답 순서는 완료 순서</text>
<text xml:space="preserve" text-anchor="middle" x="647" y="-473.41" font-family="Pretendard" font-size="11.00">클라이언트는 id로 매칭</text>
</g>
<!-- note&#45;&gt;recv_r2 -->
<g id="edge17" class="edge">
<title>note&#45;&gt;recv_r2</title>
<path fill="none" stroke="#475569" stroke-dasharray="5,2" d="M647,-504.81C647,-514.11 647,-523 647,-523 647,-523 353,-523 353,-523 353,-523 353,-511.03 353,-511.03"/>
<polygon fill="#475569" stroke="#475569" points="355.45,-511.03 353,-504.03 350.55,-511.03 355.45,-511.03"/>
</g>
<!-- note&#45;&gt;recv_r1 -->
<g id="edge18" class="edge">
<title>note&#45;&gt;recv_r1</title>
<path fill="none" stroke="#475569" stroke-dasharray="5,2" d="M585.61,-484C585.61,-484 554.9,-484 554.9,-484"/>
<polygon fill="#475569" stroke="#475569" points="554.9,-481.55 547.9,-484 554.9,-486.45 554.9,-481.55"/>
</g>
</g>
</svg>
