<?xml version="1.0" encoding="UTF-8" standalone="no"?>
<!DOCTYPE svg PUBLIC "-//W3C//DTD SVG 1.1//EN"
 "http://www.w3.org/Graphics/SVG/1.1/DTD/svg11.dtd">
<!-- Generated by graphviz version 14.1.5 (20260411.2331)
 -->
<!-- Title: TcpCmdProcessorStateLifecycle Pages: 1 -->
<svg width="1240pt" height="876pt"
 viewBox="0.00 0.00 1240.00 876.00" xmlns="http://www.w3.org/2000/svg" xmlns:xlink="http://www.w3.org/1999/xlink">
<g id="graph0" class="graph" transform="scale(1 1) rotate(0) translate(14.4 861.65)">
<title>TcpCmdProcessorStateLifecycle</title>
<g id="clust1" class="cluster">
<title>cluster_server</title>
<path fill="#eff6ff" stroke="#93c5fd" d="M20,-8C20,-8 1191,-8 1191,-8 1197,-8 1203,-14 1203,-20 1203,-20 1203,-827.25 1203,-827.25 1203,-833.25 1197,-839.25 1191,-839.25 1191,-839.25 20,-839.25 20,-839.25 14,-839.25 8,-833.25 8,-827.25 8,-827.25 8,-20 8,-20 8,-14 14,-8 20,-8"/>
<text xml:space="preserve" text-anchor="middle" x="605.5" y="-822.9" font-family="Pretendard" font-size="13.00">TCPCmdProcessor: TCP 서버 / client connection 관리</text>
</g>
<g id="clust2" class="cluster">
<title>cluster_connections</title>
<path fill="#ffffff" stroke="#bfdbfe" d="M38,-422.75C38,-422.75 585,-422.75 585,-422.75 591,-422.75 597,-428.75 597,-434.75 597,-434.75 597,-619.75 597,-619.75 597,-625.75 591,-631.75 585,-631.75 585,-631.75 38,-631.75 38,-631.75 32,-631.75 26,-625.75 26,-619.75 26,-619.75 26,-434.75 26,-434.75 26,-428.75 32,-422.75 38,-422.75"/>
<text xml:space="preserve" text-anchor="middle" x="311.5" y="-616.35" font-family="Pretendard" font-size="12.00">connections: accept된 TCPConnection linked list</text>
</g>
<g id="clust3" class="cluster">
<title>cluster_connection_detail</title>
<path fill="#f8fafc" stroke="#cbd5e1" d="M38,-26C38,-26 559,-26 559,-26 565,-26 571,-32 571,-38 571,-38 571,-380.75 571,-380.75 571,-386.75 565,-392.75 559,-392.75 559,-392.75 38,-392.75 38,-392.75 32,-392.75 26,-386.75 26,-380.75 26,-380.75 26,-38 26,-38 26,-32 32,-26 38,-26"/>
<text xml:space="preserve" text-anchor="middle" x="298.5" y="-377.35" font-family="Pretendard" font-size="12.00">TCPConnection A 상세 상태</text>
</g>
<g id="clust4" class="cluster">
<title>cluster_inflight</title>
<path fill="#ffffff" stroke="#cbd5e1" d="M52,-40C52,-40 545,-40 545,-40 551,-40 557,-46 557,-52 557,-52 557,-152.75 557,-152.75 557,-158.75 551,-164.75 545,-164.75 545,-164.75 52,-164.75 52,-164.75 46,-164.75 40,-158.75 40,-152.75 40,-152.75 40,-52 40,-52 40,-46 46,-40 52,-40"/>
<text xml:space="preserve" text-anchor="middle" x="298.5" y="-149.35" font-family="Pretendard" font-size="12.00">inflight_ids</text>
</g>
<g id="clust5" class="cluster">
<title>cluster_counters</title>
<path fill="#ffffff" stroke="#bae6fd" d="M601,-196.75C601,-196.75 1173,-196.75 1173,-196.75 1179,-196.75 1185,-202.75 1185,-208.75 1185,-208.75 1185,-367.75 1185,-367.75 1185,-373.75 1179,-379.75 1173,-379.75 1173,-379.75 601,-379.75 601,-379.75 595,-379.75 589,-373.75 589,-367.75 589,-367.75 589,-208.75 589,-208.75 589,-202.75 595,-196.75 601,-196.75"/>
<text xml:space="preserve" text-anchor="middle" x="887" y="-364.35" font-family="Pretendard" font-size="12.00">client_counters: client별 connection / in&#45;flight 제한</text>
</g>
<!-- server_state -->
<g id="node1" class="node">
<title>server_state</title>
<path fill="white" stroke="none" d="M94.88,-796.75C94.88,-796.75 39.12,-796.75 39.12,-796.75 33.12,-796.75 27.12,-790.75 27.12,-784.75 27.12,-784.75 27.12,-676.75 27.12,-676.75 27.12,-670.75 33.12,-664.75 39.12,-664.75 39.12,-664.75 94.88,-664.75 94.88,-664.75 100.88,-664.75 106.88,-670.75 106.88,-676.75 106.88,-676.75 106.88,-784.75 106.88,-784.75 106.88,-790.75 100.88,-796.75 94.88,-796.75"/>
<polygon fill="#dbeafe" stroke="none" points="28.12,-769.75 28.12,-795.75 105.88,-795.75 105.88,-769.75 28.12,-769.75"/>
<polygon fill="none" stroke="#64748b" points="28.12,-769.75 28.12,-795.75 105.88,-795.75 105.88,-769.75 28.12,-769.75"/>
<text xml:space="preserve" text-anchor="start" x="36.25" y="-779.3" font-family="Pretendard" font-weight="bold" font-size="11.00">server state</text>
<polygon fill="none" stroke="#64748b" points="28.12,-743.75 28.12,-769.75 105.88,-769.75 105.88,-743.75 28.12,-743.75"/>
<text xml:space="preserve" text-anchor="start" x="47.12" y="-753.75" font-family="Pretendard" font-size="11.00">listen_fd</text>
<polygon fill="none" stroke="#64748b" points="28.12,-717.75 28.12,-743.75 105.88,-743.75 105.88,-717.75 28.12,-717.75"/>
<text xml:space="preserve" text-anchor="start" x="40.38" y="-727.75" font-family="Pretendard" font-size="11.00">actual_port</text>
<polygon fill="none" stroke="#64748b" points="28.12,-691.75 28.12,-717.75 105.88,-717.75 105.88,-691.75 28.12,-691.75"/>
<text xml:space="preserve" text-anchor="start" x="46.75" y="-701.75" font-family="Pretendard" font-size="11.00">stopping</text>
<polygon fill="none" stroke="#64748b" points="28.12,-665.75 28.12,-691.75 105.88,-691.75 105.88,-665.75 28.12,-665.75"/>
<text xml:space="preserve" text-anchor="start" x="35.12" y="-675.75" font-family="Pretendard" font-size="11.00">active_clients</text>
<polygon fill="none" stroke="#64748b" points="27.12,-664.75 27.12,-796.75 106.88,-796.75 106.88,-664.75 27.12,-664.75"/>
</g>
<!-- conn_head -->
<g id="node3" class="node">
<title>conn_head</title>
<path fill="white" stroke="#64748b" d="M82,-533.75C82,-533.75 52,-533.75 52,-533.75 46,-533.75 40,-527.75 40,-521.75 40,-521.75 40,-509.75 40,-509.75 40,-503.75 46,-497.75 52,-497.75 52,-497.75 82,-497.75 82,-497.75 88,-497.75 94,-503.75 94,-509.75 94,-509.75 94,-521.75 94,-521.75 94,-527.75 88,-533.75 82,-533.75"/>
<text xml:space="preserve" text-anchor="middle" x="67" y="-511.3" font-family="Pretendard" font-size="11.00">head</text>
</g>
<!-- server_state&#45;&gt;conn_head -->
<!-- processor_ref -->
<g id="node2" class="node">
<title>processor_ref</title>
<path fill="#f0f9ff" stroke="#7dd3fc" d="M696.45,-748.91C696.45,-748.91 563.55,-748.91 563.55,-748.91 557.55,-748.91 551.55,-742.91 551.55,-736.91 551.55,-736.91 551.55,-724.59 551.55,-724.59 551.55,-718.59 557.55,-712.59 563.55,-712.59 563.55,-712.59 696.45,-712.59 696.45,-712.59 702.45,-712.59 708.45,-718.59 708.45,-724.59 708.45,-724.59 708.45,-736.91 708.45,-736.91 708.45,-742.91 702.45,-748.91 696.45,-748.91"/>
<text xml:space="preserve" text-anchor="middle" x="630" y="-733.42" font-family="Pretendard" font-size="11.00">processor*</text>
<text xml:space="preserve" text-anchor="middle" x="630" y="-721.42" font-family="Pretendard" font-size="11.00">CmdProcessor BlackBox 참조</text>
</g>
<!-- counter_head -->
<g id="node12" class="node">
<title>counter_head</title>
<path fill="white" stroke="#64748b" d="M645,-294.75C645,-294.75 615,-294.75 615,-294.75 609,-294.75 603,-288.75 603,-282.75 603,-282.75 603,-270.75 603,-270.75 603,-264.75 609,-258.75 615,-258.75 615,-258.75 645,-258.75 645,-258.75 651,-258.75 657,-264.75 657,-270.75 657,-270.75 657,-282.75 657,-282.75 657,-288.75 651,-294.75 645,-294.75"/>
<text xml:space="preserve" text-anchor="middle" x="630" y="-272.3" font-family="Pretendard" font-size="11.00">head</text>
</g>
<!-- processor_ref&#45;&gt;counter_head -->
<!-- conn_a -->
<g id="node4" class="node">
<title>conn_a</title>
<path fill="white" stroke="none" d="M262.88,-594.75C262.88,-594.75 177.12,-594.75 177.12,-594.75 171.12,-594.75 165.12,-588.75 165.12,-582.75 165.12,-582.75 165.12,-448.75 165.12,-448.75 165.12,-442.75 171.12,-436.75 177.12,-436.75 177.12,-436.75 262.88,-436.75 262.88,-436.75 268.88,-436.75 274.88,-442.75 274.88,-448.75 274.88,-448.75 274.88,-582.75 274.88,-582.75 274.88,-588.75 268.88,-594.75 262.88,-594.75"/>
<polygon fill="#f8fafc" stroke="none" points="166.12,-567.75 166.12,-593.75 273.88,-593.75 273.88,-567.75 166.12,-567.75"/>
<polygon fill="none" stroke="#64748b" points="166.12,-567.75 166.12,-593.75 273.88,-593.75 273.88,-567.75 166.12,-567.75"/>
<text xml:space="preserve" text-anchor="start" x="173.12" y="-577.3" font-family="Pretendard" font-weight="bold" font-size="11.00">TCPConnection A</text>
<polygon fill="none" stroke="#64748b" points="166.12,-541.75 166.12,-567.75 273.88,-567.75 273.88,-541.75 166.12,-541.75"/>
<text xml:space="preserve" text-anchor="start" x="200.12" y="-551.75" font-family="Pretendard" font-size="11.00">client_fd</text>
<polygon fill="none" stroke="#64748b" points="166.12,-515.75 166.12,-541.75 273.88,-541.75 273.88,-515.75 166.12,-515.75"/>
<text xml:space="preserve" text-anchor="start" x="196.38" y="-525.75" font-family="Pretendard" font-size="11.00">client_key</text>
<polygon fill="none" stroke="#64748b" points="166.12,-489.75 166.12,-515.75 273.88,-515.75 273.88,-489.75 166.12,-489.75"/>
<text xml:space="preserve" text-anchor="start" x="179.12" y="-499.75" font-family="Pretendard" font-size="11.00">inflight_count = 2</text>
<polygon fill="none" stroke="#64748b" points="166.12,-463.75 166.12,-489.75 273.88,-489.75 273.88,-463.75 166.12,-463.75"/>
<text xml:space="preserve" text-anchor="start" x="197.5" y="-473.75" font-family="Pretendard" font-size="11.00">ref_count</text>
<polygon fill="none" stroke="#64748b" points="166.12,-437.75 166.12,-463.75 273.88,-463.75 273.88,-437.75 166.12,-437.75"/>
<text xml:space="preserve" text-anchor="start" x="209.88" y="-447.75" font-family="Pretendard" font-size="11.00">next</text>
<polygon fill="none" stroke="#64748b" points="165.12,-436.75 165.12,-594.75 274.88,-594.75 274.88,-436.75 165.12,-436.75"/>
</g>
<!-- conn_head&#45;&gt;conn_a -->
<g id="edge3" class="edge">
<title>conn_head&#45;&gt;conn_a</title>
<path fill="none" stroke="#475569" d="M94.49,-515.75C115.41,-515.75 136.33,-515.75 157.25,-515.75"/>
<polygon fill="#475569" stroke="#475569" points="157.07,-518.2 164.07,-515.75 157.07,-513.3 157.07,-518.2"/>
</g>
<!-- conn_b -->
<g id="node5" class="node">
<title>conn_b</title>
<path fill="white" stroke="none" d="M445.25,-594.75C445.25,-594.75 358.75,-594.75 358.75,-594.75 352.75,-594.75 346.75,-588.75 346.75,-582.75 346.75,-582.75 346.75,-448.75 346.75,-448.75 346.75,-442.75 352.75,-436.75 358.75,-436.75 358.75,-436.75 445.25,-436.75 445.25,-436.75 451.25,-436.75 457.25,-442.75 457.25,-448.75 457.25,-448.75 457.25,-582.75 457.25,-582.75 457.25,-588.75 451.25,-594.75 445.25,-594.75"/>
<polygon fill="#f8fafc" stroke="none" points="347.75,-567.75 347.75,-593.75 456.25,-593.75 456.25,-567.75 347.75,-567.75"/>
<polygon fill="none" stroke="#64748b" points="347.75,-567.75 347.75,-593.75 456.25,-593.75 456.25,-567.75 347.75,-567.75"/>
<text xml:space="preserve" text-anchor="start" x="354.75" y="-577.3" font-family="Pretendard" font-weight="bold" font-size="11.00">TCPConnection B</text>
<polygon fill="none" stroke="#64748b" points="347.75,-541.75 347.75,-567.75 456.25,-567.75 456.25,-541.75 347.75,-541.75"/>
<text xml:space="preserve" text-anchor="start" x="382.12" y="-551.75" font-family="Pretendard" font-size="11.00">client_fd</text>
<polygon fill="none" stroke="#64748b" points="347.75,-515.75 347.75,-541.75 456.25,-541.75 456.25,-515.75 347.75,-515.75"/>
<text xml:space="preserve" text-anchor="start" x="378.38" y="-525.75" font-family="Pretendard" font-size="11.00">client_key</text>
<polygon fill="none" stroke="#64748b" points="347.75,-489.75 347.75,-515.75 456.25,-515.75 456.25,-489.75 347.75,-489.75"/>
<text xml:space="preserve" text-anchor="start" x="361.12" y="-499.75" font-family="Pretendard" font-size="11.00">inflight_count = 1</text>
<polygon fill="none" stroke="#64748b" points="347.75,-463.75 347.75,-489.75 456.25,-489.75 456.25,-463.75 347.75,-463.75"/>
<text xml:space="preserve" text-anchor="start" x="379.5" y="-473.75" font-family="Pretendard" font-size="11.00">ref_count</text>
<polygon fill="none" stroke="#64748b" points="347.75,-437.75 347.75,-463.75 456.25,-463.75 456.25,-437.75 347.75,-437.75"/>
<text xml:space="preserve" text-anchor="start" x="391.88" y="-447.75" font-family="Pretendard" font-size="11.00">next</text>
<polygon fill="none" stroke="#64748b" points="346.75,-436.75 346.75,-594.75 457.25,-594.75 457.25,-436.75 346.75,-436.75"/>
</g>
<!-- conn_a&#45;&gt;conn_b -->
<g id="edge4" class="edge">
<title>conn_a&#45;&gt;conn_b</title>
<path fill="none" stroke="#475569" d="M274.74,-515.75C295.95,-515.75 317.16,-515.75 338.37,-515.75"/>
<polygon fill="#475569" stroke="#475569" points="338.31,-518.2 345.31,-515.75 338.31,-513.3 338.31,-518.2"/>
</g>
<!-- conn_state -->
<g id="node7" class="node">
<title>conn_state</title>
<path fill="white" stroke="none" d="M195.5,-355.75C195.5,-355.75 116.5,-355.75 116.5,-355.75 110.5,-355.75 104.5,-349.75 104.5,-343.75 104.5,-343.75 104.5,-209.75 104.5,-209.75 104.5,-203.75 110.5,-197.75 116.5,-197.75 116.5,-197.75 195.5,-197.75 195.5,-197.75 201.5,-197.75 207.5,-203.75 207.5,-209.75 207.5,-209.75 207.5,-343.75 207.5,-343.75 207.5,-349.75 201.5,-355.75 195.5,-355.75"/>
<polygon fill="#f8fafc" stroke="none" points="105.5,-328.75 105.5,-354.75 206.5,-354.75 206.5,-328.75 105.5,-328.75"/>
<polygon fill="none" stroke="#64748b" points="105.5,-328.75 105.5,-354.75 206.5,-354.75 206.5,-328.75 105.5,-328.75"/>
<text xml:space="preserve" text-anchor="start" x="112.5" y="-338.3" font-family="Pretendard" font-weight="bold" font-size="11.00">connection state</text>
<polygon fill="none" stroke="#64748b" points="105.5,-302.75 105.5,-328.75 206.5,-328.75 206.5,-302.75 105.5,-302.75"/>
<text xml:space="preserve" text-anchor="start" x="136.12" y="-312.75" font-family="Pretendard" font-size="11.00">client_fd</text>
<polygon fill="none" stroke="#64748b" points="105.5,-276.75 105.5,-302.75 206.5,-302.75 206.5,-276.75 105.5,-276.75"/>
<text xml:space="preserve" text-anchor="start" x="132.38" y="-286.75" font-family="Pretendard" font-size="11.00">client_key</text>
<polygon fill="none" stroke="#64748b" points="105.5,-250.75 105.5,-276.75 206.5,-276.75 206.5,-250.75 105.5,-250.75"/>
<text xml:space="preserve" text-anchor="start" x="139.5" y="-260.75" font-family="Pretendard" font-size="11.00">closing</text>
<polygon fill="none" stroke="#64748b" points="105.5,-224.75 105.5,-250.75 206.5,-250.75 206.5,-224.75 105.5,-224.75"/>
<text xml:space="preserve" text-anchor="start" x="126.75" y="-234.75" font-family="Pretendard" font-size="11.00">state_mutex</text>
<polygon fill="none" stroke="#64748b" points="105.5,-198.75 105.5,-224.75 206.5,-224.75 206.5,-198.75 105.5,-198.75"/>
<text xml:space="preserve" text-anchor="start" x="126.75" y="-208.75" font-family="Pretendard" font-size="11.00">write_mutex</text>
<polygon fill="none" stroke="#64748b" points="104.5,-197.75 104.5,-355.75 207.5,-355.75 207.5,-197.75 104.5,-197.75"/>
</g>
<!-- conn_a&#45;&gt;conn_state -->
<g id="edge6" class="edge">
<title>conn_a&#45;&gt;conn_state</title>
<path fill="none" stroke="#475569" stroke-dasharray="1,5" d="M198.96,-436.82C191.92,-410.78 184.09,-381.77 177.06,-355.73"/>
<text xml:space="preserve" text-anchor="middle" x="189" y="-403.25" font-family="Pretendard" font-size="10.00">상세</text>
</g>
<!-- conn_null -->
<g id="node6" class="node">
<title>conn_null</title>
<path fill="none" stroke="none" d="M571,-533.75C571,-533.75 541,-533.75 541,-533.75 535,-533.75 529,-527.75 529,-521.75 529,-521.75 529,-509.75 529,-509.75 529,-503.75 535,-497.75 541,-497.75 541,-497.75 571,-497.75 571,-497.75 577,-497.75 583,-503.75 583,-509.75 583,-509.75 583,-521.75 583,-521.75 583,-527.75 577,-533.75 571,-533.75"/>
<text xml:space="preserve" text-anchor="middle" x="556" y="-511.3" font-family="Pretendard" font-size="11.00">NULL</text>
</g>
<!-- conn_b&#45;&gt;conn_null -->
<g id="edge5" class="edge">
<title>conn_b&#45;&gt;conn_null</title>
<path fill="none" stroke="#475569" d="M457.04,-515.75C478.31,-515.75 499.59,-515.75 520.86,-515.75"/>
<polygon fill="#475569" stroke="#475569" points="520.81,-518.2 527.81,-515.75 520.81,-513.3 520.81,-518.2"/>
</g>
<!-- inflight_head -->
<g id="node8" class="node">
<title>inflight_head</title>
<path fill="white" stroke="#64748b" d="M94,-110C94,-110 64,-110 64,-110 58,-110 52,-104 52,-98 52,-98 52,-86 52,-86 52,-80 58,-74 64,-74 64,-74 94,-74 94,-74 100,-74 106,-80 106,-86 106,-86 106,-98 106,-98 106,-104 100,-110 94,-110"/>
<text xml:space="preserve" text-anchor="middle" x="79" y="-87.55" font-family="Pretendard" font-size="11.00">head</text>
</g>
<!-- conn_state&#45;&gt;inflight_head -->
<g id="edge7" class="edge">
<title>conn_state&#45;&gt;inflight_head</title>
<path fill="none" stroke="#475569" stroke-dasharray="1,5" d="M123.23,-197.98C109.56,-165.54 94.9,-130.75 86.36,-110.48"/>
</g>
<!-- inflight_r2 -->
<g id="node9" class="node">
<title>inflight_r2</title>
<path fill="white" stroke="none" d="M250.5,-132C250.5,-132 189.5,-132 189.5,-132 183.5,-132 177.5,-126 177.5,-120 177.5,-120 177.5,-64 177.5,-64 177.5,-58 183.5,-52 189.5,-52 189.5,-52 250.5,-52 250.5,-52 256.5,-52 262.5,-58 262.5,-64 262.5,-64 262.5,-120 262.5,-120 262.5,-126 256.5,-132 250.5,-132"/>
<polygon fill="#dbeafe" stroke="none" points="178.5,-105 178.5,-131 261.5,-131 261.5,-105 178.5,-105"/>
<polygon fill="none" stroke="#64748b" points="178.5,-105 178.5,-131 261.5,-131 261.5,-105 178.5,-105"/>
<text xml:space="preserve" text-anchor="start" x="185.5" y="-114.55" font-family="Pretendard" font-weight="bold" font-size="11.00">TCPInflightId</text>
<polygon fill="none" stroke="#64748b" points="178.5,-79 178.5,-105 261.5,-105 261.5,-79 178.5,-79"/>
<text xml:space="preserve" text-anchor="start" x="204.62" y="-89" font-family="Pretendard" font-size="11.00">id = r2</text>
<polygon fill="none" stroke="#64748b" points="178.5,-53 178.5,-79 261.5,-79 261.5,-53 178.5,-53"/>
<text xml:space="preserve" text-anchor="start" x="209.88" y="-63" font-family="Pretendard" font-size="11.00">next</text>
<polygon fill="none" stroke="#64748b" points="177.5,-52 177.5,-132 262.5,-132 262.5,-52 177.5,-52"/>
</g>
<!-- inflight_head&#45;&gt;inflight_r2 -->
<g id="edge8" class="edge">
<title>inflight_head&#45;&gt;inflight_r2</title>
<path fill="none" stroke="#475569" d="M106.26,-92C127.31,-92 148.36,-92 169.41,-92"/>
<polygon fill="#475569" stroke="#475569" points="169.28,-94.45 176.28,-92 169.28,-89.55 169.28,-94.45"/>
</g>
<!-- inflight_r1 -->
<g id="node10" class="node">
<title>inflight_r1</title>
<path fill="white" stroke="none" d="M407.5,-132C407.5,-132 346.5,-132 346.5,-132 340.5,-132 334.5,-126 334.5,-120 334.5,-120 334.5,-64 334.5,-64 334.5,-58 340.5,-52 346.5,-52 346.5,-52 407.5,-52 407.5,-52 413.5,-52 419.5,-58 419.5,-64 419.5,-64 419.5,-120 419.5,-120 419.5,-126 413.5,-132 407.5,-132"/>
<polygon fill="#dbeafe" stroke="none" points="335.5,-105 335.5,-131 418.5,-131 418.5,-105 335.5,-105"/>
<polygon fill="none" stroke="#64748b" points="335.5,-105 335.5,-131 418.5,-131 418.5,-105 335.5,-105"/>
<text xml:space="preserve" text-anchor="start" x="342.5" y="-114.55" font-family="Pretendard" font-weight="bold" font-size="11.00">TCPInflightId</text>
<polygon fill="none" stroke="#64748b" points="335.5,-79 335.5,-105 418.5,-105 418.5,-79 335.5,-79"/>
<text xml:space="preserve" text-anchor="start" x="361.62" y="-89" font-family="Pretendard" font-size="11.00">id = r1</text>
<polygon fill="none" stroke="#64748b" points="335.5,-53 335.5,-79 418.5,-79 418.5,-53 335.5,-53"/>
<text xml:space="preserve" text-anchor="start" x="366.88" y="-63" font-family="Pretendard" font-size="11.00">next</text>
<polygon fill="none" stroke="#64748b" points="334.5,-52 334.5,-132 419.5,-132 419.5,-52 334.5,-52"/>
</g>
<!-- inflight_r2&#45;&gt;inflight_r1 -->
<g id="edge9" class="edge">
<title>inflight_r2&#45;&gt;inflight_r1</title>
<path fill="none" stroke="#475569" d="M262.32,-92C283.67,-92 305.03,-92 326.38,-92"/>
<polygon fill="#475569" stroke="#475569" points="326.38,-94.45 333.38,-92 326.38,-89.55 326.38,-94.45"/>
</g>
<!-- inflight_null -->
<g id="node11" class="node">
<title>inflight_null</title>
<path fill="none" stroke="none" d="M533,-110C533,-110 503,-110 503,-110 497,-110 491,-104 491,-98 491,-98 491,-86 491,-86 491,-80 497,-74 503,-74 503,-74 533,-74 533,-74 539,-74 545,-80 545,-86 545,-86 545,-98 545,-98 545,-104 539,-110 533,-110"/>
<text xml:space="preserve" text-anchor="middle" x="518" y="-87.55" font-family="Pretendard" font-size="11.00">NULL</text>
</g>
<!-- inflight_r1&#45;&gt;inflight_null -->
<g id="edge10" class="edge">
<title>inflight_r1&#45;&gt;inflight_null</title>
<path fill="none" stroke="#475569" d="M419.41,-92C440.49,-92 461.57,-92 482.65,-92"/>
<polygon fill="#475569" stroke="#475569" points="482.53,-94.45 489.53,-92 482.53,-89.55 482.53,-94.45"/>
</g>
<!-- counter_a -->
<g id="node13" class="node">
<title>counter_a</title>
<path fill="white" stroke="none" d="M839.25,-342.75C839.25,-342.75 740.75,-342.75 740.75,-342.75 734.75,-342.75 728.75,-336.75 728.75,-330.75 728.75,-330.75 728.75,-222.75 728.75,-222.75 728.75,-216.75 734.75,-210.75 740.75,-210.75 740.75,-210.75 839.25,-210.75 839.25,-210.75 845.25,-210.75 851.25,-216.75 851.25,-222.75 851.25,-222.75 851.25,-330.75 851.25,-330.75 851.25,-336.75 845.25,-342.75 839.25,-342.75"/>
<polygon fill="#f8fafc" stroke="none" points="729.75,-315.75 729.75,-341.75 850.25,-341.75 850.25,-315.75 729.75,-315.75"/>
<polygon fill="none" stroke="#64748b" points="729.75,-315.75 729.75,-341.75 850.25,-341.75 850.25,-315.75 729.75,-315.75"/>
<text xml:space="preserve" text-anchor="start" x="736.75" y="-325.3" font-family="Pretendard" font-weight="bold" font-size="11.00">TCPClientCounter A</text>
<polygon fill="none" stroke="#64748b" points="729.75,-289.75 729.75,-315.75 850.25,-315.75 850.25,-289.75 729.75,-289.75"/>
<text xml:space="preserve" text-anchor="start" x="781.75" y="-299.75" font-family="Pretendard" font-size="11.00">key</text>
<polygon fill="none" stroke="#64748b" points="729.75,-263.75 729.75,-289.75 850.25,-289.75 850.25,-263.75 729.75,-263.75"/>
<text xml:space="preserve" text-anchor="start" x="748" y="-273.75" font-family="Pretendard" font-size="11.00">connection_count</text>
<polygon fill="none" stroke="#64748b" points="729.75,-237.75 729.75,-263.75 850.25,-263.75 850.25,-237.75 729.75,-237.75"/>
<text xml:space="preserve" text-anchor="start" x="749.12" y="-247.75" font-family="Pretendard" font-size="11.00">inflight_count = 2</text>
<polygon fill="none" stroke="#64748b" points="729.75,-211.75 729.75,-237.75 850.25,-237.75 850.25,-211.75 729.75,-211.75"/>
<text xml:space="preserve" text-anchor="start" x="779.88" y="-221.75" font-family="Pretendard" font-size="11.00">next</text>
<polygon fill="none" stroke="#64748b" points="728.75,-210.75 728.75,-342.75 851.25,-342.75 851.25,-210.75 728.75,-210.75"/>
</g>
<!-- counter_head&#45;&gt;counter_a -->
<g id="edge11" class="edge">
<title>counter_head&#45;&gt;counter_a</title>
<path fill="none" stroke="#475569" d="M657.19,-276.75C678.26,-276.75 699.32,-276.75 720.39,-276.75"/>
<polygon fill="#475569" stroke="#475569" points="720.27,-279.2 727.27,-276.75 720.27,-274.3 720.27,-279.2"/>
</g>
<!-- counter_b -->
<g id="node14" class="node">
<title>counter_b</title>
<path fill="white" stroke="none" d="M1033.62,-342.75C1033.62,-342.75 934.38,-342.75 934.38,-342.75 928.38,-342.75 922.38,-336.75 922.38,-330.75 922.38,-330.75 922.38,-222.75 922.38,-222.75 922.38,-216.75 928.38,-210.75 934.38,-210.75 934.38,-210.75 1033.62,-210.75 1033.62,-210.75 1039.62,-210.75 1045.62,-216.75 1045.62,-222.75 1045.62,-222.75 1045.62,-330.75 1045.62,-330.75 1045.62,-336.75 1039.62,-342.75 1033.62,-342.75"/>
<polygon fill="#f8fafc" stroke="none" points="923.38,-315.75 923.38,-341.75 1044.62,-341.75 1044.62,-315.75 923.38,-315.75"/>
<polygon fill="none" stroke="#64748b" points="923.38,-315.75 923.38,-341.75 1044.62,-341.75 1044.62,-315.75 923.38,-315.75"/>
<text xml:space="preserve" text-anchor="start" x="930.38" y="-325.3" font-family="Pretendard" font-weight="bold" font-size="11.00">TCPClientCounter B</text>
<polygon fill="none" stroke="#64748b" points="923.38,-289.75 923.38,-315.75 1044.62,-315.75 1044.62,-289.75 923.38,-289.75"/>
<text xml:space="preserve" text-anchor="start" x="975.75" y="-299.75" font-family="Pretendard" font-size="11.00">key</text>
<polygon fill="none" stroke="#64748b" points="923.38,-263.75 923.38,-289.75 1044.62,-289.75 1044.62,-263.75 923.38,-263.75"/>
<text xml:space="preserve" text-anchor="start" x="942" y="-273.75" font-family="Pretendard" font-size="11.00">connection_count</text>
<polygon fill="none" stroke="#64748b" points="923.38,-237.75 923.38,-263.75 1044.62,-263.75 1044.62,-237.75 923.38,-237.75"/>
<text xml:space="preserve" text-anchor="start" x="943.12" y="-247.75" font-family="Pretendard" font-size="11.00">inflight_count = 1</text>
<polygon fill="none" stroke="#64748b" points="923.38,-211.75 923.38,-237.75 1044.62,-237.75 1044.62,-211.75 923.38,-211.75"/>
<text xml:space="preserve" text-anchor="start" x="973.88" y="-221.75" font-family="Pretendard" font-size="11.00">next</text>
<polygon fill="none" stroke="#64748b" points="922.38,-210.75 922.38,-342.75 1045.62,-342.75 1045.62,-210.75 922.38,-210.75"/>
</g>
<!-- counter_a&#45;&gt;counter_b -->
<g id="edge12" class="edge">
<title>counter_a&#45;&gt;counter_b</title>
<path fill="none" stroke="#475569" d="M851,-276.75C872.02,-276.75 893.05,-276.75 914.07,-276.75"/>
<polygon fill="#475569" stroke="#475569" points="913.92,-279.2 920.92,-276.75 913.92,-274.3 913.92,-279.2"/>
</g>
<!-- counter_null -->
<g id="node15" class="node">
<title>counter_null</title>
<path fill="none" stroke="none" d="M1159,-294.75C1159,-294.75 1129,-294.75 1129,-294.75 1123,-294.75 1117,-288.75 1117,-282.75 1117,-282.75 1117,-270.75 1117,-270.75 1117,-264.75 1123,-258.75 1129,-258.75 1129,-258.75 1159,-258.75 1159,-258.75 1165,-258.75 1171,-264.75 1171,-270.75 1171,-270.75 1171,-282.75 1171,-282.75 1171,-288.75 1165,-294.75 1159,-294.75"/>
<text xml:space="preserve" text-anchor="middle" x="1144" y="-272.3" font-family="Pretendard" font-size="11.00">NULL</text>
</g>
<!-- counter_b&#45;&gt;counter_null -->
<g id="edge13" class="edge">
<title>counter_b&#45;&gt;counter_null</title>
<path fill="none" stroke="#475569" d="M1045.56,-276.75C1066.61,-276.75 1087.66,-276.75 1108.7,-276.75"/>
<polygon fill="#475569" stroke="#475569" points="1108.57,-279.2 1115.57,-276.75 1108.57,-274.3 1108.57,-279.2"/>
</g>
</g>
</svg>
