<?xml version="1.0" encoding="UTF-8" standalone="no"?>
<!DOCTYPE svg PUBLIC "-//W3C//DTD SVG 1.1//EN"
 "http://www.w3.org/Graphics/SVG/1.1/DTD/svg11.dtd">
<!-- Generated by graphviz version 14.1.5 (20260411.2331)
 -->
<!-- Title: CmdProcessorBenefitAddRequests Pages: 1 -->
<svg width="856pt" height="367pt"
 viewBox="0.00 0.00 856.00 367.00" xmlns="http://www.w3.org/2000/svg" xmlns:xlink="http://www.w3.org/1999/xlink">
<g id="graph0" class="graph" transform="scale(1 1) rotate(0) translate(14.4 352.53)">
<title>CmdProcessorBenefitAddRequests</title>
<g id="clust1" class="cluster">
<title>cluster_requests</title>
<path fill="#f8fafc" stroke="#cbd5e1" d="M20,-228.17C20,-228.17 372,-228.17 372,-228.17 378,-228.17 384,-234.17 384,-240.17 384,-240.17 384,-318.13 384,-318.13 384,-324.13 378,-330.13 372,-330.13 372,-330.13 20,-330.13 20,-330.13 14,-330.13 8,-324.13 8,-318.13 8,-318.13 8,-240.17 8,-240.17 8,-234.17 14,-228.17 20,-228.17"/>
<text xml:space="preserve" text-anchor="middle" x="196" y="-313.78" font-family="Pretendard" font-size="13.00">요청 종류</text>
</g>
<g id="clust2" class="cluster">
<title>cluster_unchanged</title>
<path fill="#f0f9ff" stroke="#bae6fd" d="M333,-8C333,-8 807,-8 807,-8 813,-8 819,-14 819,-20 819,-20 819,-97.96 819,-97.96 819,-103.96 813,-109.96 807,-109.96 807,-109.96 333,-109.96 333,-109.96 327,-109.96 321,-103.96 321,-97.96 321,-97.96 321,-20 321,-20 321,-14 327,-8 333,-8"/>
<text xml:space="preserve" text-anchor="middle" x="570" y="-93.61" font-family="Pretendard" font-size="13.00">재사용되는 뒤쪽 흐름</text>
</g>
<!-- ping -->
<g id="node1" class="node">
<title>ping</title>
<path fill="white" stroke="#64748b" d="M68,-284.9C68,-284.9 38,-284.9 38,-284.9 32,-284.9 26,-278.9 26,-272.9 26,-272.9 26,-260.9 26,-260.9 26,-254.9 32,-248.9 38,-248.9 38,-248.9 68,-248.9 68,-248.9 74,-248.9 80,-254.9 80,-260.9 80,-260.9 80,-272.9 80,-272.9 80,-278.9 74,-284.9 68,-284.9"/>
<text xml:space="preserve" text-anchor="middle" x="53" y="-262.45" font-family="Pretendard" font-size="11.00">ping</text>
</g>
<!-- mapper -->
<g id="node5" class="node">
<title>mapper</title>
<path fill="#eff6ff" stroke="#93c5fd" d="M238.2,-183.17C238.2,-183.17 149.8,-183.17 149.8,-183.17 143.8,-183.17 137.8,-177.17 137.8,-171.17 137.8,-171.17 137.8,-155.96 137.8,-155.96 137.8,-149.96 143.8,-143.96 149.8,-143.96 149.8,-143.96 238.2,-143.96 238.2,-143.96 244.2,-143.96 250.2,-149.96 250.2,-155.96 250.2,-155.96 250.2,-171.17 250.2,-171.17 250.2,-177.17 244.2,-183.17 238.2,-183.17"/>
<text xml:space="preserve" text-anchor="middle" x="194" y="-166.24" font-family="Pretendard" font-size="11.00">요청 매핑</text>
<text xml:space="preserve" text-anchor="middle" x="194" y="-151.99" font-family="Pretendard" font-size="11.00">op &#45;&gt; CmdRequest</text>
</g>
<!-- ping&#45;&gt;mapper -->
<g id="edge1" class="edge">
<title>ping&#45;&gt;mapper</title>
<path fill="none" stroke="#475569" d="M77.24,-248.48C100.37,-231.86 135.39,-206.69 161.05,-188.25"/>
<polygon fill="#475569" stroke="#475569" points="162.2,-190.43 166.46,-184.36 159.34,-186.46 162.2,-190.43"/>
</g>
<!-- sql -->
<g id="node2" class="node">
<title>sql</title>
<path fill="white" stroke="#64748b" d="M162,-284.9C162,-284.9 132,-284.9 132,-284.9 126,-284.9 120,-278.9 120,-272.9 120,-272.9 120,-260.9 120,-260.9 120,-254.9 126,-248.9 132,-248.9 132,-248.9 162,-248.9 162,-248.9 168,-248.9 174,-254.9 174,-260.9 174,-260.9 174,-272.9 174,-272.9 174,-278.9 168,-284.9 162,-284.9"/>
<text xml:space="preserve" text-anchor="middle" x="147" y="-262.45" font-family="Pretendard" font-size="11.00">sql</text>
</g>
<!-- sql&#45;&gt;mapper -->
<g id="edge2" class="edge">
<title>sql&#45;&gt;mapper</title>
<path fill="none" stroke="#475569" d="M154.97,-248.71C162.31,-232.9 173.29,-209.22 181.74,-191"/>
<polygon fill="#475569" stroke="#475569" points="183.83,-192.32 184.55,-184.94 179.38,-190.26 183.83,-192.32"/>
</g>
<!-- close -->
<g id="node3" class="node">
<title>close</title>
<path fill="white" stroke="#64748b" d="M256,-284.9C256,-284.9 226,-284.9 226,-284.9 220,-284.9 214,-278.9 214,-272.9 214,-272.9 214,-260.9 214,-260.9 214,-254.9 220,-248.9 226,-248.9 226,-248.9 256,-248.9 256,-248.9 262,-248.9 268,-254.9 268,-260.9 268,-260.9 268,-272.9 268,-272.9 268,-278.9 262,-284.9 256,-284.9"/>
<text xml:space="preserve" text-anchor="middle" x="241" y="-262.45" font-family="Pretendard" font-size="11.00">close</text>
</g>
<!-- close&#45;&gt;mapper -->
<g id="edge3" class="edge">
<title>close&#45;&gt;mapper</title>
<path fill="none" stroke="#475569" d="M233.03,-248.71C225.69,-232.9 214.71,-209.22 206.26,-191"/>
<polygon fill="#475569" stroke="#475569" points="208.62,-190.26 203.45,-184.94 204.17,-192.32 208.62,-190.26"/>
</g>
<!-- new_request -->
<g id="node4" class="node">
<title>new_request</title>
<path fill="#ecfdf5" stroke="#86efac" d="M354.2,-287.63C354.2,-287.63 319.8,-287.63 319.8,-287.63 313.8,-287.63 307.8,-281.63 307.8,-275.63 307.8,-275.63 307.8,-258.17 307.8,-258.17 307.8,-252.17 313.8,-246.17 319.8,-246.17 319.8,-246.17 354.2,-246.17 354.2,-246.17 360.2,-246.17 366.2,-252.17 366.2,-258.17 366.2,-258.17 366.2,-275.63 366.2,-275.63 366.2,-281.63 360.2,-287.63 354.2,-287.63"/>
<text xml:space="preserve" text-anchor="middle" x="337" y="-270.7" font-family="Pretendard" font-size="11.00">새 요청</text>
<text xml:space="preserve" text-anchor="middle" x="337" y="-256.45" font-family="Pretendard" font-size="11.00">예: stats</text>
</g>
<!-- new_request&#45;&gt;mapper -->
<g id="edge4" class="edge">
<title>new_request&#45;&gt;mapper</title>
<path fill="none" stroke="#475569" d="M308.75,-245.88C285.39,-229.32 252.16,-205.78 227.47,-188.28"/>
<polygon fill="#475569" stroke="#475569" points="229.11,-186.44 221.98,-184.39 226.27,-190.44 229.11,-186.44"/>
<text xml:space="preserve" text-anchor="middle" x="298.36" y="-210.67" font-family="Pretendard" font-size="10.00">요청만 추가</text>
</g>
<!-- core -->
<g id="node6" class="node">
<title>core</title>
<path fill="#dbeafe" stroke="#60a5fa" d="M460.58,-183.17C460.58,-183.17 341.42,-183.17 341.42,-183.17 335.42,-183.17 329.42,-177.17 329.42,-171.17 329.42,-171.17 329.42,-155.96 329.42,-155.96 329.42,-149.96 335.42,-143.96 341.42,-143.96 341.42,-143.96 460.58,-143.96 460.58,-143.96 466.58,-143.96 472.58,-149.96 472.58,-155.96 472.58,-155.96 472.58,-171.17 472.58,-171.17 472.58,-177.17 466.58,-183.17 460.58,-183.17"/>
<text xml:space="preserve" text-anchor="middle" x="401" y="-166.24" font-family="Pretendard" font-size="11.00">공통 처리 코어</text>
<text xml:space="preserve" text-anchor="middle" x="401" y="-151.99" font-family="Pretendard" font-size="11.00">submit / callback / release</text>
</g>
<!-- mapper&#45;&gt;core -->
<g id="edge5" class="edge">
<title>mapper&#45;&gt;core</title>
<path fill="none" stroke="#475569" d="M250.6,-163.56C273.99,-163.56 297.37,-163.56 320.76,-163.56"/>
<polygon fill="#475569" stroke="#475569" points="320.52,-166.02 327.52,-163.57 320.52,-161.12 320.52,-166.02"/>
</g>
<!-- processor -->
<g id="node7" class="node">
<title>processor</title>
<path fill="white" stroke="#7dd3fc" d="M451.2,-67.46C451.2,-67.46 350.8,-67.46 350.8,-67.46 344.8,-67.46 338.8,-61.46 338.8,-55.46 338.8,-55.46 338.8,-38 338.8,-38 338.8,-32 344.8,-26 350.8,-26 350.8,-26 451.2,-26 451.2,-26 457.2,-26 463.2,-32 463.2,-38 463.2,-38 463.2,-55.46 463.2,-55.46 463.2,-61.46 457.2,-67.46 451.2,-67.46"/>
<text xml:space="preserve" text-anchor="middle" x="401" y="-50.53" font-family="Pretendard" font-size="11.00">CmdProcessor 구현체</text>
<text xml:space="preserve" text-anchor="middle" x="401" y="-36.28" font-family="Pretendard" font-size="11.00">필요한 처리만 추가</text>
</g>
<!-- core&#45;&gt;processor -->
<g id="edge6" class="edge">
<title>core&#45;&gt;processor</title>
<path fill="none" stroke="#475569" d="M401,-143.6C401,-125.24 401,-97.16 401,-76.13"/>
<polygon fill="#475569" stroke="#475569" points="403.45,-76.39 401,-69.39 398.55,-76.39 403.45,-76.39"/>
</g>
<!-- db -->
<g id="node8" class="node">
<title>db</title>
<path fill="#ffffff" stroke="#cbd5e1" d="M614.96,-64.73C614.96,-64.73 555.04,-64.73 555.04,-64.73 549.04,-64.73 543.04,-58.73 543.04,-52.73 543.04,-52.73 543.04,-40.73 543.04,-40.73 543.04,-34.73 549.04,-28.73 555.04,-28.73 555.04,-28.73 614.96,-28.73 614.96,-28.73 620.96,-28.73 626.96,-34.73 626.96,-40.73 626.96,-40.73 626.96,-52.73 626.96,-52.73 626.96,-58.73 620.96,-64.73 614.96,-64.73"/>
<text xml:space="preserve" text-anchor="middle" x="585" y="-42.28" font-family="Pretendard" font-size="11.00">DB BlackBox</text>
</g>
<!-- processor&#45;&gt;db -->
<g id="edge7" class="edge">
<title>processor&#45;&gt;db</title>
<path fill="none" stroke="#475569" d="M463.53,-46.73C487.16,-46.73 510.79,-46.73 534.41,-46.73"/>
<polygon fill="#475569" stroke="#475569" points="534.26,-49.18 541.26,-46.73 534.26,-44.28 534.26,-49.18"/>
</g>
<!-- response -->
<g id="node9" class="node">
<title>response</title>
<path fill="#f8fafc" stroke="#cbd5e1" d="M789.21,-64.73C789.21,-64.73 718.79,-64.73 718.79,-64.73 712.79,-64.73 706.79,-58.73 706.79,-52.73 706.79,-52.73 706.79,-40.73 706.79,-40.73 706.79,-34.73 712.79,-28.73 718.79,-28.73 718.79,-28.73 789.21,-28.73 789.21,-28.73 795.21,-28.73 801.21,-34.73 801.21,-40.73 801.21,-40.73 801.21,-52.73 801.21,-52.73 801.21,-58.73 795.21,-64.73 789.21,-64.73"/>
<text xml:space="preserve" text-anchor="middle" x="754" y="-43.41" font-family="Pretendard" font-size="11.00">동일한 응답 경로</text>
</g>
<!-- db&#45;&gt;response -->
<g id="edge8" class="edge">
<title>db&#45;&gt;response</title>
<path fill="none" stroke="#475569" stroke-dasharray="5,2" d="M627.21,-46.73C648.63,-46.73 674.93,-46.73 698.02,-46.73"/>
<polygon fill="#475569" stroke="#475569" points="697.85,-49.18 704.85,-46.73 697.85,-44.28 697.85,-49.18"/>
<text xml:space="preserve" text-anchor="middle" x="666.88" y="-51.48" font-family="Pretendard" font-size="10.00">callback</text>
</g>
</g>
</svg>
