<?xml version="1.0" encoding="UTF-8" standalone="no"?>
<!DOCTYPE svg PUBLIC "-//W3C//DTD SVG 1.1//EN"
 "http://www.w3.org/Graphics/SVG/1.1/DTD/svg11.dtd">
<!-- Generated by graphviz version 14.1.5 (20260411.2331)
 -->
<!-- Title: TcpCmdProcessor Pages: 1 -->
<svg width="753pt" height="597pt"
 viewBox="0.00 0.00 753.00 597.00" xmlns="http://www.w3.org/2000/svg" xmlns:xlink="http://www.w3.org/1999/xlink">
<g id="graph0" class="graph" transform="scale(1 1) rotate(0) translate(14.4 582.4)">
<title>TcpCmdProcessor</title>
<g id="clust1" class="cluster">
<title>cluster_users</title>
<path fill="#f8fafc" stroke="#cbd5e1" d="M20,-42C20,-42 152,-42 152,-42 158,-42 164,-48 164,-54 164,-54 164,-351.25 164,-351.25 164,-357.25 158,-363.25 152,-363.25 152,-363.25 20,-363.25 20,-363.25 14,-363.25 8,-357.25 8,-351.25 8,-351.25 8,-54 8,-54 8,-48 14,-42 20,-42"/>
<text xml:space="preserve" text-anchor="middle" x="86" y="-346.9" font-family="Pretendard" font-size="13.00">사용자 TCP connections</text>
</g>
<g id="clust2" class="cluster">
<title>cluster_dbms</title>
<path fill="#f1f5f9" stroke="#94a3b8" d="M192,-8C192,-8 704,-8 704,-8 710,-8 716,-14 716,-20 716,-20 716,-548 716,-548 716,-554 710,-560 704,-560 704,-560 192,-560 192,-560 186,-560 180,-554 180,-548 180,-548 180,-20 180,-20 180,-14 186,-8 192,-8"/>
<text xml:space="preserve" text-anchor="middle" x="448" y="-543.65" font-family="Pretendard" font-size="13.00">DBMS</text>
</g>
<g id="clust3" class="cluster">
<title>cluster_tcp</title>
<path fill="#eff6ff" stroke="#93c5fd" d="M212,-28C212,-28 574,-28 574,-28 580,-28 586,-34 586,-40 586,-40 586,-506.5 586,-506.5 586,-512.5 580,-518.5 574,-518.5 574,-518.5 212,-518.5 212,-518.5 206,-518.5 200,-512.5 200,-506.5 200,-506.5 200,-40 200,-40 200,-34 206,-28 212,-28"/>
<text xml:space="preserve" text-anchor="middle" x="393" y="-502.15" font-family="Pretendard" font-size="13.00">TCPCmdProcessor</text>
</g>
<g id="clust4" class="cluster">
<title>cluster_connection_layer</title>
<path fill="#ffffff" stroke="#bfdbfe" d="M231,-46C231,-46 311,-46 311,-46 317,-46 323,-52 323,-58 323,-58 323,-343.5 323,-343.5 323,-349.5 317,-355.5 311,-355.5 311,-355.5 231,-355.5 231,-355.5 225,-355.5 219,-349.5 219,-343.5 219,-343.5 219,-58 219,-58 219,-52 225,-46 231,-46"/>
<text xml:space="preserve" text-anchor="middle" x="271" y="-340.1" font-family="Pretendard" font-size="12.00">connection layer</text>
</g>
<g id="clust5" class="cluster">
<title>cluster_adapter</title>
<path fill="#ffffff" stroke="#bae6fd" d="M387,-155C387,-155 465,-155 465,-155 471,-155 477,-161 477,-167 477,-167 477,-343.5 477,-343.5 477,-349.5 471,-355.5 465,-355.5 465,-355.5 387,-355.5 387,-355.5 381,-355.5 375,-349.5 375,-343.5 375,-343.5 375,-167 375,-167 375,-161 381,-155 387,-155"/>
<text xml:space="preserve" text-anchor="middle" x="426" y="-340.1" font-family="Pretendard" font-size="12.00">req / res adapter</text>
</g>
<g id="clust6" class="cluster">
<title>cluster_metadata</title>
<path fill="#ffffff" stroke="#cbd5e1" d="M230,-394.25C230,-394.25 556,-394.25 556,-394.25 562,-394.25 568,-400.25 568,-406.25 568,-406.25 568,-467 568,-467 568,-473 562,-479 556,-479 556,-479 230,-479 230,-479 224,-479 218,-473 218,-467 218,-467 218,-406.25 218,-406.25 218,-400.25 224,-394.25 230,-394.25"/>
<text xml:space="preserve" text-anchor="middle" x="393" y="-463.6" font-family="Pretendard" font-size="12.00">metadata state</text>
</g>
<g id="clust8" class="cluster">
<title>cluster_db</title>
<path fill="#ffffff" stroke="#cbd5e1" d="M618,-155C618,-155 684,-155 684,-155 690,-155 696,-161 696,-167 696,-167 696,-227.75 696,-227.75 696,-233.75 690,-239.75 684,-239.75 684,-239.75 618,-239.75 618,-239.75 612,-239.75 606,-233.75 606,-227.75 606,-227.75 606,-167 606,-167 606,-161 612,-155 618,-155"/>
<text xml:space="preserve" text-anchor="middle" x="651" y="-224.35" font-family="Pretendard" font-size="12.00">DB</text>
</g>
<!-- user_a1 -->
<g id="node1" class="node">
<title>user_a1</title>
<path fill="white" stroke="#64748b" d="M128,-320.75C128,-320.75 98,-320.75 98,-320.75 92,-320.75 86,-314.75 86,-308.75 86,-308.75 86,-296.75 86,-296.75 86,-290.75 92,-284.75 98,-284.75 98,-284.75 128,-284.75 128,-284.75 134,-284.75 140,-290.75 140,-296.75 140,-296.75 140,-308.75 140,-308.75 140,-314.75 134,-320.75 128,-320.75"/>
<text xml:space="preserve" text-anchor="middle" x="113" y="-298.3" font-family="Pretendard" font-size="11.00">A&#45;1</text>
</g>
<!-- user_a2 -->
<g id="node2" class="node">
<title>user_a2</title>
<path fill="white" stroke="#64748b" d="M128,-205C128,-205 98,-205 98,-205 92,-205 86,-199 86,-193 86,-193 86,-181 86,-181 86,-175 92,-169 98,-169 98,-169 128,-169 128,-169 134,-169 140,-175 140,-181 140,-181 140,-193 140,-193 140,-199 134,-205 128,-205"/>
<text xml:space="preserve" text-anchor="middle" x="113" y="-182.55" font-family="Pretendard" font-size="11.00">A&#45;2</text>
</g>
<!-- user_a1&#45;&gt;user_a2 -->
<!-- tcp_a1 -->
<g id="node4" class="node">
<title>tcp_a1</title>
<path fill="white" stroke="#64748b" d="M289.76,-320.75C289.76,-320.75 246.24,-320.75 246.24,-320.75 240.24,-320.75 234.24,-314.75 234.24,-308.75 234.24,-308.75 234.24,-296.75 234.24,-296.75 234.24,-290.75 240.24,-284.75 246.24,-284.75 246.24,-284.75 289.76,-284.75 289.76,-284.75 295.76,-284.75 301.76,-290.75 301.76,-296.75 301.76,-296.75 301.76,-308.75 301.76,-308.75 301.76,-314.75 295.76,-320.75 289.76,-320.75"/>
<text xml:space="preserve" text-anchor="middle" x="268" y="-298.3" font-family="Pretendard" font-size="11.00">socket A&#45;1</text>
</g>
<!-- user_a1&#45;&gt;tcp_a1 -->
<g id="edge8" class="edge">
<title>user_a1&#45;&gt;tcp_a1</title>
<path fill="none" stroke="#475569" d="M148.68,-302.75C174.36,-302.75 200.04,-302.75 225.73,-302.75"/>
<polygon fill="#475569" stroke="#475569" points="148.76,-300.3 141.76,-302.75 148.76,-305.2 148.76,-300.3"/>
<polygon fill="#475569" stroke="#475569" points="225.55,-305.2 232.55,-302.75 225.55,-300.3 225.55,-305.2"/>
</g>
<!-- user_b1 -->
<g id="node3" class="node">
<title>user_b1</title>
<path fill="white" stroke="#64748b" d="M128,-96C128,-96 98,-96 98,-96 92,-96 86,-90 86,-84 86,-84 86,-72 86,-72 86,-66 92,-60 98,-60 98,-60 128,-60 128,-60 134,-60 140,-66 140,-72 140,-72 140,-84 140,-84 140,-90 134,-96 128,-96"/>
<text xml:space="preserve" text-anchor="middle" x="113" y="-73.55" font-family="Pretendard" font-size="11.00">B&#45;1</text>
</g>
<!-- user_a2&#45;&gt;user_b1 -->
<!-- tcp_a2 -->
<g id="node5" class="node">
<title>tcp_a2</title>
<path fill="white" stroke="#64748b" d="M289.76,-205C289.76,-205 246.24,-205 246.24,-205 240.24,-205 234.24,-199 234.24,-193 234.24,-193 234.24,-181 234.24,-181 234.24,-175 240.24,-169 246.24,-169 246.24,-169 289.76,-169 289.76,-169 295.76,-169 301.76,-175 301.76,-181 301.76,-181 301.76,-193 301.76,-193 301.76,-199 295.76,-205 289.76,-205"/>
<text xml:space="preserve" text-anchor="middle" x="268" y="-182.55" font-family="Pretendard" font-size="11.00">socket A&#45;2</text>
</g>
<!-- user_a2&#45;&gt;tcp_a2 -->
<g id="edge9" class="edge">
<title>user_a2&#45;&gt;tcp_a2</title>
<path fill="none" stroke="#475569" d="M148.68,-187C174.36,-187 200.04,-187 225.73,-187"/>
<polygon fill="#475569" stroke="#475569" points="148.76,-184.55 141.76,-187 148.76,-189.45 148.76,-184.55"/>
<polygon fill="#475569" stroke="#475569" points="225.55,-189.45 232.55,-187 225.55,-184.55 225.55,-189.45"/>
</g>
<!-- tcp_b1 -->
<g id="node6" class="node">
<title>tcp_b1</title>
<path fill="white" stroke="#64748b" d="M290.14,-96C290.14,-96 245.86,-96 245.86,-96 239.86,-96 233.86,-90 233.86,-84 233.86,-84 233.86,-72 233.86,-72 233.86,-66 239.86,-60 245.86,-60 245.86,-60 290.14,-60 290.14,-60 296.14,-60 302.14,-66 302.14,-72 302.14,-72 302.14,-84 302.14,-84 302.14,-90 296.14,-96 290.14,-96"/>
<text xml:space="preserve" text-anchor="middle" x="268" y="-73.55" font-family="Pretendard" font-size="11.00">socket B&#45;1</text>
</g>
<!-- user_b1&#45;&gt;tcp_b1 -->
<g id="edge10" class="edge">
<title>user_b1&#45;&gt;tcp_b1</title>
<path fill="none" stroke="#475569" d="M148.63,-78C174.18,-78 199.72,-78 225.27,-78"/>
<polygon fill="#475569" stroke="#475569" points="148.76,-75.55 141.76,-78 148.76,-80.45 148.76,-75.55"/>
<polygon fill="#475569" stroke="#475569" points="225.05,-80.45 232.05,-78 225.05,-75.55 225.05,-80.45"/>
</g>
<!-- tcp_a1&#45;&gt;tcp_a2 -->
<!-- req -->
<g id="node7" class="node">
<title>req</title>
<path fill="white" stroke="#64748b" d="M444,-205C444,-205 414,-205 414,-205 408,-205 402,-199 402,-193 402,-193 402,-181 402,-181 402,-175 408,-169 414,-169 414,-169 444,-169 444,-169 450,-169 456,-175 456,-181 456,-181 456,-193 456,-193 456,-199 450,-205 444,-205"/>
<text xml:space="preserve" text-anchor="middle" x="429" y="-182.55" font-family="Pretendard" font-size="11.00">request</text>
</g>
<!-- tcp_a1&#45;&gt;req -->
<g id="edge11" class="edge">
<title>tcp_a1&#45;&gt;req</title>
<path fill="none" stroke="#475569" d="M292.45,-284.47C320.59,-264.6 366.85,-231.91 397.62,-210.17"/>
<polygon fill="#475569" stroke="#475569" points="398.78,-212.35 403.08,-206.31 395.95,-208.35 398.78,-212.35"/>
</g>
<!-- tcp_a2&#45;&gt;tcp_b1 -->
<!-- tcp_a2&#45;&gt;req -->
<g id="edge12" class="edge">
<title>tcp_a2&#45;&gt;req</title>
<path fill="none" stroke="#475569" d="M301.96,-187C332.48,-187 363,-187 393.52,-187"/>
<polygon fill="#475569" stroke="#475569" points="393.19,-189.45 400.19,-187 393.19,-184.55 393.19,-189.45"/>
</g>
<!-- tcp_b1&#45;&gt;req -->
<g id="edge13" class="edge">
<title>tcp_b1&#45;&gt;req</title>
<path fill="none" stroke="#475569" d="M294.21,-96.42C321.93,-114.84 365.71,-143.94 395.81,-163.94"/>
<polygon fill="#475569" stroke="#475569" points="394.33,-165.9 401.51,-167.73 397.04,-161.82 394.33,-165.9"/>
</g>
<!-- db_black_box -->
<g id="node12" class="node">
<title>db_black_box</title>
<path fill="white" stroke="#64748b" d="M670.14,-205C670.14,-205 631.86,-205 631.86,-205 625.86,-205 619.86,-199 619.86,-193 619.86,-193 619.86,-181 619.86,-181 619.86,-175 625.86,-169 631.86,-169 631.86,-169 670.14,-169 670.14,-169 676.14,-169 682.14,-175 682.14,-181 682.14,-181 682.14,-193 682.14,-193 682.14,-199 676.14,-205 670.14,-205"/>
<text xml:space="preserve" text-anchor="middle" x="651" y="-182.55" font-family="Pretendard" font-size="11.00">black box</text>
</g>
<!-- req&#45;&gt;db_black_box -->
<g id="edge14" class="edge">
<title>req&#45;&gt;db_black_box</title>
<path fill="none" stroke="#475569" d="M456.22,-187C495.05,-187 566.59,-187 611.32,-187"/>
<polygon fill="#475569" stroke="#475569" points="611.11,-189.45 618.11,-187 611.11,-184.55 611.11,-189.45"/>
<text xml:space="preserve" text-anchor="middle" x="537.93" y="-203" font-family="Pretendard" font-size="10.00">delegate request</text>
<text xml:space="preserve" text-anchor="middle" x="537.93" y="-191.75" font-family="Pretendard" font-size="10.00">CmdRequest + callback context</text>
</g>
<!-- res -->
<g id="node8" class="node">
<title>res</title>
<path fill="white" stroke="#64748b" d="M444.76,-320.75C444.76,-320.75 407.24,-320.75 407.24,-320.75 401.24,-320.75 395.24,-314.75 395.24,-308.75 395.24,-308.75 395.24,-296.75 395.24,-296.75 395.24,-290.75 401.24,-284.75 407.24,-284.75 407.24,-284.75 444.76,-284.75 444.76,-284.75 450.76,-284.75 456.76,-290.75 456.76,-296.75 456.76,-296.75 456.76,-308.75 456.76,-308.75 456.76,-314.75 450.76,-320.75 444.76,-320.75"/>
<text xml:space="preserve" text-anchor="middle" x="426" y="-298.3" font-family="Pretendard" font-size="11.00">response</text>
</g>
<!-- res&#45;&gt;tcp_a1 -->
<g id="edge16" class="edge">
<title>res&#45;&gt;tcp_a1</title>
<path fill="none" stroke="#475569" stroke-dasharray="5,2" d="M395.06,-302.75C366.91,-302.75 338.75,-302.75 310.59,-302.75"/>
<polygon fill="#475569" stroke="#475569" points="310.77,-300.3 303.77,-302.75 310.77,-305.2 310.77,-300.3"/>
</g>
<!-- res&#45;&gt;tcp_a2 -->
<g id="edge17" class="edge">
<title>res&#45;&gt;tcp_a2</title>
<path fill="none" stroke="#475569" stroke-dasharray="5,2" d="M402,-284.47C374.39,-264.6 328.99,-231.91 298.8,-210.17"/>
<polygon fill="#475569" stroke="#475569" points="300.56,-208.42 293.45,-206.32 297.7,-212.4 300.56,-208.42"/>
</g>
<!-- res&#45;&gt;tcp_b1 -->
<g id="edge18" class="edge">
<title>res&#45;&gt;tcp_b1</title>
<path fill="none" stroke="#475569" stroke-dasharray="5,2" d="M413.07,-284.36C384.88,-244.25 317.83,-148.88 285.73,-103.22"/>
<polygon fill="#475569" stroke="#475569" points="287.79,-101.89 281.76,-97.57 283.78,-104.7 287.79,-101.89"/>
</g>
<!-- connection_list -->
<g id="node9" class="node">
<title>connection_list</title>
<path fill="white" stroke="#64748b" d="M294.14,-444.25C294.14,-444.25 243.86,-444.25 243.86,-444.25 237.86,-444.25 231.86,-438.25 231.86,-432.25 231.86,-432.25 231.86,-420.25 231.86,-420.25 231.86,-414.25 237.86,-408.25 243.86,-408.25 243.86,-408.25 294.14,-408.25 294.14,-408.25 300.14,-408.25 306.14,-414.25 306.14,-420.25 306.14,-420.25 306.14,-432.25 306.14,-432.25 306.14,-438.25 300.14,-444.25 294.14,-444.25"/>
<text xml:space="preserve" text-anchor="middle" x="269" y="-421.8" font-family="Pretendard" font-size="11.00">connections</text>
</g>
<!-- connection_list&#45;&gt;tcp_a1 -->
<!-- client_counters -->
<g id="node10" class="node">
<title>client_counters</title>
<path fill="white" stroke="#64748b" d="M427.14,-444.25C427.14,-444.25 364.86,-444.25 364.86,-444.25 358.86,-444.25 352.86,-438.25 352.86,-432.25 352.86,-432.25 352.86,-420.25 352.86,-420.25 352.86,-414.25 358.86,-408.25 364.86,-408.25 364.86,-408.25 427.14,-408.25 427.14,-408.25 433.14,-408.25 439.14,-414.25 439.14,-420.25 439.14,-420.25 439.14,-432.25 439.14,-432.25 439.14,-438.25 433.14,-444.25 427.14,-444.25"/>
<text xml:space="preserve" text-anchor="middle" x="396" y="-421.8" font-family="Pretendard" font-size="11.00">client counters</text>
</g>
<!-- client_counters&#45;&gt;req -->
<!-- in_flight_ids -->
<g id="node11" class="node">
<title>in_flight_ids</title>
<path fill="white" stroke="#64748b" d="M542.14,-444.25C542.14,-444.25 497.86,-444.25 497.86,-444.25 491.86,-444.25 485.86,-438.25 485.86,-432.25 485.86,-432.25 485.86,-420.25 485.86,-420.25 485.86,-414.25 491.86,-408.25 497.86,-408.25 497.86,-408.25 542.14,-408.25 542.14,-408.25 548.14,-408.25 554.14,-414.25 554.14,-420.25 554.14,-420.25 554.14,-432.25 554.14,-432.25 554.14,-438.25 548.14,-444.25 542.14,-444.25"/>
<text xml:space="preserve" text-anchor="middle" x="520" y="-421.8" font-family="Pretendard" font-size="11.00">in&#45;flight ids</text>
</g>
<!-- in_flight_ids&#45;&gt;db_black_box -->
<!-- db_black_box&#45;&gt;res -->
<g id="edge15" class="edge">
<title>db_black_box&#45;&gt;res</title>
<path fill="none" stroke="#475569" stroke-dasharray="5,2" d="M619.47,-203.94C578.81,-224.49 508.13,-260.23 464.39,-282.34"/>
<polygon fill="#475569" stroke="#475569" points="463.31,-280.14 458.16,-285.49 465.52,-284.52 463.31,-280.14"/>
<text xml:space="preserve" text-anchor="middle" x="523.93" y="-244.89" font-family="Pretendard" font-size="10.00">callback</text>
</g>
</g>
</svg>
