<?xml version="1.0" encoding="UTF-8" standalone="no"?>
<!DOCTYPE svg PUBLIC "-//W3C//DTD SVG 1.1//EN"
 "http://www.w3.org/Graphics/SVG/1.1/DTD/svg11.dtd">
<!-- Generated by graphviz version 14.1.5 (20260411.2331)
 -->
<!-- Title: CmdProcessorOverallArchitecture Pages: 1 -->
<svg width="798pt" height="337pt"
 viewBox="0.00 0.00 798.00 337.00" xmlns="http://www.w3.org/2000/svg" xmlns:xlink="http://www.w3.org/1999/xlink">
<g id="graph0" class="graph" transform="scale(1 1) rotate(0) translate(14.4 322.4)">
<title>CmdProcessorOverallArchitecture</title>
<g id="clust1" class="cluster">
<title>cluster_frontends</title>
<path fill="#f8fafc" stroke="#cbd5e1" d="M20,-8C20,-8 151.91,-8 151.91,-8 157.91,-8 163.91,-14 163.91,-20 163.91,-20 163.91,-96 163.91,-96 163.91,-102 157.91,-108 151.91,-108 151.91,-108 20,-108 20,-108 14,-108 8,-102 8,-96 8,-96 8,-20 8,-20 8,-14 14,-8 20,-8"/>
<text xml:space="preserve" text-anchor="middle" x="85.96" y="-91.65" font-family="Pretendard" font-size="13.00">외부 진입점</text>
</g>
<g id="clust2" class="cluster">
<title>cluster_contract</title>
<path fill="#eff6ff" stroke="#93c5fd" d="M219.91,-10C219.91,-10 372.07,-10 372.07,-10 378.07,-10 384.07,-16 384.07,-22 384.07,-22 384.07,-287 384.07,-287 384.07,-293 378.07,-299 372.07,-299 372.07,-299 219.91,-299 219.91,-299 213.91,-299 207.91,-293 207.91,-287 207.91,-287 207.91,-22 207.91,-22 207.91,-16 213.91,-10 219.91,-10"/>
<text xml:space="preserve" text-anchor="middle" x="295.99" y="-282.65" font-family="Pretendard" font-size="13.00">CmdProcessor 공통 계약</text>
</g>
<g id="clust3" class="cluster">
<title>cluster_impls</title>
<path fill="#f0f9ff" stroke="#bae6fd" d="M423.07,-49C423.07,-49 563.23,-49 563.23,-49 569.23,-49 575.23,-55 575.23,-61 575.23,-61 575.23,-288 575.23,-288 575.23,-294 569.23,-300 563.23,-300 563.23,-300 423.07,-300 423.07,-300 417.07,-300 411.07,-294 411.07,-288 411.07,-288 411.07,-61 411.07,-61 411.07,-55 417.07,-49 423.07,-49"/>
<text xml:space="preserve" text-anchor="middle" x="493.15" y="-283.65" font-family="Pretendard" font-size="13.00">CmdProcessor 구현체</text>
</g>
<g id="clust4" class="cluster">
<title>cluster_db</title>
<path fill="#ffffff" stroke="#cbd5e1" d="M652.98,-167C652.98,-167 748.89,-167 748.89,-167 754.89,-167 760.89,-173 760.89,-179 760.89,-179 760.89,-252 760.89,-252 760.89,-258 754.89,-264 748.89,-264 748.89,-264 652.98,-264 652.98,-264 646.98,-264 640.98,-258 640.98,-252 640.98,-252 640.98,-179 640.98,-179 640.98,-173 646.98,-167 652.98,-167"/>
<text xml:space="preserve" text-anchor="middle" x="700.94" y="-247.65" font-family="Pretendard" font-size="13.00">DB 실행 계층</text>
</g>
<!-- frontends -->
<g id="node1" class="node">
<title>frontends</title>
<path fill="white" stroke="#64748b" d="M133.91,-65.61C133.91,-65.61 38,-65.61 38,-65.61 32,-65.61 26,-59.61 26,-53.61 26,-53.61 26,-38.39 26,-38.39 26,-32.39 32,-26.39 38,-26.39 38,-26.39 133.91,-26.39 133.91,-26.39 139.91,-26.39 145.91,-32.39 145.91,-38.39 145.91,-38.39 145.91,-53.61 145.91,-53.61 145.91,-59.61 139.91,-65.61 133.91,-65.61"/>
<text xml:space="preserve" text-anchor="middle" x="85.96" y="-48.67" font-family="Pretendard" font-size="11.00">TCP / console / tests</text>
<text xml:space="preserve" text-anchor="middle" x="85.96" y="-36.67" font-family="Pretendard" font-size="11.00">외부 요청과 응답</text>
</g>
<!-- request -->
<g id="node2" class="node">
<title>request</title>
<path fill="white" stroke="#64748b" d="M325.95,-64C325.95,-64 266.04,-64 266.04,-64 260.04,-64 254.04,-58 254.04,-52 254.04,-52 254.04,-40 254.04,-40 254.04,-34 260.04,-28 266.04,-28 266.04,-28 325.95,-28 325.95,-28 331.95,-28 337.95,-34 337.95,-40 337.95,-40 337.95,-52 337.95,-52 337.95,-58 331.95,-64 325.95,-64"/>
<text xml:space="preserve" text-anchor="middle" x="295.99" y="-41.55" font-family="Pretendard" font-size="11.00">CmdRequest</text>
</g>
<!-- frontends&#45;&gt;request -->
<g id="edge1" class="edge">
<title>frontends&#45;&gt;request</title>
<path fill="none" stroke="#475569" d="M146.29,-46C177.69,-46 215.79,-46 245.56,-46"/>
<polygon fill="#475569" stroke="#475569" points="245.21,-48.45 252.21,-46 245.21,-43.55 245.21,-48.45"/>
<text xml:space="preserve" text-anchor="middle" x="185.91" y="-48.5" font-family="Pretendard" font-size="10.00">요청</text>
</g>
<!-- api -->
<g id="node3" class="node">
<title>api</title>
<path fill="white" stroke="#64748b" d="M354.07,-180.48C354.07,-180.48 237.91,-180.48 237.91,-180.48 231.91,-180.48 225.91,-174.48 225.91,-168.48 225.91,-168.48 225.91,-155.52 225.91,-155.52 225.91,-149.52 231.91,-143.52 237.91,-143.52 237.91,-143.52 354.07,-143.52 354.07,-143.52 360.07,-143.52 366.07,-149.52 366.07,-155.52 366.07,-155.52 366.07,-168.48 366.07,-168.48 366.07,-174.48 360.07,-180.48 354.07,-180.48"/>
<text xml:space="preserve" text-anchor="middle" x="295.99" y="-163.55" font-family="Pretendard" font-size="11.00">CmdProcessor interface</text>
<text xml:space="preserve" text-anchor="middle" x="295.99" y="-151.55" font-family="Pretendard" font-size="11.00">acquire / submit / release</text>
</g>
<!-- request&#45;&gt;api -->
<g id="edge2" class="edge">
<title>request&#45;&gt;api</title>
<path fill="none" stroke="#475569" d="M295.99,-64.38C295.99,-83.36 295.99,-113.18 295.99,-134.87"/>
<polygon fill="#475569" stroke="#475569" points="293.54,-134.81 295.99,-141.81 298.44,-134.81 293.54,-134.81"/>
<text xml:space="preserve" text-anchor="middle" x="286.99" y="-100.26" font-family="Pretendard" font-size="10.00">요청 제출</text>
</g>
<!-- engine -->
<g id="node5" class="node">
<title>engine</title>
<path fill="white" stroke="#64748b" d="M545.23,-257.48C545.23,-257.48 441.07,-257.48 441.07,-257.48 435.07,-257.48 429.07,-251.48 429.07,-245.48 429.07,-245.48 429.07,-232.52 429.07,-232.52 429.07,-226.52 435.07,-220.52 441.07,-220.52 441.07,-220.52 545.23,-220.52 545.23,-220.52 551.23,-220.52 557.23,-226.52 557.23,-232.52 557.23,-232.52 557.23,-245.48 557.23,-245.48 557.23,-251.48 551.23,-257.48 545.23,-257.48"/>
<text xml:space="preserve" text-anchor="middle" x="493.15" y="-240.55" font-family="Pretendard" font-size="11.00">EngineCmdProcessor</text>
<text xml:space="preserve" text-anchor="middle" x="493.15" y="-228.55" font-family="Pretendard" font-size="11.00">queue + worker model</text>
</g>
<!-- api&#45;&gt;engine -->
<g id="edge3" class="edge">
<title>api&#45;&gt;engine</title>
<path fill="none" stroke="#475569" d="M344.98,-180.93C372.75,-191.89 407.81,-205.72 436.74,-217.14"/>
<polygon fill="#475569" stroke="#475569" points="435.53,-219.29 442.94,-219.58 437.32,-214.73 435.53,-219.29"/>
</g>
<!-- repl -->
<g id="node6" class="node">
<title>repl</title>
<path fill="white" stroke="#64748b" d="M541.86,-180.48C541.86,-180.48 444.45,-180.48 444.45,-180.48 438.45,-180.48 432.45,-174.48 432.45,-168.48 432.45,-168.48 432.45,-155.52 432.45,-155.52 432.45,-149.52 438.45,-143.52 444.45,-143.52 444.45,-143.52 541.86,-143.52 541.86,-143.52 547.86,-143.52 553.86,-149.52 553.86,-155.52 553.86,-155.52 553.86,-168.48 553.86,-168.48 553.86,-174.48 547.86,-180.48 541.86,-180.48"/>
<text xml:space="preserve" text-anchor="middle" x="493.15" y="-163.55" font-family="Pretendard" font-size="11.00">REPLCmdProcessor</text>
<text xml:space="preserve" text-anchor="middle" x="493.15" y="-151.55" font-family="Pretendard" font-size="11.00">sync model</text>
</g>
<!-- api&#45;&gt;repl -->
<g id="edge4" class="edge">
<title>api&#45;&gt;repl</title>
<path fill="none" stroke="#475569" d="M366.35,-162C384.97,-162 405.09,-162 423.66,-162"/>
<polygon fill="#475569" stroke="#475569" points="423.56,-164.45 430.56,-162 423.56,-159.55 423.56,-164.45"/>
</g>
<!-- mock -->
<g id="node7" class="node">
<title>mock</title>
<path fill="white" stroke="#64748b" d="M539.98,-103.48C539.98,-103.48 446.32,-103.48 446.32,-103.48 440.32,-103.48 434.32,-97.48 434.32,-91.48 434.32,-91.48 434.32,-78.52 434.32,-78.52 434.32,-72.52 440.32,-66.52 446.32,-66.52 446.32,-66.52 539.98,-66.52 539.98,-66.52 545.98,-66.52 551.98,-72.52 551.98,-78.52 551.98,-78.52 551.98,-91.48 551.98,-91.48 551.98,-97.48 545.98,-103.48 539.98,-103.48"/>
<text xml:space="preserve" text-anchor="middle" x="493.15" y="-86.55" font-family="Pretendard" font-size="11.00">MockCmdProcessor</text>
<text xml:space="preserve" text-anchor="middle" x="493.15" y="-74.55" font-family="Pretendard" font-size="11.00">test model</text>
</g>
<!-- api&#45;&gt;mock -->
<g id="edge5" class="edge">
<title>api&#45;&gt;mock</title>
<path fill="none" stroke="#475569" d="M344.98,-143.07C372.75,-132.11 407.81,-118.28 436.74,-106.86"/>
<polygon fill="#475569" stroke="#475569" points="437.32,-109.27 442.94,-104.42 435.53,-104.71 437.32,-109.27"/>
</g>
<!-- response -->
<g id="node4" class="node">
<title>response</title>
<path fill="white" stroke="#64748b" d="M330.07,-256C330.07,-256 261.91,-256 261.91,-256 255.91,-256 249.91,-250 249.91,-244 249.91,-244 249.91,-232 249.91,-232 249.91,-226 255.91,-220 261.91,-220 261.91,-220 330.07,-220 330.07,-220 336.07,-220 342.07,-226 342.07,-232 342.07,-232 342.07,-244 342.07,-244 342.07,-250 336.07,-256 330.07,-256"/>
<text xml:space="preserve" text-anchor="middle" x="295.99" y="-233.55" font-family="Pretendard" font-size="11.00">CmdResponse</text>
</g>
<!-- response&#45;&gt;frontends -->
<g id="edge11" class="edge">
<title>response&#45;&gt;frontends</title>
<path fill="none" stroke="#475569" stroke-dasharray="5,2" d="M275.16,-219.7C237.89,-185.3 157.31,-110.93 114.69,-71.6"/>
<polygon fill="#475569" stroke="#475569" points="116.35,-69.8 109.55,-66.85 113.03,-73.4 116.35,-69.8"/>
<text xml:space="preserve" text-anchor="middle" x="185.91" y="-26.5" font-family="Pretendard" font-size="10.00">응답</text>
</g>
<!-- engine&#45;&gt;response -->
<g id="edge8" class="edge">
<title>engine&#45;&gt;response</title>
<path fill="none" stroke="#475569" stroke-dasharray="5,2" d="M428.65,-238.67C403.43,-238.55 374.74,-238.4 350.59,-238.27"/>
<polygon fill="#475569" stroke="#475569" points="350.78,-235.83 343.77,-238.24 350.76,-240.73 350.78,-235.83"/>
</g>
<!-- db_black_box -->
<g id="node8" class="node">
<title>db_black_box</title>
<path fill="white" stroke="#64748b" d="M730.89,-221C730.89,-221 670.98,-221 670.98,-221 664.98,-221 658.98,-215 658.98,-209 658.98,-209 658.98,-197 658.98,-197 658.98,-191 664.98,-185 670.98,-185 670.98,-185 730.89,-185 730.89,-185 736.89,-185 742.89,-191 742.89,-197 742.89,-197 742.89,-209 742.89,-209 742.89,-215 736.89,-221 730.89,-221"/>
<text xml:space="preserve" text-anchor="middle" x="700.94" y="-198.55" font-family="Pretendard" font-size="11.00">DB BlackBox</text>
</g>
<!-- engine&#45;&gt;db_black_box -->
<g id="edge6" class="edge">
<title>engine&#45;&gt;db_black_box</title>
<path fill="none" stroke="#475569" d="M557.57,-227.91C587.56,-222.66 622.82,-216.49 650.75,-211.6"/>
<polygon fill="#475569" stroke="#475569" points="650.83,-214.08 657.3,-210.46 649.98,-209.25 650.83,-214.08"/>
<text xml:space="preserve" text-anchor="middle" x="608.11" y="-224.58" font-family="Pretendard" font-size="10.00">SQL 처리</text>
</g>
<!-- repl&#45;&gt;response -->
<g id="edge9" class="edge">
<title>repl&#45;&gt;response</title>
<path fill="none" stroke="#475569" stroke-dasharray="5,2" d="M443.72,-180.86C415.23,-191.96 379.16,-206 349.92,-217.39"/>
<polygon fill="#475569" stroke="#475569" points="349.3,-215 343.66,-219.82 351.08,-219.57 349.3,-215"/>
</g>
<!-- repl&#45;&gt;db_black_box -->
<g id="edge7" class="edge">
<title>repl&#45;&gt;db_black_box</title>
<path fill="none" stroke="#475569" d="M554.22,-173.97C584.78,-180.06 621.47,-187.37 650.39,-193.13"/>
<polygon fill="#475569" stroke="#475569" points="649.88,-195.53 657.23,-194.49 650.84,-190.72 649.88,-195.53"/>
<text xml:space="preserve" text-anchor="middle" x="608.11" y="-191.07" font-family="Pretendard" font-size="10.00">SQL 처리</text>
</g>
<!-- mock&#45;&gt;response -->
<g id="edge10" class="edge">
<title>mock&#45;&gt;response</title>
<path fill="none" stroke="#475569" stroke-dasharray="5,2" d="M468.22,-103.76C432.63,-131.66 365.78,-184.07 326.97,-214.49"/>
<polygon fill="#475569" stroke="#475569" points="325.72,-212.36 321.72,-218.61 328.74,-216.22 325.72,-212.36"/>
</g>
</g>
</svg>
