<?xml version="1.0" encoding="UTF-8" standalone="no"?>
<!DOCTYPE svg PUBLIC "-//W3C//DTD SVG 1.1//EN"
 "http://www.w3.org/Graphics/SVG/1.1/DTD/svg11.dtd">
<!-- Generated by graphviz version 14.1.5 (20260411.2331)
 -->
<!-- Title: TcpConnectionAcceptFlow Pages: 1 -->
<svg width="1110pt" height="487pt"
 viewBox="0.00 0.00 1110.00 487.00" xmlns="http://www.w3.org/2000/svg" xmlns:xlink="http://www.w3.org/1999/xlink">
<g id="graph0" class="graph" transform="scale(1 1) rotate(0) translate(14.4 472.99)">
<title>TcpConnectionAcceptFlow</title>
<g id="clust1" class="cluster">
<title>cluster_accept</title>
<path fill="#f8fafc" stroke="#cbd5e1" d="M20,-353.88C20,-353.88 421,-353.88 421,-353.88 427,-353.88 433,-359.88 433,-365.88 433,-365.88 433,-438.59 433,-438.59 433,-444.59 427,-450.59 421,-450.59 421,-450.59 20,-450.59 20,-450.59 14,-450.59 8,-444.59 8,-438.59 8,-438.59 8,-365.88 8,-365.88 8,-359.88 14,-353.88 20,-353.88"/>
<text xml:space="preserve" text-anchor="middle" x="220.5" y="-434.24" font-family="Pretendard" font-size="13.00">connection request</text>
</g>
<g id="clust2" class="cluster">
<title>cluster_admission</title>
<path fill="#eff6ff" stroke="#bae6fd" d="M309,-223.96C309,-223.96 823,-223.96 823,-223.96 829,-223.96 835,-229.96 835,-235.96 835,-235.96 835,-323.88 835,-323.88 835,-329.88 829,-335.88 823,-335.88 823,-335.88 309,-335.88 309,-335.88 303,-335.88 297,-329.88 297,-323.88 297,-323.88 297,-235.96 297,-235.96 297,-229.96 303,-223.96 309,-223.96"/>
<text xml:space="preserve" text-anchor="middle" x="566" y="-319.53" font-family="Pretendard" font-size="13.00">admission control</text>
</g>
<g id="clust3" class="cluster">
<title>cluster_setup</title>
<path fill="#f0f9ff" stroke="#93c5fd" d="M514,-8C514,-8 1061,-8 1061,-8 1067,-8 1073,-14 1073,-20 1073,-20 1073,-183.71 1073,-183.71 1073,-189.71 1067,-195.71 1061,-195.71 1061,-195.71 514,-195.71 514,-195.71 508,-195.71 502,-189.71 502,-183.71 502,-183.71 502,-20 502,-20 502,-14 508,-8 514,-8"/>
<text xml:space="preserve" text-anchor="middle" x="787.5" y="-179.36" font-family="Pretendard" font-size="13.00">accepted connection setup</text>
</g>
<!-- client -->
<g id="node1" class="node">
<title>client</title>
<path fill="white" stroke="#64748b" d="M71.83,-409.97C71.83,-409.97 38.17,-409.97 38.17,-409.97 32.17,-409.97 26.17,-403.97 26.17,-397.97 26.17,-397.97 26.17,-385.01 26.17,-385.01 26.17,-379.01 32.17,-373.01 38.17,-373.01 38.17,-373.01 71.83,-373.01 71.83,-373.01 77.83,-373.01 83.83,-379.01 83.83,-385.01 83.83,-385.01 83.83,-397.97 83.83,-397.97 83.83,-403.97 77.83,-409.97 71.83,-409.97"/>
<text xml:space="preserve" text-anchor="middle" x="55" y="-393.04" font-family="Pretendard" font-size="11.00">client</text>
<text xml:space="preserve" text-anchor="middle" x="55" y="-381.04" font-family="Pretendard" font-size="11.00">connect</text>
</g>
<!-- accept -->
<g id="node2" class="node">
<title>accept</title>
<path fill="white" stroke="#64748b" d="M237.08,-411.09C237.08,-411.09 174.92,-411.09 174.92,-411.09 168.92,-411.09 162.92,-405.09 162.92,-399.09 162.92,-399.09 162.92,-383.88 162.92,-383.88 162.92,-377.88 168.92,-371.88 174.92,-371.88 174.92,-371.88 237.08,-371.88 237.08,-371.88 243.08,-371.88 249.08,-377.88 249.08,-383.88 249.08,-383.88 249.08,-399.09 249.08,-399.09 249.08,-405.09 243.08,-411.09 237.08,-411.09"/>
<text xml:space="preserve" text-anchor="middle" x="206" y="-394.16" font-family="Pretendard" font-size="11.00">accept thread</text>
<text xml:space="preserve" text-anchor="middle" x="206" y="-382.16" font-family="Pretendard" font-size="11.00">새 socket 확보</text>
</g>
<!-- client&#45;&gt;accept -->
<g id="edge1" class="edge">
<title>client&#45;&gt;accept</title>
<path fill="none" stroke="#475569" d="M84.2,-391.49C107.61,-391.49 131.01,-391.49 154.42,-391.49"/>
<polygon fill="#475569" stroke="#475569" points="154.19,-393.94 161.19,-391.49 154.19,-389.04 154.19,-393.94"/>
</g>
<!-- key -->
<g id="node3" class="node">
<title>key</title>
<path fill="white" stroke="#64748b" d="M403.45,-409.49C403.45,-409.49 340.55,-409.49 340.55,-409.49 334.55,-409.49 328.55,-403.49 328.55,-397.49 328.55,-397.49 328.55,-385.49 328.55,-385.49 328.55,-379.49 334.55,-373.49 340.55,-373.49 340.55,-373.49 403.45,-373.49 403.45,-373.49 409.45,-373.49 415.45,-379.49 415.45,-385.49 415.45,-385.49 415.45,-397.49 415.45,-397.49 415.45,-403.49 409.45,-409.49 403.45,-409.49"/>
<text xml:space="preserve" text-anchor="middle" x="372" y="-388.16" font-family="Pretendard" font-size="11.00">client key 생성</text>
</g>
<!-- accept&#45;&gt;key -->
<g id="edge2" class="edge">
<title>accept&#45;&gt;key</title>
<path fill="none" stroke="#475569" d="M249.45,-391.49C273,-391.49 296.55,-391.49 320.1,-391.49"/>
<polygon fill="#475569" stroke="#475569" points="319.92,-393.94 326.92,-391.49 319.92,-389.04 319.92,-393.94"/>
</g>
<!-- reserve -->
<g id="node4" class="node">
<title>reserve</title>
<path fill="white" stroke="#64748b" d="M416.95,-287.17C416.95,-287.17 327.05,-287.17 327.05,-287.17 321.05,-287.17 315.05,-281.17 315.05,-275.17 315.05,-275.17 315.05,-263.17 315.05,-263.17 315.05,-257.17 321.05,-251.17 327.05,-251.17 327.05,-251.17 416.95,-251.17 416.95,-251.17 422.95,-251.17 428.95,-257.17 428.95,-263.17 428.95,-263.17 428.95,-275.17 428.95,-275.17 428.95,-281.17 422.95,-287.17 416.95,-287.17"/>
<text xml:space="preserve" text-anchor="middle" x="372" y="-265.85" font-family="Pretendard" font-size="11.00">connection slot 예약</text>
</g>
<!-- key&#45;&gt;reserve -->
<g id="edge3" class="edge">
<title>key&#45;&gt;reserve</title>
<path fill="none" stroke="#475569" d="M372,-372.99C372,-352.65 372,-318.9 372,-295.64"/>
<polygon fill="#475569" stroke="#475569" points="374.45,-295.81 372,-288.81 369.55,-295.81 374.45,-295.81"/>
</g>
<!-- check -->
<g id="node5" class="node">
<title>check</title>
<path fill="white" stroke="#64748b" d="M564.87,-291.89C564.87,-291.89 519.72,-273.66 519.72,-273.66 514.15,-271.42 514.15,-266.92 519.72,-264.68 519.72,-264.68 564.87,-246.45 564.87,-246.45 570.44,-244.21 581.56,-244.21 587.13,-246.45 587.13,-246.45 632.28,-264.68 632.28,-264.68 637.85,-266.92 637.85,-271.42 632.28,-273.66 632.28,-273.66 587.13,-291.89 587.13,-291.89 581.56,-294.13 570.44,-294.13 564.87,-291.89"/>
<text xml:space="preserve" text-anchor="middle" x="576" y="-265.85" font-family="Pretendard" font-size="11.00">limit 통과?</text>
</g>
<!-- reserve&#45;&gt;check -->
<g id="edge4" class="edge">
<title>reserve&#45;&gt;check</title>
<path fill="none" stroke="#475569" d="M429.38,-269.17C452.6,-269.17 475.83,-269.17 499.05,-269.17"/>
<polygon fill="#475569" stroke="#475569" points="498.76,-271.62 505.76,-269.17 498.76,-266.72 498.76,-271.62"/>
</g>
<!-- reject -->
<g id="node6" class="node">
<title>reject</title>
<path fill="#fff1f2" stroke="#fda4af" d="M805.21,-288.78C805.21,-288.78 734.79,-288.78 734.79,-288.78 728.79,-288.78 722.79,-282.78 722.79,-276.78 722.79,-276.78 722.79,-261.57 722.79,-261.57 722.79,-255.57 728.79,-249.57 734.79,-249.57 734.79,-249.57 805.21,-249.57 805.21,-249.57 811.21,-249.57 817.21,-255.57 817.21,-261.57 817.21,-261.57 817.21,-276.78 817.21,-276.78 817.21,-282.78 811.21,-288.78 805.21,-288.78"/>
<text xml:space="preserve" text-anchor="middle" x="770" y="-271.85" font-family="Pretendard" font-size="11.00">connection 거절</text>
<text xml:space="preserve" text-anchor="middle" x="770" y="-257.6" font-family="Pretendard" font-size="11.00">socket close</text>
</g>
<!-- check&#45;&gt;reject -->
<g id="edge5" class="edge">
<title>check&#45;&gt;reject</title>
<path fill="none" stroke="#475569" d="M644.67,-269.17C667.38,-269.17 692.36,-269.17 714,-269.17"/>
<polygon fill="#475569" stroke="#475569" points="713.92,-271.62 720.92,-269.17 713.92,-266.72 713.92,-271.62"/>
<text xml:space="preserve" text-anchor="middle" x="683.1" y="-273.92" font-family="Pretendard" font-size="10.00">no</text>
</g>
<!-- timeout -->
<g id="node7" class="node">
<title>timeout</title>
<path fill="white" stroke="#64748b" d="M619.83,-154.61C619.83,-154.61 532.17,-154.61 532.17,-154.61 526.17,-154.61 520.17,-148.61 520.17,-142.61 520.17,-142.61 520.17,-130.61 520.17,-130.61 520.17,-124.61 526.17,-118.61 532.17,-118.61 532.17,-118.61 619.83,-118.61 619.83,-118.61 625.83,-118.61 631.83,-124.61 631.83,-130.61 631.83,-130.61 631.83,-142.61 631.83,-142.61 631.83,-148.61 625.83,-154.61 619.83,-154.61"/>
<text xml:space="preserve" text-anchor="middle" x="576" y="-133.28" font-family="Pretendard" font-size="11.00">socket timeout 설정</text>
</g>
<!-- check&#45;&gt;timeout -->
<g id="edge6" class="edge">
<title>check&#45;&gt;timeout</title>
<path fill="none" stroke="#475569" d="M576,-241.43C576,-218.51 576,-185.72 576,-163.15"/>
<polygon fill="#475569" stroke="#475569" points="578.45,-163.26 576,-156.26 573.55,-163.26 578.45,-163.26"/>
<text xml:space="preserve" text-anchor="middle" x="583.88" y="-205.46" font-family="Pretendard" font-size="10.00">yes</text>
</g>
<!-- connection -->
<g id="node8" class="node">
<title>connection</title>
<path fill="white" stroke="#64748b" d="M821.08,-156.21C821.08,-156.21 722.92,-156.21 722.92,-156.21 716.92,-156.21 710.92,-150.21 710.92,-144.21 710.92,-144.21 710.92,-129 710.92,-129 710.92,-123 716.92,-117 722.92,-117 722.92,-117 821.08,-117 821.08,-117 827.08,-117 833.08,-123 833.08,-129 833.08,-129 833.08,-144.21 833.08,-144.21 833.08,-150.21 827.08,-156.21 821.08,-156.21"/>
<text xml:space="preserve" text-anchor="middle" x="772" y="-139.28" font-family="Pretendard" font-size="11.00">TCPConnection 생성</text>
<text xml:space="preserve" text-anchor="middle" x="772" y="-125.03" font-family="Pretendard" font-size="11.00">fd + client key + state</text>
</g>
<!-- timeout&#45;&gt;connection -->
<g id="edge7" class="edge">
<title>timeout&#45;&gt;connection</title>
<path fill="none" stroke="#475569" d="M632.27,-136.61C655.63,-136.61 678.98,-136.61 702.34,-136.61"/>
<polygon fill="#475569" stroke="#475569" points="702.08,-139.06 709.08,-136.61 702.08,-134.16 702.08,-139.06"/>
</g>
<!-- list -->
<g id="node9" class="node">
<title>list</title>
<path fill="white" stroke="#64748b" d="M1043.2,-154.61C1043.2,-154.61 924.79,-154.61 924.79,-154.61 918.79,-154.61 912.79,-148.61 912.79,-142.61 912.79,-142.61 912.79,-130.61 912.79,-130.61 912.79,-124.61 918.79,-118.61 924.79,-118.61 924.79,-118.61 1043.2,-118.61 1043.2,-118.61 1049.2,-118.61 1055.2,-124.61 1055.2,-130.61 1055.2,-130.61 1055.2,-142.61 1055.2,-142.61 1055.2,-148.61 1049.2,-154.61 1043.2,-154.61"/>
<text xml:space="preserve" text-anchor="middle" x="984" y="-133.28" font-family="Pretendard" font-size="11.00">server connections에 등록</text>
</g>
<!-- connection&#45;&gt;list -->
<g id="edge8" class="edge">
<title>connection&#45;&gt;list</title>
<path fill="none" stroke="#475569" d="M833.28,-136.61C856.89,-136.61 880.5,-136.61 904.12,-136.61"/>
<polygon fill="#475569" stroke="#475569" points="903.95,-139.06 910.95,-136.61 903.95,-134.16 903.95,-139.06"/>
</g>
<!-- thread -->
<g id="node10" class="node">
<title>thread</title>
<path fill="white" stroke="#64748b" d="M871.08,-62C871.08,-62 766.92,-62 766.92,-62 760.92,-62 754.92,-56 754.92,-50 754.92,-50 754.92,-38 754.92,-38 754.92,-32 760.92,-26 766.92,-26 766.92,-26 871.08,-26 871.08,-26 877.08,-26 883.08,-32 883.08,-38 883.08,-38 883.08,-50 883.08,-50 883.08,-56 877.08,-62 871.08,-62"/>
<text xml:space="preserve" text-anchor="middle" x="819" y="-40.67" font-family="Pretendard" font-size="11.00">connection thread 시작</text>
</g>
<!-- list&#45;&gt;thread -->
<g id="edge9" class="edge">
<title>list&#45;&gt;thread</title>
<path fill="none" stroke="#475569" d="M952.19,-118.14C925.37,-103.41 886.88,-82.27 858.16,-66.51"/>
<polygon fill="#475569" stroke="#475569" points="859.36,-64.37 852.04,-63.14 857,-68.66 859.36,-64.37"/>
</g>
<!-- read_loop -->
<g id="node11" class="node">
<title>read_loop</title>
<path fill="white" stroke="#64748b" d="M1043.08,-62C1043.08,-62 974.92,-62 974.92,-62 968.92,-62 962.92,-56 962.92,-50 962.92,-50 962.92,-38 962.92,-38 962.92,-32 968.92,-26 974.92,-26 974.92,-26 1043.08,-26 1043.08,-26 1049.08,-26 1055.08,-32 1055.08,-38 1055.08,-38 1055.08,-50 1055.08,-50 1055.08,-56 1049.08,-62 1043.08,-62"/>
<text xml:space="preserve" text-anchor="middle" x="1009" y="-39.55" font-family="Pretendard" font-size="11.00">JSON line loop</text>
</g>
<!-- thread&#45;&gt;read_loop -->
<g id="edge10" class="edge">
<title>thread&#45;&gt;read_loop</title>
<path fill="none" stroke="#475569" d="M883.57,-44C907.09,-44 930.61,-44 954.13,-44"/>
<polygon fill="#475569" stroke="#475569" points="953.94,-46.45 960.94,-44 953.94,-41.55 953.94,-46.45"/>
</g>
</g>
</svg>
