<?xml version="1.0" encoding="UTF-8" standalone="no"?>
<!DOCTYPE svg PUBLIC "-//W3C//DTD SVG 1.1//EN"
 "http://www.w3.org/Graphics/SVG/1.1/DTD/svg11.dtd">
<!-- Generated by graphviz version 14.1.5 (20260411.2331)
 -->
<!-- Title: TcpCmdProcessorStateLifecycle Pages: 1 -->
<svg width="1532pt" height="662pt"
 viewBox="0.00 0.00 1532.00 662.00" xmlns="http://www.w3.org/2000/svg" xmlns:xlink="http://www.w3.org/1999/xlink">
<g id="graph0" class="graph" transform="scale(1 1) rotate(0) translate(14.4 647.4)">
<title>TcpCmdProcessorStateLifecycle</title>
<g id="clust1" class="cluster">
<title>cluster_tcp</title>
<path fill="#eff6ff" stroke="#93c5fd" d="M386.94,-301C386.94,-301 837.64,-301 837.64,-301 843.64,-301 849.64,-307 849.64,-313 849.64,-313 849.64,-460 849.64,-460 849.64,-466 843.64,-472 837.64,-472 837.64,-472 386.94,-472 386.94,-472 380.94,-472 374.94,-466 374.94,-460 374.94,-460 374.94,-313 374.94,-313 374.94,-307 380.94,-301 386.94,-301"/>
<text xml:space="preserve" text-anchor="middle" x="612.29" y="-455.65" font-family="Pretendard" font-size="13.00">TCPCmdProcessor state</text>
</g>
<g id="clust2" class="cluster">
<title>cluster_connection</title>
<path fill="#f0f9ff" stroke="#bae6fd" d="M930.39,-339C930.39,-339 1277.08,-339 1277.08,-339 1283.08,-339 1289.08,-345 1289.08,-351 1289.08,-351 1289.08,-497 1289.08,-497 1289.08,-503 1283.08,-509 1277.08,-509 1277.08,-509 930.39,-509 930.39,-509 924.39,-509 918.39,-503 918.39,-497 918.39,-497 918.39,-351 918.39,-351 918.39,-345 924.39,-339 930.39,-339"/>
<text xml:space="preserve" text-anchor="middle" x="1103.74" y="-492.65" font-family="Pretendard" font-size="13.00">TCPConnection state</text>
</g>
<g id="clust3" class="cluster">
<title>cluster_request</title>
<path fill="#f8fafc" stroke="#cbd5e1" d="M20,-43C20,-43 1319.46,-43 1319.46,-43 1325.46,-43 1331.46,-49 1331.46,-55 1331.46,-55 1331.46,-281 1331.46,-281 1331.46,-287 1325.46,-293 1319.46,-293 1319.46,-293 20,-293 20,-293 14,-293 8,-287 8,-281 8,-281 8,-55 8,-55 8,-49 14,-43 20,-43"/>
<text xml:space="preserve" text-anchor="middle" x="669.73" y="-276.65" font-family="Pretendard" font-size="13.00">request lifecycle</text>
</g>
<!-- server_fields -->
<g id="node1" class="node">
<title>server_fields</title>
<path fill="white" stroke="#64748b" d="M514.35,-432.48C514.35,-432.48 404.94,-432.48 404.94,-432.48 398.94,-432.48 392.94,-426.48 392.94,-420.48 392.94,-420.48 392.94,-395.52 392.94,-395.52 392.94,-389.52 398.94,-383.52 404.94,-383.52 404.94,-383.52 514.35,-383.52 514.35,-383.52 520.35,-383.52 526.35,-389.52 526.35,-395.52 526.35,-395.52 526.35,-420.48 526.35,-420.48 526.35,-426.48 520.35,-432.48 514.35,-432.48"/>
<text xml:space="preserve" text-anchor="middle" x="459.65" y="-415.55" font-family="Pretendard" font-size="11.00">listen_fd / actual_port</text>
<text xml:space="preserve" text-anchor="middle" x="459.65" y="-403.55" font-family="Pretendard" font-size="11.00">stopping / active_clients</text>
<text xml:space="preserve" text-anchor="middle" x="459.65" y="-391.55" font-family="Pretendard" font-size="11.00">processor*</text>
</g>
<!-- connections -->
<g id="node2" class="node">
<title>connections</title>
<path fill="white" stroke="#64748b" d="M813.64,-432.48C813.64,-432.48 693.73,-432.48 693.73,-432.48 687.73,-432.48 681.73,-426.48 681.73,-420.48 681.73,-420.48 681.73,-407.52 681.73,-407.52 681.73,-401.52 687.73,-395.52 693.73,-395.52 693.73,-395.52 813.64,-395.52 813.64,-395.52 819.64,-395.52 825.64,-401.52 825.64,-407.52 825.64,-407.52 825.64,-420.48 825.64,-420.48 825.64,-426.48 819.64,-432.48 813.64,-432.48"/>
<text xml:space="preserve" text-anchor="middle" x="753.68" y="-415.55" font-family="Pretendard" font-size="11.00">connections</text>
<text xml:space="preserve" text-anchor="middle" x="753.68" y="-403.55" font-family="Pretendard" font-size="11.00">TCPConnection linked list</text>
</g>
<!-- server_fields&#45;&gt;connections -->
<g id="edge1" class="edge">
<title>server_fields&#45;&gt;connections</title>
<path fill="none" stroke="#475569" d="M526.55,-409.35C569.95,-410.25 627.01,-411.42 672.96,-412.36"/>
<polygon fill="#475569" stroke="#475569" points="672.84,-414.81 679.89,-412.5 672.94,-409.91 672.84,-414.81"/>
</g>
<!-- counters -->
<g id="node3" class="node">
<title>counters</title>
<path fill="white" stroke="#64748b" d="M819.64,-355.48C819.64,-355.48 687.73,-355.48 687.73,-355.48 681.73,-355.48 675.73,-349.48 675.73,-343.48 675.73,-343.48 675.73,-330.52 675.73,-330.52 675.73,-324.52 681.73,-318.52 687.73,-318.52 687.73,-318.52 819.64,-318.52 819.64,-318.52 825.64,-318.52 831.64,-324.52 831.64,-330.52 831.64,-330.52 831.64,-343.48 831.64,-343.48 831.64,-349.48 825.64,-355.48 819.64,-355.48"/>
<text xml:space="preserve" text-anchor="middle" x="753.68" y="-338.55" font-family="Pretendard" font-size="11.00">client_counters</text>
<text xml:space="preserve" text-anchor="middle" x="753.68" y="-326.55" font-family="Pretendard" font-size="11.00">TCPClientCounter linked list</text>
</g>
<!-- server_fields&#45;&gt;counters -->
<g id="edge2" class="edge">
<title>server_fields&#45;&gt;counters</title>
<path fill="none" stroke="#475569" d="M526.55,-391.98C568.12,-381.87 622.25,-368.71 667.12,-357.8"/>
<polygon fill="#475569" stroke="#475569" points="667.69,-360.19 673.91,-356.15 666.53,-355.42 667.69,-360.19"/>
</g>
<!-- conn_fields -->
<g id="node4" class="node">
<title>conn_fields</title>
<path fill="white" stroke="#64748b" d="M1070.55,-438.48C1070.55,-438.48 948.39,-438.48 948.39,-438.48 942.39,-438.48 936.39,-432.48 936.39,-426.48 936.39,-426.48 936.39,-401.52 936.39,-401.52 936.39,-395.52 942.39,-389.52 948.39,-389.52 948.39,-389.52 1070.55,-389.52 1070.55,-389.52 1076.55,-389.52 1082.55,-395.52 1082.55,-401.52 1082.55,-401.52 1082.55,-426.48 1082.55,-426.48 1082.55,-432.48 1076.55,-438.48 1070.55,-438.48"/>
<text xml:space="preserve" text-anchor="middle" x="1009.47" y="-421.55" font-family="Pretendard" font-size="11.00">client_fd / client_key</text>
<text xml:space="preserve" text-anchor="middle" x="1009.47" y="-409.55" font-family="Pretendard" font-size="11.00">closing / ref_count</text>
<text xml:space="preserve" text-anchor="middle" x="1009.47" y="-397.55" font-family="Pretendard" font-size="11.00">state_mutex / write_mutex</text>
</g>
<!-- connections&#45;&gt;conn_fields -->
<g id="edge3" class="edge">
<title>connections&#45;&gt;conn_fields</title>
<path fill="none" stroke="#475569" d="M826.05,-414C857.81,-414 895.36,-414 928.1,-414"/>
<polygon fill="#475569" stroke="#475569" points="927.8,-416.45 934.8,-414 927.8,-411.55 927.8,-416.45"/>
</g>
<!-- inflight -->
<g id="node5" class="node">
<title>inflight</title>
<path fill="white" stroke="#64748b" d="M1254.96,-469.48C1254.96,-469.48 1204.05,-469.48 1204.05,-469.48 1198.05,-469.48 1192.05,-463.48 1192.05,-457.48 1192.05,-457.48 1192.05,-444.52 1192.05,-444.52 1192.05,-438.52 1198.05,-432.52 1204.05,-432.52 1204.05,-432.52 1254.96,-432.52 1254.96,-432.52 1260.96,-432.52 1266.96,-438.52 1266.96,-444.52 1266.96,-444.52 1266.96,-457.48 1266.96,-457.48 1266.96,-463.48 1260.96,-469.48 1254.96,-469.48"/>
<text xml:space="preserve" text-anchor="middle" x="1229.5" y="-452.55" font-family="Pretendard" font-size="11.00">inflight_ids</text>
<text xml:space="preserve" text-anchor="middle" x="1229.5" y="-440.55" font-family="Pretendard" font-size="11.00">id linked list</text>
</g>
<!-- conn_fields&#45;&gt;inflight -->
<g id="edge4" class="edge">
<title>conn_fields&#45;&gt;inflight</title>
<path fill="none" stroke="#475569" d="M1082.77,-426.27C1115.94,-431.9 1154.24,-438.4 1183.26,-443.32"/>
<polygon fill="#475569" stroke="#475569" points="1182.76,-445.72 1190.07,-444.48 1183.58,-440.89 1182.76,-445.72"/>
</g>
<!-- inflight_count -->
<g id="node6" class="node">
<title>inflight_count</title>
<path fill="white" stroke="#64748b" d="M1259.08,-393C1259.08,-393 1199.92,-393 1199.92,-393 1193.92,-393 1187.92,-387 1187.92,-381 1187.92,-381 1187.92,-369 1187.92,-369 1187.92,-363 1193.92,-357 1199.92,-357 1199.92,-357 1259.08,-357 1259.08,-357 1265.08,-357 1271.08,-363 1271.08,-369 1271.08,-369 1271.08,-381 1271.08,-381 1271.08,-387 1265.08,-393 1259.08,-393"/>
<text xml:space="preserve" text-anchor="middle" x="1229.5" y="-370.55" font-family="Pretendard" font-size="11.00">inflight_count</text>
</g>
<!-- conn_fields&#45;&gt;inflight_count -->
<g id="edge5" class="edge">
<title>conn_fields&#45;&gt;inflight_count</title>
<path fill="none" stroke="#475569" d="M1082.77,-401.07C1114.47,-395.4 1150.87,-388.89 1179.36,-383.79"/>
<polygon fill="#475569" stroke="#475569" points="1179.6,-386.24 1186.06,-382.59 1178.74,-381.41 1179.6,-386.24"/>
</g>
<!-- json -->
<g id="node7" class="node">
<title>json</title>
<path fill="white" stroke="#64748b" d="M118.91,-97.48C118.91,-97.48 69.5,-97.48 69.5,-97.48 63.5,-97.48 57.5,-91.48 57.5,-85.48 57.5,-85.48 57.5,-72.52 57.5,-72.52 57.5,-66.52 63.5,-60.52 69.5,-60.52 69.5,-60.52 118.91,-60.52 118.91,-60.52 124.91,-60.52 130.91,-66.52 130.91,-72.52 130.91,-72.52 130.91,-85.48 130.91,-85.48 130.91,-91.48 124.91,-97.48 118.91,-97.48"/>
<text xml:space="preserve" text-anchor="middle" x="94.2" y="-80.55" font-family="Pretendard" font-size="11.00">JSON line</text>
<text xml:space="preserve" text-anchor="middle" x="94.2" y="-68.55" font-family="Pretendard" font-size="11.00">{id, op, sql}</text>
</g>
<!-- parse -->
<g id="node8" class="node">
<title>parse</title>
<path fill="white" stroke="#64748b" d="M311.94,-97.48C311.94,-97.48 239.28,-97.48 239.28,-97.48 233.28,-97.48 227.28,-91.48 227.28,-85.48 227.28,-85.48 227.28,-72.52 227.28,-72.52 227.28,-66.52 233.28,-60.52 239.28,-60.52 239.28,-60.52 311.94,-60.52 311.94,-60.52 317.94,-60.52 323.94,-66.52 323.94,-72.52 323.94,-72.52 323.94,-85.48 323.94,-85.48 323.94,-91.48 317.94,-97.48 311.94,-97.48"/>
<text xml:space="preserve" text-anchor="middle" x="275.61" y="-80.55" font-family="Pretendard" font-size="11.00">parse + validate</text>
<text xml:space="preserve" text-anchor="middle" x="275.61" y="-68.55" font-family="Pretendard" font-size="11.00">id/op/sql</text>
</g>
<!-- json&#45;&gt;parse -->
<g id="edge6" class="edge">
<title>json&#45;&gt;parse</title>
<path fill="none" stroke="#475569" d="M131.08,-79C156.12,-79 190.03,-79 218.61,-79"/>
<polygon fill="#475569" stroke="#475569" points="218.38,-81.45 225.38,-79 218.38,-76.55 218.38,-81.45"/>
</g>
<!-- register -->
<g id="node9" class="node">
<title>register</title>
<path fill="white" stroke="#64748b" d="M497.85,-138.6C497.85,-138.6 421.44,-138.6 421.44,-138.6 415.44,-138.6 409.44,-132.6 409.44,-126.6 409.44,-126.6 409.44,-111.39 409.44,-111.39 409.44,-105.39 415.44,-99.39 421.44,-99.39 421.44,-99.39 497.85,-99.39 497.85,-99.39 503.85,-99.39 509.85,-105.39 509.85,-111.39 509.85,-111.39 509.85,-126.6 509.85,-126.6 509.85,-132.6 503.85,-138.6 497.85,-138.6"/>
<text xml:space="preserve" text-anchor="middle" x="459.65" y="-121.67" font-family="Pretendard" font-size="11.00">register_inflight()</text>
<text xml:space="preserve" text-anchor="middle" x="459.65" y="-109.67" font-family="Pretendard" font-size="11.00">중복/limit 검사</text>
</g>
<!-- parse&#45;&gt;register -->
<g id="edge7" class="edge">
<title>parse&#45;&gt;register</title>
<path fill="none" stroke="#475569" d="M324.44,-89.51C347.91,-94.67 376.37,-100.92 401.03,-106.34"/>
<polygon fill="#475569" stroke="#475569" points="400.4,-108.71 407.76,-107.82 401.45,-103.92 400.4,-108.71"/>
</g>
<!-- register&#45;&gt;counters -->
<g id="edge14" class="edge">
<title>register&#45;&gt;counters</title>
<path fill="none" stroke="#475569" d="M487.34,-138.92C534.85,-174.39 635,-249.15 697.76,-296"/>
<polygon fill="#475569" stroke="#475569" points="696.18,-297.87 703.25,-300.1 699.11,-293.95 696.18,-297.87"/>
<text xml:space="preserve" text-anchor="middle" x="595.98" y="-288.58" font-family="Pretendard" font-size="10.00">client inflight +1</text>
</g>
<!-- register&#45;&gt;inflight -->
<g id="edge12" class="edge">
<title>register&#45;&gt;inflight</title>
<path fill="none" stroke="#475569" d="M510.35,-134.13C627.18,-168.99 905.39,-252 905.39,-252 905.39,-252 969.2,-291.18 1040.2,-334.77"/>
<polygon fill="#475569" stroke="#475569" points="1038.55,-336.63 1045.8,-338.21 1041.12,-332.46 1038.55,-336.63"/>
<text xml:space="preserve" text-anchor="middle" x="891.14" y="-242.5" font-family="Pretendard" font-size="10.00">id 추가</text>
</g>
<!-- register&#45;&gt;inflight_count -->
<g id="edge13" class="edge">
<title>register&#45;&gt;inflight_count</title>
<path fill="none" stroke="#475569" d="M510.22,-124.81C625.28,-138.04 896.76,-169.25 896.76,-169.25 896.76,-169.25 1106.08,-298.68 1192.68,-352.23"/>
<polygon fill="#475569" stroke="#475569" points="1191.15,-354.17 1198.4,-355.76 1193.73,-350 1191.15,-354.17"/>
<text xml:space="preserve" text-anchor="middle" x="891.14" y="-159.75" font-family="Pretendard" font-size="10.00">+1</text>
</g>
<!-- acquire -->
<g id="node10" class="node">
<title>acquire</title>
<path fill="white" stroke="#64748b" d="M833.89,-97C833.89,-97 673.48,-97 673.48,-97 667.48,-97 661.48,-91 661.48,-85 661.48,-85 661.48,-73 661.48,-73 661.48,-67 667.48,-61 673.48,-61 673.48,-61 833.89,-61 833.89,-61 839.89,-61 845.89,-67 845.89,-73 845.89,-73 845.89,-85 845.89,-85 845.89,-91 839.89,-97 833.89,-97"/>
<text xml:space="preserve" text-anchor="middle" x="753.68" y="-74.55" font-family="Pretendard" font-size="11.00">cmd_processor_acquire_request()</text>
</g>
<!-- register&#45;&gt;acquire -->
<g id="edge8" class="edge">
<title>register&#45;&gt;acquire</title>
<path fill="none" stroke="#475569" d="M510.19,-112.21C549.19,-106.87 604.8,-99.26 652.93,-92.66"/>
<polygon fill="#475569" stroke="#475569" points="653.11,-95.11 659.71,-91.73 652.44,-90.26 653.11,-95.11"/>
</g>
<!-- set_request -->
<g id="node11" class="node">
<title>set_request</title>
<path fill="white" stroke="#64748b" d="M1058.92,-97.48C1058.92,-97.48 960.01,-97.48 960.01,-97.48 954.01,-97.48 948.01,-91.48 948.01,-85.48 948.01,-85.48 948.01,-72.52 948.01,-72.52 948.01,-66.52 954.01,-60.52 960.01,-60.52 960.01,-60.52 1058.92,-60.52 1058.92,-60.52 1064.92,-60.52 1070.92,-66.52 1070.92,-72.52 1070.92,-72.52 1070.92,-85.48 1070.92,-85.48 1070.92,-91.48 1064.92,-97.48 1058.92,-97.48"/>
<text xml:space="preserve" text-anchor="middle" x="1009.47" y="-80.55" font-family="Pretendard" font-size="11.00">set_sql_request()</text>
<text xml:space="preserve" text-anchor="middle" x="1009.47" y="-68.55" font-family="Pretendard" font-size="11.00">or set_ping_request()</text>
</g>
<!-- acquire&#45;&gt;set_request -->
<g id="edge9" class="edge">
<title>acquire&#45;&gt;set_request</title>
<path fill="none" stroke="#475569" d="M846.31,-79C877.06,-79 910.82,-79 939.54,-79"/>
<polygon fill="#475569" stroke="#475569" points="939.37,-81.45 946.37,-79 939.37,-76.55 939.37,-81.45"/>
</g>
<!-- submit -->
<g id="node12" class="node">
<title>submit</title>
<path fill="white" stroke="#64748b" d="M1301.46,-97.48C1301.46,-97.48 1157.55,-97.48 1157.55,-97.48 1151.55,-97.48 1145.55,-91.48 1145.55,-85.48 1145.55,-85.48 1145.55,-72.52 1145.55,-72.52 1145.55,-66.52 1151.55,-60.52 1157.55,-60.52 1157.55,-60.52 1301.46,-60.52 1301.46,-60.52 1307.46,-60.52 1313.46,-66.52 1313.46,-72.52 1313.46,-72.52 1313.46,-85.48 1313.46,-85.48 1313.46,-91.48 1307.46,-97.48 1301.46,-97.48"/>
<text xml:space="preserve" text-anchor="middle" x="1229.5" y="-80.55" font-family="Pretendard" font-size="11.00">cmd_processor_submit()</text>
<text xml:space="preserve" text-anchor="middle" x="1229.5" y="-68.55" font-family="Pretendard" font-size="11.00">callback user_data=connection</text>
</g>
<!-- set_request&#45;&gt;submit -->
<g id="edge10" class="edge">
<title>set_request&#45;&gt;submit</title>
<path fill="none" stroke="#475569" d="M1071.2,-79C1091.54,-79 1114.68,-79 1136.85,-79"/>
<polygon fill="#475569" stroke="#475569" points="1136.77,-81.45 1143.77,-79 1136.77,-76.55 1136.77,-81.45"/>
</g>
<!-- cmd -->
<g id="node17" class="node">
<title>cmd</title>
<path fill="#ffffff" stroke="#64748b" d="M1491.12,-42.61C1491.12,-42.61 1388.46,-42.61 1388.46,-42.61 1382.46,-42.61 1376.46,-36.61 1376.46,-30.61 1376.46,-30.61 1376.46,-15.39 1376.46,-15.39 1376.46,-9.39 1382.46,-3.39 1388.46,-3.39 1388.46,-3.39 1491.12,-3.39 1491.12,-3.39 1497.12,-3.39 1503.12,-9.39 1503.12,-15.39 1503.12,-15.39 1503.12,-30.61 1503.12,-30.61 1503.12,-36.61 1497.12,-42.61 1491.12,-42.61"/>
<text xml:space="preserve" text-anchor="middle" x="1439.79" y="-25.68" font-family="Pretendard" font-size="11.00">CmdProcessor 구현체</text>
<text xml:space="preserve" text-anchor="middle" x="1439.79" y="-11.43" font-family="Pretendard" font-size="11.00">Engine / REPL / Mock</text>
</g>
<!-- submit&#45;&gt;cmd -->
<g id="edge11" class="edge">
<title>submit&#45;&gt;cmd</title>
<path fill="none" stroke="#475569" d="M1301.02,-60.04C1322.58,-54.24 1346.29,-47.87 1367.87,-42.07"/>
<polygon fill="#475569" stroke="#475569" points="1368.45,-44.45 1374.57,-40.27 1367.18,-39.72 1368.45,-44.45"/>
</g>
<!-- callback -->
<g id="node13" class="node">
<title>callback</title>
<path fill="white" stroke="#64748b" d="M150.41,-174C150.41,-174 38,-174 38,-174 32,-174 26,-168 26,-162 26,-162 26,-150 26,-150 26,-144 32,-138 38,-138 38,-138 150.41,-138 150.41,-138 156.41,-138 162.41,-144 162.41,-150 162.41,-150 162.41,-162 162.41,-162 162.41,-168 156.41,-174 150.41,-174"/>
<text xml:space="preserve" text-anchor="middle" x="94.2" y="-151.55" font-family="Pretendard" font-size="11.00">tcp_response_callback()</text>
</g>
<!-- write -->
<g id="node14" class="node">
<title>write</title>
<path fill="white" stroke="#64748b" d="M313.07,-174.48C313.07,-174.48 238.16,-174.48 238.16,-174.48 232.16,-174.48 226.16,-168.48 226.16,-162.48 226.16,-162.48 226.16,-149.52 226.16,-149.52 226.16,-143.52 232.16,-137.52 238.16,-137.52 238.16,-137.52 313.07,-137.52 313.07,-137.52 319.07,-137.52 325.07,-143.52 325.07,-149.52 325.07,-149.52 325.07,-162.48 325.07,-162.48 325.07,-168.48 319.07,-174.48 313.07,-174.48"/>
<text xml:space="preserve" text-anchor="middle" x="275.61" y="-157.55" font-family="Pretendard" font-size="11.00">write_json_line()</text>
<text xml:space="preserve" text-anchor="middle" x="275.61" y="-145.55" font-family="Pretendard" font-size="11.00">write_mutex</text>
</g>
<!-- callback&#45;&gt;write -->
<g id="edge16" class="edge">
<title>callback&#45;&gt;write</title>
<path fill="none" stroke="#475569" d="M162.78,-156C180.79,-156 200.07,-156 217.46,-156"/>
<polygon fill="#475569" stroke="#475569" points="217.32,-158.45 224.32,-156 217.32,-153.55 217.32,-158.45"/>
</g>
<!-- remove -->
<g id="node15" class="node">
<title>remove</title>
<path fill="white" stroke="#64748b" d="M313.82,-253.6C313.82,-253.6 237.41,-253.6 237.41,-253.6 231.41,-253.6 225.41,-247.6 225.41,-241.6 225.41,-241.6 225.41,-226.4 225.41,-226.4 225.41,-220.4 231.41,-214.4 237.41,-214.4 237.41,-214.4 313.82,-214.4 313.82,-214.4 319.82,-214.4 325.82,-220.4 325.82,-226.4 325.82,-226.4 325.82,-241.6 325.82,-241.6 325.82,-247.6 319.82,-253.6 313.82,-253.6"/>
<text xml:space="preserve" text-anchor="middle" x="275.61" y="-236.68" font-family="Pretendard" font-size="11.00">remove_inflight()</text>
<text xml:space="preserve" text-anchor="middle" x="275.61" y="-224.68" font-family="Pretendard" font-size="11.00">count 감소</text>
</g>
<!-- callback&#45;&gt;remove -->
<g id="edge17" class="edge">
<title>callback&#45;&gt;remove</title>
<path fill="none" stroke="#475569" d="M137.72,-174.48C162.62,-185.31 194.3,-199.08 220.91,-210.65"/>
<polygon fill="#475569" stroke="#475569" points="219.85,-212.86 227.24,-213.4 221.8,-208.37 219.85,-212.86"/>
</g>
<!-- release -->
<g id="node16" class="node">
<title>release</title>
<path fill="white" stroke="#64748b" d="M518.48,-215.48C518.48,-215.48 400.82,-215.48 400.82,-215.48 394.82,-215.48 388.82,-209.48 388.82,-203.48 388.82,-203.48 388.82,-190.52 388.82,-190.52 388.82,-184.52 394.82,-178.52 400.82,-178.52 400.82,-178.52 518.48,-178.52 518.48,-178.52 524.48,-178.52 530.48,-184.52 530.48,-190.52 530.48,-190.52 530.48,-203.48 530.48,-203.48 530.48,-209.48 524.48,-215.48 518.48,-215.48"/>
<text xml:space="preserve" text-anchor="middle" x="459.65" y="-198.55" font-family="Pretendard" font-size="11.00">release response/request</text>
<text xml:space="preserve" text-anchor="middle" x="459.65" y="-186.55" font-family="Pretendard" font-size="11.00">connection_release()</text>
</g>
<!-- write&#45;&gt;release -->
<g id="edge21" class="edge">
<title>write&#45;&gt;release</title>
<path fill="none" stroke="#475569" d="M325.4,-166.99C342.28,-170.79 361.65,-175.15 380.29,-179.35"/>
<polygon fill="#475569" stroke="#475569" points="379.67,-181.72 387.04,-180.87 380.75,-176.94 379.67,-181.72"/>
</g>
<!-- remove&#45;&gt;counters -->
<g id="edge20" class="edge">
<title>remove&#45;&gt;counters</title>
<path fill="none" stroke="#475569" d="M306.54,-254.07C350.73,-282.74 426.65,-332 426.65,-332 426.65,-332 570.12,-334.19 667,-335.67"/>
<polygon fill="#475569" stroke="#475569" points="666.8,-338.12 673.84,-335.78 666.88,-333.22 666.8,-338.12"/>
<text xml:space="preserve" text-anchor="middle" x="459.65" y="-333.75" font-family="Pretendard" font-size="10.00">client inflight &#45;1</text>
</g>
<!-- remove&#45;&gt;inflight -->
<g id="edge18" class="edge">
<title>remove&#45;&gt;inflight</title>
<path fill="none" stroke="#475569" d="M299.58,-253.99C394.55,-333.24 739.43,-621 739.43,-621 739.43,-621 1062.75,-508.84 1184.16,-466.73"/>
<polygon fill="#475569" stroke="#475569" points="1184.62,-469.16 1190.43,-464.55 1183.02,-464.53 1184.62,-469.16"/>
<text xml:space="preserve" text-anchor="middle" x="753.68" y="-623.5" font-family="Pretendard" font-size="10.00">id 제거</text>
</g>
<!-- remove&#45;&gt;inflight_count -->
<g id="edge19" class="edge">
<title>remove&#45;&gt;inflight_count</title>
<path fill="none" stroke="#475569" d="M307.45,-253.88C413.71,-320.25 749.56,-530 749.56,-530 749.56,-530 1057.32,-430.61 1179.95,-391"/>
<polygon fill="#475569" stroke="#475569" points="1180.4,-393.43 1186.31,-388.95 1178.9,-388.77 1180.4,-393.43"/>
<text xml:space="preserve" text-anchor="middle" x="753.68" y="-531.75" font-family="Pretendard" font-size="10.00">&#45;1</text>
</g>
<!-- cmd&#45;&gt;callback -->
<g id="edge15" class="edge">
<title>cmd&#45;&gt;callback</title>
<path fill="none" stroke="#475569" d="M1376.01,-21.84C1212.85,-18.88 793.06,-11.25 793.06,-11.25 793.06,-11.25 352.53,-102.49 170.99,-140.1"/>
<polygon fill="#475569" stroke="#475569" points="170.65,-137.67 164.29,-141.48 171.64,-142.46 170.65,-137.67"/>
<text xml:space="preserve" text-anchor="middle" x="753.68" y="-1.75" font-family="Pretendard" font-size="10.00">response callback</text>
</g>
</g>
</svg>
