<?xml version="1.0" encoding="UTF-8" standalone="no"?>
<!DOCTYPE svg PUBLIC "-//W3C//DTD SVG 1.1//EN"
 "http://www.w3.org/Graphics/SVG/1.1/DTD/svg11.dtd">
<!-- Generated by graphviz version 14.1.5 (20260411.2331)
 -->
<!-- Title: TcpConnectionAcceptFlow Pages: 1 -->
<svg width="323pt" height="1022pt"
 viewBox="0.00 0.00 323.00 1022.00" xmlns="http://www.w3.org/2000/svg" xmlns:xlink="http://www.w3.org/1999/xlink">
<g id="graph0" class="graph" transform="scale(1 1) rotate(0) translate(14.4 1007.67)">
<title>TcpConnectionAcceptFlow</title>
<!-- client -->
<g id="node1" class="node">
<title>client</title>
<path fill="white" stroke="#64748b" d="M114.24,-993.27C114.24,-993.27 73.08,-993.27 73.08,-993.27 67.08,-993.27 61.08,-987.27 61.08,-981.27 61.08,-981.27 61.08,-968.31 61.08,-968.31 61.08,-962.31 67.08,-956.31 73.08,-956.31 73.08,-956.31 114.24,-956.31 114.24,-956.31 120.24,-956.31 126.24,-962.31 126.24,-968.31 126.24,-968.31 126.24,-981.27 126.24,-981.27 126.24,-987.27 120.24,-993.27 114.24,-993.27"/>
<text xml:space="preserve" text-anchor="middle" x="93.66" y="-976.34" font-family="Pretendard" font-size="11.00">client</text>
<text xml:space="preserve" text-anchor="middle" x="93.66" y="-964.34" font-family="Pretendard" font-size="11.00">connect()</text>
</g>
<!-- accept -->
<g id="node2" class="node">
<title>accept</title>
<path fill="white" stroke="#64748b" d="M131.12,-907.31C131.12,-907.31 56.2,-907.31 56.2,-907.31 50.21,-907.31 44.2,-901.31 44.2,-895.31 44.2,-895.31 44.2,-882.35 44.2,-882.35 44.2,-876.35 50.2,-870.35 56.2,-870.35 56.2,-870.35 131.12,-870.35 131.12,-870.35 137.12,-870.35 143.12,-876.35 143.12,-882.35 143.12,-882.35 143.12,-895.31 143.12,-895.31 143.12,-901.31 137.12,-907.31 131.12,-907.31"/>
<text xml:space="preserve" text-anchor="middle" x="93.66" y="-890.38" font-family="Pretendard" font-size="11.00">accept_thread</text>
<text xml:space="preserve" text-anchor="middle" x="93.66" y="-878.38" font-family="Pretendard" font-size="11.00">accept(listen_fd)</text>
</g>
<!-- client&#45;&gt;accept -->
<g id="edge1" class="edge">
<title>client&#45;&gt;accept</title>
<path fill="none" stroke="#475569" d="M93.66,-955.98C93.66,-944.3 93.66,-928.82 93.66,-915.77"/>
<polygon fill="#475569" stroke="#475569" points="96.11,-916.12 93.66,-909.12 91.21,-916.12 96.11,-916.12"/>
</g>
<!-- key -->
<g id="node3" class="node">
<title>key</title>
<path fill="white" stroke="#64748b" d="M149.49,-821.35C149.49,-821.35 37.83,-821.35 37.83,-821.35 31.83,-821.35 25.83,-815.35 25.83,-809.35 25.83,-809.35 25.83,-796.39 25.83,-796.39 25.83,-790.39 31.83,-784.39 37.83,-784.39 37.83,-784.39 149.49,-784.39 149.49,-784.39 155.49,-784.39 161.49,-790.39 161.49,-796.39 161.49,-796.39 161.49,-809.35 161.49,-809.35 161.49,-815.35 155.49,-821.35 149.49,-821.35"/>
<text xml:space="preserve" text-anchor="middle" x="93.66" y="-804.42" font-family="Pretendard" font-size="11.00">make_client_key()</text>
<text xml:space="preserve" text-anchor="middle" x="93.66" y="-792.42" font-family="Pretendard" font-size="11.00">IP address &#45;&gt; client_key</text>
</g>
<!-- accept&#45;&gt;key -->
<g id="edge2" class="edge">
<title>accept&#45;&gt;key</title>
<path fill="none" stroke="#475569" d="M93.66,-870.02C93.66,-858.34 93.66,-842.86 93.66,-829.81"/>
<polygon fill="#475569" stroke="#475569" points="96.11,-830.16 93.66,-823.16 91.21,-830.16 96.11,-830.16"/>
</g>
<!-- reserve -->
<g id="node4" class="node">
<title>reserve</title>
<path fill="white" stroke="#64748b" d="M153.62,-735.39C153.62,-735.39 33.7,-735.39 33.7,-735.39 27.7,-735.39 21.7,-729.39 21.7,-723.39 21.7,-723.39 21.7,-710.43 21.7,-710.43 21.7,-704.43 27.7,-698.43 33.7,-698.43 33.7,-698.43 153.62,-698.43 153.62,-698.43 159.62,-698.43 165.62,-704.43 165.62,-710.43 165.62,-710.43 165.62,-723.39 165.62,-723.39 165.62,-729.39 159.62,-735.39 153.62,-735.39"/>
<text xml:space="preserve" text-anchor="middle" x="93.66" y="-718.46" font-family="Pretendard" font-size="11.00">reserve_connection_slot()</text>
<text xml:space="preserve" text-anchor="middle" x="93.66" y="-706.46" font-family="Pretendard" font-size="11.00">server mutex</text>
</g>
<!-- key&#45;&gt;reserve -->
<g id="edge3" class="edge">
<title>key&#45;&gt;reserve</title>
<path fill="none" stroke="#475569" d="M93.66,-784.06C93.66,-772.38 93.66,-756.9 93.66,-743.85"/>
<polygon fill="#475569" stroke="#475569" points="96.11,-744.2 93.66,-737.2 91.21,-744.2 96.11,-744.2"/>
</g>
<!-- check -->
<g id="node5" class="node">
<title>check</title>
<path fill="white" stroke="#64748b" d="M82.59,-644.8C82.59,-644.8 11.07,-614.85 11.07,-614.85 5.53,-612.54 5.53,-607.9 11.07,-605.59 11.07,-605.59 82.59,-575.64 82.59,-575.64 88.13,-573.33 99.19,-573.33 104.73,-575.64 104.73,-575.64 176.25,-605.59 176.25,-605.59 181.79,-607.9 181.79,-612.54 176.25,-614.85 176.25,-614.85 104.73,-644.8 104.73,-644.8 99.19,-647.11 88.13,-647.11 82.59,-644.8"/>
<text xml:space="preserve" text-anchor="middle" x="93.66" y="-612.9" font-family="Pretendard" font-size="11.00">connection limit</text>
<text xml:space="preserve" text-anchor="middle" x="93.66" y="-600.9" font-family="Pretendard" font-size="11.00">통과?</text>
</g>
<!-- reserve&#45;&gt;check -->
<g id="edge4" class="edge">
<title>reserve&#45;&gt;check</title>
<path fill="none" stroke="#475569" d="M93.66,-698.15C93.66,-687.13 93.66,-672.41 93.66,-658.21"/>
<polygon fill="#475569" stroke="#475569" points="96.11,-658.46 93.66,-651.46 91.21,-658.46 96.11,-658.46"/>
</g>
<!-- reject -->
<g id="node6" class="node">
<title>reject</title>
<path fill="#fff1f2" stroke="#fda4af" d="M100.86,-511.76C100.86,-511.76 30.45,-511.76 30.45,-511.76 24.45,-511.76 18.45,-505.76 18.45,-499.76 18.45,-499.76 18.45,-484.55 18.45,-484.55 18.45,-478.55 24.45,-472.55 30.45,-472.55 30.45,-472.55 100.86,-472.55 100.86,-472.55 106.86,-472.55 112.86,-478.55 112.86,-484.55 112.86,-484.55 112.86,-499.76 112.86,-499.76 112.86,-505.76 106.86,-511.76 100.86,-511.76"/>
<text xml:space="preserve" text-anchor="middle" x="65.66" y="-494.83" font-family="Pretendard" font-size="11.00">close(client_fd)</text>
<text xml:space="preserve" text-anchor="middle" x="65.66" y="-482.83" font-family="Pretendard" font-size="11.00">connection 거절</text>
</g>
<!-- check&#45;&gt;reject -->
<g id="edge5" class="edge">
<title>check&#45;&gt;reject</title>
<path fill="none" stroke="#475569" d="M85.18,-574.08C80.99,-556.7 76.01,-536.04 72.13,-519.96"/>
<polygon fill="#475569" stroke="#475569" points="74.58,-519.7 70.56,-513.47 69.82,-520.85 74.58,-519.7"/>
<text xml:space="preserve" text-anchor="middle" x="83.23" y="-537.51" font-family="Pretendard" font-size="10.00">no</text>
</g>
<!-- timeout -->
<g id="node7" class="node">
<title>timeout</title>
<path fill="white" stroke="#64748b" d="M266.24,-510.64C266.24,-510.64 165.08,-510.64 165.08,-510.64 159.08,-510.64 153.08,-504.64 153.08,-498.64 153.08,-498.64 153.08,-485.68 153.08,-485.68 153.08,-479.68 159.08,-473.68 165.08,-473.68 165.08,-473.68 266.24,-473.68 266.24,-473.68 272.24,-473.68 278.24,-479.68 278.24,-485.68 278.24,-485.68 278.24,-498.64 278.24,-498.64 278.24,-504.64 272.24,-510.64 266.24,-510.64"/>
<text xml:space="preserve" text-anchor="middle" x="215.66" y="-493.71" font-family="Pretendard" font-size="11.00">set_socket_timeouts()</text>
<text xml:space="preserve" text-anchor="middle" x="215.66" y="-481.71" font-family="Pretendard" font-size="11.00">read/write timeout</text>
</g>
<!-- check&#45;&gt;timeout -->
<g id="edge6" class="edge">
<title>check&#45;&gt;timeout</title>
<path fill="none" stroke="#475569" d="M121.65,-582.59C142.56,-562.7 170.88,-535.76 190.95,-516.66"/>
<polygon fill="#475569" stroke="#475569" points="192.42,-518.64 195.81,-512.04 189.05,-515.09 192.42,-518.64"/>
<text xml:space="preserve" text-anchor="middle" x="177.05" y="-537.51" font-family="Pretendard" font-size="10.00">yes</text>
</g>
<!-- create -->
<g id="node8" class="node">
<title>create</title>
<path fill="white" stroke="#64748b" d="M263.62,-423.55C263.62,-423.55 167.71,-423.55 167.71,-423.55 161.71,-423.55 155.71,-417.55 155.71,-411.55 155.71,-411.55 155.71,-396.34 155.71,-396.34 155.71,-390.34 161.71,-384.34 167.71,-384.34 167.71,-384.34 263.62,-384.34 263.62,-384.34 269.62,-384.34 275.62,-390.34 275.62,-396.34 275.62,-396.34 275.62,-411.55 275.62,-411.55 275.62,-417.55 269.62,-423.55 263.62,-423.55"/>
<text xml:space="preserve" text-anchor="middle" x="215.66" y="-406.62" font-family="Pretendard" font-size="11.00">create_connection()</text>
<text xml:space="preserve" text-anchor="middle" x="215.66" y="-394.62" font-family="Pretendard" font-size="11.00">TCPConnection 할당</text>
</g>
<!-- timeout&#45;&gt;create -->
<g id="edge7" class="edge">
<title>timeout&#45;&gt;create</title>
<path fill="none" stroke="#475569" d="M215.66,-473.29C215.66,-461.48 215.66,-445.76 215.66,-432.37"/>
<polygon fill="#475569" stroke="#475569" points="218.11,-432.49 215.66,-425.49 213.21,-432.49 218.11,-432.49"/>
</g>
<!-- fields -->
<g id="node9" class="node">
<title>fields</title>
<path fill="white" stroke="#64748b" d="M260.24,-335.34C260.24,-335.34 171.08,-335.34 171.08,-335.34 165.08,-335.34 159.08,-329.34 159.08,-323.34 159.08,-323.34 159.08,-274.38 159.08,-274.38 159.08,-268.38 165.08,-262.38 171.08,-262.38 171.08,-262.38 260.24,-262.38 260.24,-262.38 266.24,-262.38 272.24,-268.38 272.24,-274.38 272.24,-274.38 272.24,-323.34 272.24,-323.34 272.24,-329.34 266.24,-335.34 260.24,-335.34"/>
<text xml:space="preserve" text-anchor="middle" x="215.66" y="-318.41" font-family="Pretendard" font-size="11.00">TCPConnection</text>
<text xml:space="preserve" text-anchor="middle" x="215.66" y="-306.41" font-family="Pretendard" font-size="11.00">client_fd, client_key</text>
<text xml:space="preserve" text-anchor="middle" x="215.66" y="-294.41" font-family="Pretendard" font-size="11.00">state/write mutex</text>
<text xml:space="preserve" text-anchor="middle" x="215.66" y="-282.41" font-family="Pretendard" font-size="11.00">ref_count=1</text>
<text xml:space="preserve" text-anchor="middle" x="215.66" y="-270.41" font-family="Pretendard" font-size="11.00">inflight_ids=NULL</text>
</g>
<!-- create&#45;&gt;fields -->
<g id="edge8" class="edge">
<title>create&#45;&gt;fields</title>
<path fill="none" stroke="#475569" d="M215.66,-384.04C215.66,-372.77 215.66,-357.95 215.66,-343.9"/>
<polygon fill="#475569" stroke="#475569" points="218.11,-344.26 215.66,-337.26 213.21,-344.26 218.11,-344.26"/>
</g>
<!-- list -->
<g id="node10" class="node">
<title>list</title>
<path fill="white" stroke="#64748b" d="M262.49,-213.38C262.49,-213.38 168.83,-213.38 168.83,-213.38 162.83,-213.38 156.83,-207.38 156.83,-201.38 156.83,-201.38 156.83,-186.17 156.83,-186.17 156.83,-180.17 162.83,-174.17 168.83,-174.17 168.83,-174.17 262.49,-174.17 262.49,-174.17 268.49,-174.17 274.49,-180.17 274.49,-186.17 274.49,-186.17 274.49,-201.38 274.49,-201.38 274.49,-207.38 268.49,-213.38 262.49,-213.38"/>
<text xml:space="preserve" text-anchor="middle" x="215.66" y="-196.45" font-family="Pretendard" font-size="11.00">server&#45;&gt;connections</text>
<text xml:space="preserve" text-anchor="middle" x="215.66" y="-184.45" font-family="Pretendard" font-size="11.00">linked list에 추가</text>
</g>
<!-- fields&#45;&gt;list -->
<g id="edge9" class="edge">
<title>fields&#45;&gt;list</title>
<path fill="none" stroke="#475569" d="M215.66,-262.1C215.66,-248.99 215.66,-234.39 215.66,-222.13"/>
<polygon fill="#475569" stroke="#475569" points="218.11,-222.2 215.66,-215.2 213.21,-222.2 218.11,-222.2"/>
</g>
<!-- thread -->
<g id="node11" class="node">
<title>thread</title>
<path fill="white" stroke="#64748b" d="M272.62,-125.17C272.62,-125.17 158.7,-125.17 158.7,-125.17 152.7,-125.17 146.7,-119.17 146.7,-113.17 146.7,-113.17 146.7,-100.21 146.7,-100.21 146.7,-94.21 152.7,-88.21 158.7,-88.21 158.7,-88.21 272.62,-88.21 272.62,-88.21 278.62,-88.21 284.62,-94.21 284.62,-100.21 284.62,-100.21 284.62,-113.17 284.62,-113.17 284.62,-119.17 278.62,-125.17 272.62,-125.17"/>
<text xml:space="preserve" text-anchor="middle" x="215.66" y="-108.24" font-family="Pretendard" font-size="11.00">pthread_create()</text>
<text xml:space="preserve" text-anchor="middle" x="215.66" y="-96.24" font-family="Pretendard" font-size="11.00">connection_thread_main</text>
</g>
<!-- list&#45;&gt;thread -->
<g id="edge10" class="edge">
<title>list&#45;&gt;thread</title>
<path fill="none" stroke="#475569" d="M215.66,-173.89C215.66,-162.2 215.66,-147 215.66,-134.12"/>
<polygon fill="#475569" stroke="#475569" points="218.11,-134.16 215.66,-127.16 213.21,-134.16 218.11,-134.16"/>
</g>
<!-- read_loop -->
<g id="node12" class="node">
<title>read_loop</title>
<path fill="white" stroke="#64748b" d="M281.99,-39.21C281.99,-39.21 149.33,-39.21 149.33,-39.21 143.33,-39.21 137.33,-33.21 137.33,-27.21 137.33,-27.21 137.33,-12 137.33,-12 137.33,-6 143.33,0 149.33,0 149.33,0 281.99,0 281.99,0 287.99,0 293.99,-6 293.99,-12 293.99,-12 293.99,-27.21 293.99,-27.21 293.99,-33.21 287.99,-39.21 281.99,-39.21"/>
<text xml:space="preserve" text-anchor="middle" x="215.66" y="-22.28" font-family="Pretendard" font-size="11.00">read_json_line()</text>
<text xml:space="preserve" text-anchor="middle" x="215.66" y="-10.28" font-family="Pretendard" font-size="11.00">newline 단위 JSON 반복 처리</text>
</g>
<!-- thread&#45;&gt;read_loop -->
<g id="edge11" class="edge">
<title>thread&#45;&gt;read_loop</title>
<path fill="none" stroke="#475569" d="M215.66,-88.06C215.66,-76.48 215.66,-61.1 215.66,-47.95"/>
<polygon fill="#475569" stroke="#475569" points="218.11,-48.2 215.66,-41.2 213.21,-48.21 218.11,-48.2"/>
</g>
</g>
</svg>
