<?xml version="1.0" encoding="UTF-8" standalone="no"?>
<!DOCTYPE svg PUBLIC "-//W3C//DTD SVG 1.1//EN"
 "http://www.w3.org/Graphics/SVG/1.1/DTD/svg11.dtd">
<!-- Generated by graphviz version 14.1.5 (20260411.2331)
 -->
<!-- Title: CmdProcessorOverallArchitecture Pages: 1 -->
<svg width="1587pt" height="731pt"
 viewBox="0.00 0.00 1587.00 731.00" xmlns="http://www.w3.org/2000/svg" xmlns:xlink="http://www.w3.org/1999/xlink">
<g id="graph0" class="graph" transform="scale(1 1) rotate(0) translate(14.4 716.4)">
<title>CmdProcessorOverallArchitecture</title>
<g id="clust1" class="cluster">
<title>cluster_frontends</title>
<path fill="#f8fafc" stroke="#cbd5e1" d="M20,-428C20,-428 378.32,-428 378.32,-428 384.32,-428 390.32,-434 390.32,-440 390.32,-440 390.32,-682 390.32,-682 390.32,-688 384.32,-694 378.32,-694 378.32,-694 20,-694 20,-694 14,-694 8,-688 8,-682 8,-682 8,-440 8,-440 8,-434 14,-428 20,-428"/>
<text xml:space="preserve" text-anchor="middle" x="199.16" y="-677.65" font-family="Pretendard" font-size="13.00">외부 진입점</text>
</g>
<g id="clust2" class="cluster">
<title>cluster_contract</title>
<path fill="#eff6ff" stroke="#93c5fd" d="M226.91,-239C226.91,-239 609.23,-239 609.23,-239 615.23,-239 621.23,-245 621.23,-251 621.23,-251 621.23,-408 621.23,-408 621.23,-414 615.23,-420 609.23,-420 609.23,-420 226.91,-420 226.91,-420 220.91,-420 214.91,-414 214.91,-408 214.91,-408 214.91,-251 214.91,-251 214.91,-245 220.91,-239 226.91,-239"/>
<text xml:space="preserve" text-anchor="middle" x="418.07" y="-403.65" font-family="Pretendard" font-size="13.00">공통 계약</text>
</g>
<g id="clust3" class="cluster">
<title>cluster_impls</title>
<path fill="#f0f9ff" stroke="#bae6fd" d="M729.23,-113C729.23,-113 882.14,-113 882.14,-113 888.14,-113 894.14,-119 894.14,-125 894.14,-125 894.14,-366 894.14,-366 894.14,-372 888.14,-378 882.14,-378 882.14,-378 729.23,-378 729.23,-378 723.23,-378 717.23,-372 717.23,-366 717.23,-366 717.23,-125 717.23,-125 717.23,-119 723.23,-113 729.23,-113"/>
<text xml:space="preserve" text-anchor="middle" x="805.68" y="-361.65" font-family="Pretendard" font-size="13.00">CmdProcessor 구현체</text>
</g>
<g id="clust4" class="cluster">
<title>cluster_db</title>
<path fill="#ffffff" stroke="#cbd5e1" d="M482.94,-8C482.94,-8 1538.62,-8 1538.62,-8 1544.62,-8 1550.62,-14 1550.62,-20 1550.62,-20 1550.62,-93 1550.62,-93 1550.62,-99 1544.62,-105 1538.62,-105 1538.62,-105 482.94,-105 482.94,-105 476.94,-105 470.94,-99 470.94,-93 470.94,-93 470.94,-20 470.94,-20 470.94,-14 476.94,-8 482.94,-8"/>
<text xml:space="preserve" text-anchor="middle" x="1010.78" y="-88.65" font-family="Pretendard" font-size="13.00">DB 실행 계층</text>
</g>
<!-- tcp -->
<g id="node1" class="node">
<title>tcp</title>
<path fill="white" stroke="#64748b" d="M93.03,-565.48C93.03,-565.48 41.37,-565.48 41.37,-565.48 35.37,-565.48 29.37,-559.48 29.37,-553.48 29.37,-553.48 29.37,-540.52 29.37,-540.52 29.37,-534.52 35.37,-528.52 41.37,-528.52 41.37,-528.52 93.03,-528.52 93.03,-528.52 99.03,-528.52 105.03,-534.52 105.03,-540.52 105.03,-540.52 105.03,-553.48 105.03,-553.48 105.03,-559.48 99.03,-565.48 93.03,-565.48"/>
<text xml:space="preserve" text-anchor="middle" x="67.2" y="-548.55" font-family="Pretendard" font-size="11.00">TCP clients</text>
<text xml:space="preserve" text-anchor="middle" x="67.2" y="-536.55" font-family="Pretendard" font-size="11.00">JSON line</text>
</g>
<!-- tcp_adapter -->
<g id="node2" class="node">
<title>tcp_adapter</title>
<path fill="white" stroke="#64748b" d="M360.32,-507.48C360.32,-507.48 241.91,-507.48 241.91,-507.48 235.91,-507.48 229.91,-501.48 229.91,-495.48 229.91,-495.48 229.91,-482.52 229.91,-482.52 229.91,-476.52 235.91,-470.52 241.91,-470.52 241.91,-470.52 360.32,-470.52 360.32,-470.52 366.32,-470.52 372.32,-476.52 372.32,-482.52 372.32,-482.52 372.32,-495.48 372.32,-495.48 372.32,-501.48 366.32,-507.48 360.32,-507.48"/>
<text xml:space="preserve" text-anchor="middle" x="301.11" y="-490.55" font-family="Pretendard" font-size="11.00">TCPCmdProcessor</text>
<text xml:space="preserve" text-anchor="middle" x="301.11" y="-478.55" font-family="Pretendard" font-size="11.00">JSONL &lt;&#45;&gt; CmdRequest</text>
</g>
<!-- tcp&#45;&gt;tcp_adapter -->
<g id="edge1" class="edge">
<title>tcp&#45;&gt;tcp_adapter</title>
<path fill="none" stroke="#475569" d="M105.47,-537.68C136.79,-529.85 182.64,-518.38 221.96,-508.55"/>
<polygon fill="#475569" stroke="#475569" points="222.07,-511.04 228.27,-506.97 220.88,-506.29 222.07,-511.04"/>
</g>
<!-- api -->
<g id="node6" class="node">
<title>api</title>
<path fill="#ffffff" stroke="#64748b" d="M357.32,-377.48C357.32,-377.48 244.91,-377.48 244.91,-377.48 238.91,-377.48 232.91,-371.48 232.91,-365.48 232.91,-365.48 232.91,-340.52 232.91,-340.52 232.91,-334.52 238.91,-328.52 244.91,-328.52 244.91,-328.52 357.32,-328.52 357.32,-328.52 363.32,-328.52 369.32,-334.52 369.32,-340.52 369.32,-340.52 369.32,-365.48 369.32,-365.48 369.32,-371.48 363.32,-377.48 357.32,-377.48"/>
<text xml:space="preserve" text-anchor="middle" x="301.11" y="-360.55" font-family="Pretendard" font-size="11.00">CmdProcessor interface</text>
<text xml:space="preserve" text-anchor="middle" x="301.11" y="-348.55" font-family="Pretendard" font-size="11.00">acquire / set / submit</text>
<text xml:space="preserve" text-anchor="middle" x="301.11" y="-336.55" font-family="Pretendard" font-size="11.00">callback / release</text>
</g>
<!-- tcp_adapter&#45;&gt;api -->
<g id="edge2" class="edge">
<title>tcp_adapter&#45;&gt;api</title>
<path fill="none" stroke="#475569" d="M301.11,-428C301.11,-426 301.11,-424 301.11,-422"/>
<polygon fill="#475569" stroke="#475569" points="303.57,-428.51 301.12,-421.51 298.67,-428.51 303.57,-428.51"/>
<text xml:space="preserve" text-anchor="middle" x="292.49" y="-420.12" font-family="Pretendard" font-size="10.00">CmdRequest + callback</text>
</g>
<!-- cli -->
<g id="node3" class="node">
<title>cli</title>
<path fill="white" stroke="#64748b" d="M96.41,-651.61C96.41,-651.61 38,-651.61 38,-651.61 32,-651.61 26,-645.61 26,-639.61 26,-639.61 26,-624.39 26,-624.39 26,-618.39 32,-612.39 38,-612.39 38,-612.39 96.41,-612.39 96.41,-612.39 102.41,-612.39 108.41,-618.39 108.41,-624.39 108.41,-624.39 108.41,-639.61 108.41,-639.61 108.41,-645.61 102.41,-651.61 96.41,-651.61"/>
<text xml:space="preserve" text-anchor="middle" x="67.2" y="-634.67" font-family="Pretendard" font-size="11.00">CLI / file 실행</text>
<text xml:space="preserve" text-anchor="middle" x="67.2" y="-620.42" font-family="Pretendard" font-size="11.00">main.c</text>
</g>
<!-- sync_bridge -->
<g id="node4" class="node">
<title>sync_bridge</title>
<path fill="white" stroke="#64748b" d="M357.32,-591.48C357.32,-591.48 244.91,-591.48 244.91,-591.48 238.91,-591.48 232.91,-585.48 232.91,-579.48 232.91,-579.48 232.91,-566.52 232.91,-566.52 232.91,-560.52 238.91,-554.52 244.91,-554.52 244.91,-554.52 357.32,-554.52 357.32,-554.52 363.32,-554.52 369.32,-560.52 369.32,-566.52 369.32,-566.52 369.32,-579.48 369.32,-579.48 369.32,-585.48 363.32,-591.48 357.32,-591.48"/>
<text xml:space="preserve" text-anchor="middle" x="301.11" y="-574.55" font-family="Pretendard" font-size="11.00">submit_sync bridge</text>
<text xml:space="preserve" text-anchor="middle" x="301.11" y="-562.55" font-family="Pretendard" font-size="11.00">callback &#45;&gt; blocking wait</text>
</g>
<!-- cli&#45;&gt;sync_bridge -->
<g id="edge3" class="edge">
<title>cli&#45;&gt;sync_bridge</title>
<path fill="none" stroke="#475569" d="M108.87,-621.66C140.76,-613.54 186.05,-602.02 224.55,-592.22"/>
<polygon fill="#475569" stroke="#475569" points="225.01,-594.64 231.19,-590.54 223.8,-589.89 225.01,-594.64"/>
</g>
<!-- sync_bridge&#45;&gt;api -->
<g id="edge4" class="edge">
<title>sync_bridge&#45;&gt;api</title>
<path fill="none" stroke="#475569" d="M281.38,-554.25C245.85,-520.5 174.78,-453 174.78,-453 174.78,-453 226.04,-412.43 263.26,-382.97"/>
<polygon fill="#475569" stroke="#475569" points="264.41,-385.18 268.38,-378.92 261.37,-381.34 264.41,-385.18"/>
<text xml:space="preserve" text-anchor="middle" x="169.16" y="-449.12" font-family="Pretendard" font-size="10.00">submit_sync</text>
</g>
<!-- tests -->
<g id="node5" class="node">
<title>tests</title>
<path fill="white" stroke="#64748b" d="M82.2,-482C82.2,-482 52.2,-482 52.2,-482 46.2,-482 40.2,-476 40.2,-470 40.2,-470 40.2,-458 40.2,-458 40.2,-452 46.2,-446 52.2,-446 52.2,-446 82.2,-446 82.2,-446 88.2,-446 94.2,-452 94.2,-458 94.2,-458 94.2,-470 94.2,-470 94.2,-476 88.2,-482 82.2,-482"/>
<text xml:space="preserve" text-anchor="middle" x="67.2" y="-459.55" font-family="Pretendard" font-size="11.00">tests</text>
</g>
<!-- tests&#45;&gt;api -->
<g id="edge5" class="edge">
<title>tests&#45;&gt;api</title>
<path fill="none" stroke="#475569" d="M94.36,-451.48C129.66,-434.58 193.59,-403.99 240.85,-381.36"/>
<polygon fill="#475569" stroke="#475569" points="241.67,-383.69 246.92,-378.46 239.55,-379.27 241.67,-383.69"/>
</g>
<!-- request -->
<g id="node7" class="node">
<title>request</title>
<path fill="white" stroke="#64748b" d="M570.6,-293.48C570.6,-293.48 506.94,-293.48 506.94,-293.48 500.94,-293.48 494.94,-287.48 494.94,-281.48 494.94,-281.48 494.94,-268.52 494.94,-268.52 494.94,-262.52 500.94,-256.52 506.94,-256.52 506.94,-256.52 570.6,-256.52 570.6,-256.52 576.6,-256.52 582.6,-262.52 582.6,-268.52 582.6,-268.52 582.6,-281.48 582.6,-281.48 582.6,-287.48 576.6,-293.48 570.6,-293.48"/>
<text xml:space="preserve" text-anchor="middle" x="538.77" y="-276.55" font-family="Pretendard" font-size="11.00">CmdRequest</text>
<text xml:space="preserve" text-anchor="middle" x="538.77" y="-264.55" font-family="Pretendard" font-size="11.00">id + type + sql</text>
</g>
<!-- api&#45;&gt;request -->
<g id="edge6" class="edge">
<title>api&#45;&gt;request</title>
<path fill="none" stroke="#475569" d="M369.65,-330.65C406.92,-318.31 452.45,-303.24 486.73,-291.89"/>
<polygon fill="#475569" stroke="#475569" points="487.44,-294.24 493.31,-289.72 485.9,-289.59 487.44,-294.24"/>
</g>
<!-- response -->
<g id="node8" class="node">
<title>response</title>
<path fill="white" stroke="#64748b" d="M591.23,-377.48C591.23,-377.48 486.32,-377.48 486.32,-377.48 480.32,-377.48 474.32,-371.48 474.32,-365.48 474.32,-365.48 474.32,-352.52 474.32,-352.52 474.32,-346.52 480.32,-340.52 486.32,-340.52 486.32,-340.52 591.23,-340.52 591.23,-340.52 597.23,-340.52 603.23,-346.52 603.23,-352.52 603.23,-352.52 603.23,-365.48 603.23,-365.48 603.23,-371.48 597.23,-377.48 591.23,-377.48"/>
<text xml:space="preserve" text-anchor="middle" x="538.77" y="-360.55" font-family="Pretendard" font-size="11.00">CmdResponse</text>
<text xml:space="preserve" text-anchor="middle" x="538.77" y="-348.55" font-family="Pretendard" font-size="11.00">status + body + counts</text>
</g>
<!-- api&#45;&gt;response -->
<g id="edge7" class="edge">
<title>api&#45;&gt;response</title>
<path fill="none" stroke="#475569" d="M369.65,-354.72C399.61,-355.48 434.91,-356.38 465.41,-357.16"/>
<polygon fill="#475569" stroke="#475569" points="465.31,-359.61 472.37,-357.33 465.43,-354.71 465.31,-359.61"/>
</g>
<!-- engine -->
<g id="node9" class="node">
<title>engine</title>
<path fill="white" stroke="#64748b" d="M864.14,-167.48C864.14,-167.48 747.23,-167.48 747.23,-167.48 741.23,-167.48 735.23,-161.48 735.23,-155.48 735.23,-155.48 735.23,-142.52 735.23,-142.52 735.23,-136.52 741.23,-130.52 747.23,-130.52 747.23,-130.52 864.14,-130.52 864.14,-130.52 870.14,-130.52 876.14,-136.52 876.14,-142.52 876.14,-142.52 876.14,-155.48 876.14,-155.48 876.14,-161.48 870.14,-167.48 864.14,-167.48"/>
<text xml:space="preserve" text-anchor="middle" x="805.68" y="-150.55" font-family="Pretendard" font-size="11.00">EngineCmdProcessor</text>
<text xml:space="preserve" text-anchor="middle" x="805.68" y="-138.55" font-family="Pretendard" font-size="11.00">slots + queues + workers</text>
</g>
<!-- request&#45;&gt;engine -->
<g id="edge8" class="edge">
<title>request&#45;&gt;engine</title>
<path fill="none" stroke="#475569" d="M615.46,-239C644.84,-225.03 678.82,-208.87 709.8,-194.13"/>
<polygon fill="#475569" stroke="#475569" points="710.6,-196.46 715.87,-191.25 708.49,-192.04 710.6,-196.46"/>
<text xml:space="preserve" text-anchor="middle" x="669.23" y="-215.5" font-family="Pretendard" font-size="10.00">vtable dispatch</text>
</g>
<!-- repl -->
<g id="node10" class="node">
<title>repl</title>
<path fill="white" stroke="#64748b" d="M854.39,-251.48C854.39,-251.48 756.98,-251.48 756.98,-251.48 750.98,-251.48 744.98,-245.48 744.98,-239.48 744.98,-239.48 744.98,-226.52 744.98,-226.52 744.98,-220.52 750.98,-214.52 756.98,-214.52 756.98,-214.52 854.39,-214.52 854.39,-214.52 860.39,-214.52 866.39,-220.52 866.39,-226.52 866.39,-226.52 866.39,-239.48 866.39,-239.48 866.39,-245.48 860.39,-251.48 854.39,-251.48"/>
<text xml:space="preserve" text-anchor="middle" x="805.68" y="-234.55" font-family="Pretendard" font-size="11.00">REPLCmdProcessor</text>
<text xml:space="preserve" text-anchor="middle" x="805.68" y="-222.55" font-family="Pretendard" font-size="11.00">sync SQL eval</text>
</g>
<!-- request&#45;&gt;repl -->
<g id="edge9" class="edge">
<title>request&#45;&gt;repl</title>
<path fill="none" stroke="#475569" d="M582.93,-268.16C624.51,-261.57 688.06,-251.49 736.49,-243.81"/>
<polygon fill="#475569" stroke="#475569" points="736.71,-246.26 743.24,-242.74 735.94,-241.42 736.71,-246.26"/>
<text xml:space="preserve" text-anchor="middle" x="669.23" y="-239.5" font-family="Pretendard" font-size="10.00">vtable dispatch</text>
</g>
<!-- mock -->
<g id="node11" class="node">
<title>mock</title>
<path fill="white" stroke="#64748b" d="M852.51,-335.48C852.51,-335.48 758.85,-335.48 758.85,-335.48 752.85,-335.48 746.85,-329.48 746.85,-323.48 746.85,-323.48 746.85,-310.52 746.85,-310.52 746.85,-304.52 752.85,-298.52 758.85,-298.52 758.85,-298.52 852.51,-298.52 852.51,-298.52 858.51,-298.52 864.51,-304.52 864.51,-310.52 864.51,-310.52 864.51,-323.48 864.51,-323.48 864.51,-329.48 858.51,-335.48 852.51,-335.48"/>
<text xml:space="preserve" text-anchor="middle" x="805.68" y="-318.55" font-family="Pretendard" font-size="11.00">MockCmdProcessor</text>
<text xml:space="preserve" text-anchor="middle" x="805.68" y="-306.55" font-family="Pretendard" font-size="11.00">contract tests</text>
</g>
<!-- request&#45;&gt;mock -->
<g id="edge10" class="edge">
<title>request&#45;&gt;mock</title>
<path fill="none" stroke="#475569" d="M582.93,-281.84C625.06,-288.52 689.76,-298.78 738.42,-306.49"/>
<polygon fill="#475569" stroke="#475569" points="737.9,-308.89 745.2,-307.57 738.67,-304.05 737.9,-308.89"/>
<text xml:space="preserve" text-anchor="middle" x="669.23" y="-301.51" font-family="Pretendard" font-size="10.00">vtable dispatch</text>
</g>
<!-- response&#45;&gt;tcp_adapter -->
<g id="edge18" class="edge">
<title>response&#45;&gt;tcp_adapter</title>
<path fill="none" stroke="#475569" d="M503.47,-377.93C461.12,-401.28 389.17,-440.98 343.72,-466.05"/>
<polygon fill="#475569" stroke="#475569" points="342.65,-463.84 337.71,-469.37 345.02,-468.13 342.65,-463.84"/>
<text xml:space="preserve" text-anchor="middle" x="423.32" y="-433.53" font-family="Pretendard" font-size="10.00">callback</text>
</g>
<!-- response&#45;&gt;sync_bridge -->
<g id="edge19" class="edge">
<title>response&#45;&gt;sync_bridge</title>
<path fill="none" stroke="#475569" d="M517.15,-377.73C474.4,-416.55 376.12,-505.8 328.69,-548.87"/>
<polygon fill="#475569" stroke="#475569" points="327.27,-546.85 323.74,-553.37 330.57,-550.47 327.27,-546.85"/>
<text xml:space="preserve" text-anchor="middle" x="423.32" y="-514.86" font-family="Pretendard" font-size="10.00">callback</text>
</g>
<!-- response&#45;&gt;tests -->
<g id="edge20" class="edge">
<title>response&#45;&gt;tests</title>
<path fill="none" stroke="#475569" d="M485.32,-340.08C420.3,-317.07 319.11,-281.25 319.11,-281.25 319.11,-281.25 166.65,-391.86 98.95,-440.97"/>
<polygon fill="#475569" stroke="#475569" points="97.73,-438.83 93.51,-444.92 100.61,-442.79 97.73,-438.83"/>
<text xml:space="preserve" text-anchor="middle" x="301.11" y="-271.75" font-family="Pretendard" font-size="10.00">callback</text>
</g>
<!-- planner -->
<g id="node12" class="node">
<title>planner</title>
<path fill="white" stroke="#64748b" d="M576.6,-62.48C576.6,-62.48 500.94,-62.48 500.94,-62.48 494.94,-62.48 488.94,-56.48 488.94,-50.48 488.94,-50.48 488.94,-37.52 488.94,-37.52 488.94,-31.52 494.94,-25.52 500.94,-25.52 500.94,-25.52 576.6,-25.52 576.6,-25.52 582.6,-25.52 588.6,-31.52 588.6,-37.52 588.6,-37.52 588.6,-50.48 588.6,-50.48 588.6,-56.48 582.6,-62.48 576.6,-62.48"/>
<text xml:space="preserve" text-anchor="middle" x="538.77" y="-45.55" font-family="Pretendard" font-size="11.00">planner cache</text>
<text xml:space="preserve" text-anchor="middle" x="538.77" y="-33.55" font-family="Pretendard" font-size="11.00">route + lock plan</text>
</g>
<!-- engine&#45;&gt;planner -->
<g id="edge11" class="edge">
<title>engine&#45;&gt;planner</title>
<path fill="none" stroke="#475569" d="M717.23,-114.34C712.05,-112.28 706.77,-110.19 701.42,-108.07"/>
<polygon fill="#475569" stroke="#475569" points="702.49,-105.86 695.08,-105.56 700.68,-110.41 702.49,-105.86"/>
<text xml:space="preserve" text-anchor="middle" x="669.23" y="-107.5" font-family="Pretendard" font-size="10.00">SQL plan</text>
</g>
<!-- parser -->
<g id="node14" class="node">
<title>parser</title>
<path fill="white" stroke="#64748b" d="M1103.3,-62.48C1103.3,-62.48 1019.39,-62.48 1019.39,-62.48 1013.39,-62.48 1007.39,-56.48 1007.39,-50.48 1007.39,-50.48 1007.39,-37.52 1007.39,-37.52 1007.39,-31.52 1013.39,-25.52 1019.39,-25.52 1019.39,-25.52 1103.3,-25.52 1103.3,-25.52 1109.3,-25.52 1115.3,-31.52 1115.3,-37.52 1115.3,-37.52 1115.3,-50.48 1115.3,-50.48 1115.3,-56.48 1109.3,-62.48 1103.3,-62.48"/>
<text xml:space="preserve" text-anchor="middle" x="1061.34" y="-45.55" font-family="Pretendard" font-size="11.00">parser</text>
<text xml:space="preserve" text-anchor="middle" x="1061.34" y="-33.55" font-family="Pretendard" font-size="11.00">parse_statement()</text>
</g>
<!-- repl&#45;&gt;parser -->
<g id="edge14" class="edge">
<title>repl&#45;&gt;parser</title>
<path fill="none" stroke="#475569" d="M894.14,-167.84C919.27,-149.12 946.68,-128.69 971.87,-109.92"/>
<polygon fill="#475569" stroke="#475569" points="973.12,-112.05 977.27,-105.9 970.19,-108.12 973.12,-112.05"/>
<text xml:space="preserve" text-anchor="middle" x="941.76" y="-177.46" font-family="Pretendard" font-size="10.00">sql_repl_eval()</text>
</g>
<!-- locks -->
<g id="node13" class="node">
<title>locks</title>
<path fill="white" stroke="#64748b" d="M841.64,-62.48C841.64,-62.48 769.73,-62.48 769.73,-62.48 763.73,-62.48 757.73,-56.48 757.73,-50.48 757.73,-50.48 757.73,-37.52 757.73,-37.52 757.73,-31.52 763.73,-25.52 769.73,-25.52 769.73,-25.52 841.64,-25.52 841.64,-25.52 847.64,-25.52 853.64,-31.52 853.64,-37.52 853.64,-37.52 853.64,-50.48 853.64,-50.48 853.64,-56.48 847.64,-62.48 841.64,-62.48"/>
<text xml:space="preserve" text-anchor="middle" x="805.68" y="-45.55" font-family="Pretendard" font-size="11.00">lock manager</text>
<text xml:space="preserve" text-anchor="middle" x="805.68" y="-33.55" font-family="Pretendard" font-size="11.00">read / write lock</text>
</g>
<!-- planner&#45;&gt;locks -->
<g id="edge12" class="edge">
<title>planner&#45;&gt;locks</title>
<path fill="none" stroke="#475569" d="M588.98,-44C634.43,-44 701.88,-44 749.22,-44"/>
<polygon fill="#475569" stroke="#475569" points="749.01,-46.45 756.01,-44 749.01,-41.55 749.01,-46.45"/>
</g>
<!-- locks&#45;&gt;parser -->
<g id="edge13" class="edge">
<title>locks&#45;&gt;parser</title>
<path fill="none" stroke="#475569" d="M854.1,-44C894.92,-44 954.1,-44 998.61,-44"/>
<polygon fill="#475569" stroke="#475569" points="998.51,-46.45 1005.51,-44 998.51,-41.55 998.51,-46.45"/>
</g>
<!-- executor -->
<g id="node15" class="node">
<title>executor</title>
<path fill="white" stroke="#64748b" d="M1335.96,-62.48C1335.96,-62.48 1194.3,-62.48 1194.3,-62.48 1188.3,-62.48 1182.3,-56.48 1182.3,-50.48 1182.3,-50.48 1182.3,-37.52 1182.3,-37.52 1182.3,-31.52 1188.3,-25.52 1194.3,-25.52 1194.3,-25.52 1335.96,-25.52 1335.96,-25.52 1341.96,-25.52 1347.96,-31.52 1347.96,-37.52 1347.96,-37.52 1347.96,-50.48 1347.96,-50.48 1347.96,-56.48 1341.96,-62.48 1335.96,-62.48"/>
<text xml:space="preserve" text-anchor="middle" x="1265.13" y="-45.55" font-family="Pretendard" font-size="11.00">executor</text>
<text xml:space="preserve" text-anchor="middle" x="1265.13" y="-33.55" font-family="Pretendard" font-size="11.00">executor_execute_statement()</text>
</g>
<!-- parser&#45;&gt;executor -->
<g id="edge15" class="edge">
<title>parser&#45;&gt;executor</title>
<path fill="none" stroke="#475569" d="M1115.63,-44C1133.4,-44 1153.74,-44 1173.54,-44"/>
<polygon fill="#475569" stroke="#475569" points="1173.47,-46.45 1180.47,-44 1173.47,-41.55 1173.47,-46.45"/>
</g>
<!-- executor&#45;&gt;response -->
<g id="edge17" class="edge">
<title>executor&#45;&gt;response</title>
<path fill="none" stroke="#475569" d="M1207.38,-105C1106.58,-211.46 909.14,-420 909.14,-420 909.14,-420 738.99,-391.98 629.34,-373.92"/>
<polygon fill="#475569" stroke="#475569" points="630.03,-371.55 622.72,-372.83 629.23,-376.38 630.03,-371.55"/>
<text xml:space="preserve" text-anchor="middle" x="941.76" y="-421.75" font-family="Pretendard" font-size="10.00">CmdResponse</text>
</g>
<!-- storage -->
<g id="node16" class="node">
<title>storage</title>
<path fill="white" stroke="#64748b" d="M1520.62,-62.48C1520.62,-62.48 1426.96,-62.48 1426.96,-62.48 1420.96,-62.48 1414.96,-56.48 1414.96,-50.48 1414.96,-50.48 1414.96,-37.52 1414.96,-37.52 1414.96,-31.52 1420.96,-25.52 1426.96,-25.52 1426.96,-25.52 1520.62,-25.52 1520.62,-25.52 1526.62,-25.52 1532.62,-31.52 1532.62,-37.52 1532.62,-37.52 1532.62,-50.48 1532.62,-50.48 1532.62,-56.48 1526.62,-62.48 1520.62,-62.48"/>
<text xml:space="preserve" text-anchor="middle" x="1473.79" y="-45.55" font-family="Pretendard" font-size="11.00">tables / B+Tree</text>
<text xml:space="preserve" text-anchor="middle" x="1473.79" y="-33.55" font-family="Pretendard" font-size="11.00">CSV + delta + index</text>
</g>
<!-- executor&#45;&gt;storage -->
<g id="edge16" class="edge">
<title>executor&#45;&gt;storage</title>
<path fill="none" stroke="#475569" d="M1356.77,-44C1373.5,-44 1390.67,-44 1406.51,-44"/>
<polygon fill="#475569" stroke="#475569" points="1356.91,-41.55 1349.91,-44 1356.91,-46.45 1356.91,-41.55"/>
<polygon fill="#475569" stroke="#475569" points="1406.14,-46.45 1413.14,-44 1406.14,-41.55 1406.14,-46.45"/>
</g>
</g>
</svg>
