<?xml version="1.0" encoding="UTF-8" standalone="no"?>
<!DOCTYPE svg PUBLIC "-//W3C//DTD SVG 1.1//EN"
 "http://www.w3.org/Graphics/SVG/1.1/DTD/svg11.dtd">
<!-- Generated by graphviz version 14.1.5 (20260411.2331)
 -->
<!-- Title: TcpCmdProcessor Pages: 1 -->
<svg width="794pt" height="685pt"
 viewBox="0.00 0.00 794.00 685.00" xmlns="http://www.w3.org/2000/svg" xmlns:xlink="http://www.w3.org/1999/xlink">
<g id="graph0" class="graph" transform="scale(1 1) rotate(0) translate(14.4 670.4)">
<title>TcpCmdProcessor</title>
<g id="clust1" class="cluster">
<title>cluster_users</title>
<path fill="#f8fafc" stroke="#cbd5e1" d="M12,-42C12,-42 143.5,-42 143.5,-42 149.5,-42 155.5,-48 155.5,-54 155.5,-54 155.5,-293 155.5,-293 155.5,-299 149.5,-305 143.5,-305 143.5,-305 12,-305 12,-305 6,-305 0,-299 0,-293 0,-293 0,-54 0,-54 0,-48 6,-42 12,-42"/>
<text xml:space="preserve" text-anchor="middle" x="77.75" y="-288.65" font-family="Pretendard" font-size="13.00">사용자 TCP connections</text>
</g>
<g id="clust3" class="cluster">
<title>cluster_dbms</title>
<path fill="#f1f5f9" stroke="#94a3b8" d="M169.74,-8C169.74,-8 745.06,-8 745.06,-8 751.06,-8 757.06,-14 757.06,-20 757.06,-20 757.06,-636 757.06,-636 757.06,-642 751.06,-648 745.06,-648 745.06,-648 169.74,-648 169.74,-648 163.74,-648 157.74,-642 157.74,-636 157.74,-636 157.74,-20 157.74,-20 157.74,-14 163.74,-8 169.74,-8"/>
<text xml:space="preserve" text-anchor="middle" x="457.4" y="-631.65" font-family="Pretendard" font-size="13.00">DBMS</text>
</g>
<g id="clust4" class="cluster">
<title>cluster_tcp</title>
<path fill="#eff6ff" stroke="#93c5fd" d="M189.74,-28C189.74,-28 608.78,-28 608.78,-28 614.78,-28 620.78,-34 620.78,-40 620.78,-40 620.78,-594 620.78,-594 620.78,-600 614.78,-606 608.78,-606 608.78,-606 189.73,-606 189.73,-606 183.74,-606 177.74,-600 177.74,-594 177.74,-594 177.74,-40 177.74,-40 177.74,-34 183.74,-28 189.74,-28"/>
<text xml:space="preserve" text-anchor="middle" x="399.26" y="-589.65" font-family="Pretendard" font-size="13.00">TCPCmdProcessor</text>
</g>
<g id="clust5" class="cluster">
<title>cluster_connection_layer</title>
<path fill="#ffffff" stroke="#bfdbfe" d="M213.5,-46C213.5,-46 293.25,-46 293.25,-46 299.25,-46 305.25,-52 305.25,-58 305.25,-58 305.25,-285 305.25,-285 305.25,-291 299.25,-297 293.25,-297 293.25,-297 213.5,-297 213.5,-297 207.5,-297 201.5,-291 201.5,-285 201.5,-285 201.5,-58 201.5,-58 201.5,-52 207.5,-46 213.5,-46"/>
<text xml:space="preserve" text-anchor="middle" x="253.38" y="-281.6" font-family="Pretendard" font-size="12.00">connection layer</text>
</g>
<g id="clust7" class="cluster">
<title>cluster_adapter</title>
<path fill="#ffffff" stroke="#bae6fd" d="M399.25,-129C399.25,-129 590.78,-129 590.78,-129 596.78,-129 602.78,-135 602.78,-141 602.78,-141 602.78,-285 602.78,-285 602.78,-291 596.78,-297 590.78,-297 590.78,-297 399.25,-297 399.25,-297 393.25,-297 387.25,-291 387.25,-285 387.25,-285 387.25,-141 387.25,-141 387.25,-135 393.25,-129 399.25,-129"/>
<text xml:space="preserve" text-anchor="middle" x="495.01" y="-281.6" font-family="Pretendard" font-size="12.00">req / res adapter</text>
</g>
<g id="clust8" class="cluster">
<title>cluster_metadata</title>
<path fill="#ffffff" stroke="#cbd5e1" d="M207.74,-315C207.74,-315 298.01,-315 298.01,-315 304.01,-315 310.01,-321 310.01,-327 310.01,-327 310.01,-554 310.01,-554 310.01,-560 304.01,-566 298.01,-566 298.01,-566 207.74,-566 207.74,-566 201.74,-566 195.74,-560 195.74,-554 195.74,-554 195.74,-327 195.74,-327 195.74,-321 201.74,-315 207.74,-315"/>
<text xml:space="preserve" text-anchor="middle" x="252.88" y="-550.6" font-family="Pretendard" font-size="12.00">metadata state</text>
</g>
<g id="clust9" class="cluster">
<title>cluster_db</title>
<path fill="#ffffff" stroke="#cbd5e1" d="M658.78,-129C658.78,-129 725.06,-129 725.06,-129 731.06,-129 737.06,-135 737.06,-141 737.06,-141 737.06,-202 737.06,-202 737.06,-208 731.06,-214 725.06,-214 725.06,-214 658.78,-214 658.78,-214 652.78,-214 646.78,-208 646.78,-202 646.78,-202 646.78,-141 646.78,-141 646.78,-135 652.78,-129 658.78,-129"/>
<text xml:space="preserve" text-anchor="middle" x="691.92" y="-198.6" font-family="Pretendard" font-size="12.00">DB</text>
</g>
<!-- user_a1 -->
<g id="node1" class="node">
<title>user_a1</title>
<path fill="white" stroke="#64748b" d="M92.25,-96C92.25,-96 62.25,-96 62.25,-96 56.25,-96 50.25,-90 50.25,-84 50.25,-84 50.25,-72 50.25,-72 50.25,-66 56.25,-60 62.25,-60 62.25,-60 92.25,-60 92.25,-60 98.25,-60 104.25,-66 104.25,-72 104.25,-72 104.25,-84 104.25,-84 104.25,-90 98.25,-96 92.25,-96"/>
<text xml:space="preserve" text-anchor="middle" x="77.25" y="-73.55" font-family="Pretendard" font-size="11.00">A&#45;1</text>
</g>
<!-- tcp_a1 -->
<g id="node4" class="node">
<title>tcp_a1</title>
<path fill="white" stroke="#64748b" d="M274.64,-96C274.64,-96 231.11,-96 231.11,-96 225.11,-96 219.11,-90 219.11,-84 219.11,-84 219.11,-72 219.11,-72 219.11,-66 225.11,-60 231.11,-60 231.11,-60 274.64,-60 274.64,-60 280.64,-60 286.64,-66 286.64,-72 286.64,-72 286.64,-84 286.64,-84 286.64,-90 280.64,-96 274.64,-96"/>
<text xml:space="preserve" text-anchor="middle" x="252.88" y="-73.55" font-family="Pretendard" font-size="11.00">socket A&#45;1</text>
</g>
<!-- user_a1&#45;&gt;tcp_a1 -->
<g id="edge1" class="edge">
<title>user_a1&#45;&gt;tcp_a1</title>
<path fill="none" stroke="#475569" d="M113.2,-78C113.2,-78 210.19,-78 210.19,-78"/>
<polygon fill="#475569" stroke="#475569" points="113.2,-75.55 106.2,-78 113.2,-80.45 113.2,-75.55"/>
<polygon fill="#475569" stroke="#475569" points="210.19,-80.45 217.19,-78 210.19,-75.55 210.19,-80.45"/>
</g>
<!-- user_a2 -->
<g id="node2" class="node">
<title>user_a2</title>
<path fill="white" stroke="#64748b" d="M92.25,-179C92.25,-179 62.25,-179 62.25,-179 56.25,-179 50.25,-173 50.25,-167 50.25,-167 50.25,-155 50.25,-155 50.25,-149 56.25,-143 62.25,-143 62.25,-143 92.25,-143 92.25,-143 98.25,-143 104.25,-149 104.25,-155 104.25,-155 104.25,-167 104.25,-167 104.25,-173 98.25,-179 92.25,-179"/>
<text xml:space="preserve" text-anchor="middle" x="77.25" y="-156.55" font-family="Pretendard" font-size="11.00">A&#45;2</text>
</g>
<!-- tcp_a2 -->
<g id="node5" class="node">
<title>tcp_a2</title>
<path fill="white" stroke="#64748b" d="M274.64,-179C274.64,-179 231.11,-179 231.11,-179 225.11,-179 219.11,-173 219.11,-167 219.11,-167 219.11,-155 219.11,-155 219.11,-149 225.11,-143 231.11,-143 231.11,-143 274.64,-143 274.64,-143 280.64,-143 286.64,-149 286.64,-155 286.64,-155 286.64,-167 286.64,-167 286.64,-173 280.64,-179 274.64,-179"/>
<text xml:space="preserve" text-anchor="middle" x="252.88" y="-156.55" font-family="Pretendard" font-size="11.00">socket A&#45;2</text>
</g>
<!-- user_a2&#45;&gt;tcp_a2 -->
<g id="edge2" class="edge">
<title>user_a2&#45;&gt;tcp_a2</title>
<path fill="none" stroke="#475569" d="M113.2,-161C113.2,-161 210.19,-161 210.19,-161"/>
<polygon fill="#475569" stroke="#475569" points="113.2,-158.55 106.2,-161 113.2,-163.45 113.2,-158.55"/>
<polygon fill="#475569" stroke="#475569" points="210.19,-163.45 217.19,-161 210.19,-158.55 210.19,-163.45"/>
</g>
<!-- user_b1 -->
<g id="node3" class="node">
<title>user_b1</title>
<path fill="white" stroke="#64748b" d="M92.25,-262C92.25,-262 62.25,-262 62.25,-262 56.25,-262 50.25,-256 50.25,-250 50.25,-250 50.25,-238 50.25,-238 50.25,-232 56.25,-226 62.25,-226 62.25,-226 92.25,-226 92.25,-226 98.25,-226 104.25,-232 104.25,-238 104.25,-238 104.25,-250 104.25,-250 104.25,-256 98.25,-262 92.25,-262"/>
<text xml:space="preserve" text-anchor="middle" x="77.25" y="-239.55" font-family="Pretendard" font-size="11.00">B&#45;1</text>
</g>
<!-- tcp_b1 -->
<g id="node6" class="node">
<title>tcp_b1</title>
<path fill="white" stroke="#64748b" d="M275.01,-262C275.01,-262 230.74,-262 230.74,-262 224.74,-262 218.74,-256 218.74,-250 218.74,-250 218.74,-238 218.74,-238 218.74,-232 224.74,-226 230.74,-226 230.74,-226 275.01,-226 275.01,-226 281.01,-226 287.01,-232 287.01,-238 287.01,-238 287.01,-250 287.01,-250 287.01,-256 281.01,-262 275.01,-262"/>
<text xml:space="preserve" text-anchor="middle" x="252.88" y="-239.55" font-family="Pretendard" font-size="11.00">socket B&#45;1</text>
</g>
<!-- user_b1&#45;&gt;tcp_b1 -->
<g id="edge3" class="edge">
<title>user_b1&#45;&gt;tcp_b1</title>
<path fill="none" stroke="#475569" d="M113.2,-244C113.2,-244 209.87,-244 209.87,-244"/>
<polygon fill="#475569" stroke="#475569" points="113.2,-241.55 106.2,-244 113.2,-246.45 113.2,-241.55"/>
<polygon fill="#475569" stroke="#475569" points="209.87,-246.45 216.87,-244 209.87,-241.55 209.87,-246.45"/>
</g>
<!-- req -->
<g id="node7" class="node">
<title>req</title>
<path fill="white" stroke="#64748b" d="M447.01,-179C447.01,-179 417.01,-179 417.01,-179 411.01,-179 405.01,-173 405.01,-167 405.01,-167 405.01,-155 405.01,-155 405.01,-149 411.01,-143 417.01,-143 417.01,-143 447.01,-143 447.01,-143 453.01,-143 459.01,-149 459.01,-155 459.01,-155 459.01,-167 459.01,-167 459.01,-173 453.01,-179 447.01,-179"/>
<text xml:space="preserve" text-anchor="middle" x="432.01" y="-156.55" font-family="Pretendard" font-size="11.00">request</text>
</g>
<!-- tcp_a1&#45;&gt;req -->
<g id="edge4" class="edge">
<title>tcp_a1&#45;&gt;req</title>
<path fill="none" stroke="#475569" d="M287,-72C338.99,-72 432.06,-72 432.06,-72 432.06,-72 432.06,-134.05 432.06,-134.05"/>
<polygon fill="#475569" stroke="#475569" points="429.61,-134.05 432.06,-141.05 434.51,-134.05 429.61,-134.05"/>
</g>
<!-- tcp_a2&#45;&gt;req -->
<g id="edge5" class="edge">
<title>tcp_a2&#45;&gt;req</title>
<path fill="none" stroke="#475569" d="M286.99,-152C286.99,-152 396.25,-152 396.25,-152"/>
<polygon fill="#475569" stroke="#475569" points="396.25,-154.45 403.25,-152 396.25,-149.55 396.25,-154.45"/>
</g>
<!-- tcp_b1&#45;&gt;req -->
<g id="edge6" class="edge">
<title>tcp_b1&#45;&gt;req</title>
<path fill="none" stroke="#475569" d="M287.24,-233.2C323.37,-233.2 375.06,-233.2 375.06,-233.2 375.06,-233.2 375.06,-170 375.06,-170 375.06,-170 396.02,-170 396.02,-170"/>
<polygon fill="#475569" stroke="#475569" points="396.02,-172.45 403.02,-170 396.02,-167.55 396.02,-172.45"/>
</g>
<!-- callback_context -->
<g id="node8" class="node">
<title>callback_context</title>
<path fill="white" stroke="#64748b" d="M576.78,-179C576.78,-179 546.78,-179 546.78,-179 540.78,-179 534.78,-173 534.78,-167 534.78,-167 534.78,-155 534.78,-155 534.78,-149 540.78,-143 546.78,-143 546.78,-143 576.78,-143 576.78,-143 582.78,-143 588.78,-149 588.78,-155 588.78,-155 588.78,-167 588.78,-167 588.78,-173 582.78,-179 576.78,-179"/>
<text xml:space="preserve" text-anchor="middle" x="561.78" y="-156.55" font-family="Pretendard" font-size="11.00">context</text>
</g>
<!-- req&#45;&gt;callback_context -->
<g id="edge7" class="edge">
<title>req&#45;&gt;callback_context</title>
<path fill="none" stroke="#475569" d="M459.22,-161C459.22,-161 526.1,-161 526.1,-161"/>
<polygon fill="#475569" stroke="#475569" points="526.1,-163.45 533.1,-161 526.1,-158.55 526.1,-163.45"/>
</g>
<!-- db_black_box -->
<g id="node13" class="node">
<title>db_black_box</title>
<path fill="white" stroke="#64748b" d="M711.06,-179C711.06,-179 672.78,-179 672.78,-179 666.78,-179 660.78,-173 660.78,-167 660.78,-167 660.78,-155 660.78,-155 660.78,-149 666.78,-143 672.78,-143 672.78,-143 711.06,-143 711.06,-143 717.06,-143 723.06,-149 723.06,-155 723.06,-155 723.06,-167 723.06,-167 723.06,-173 717.06,-179 711.06,-179"/>
<text xml:space="preserve" text-anchor="middle" x="691.92" y="-156.55" font-family="Pretendard" font-size="11.00">black box</text>
</g>
<!-- callback_context&#45;&gt;db_black_box -->
<g id="edge8" class="edge">
<title>callback_context&#45;&gt;db_black_box</title>
<path fill="none" stroke="#475569" d="M589.06,-161C589.06,-161 652.04,-161 652.04,-161"/>
<polygon fill="#475569" stroke="#475569" points="652.04,-163.45 659.04,-161 652.04,-158.55 652.04,-163.45"/>
<text xml:space="preserve" text-anchor="middle" x="605.93" y="-151.5" font-family="Pretendard" font-size="10.00">submit</text>
</g>
<!-- res -->
<g id="node9" class="node">
<title>res</title>
<path fill="white" stroke="#64748b" d="M450.78,-262C450.78,-262 413.25,-262 413.25,-262 407.25,-262 401.25,-256 401.25,-250 401.25,-250 401.25,-238 401.25,-238 401.25,-232 407.25,-226 413.25,-226 413.25,-226 450.78,-226 450.78,-226 456.78,-226 462.78,-232 462.78,-238 462.78,-238 462.78,-250 462.78,-250 462.78,-256 456.78,-262 450.78,-262"/>
<text xml:space="preserve" text-anchor="middle" x="432.01" y="-239.55" font-family="Pretendard" font-size="11.00">response</text>
</g>
<!-- res&#45;&gt;tcp_a1 -->
<g id="edge10" class="edge">
<title>res&#45;&gt;tcp_a1</title>
<path fill="none" stroke="#475569" stroke-dasharray="5,2" d="M401.13,-247.6C377.54,-247.6 349.06,-247.6 349.06,-247.6 349.06,-247.6 349.06,-84 349.06,-84 349.06,-84 295.57,-84 295.57,-84"/>
<polygon fill="#475569" stroke="#475569" points="295.57,-81.55 288.57,-84 295.57,-86.45 295.57,-81.55"/>
</g>
<!-- res&#45;&gt;tcp_a2 -->
<g id="edge11" class="edge">
<title>res&#45;&gt;tcp_a2</title>
<path fill="none" stroke="#475569" stroke-dasharray="5,2" d="M400.8,-254.8C368.29,-254.8 322.06,-254.8 322.06,-254.8 322.06,-254.8 322.06,-161 322.06,-161 322.06,-161 295.58,-161 295.58,-161"/>
<polygon fill="#475569" stroke="#475569" points="295.58,-158.55 288.58,-161 295.58,-163.45 295.58,-158.55"/>
</g>
<!-- res&#45;&gt;tcp_b1 -->
<g id="edge12" class="edge">
<title>res&#45;&gt;tcp_b1</title>
<path fill="none" stroke="#475569" stroke-dasharray="5,2" d="M400.81,-240.4C400.81,-240.4 295.9,-240.4 295.9,-240.4"/>
<polygon fill="#475569" stroke="#475569" points="295.9,-237.95 288.9,-240.4 295.9,-242.85 295.9,-237.95"/>
</g>
<!-- connection_list -->
<g id="node10" class="node">
<title>connection_list</title>
<path fill="white" stroke="#64748b" d="M278.01,-365C278.01,-365 227.74,-365 227.74,-365 221.74,-365 215.74,-359 215.74,-353 215.74,-353 215.74,-341 215.74,-341 215.74,-335 221.74,-329 227.74,-329 227.74,-329 278.01,-329 278.01,-329 284.01,-329 290.01,-335 290.01,-341 290.01,-341 290.01,-353 290.01,-353 290.01,-359 284.01,-365 278.01,-365"/>
<text xml:space="preserve" text-anchor="middle" x="252.88" y="-342.55" font-family="Pretendard" font-size="11.00">connections</text>
</g>
<!-- client_counters -->
<g id="node11" class="node">
<title>client_counters</title>
<path fill="white" stroke="#64748b" d="M284.01,-448C284.01,-448 221.74,-448 221.74,-448 215.74,-448 209.74,-442 209.74,-436 209.74,-436 209.74,-424 209.74,-424 209.74,-418 215.74,-412 221.74,-412 221.74,-412 284.01,-412 284.01,-412 290.01,-412 296.01,-418 296.01,-424 296.01,-424 296.01,-436 296.01,-436 296.01,-442 290.01,-448 284.01,-448"/>
<text xml:space="preserve" text-anchor="middle" x="252.88" y="-425.55" font-family="Pretendard" font-size="11.00">client counters</text>
</g>
<!-- in_flight_ids -->
<g id="node12" class="node">
<title>in_flight_ids</title>
<path fill="white" stroke="#64748b" d="M275.01,-531C275.01,-531 230.74,-531 230.74,-531 224.74,-531 218.74,-525 218.74,-519 218.74,-519 218.74,-507 218.74,-507 218.74,-501 224.74,-495 230.74,-495 230.74,-495 275.01,-495 275.01,-495 281.01,-495 287.01,-501 287.01,-507 287.01,-507 287.01,-519 287.01,-519 287.01,-525 281.01,-531 275.01,-531"/>
<text xml:space="preserve" text-anchor="middle" x="252.88" y="-508.55" font-family="Pretendard" font-size="11.00">in&#45;flight ids</text>
</g>
<!-- db_black_box&#45;&gt;res -->
<g id="edge9" class="edge">
<title>db_black_box&#45;&gt;res</title>
<path fill="none" stroke="#475569" stroke-dasharray="5,2" d="M692.06,-179.42C692.06,-203.87 692.06,-244 692.06,-244 692.06,-244 471.64,-244 471.64,-244"/>
<polygon fill="#475569" stroke="#475569" points="471.64,-241.55 464.64,-244 471.64,-246.45 471.64,-241.55"/>
<text xml:space="preserve" text-anchor="middle" x="596.14" y="-234.5" font-family="Pretendard" font-size="10.00">callback</text>
</g>
</g>
</svg>
