<?xml version="1.0" encoding="UTF-8" standalone="no"?>
<!DOCTYPE svg PUBLIC "-//W3C//DTD SVG 1.1//EN"
 "http://www.w3.org/Graphics/SVG/1.1/DTD/svg11.dtd">
<!-- Generated by graphviz version 14.1.5 (20260411.2331)
 -->
<!-- Title: ReplCmdProcessorStructure Pages: 1 -->
<svg width="882pt" height="485pt"
 viewBox="0.00 0.00 882.00 485.00" xmlns="http://www.w3.org/2000/svg" xmlns:xlink="http://www.w3.org/1999/xlink">
<g id="graph0" class="graph" transform="scale(1 1) rotate(0) translate(14.4 470.65)">
<title>ReplCmdProcessorStructure</title>
<g id="clust1" class="cluster">
<title>cluster_users</title>
<path fill="#f8fafc" stroke="#cbd5e1" d="M20,-154.75C20,-154.75 166,-154.75 166,-154.75 172,-154.75 178,-160.75 178,-166.75 178,-166.75 178,-360 178,-360 178,-366 172,-372 166,-372 166,-372 20,-372 20,-372 14,-372 8,-366 8,-360 8,-360 8,-166.75 8,-166.75 8,-160.75 14,-154.75 20,-154.75"/>
<text xml:space="preserve" text-anchor="middle" x="93" y="-355.65" font-family="Pretendard" font-size="13.00">REPL frontend</text>
</g>
<g id="clust2" class="cluster">
<title>cluster_dbms</title>
<path fill="#f1f5f9" stroke="#94a3b8" d="M206,-8C206,-8 833,-8 833,-8 839,-8 845,-14 845,-20 845,-20 845,-436.25 845,-436.25 845,-442.25 839,-448.25 833,-448.25 833,-448.25 206,-448.25 206,-448.25 200,-448.25 194,-442.25 194,-436.25 194,-436.25 194,-20 194,-20 194,-14 200,-8 206,-8"/>
<text xml:space="preserve" text-anchor="middle" x="519.5" y="-431.9" font-family="Pretendard" font-size="13.00">DBMS</text>
</g>
<g id="clust3" class="cluster">
<title>cluster_repl</title>
<path fill="#eff6ff" stroke="#93c5fd" d="M226,-28C226,-28 703,-28 703,-28 709,-28 715,-34 715,-40 715,-40 715,-394.75 715,-394.75 715,-400.75 709,-406.75 703,-406.75 703,-406.75 226,-406.75 226,-406.75 220,-406.75 214,-400.75 214,-394.75 214,-394.75 214,-40 214,-40 214,-34 220,-28 226,-28"/>
<text xml:space="preserve" text-anchor="middle" x="464.5" y="-390.4" font-family="Pretendard" font-size="13.00">REPLCmdProcessor</text>
</g>
<g id="clust4" class="cluster">
<title>cluster_adapter</title>
<path fill="#ffffff" stroke="#bae6fd" d="M247,-158.75C247,-158.75 341,-158.75 341,-158.75 347,-158.75 353,-164.75 353,-170.75 353,-170.75 353,-355.25 353,-355.25 353,-361.25 347,-367.25 341,-367.25 341,-367.25 247,-367.25 247,-367.25 241,-367.25 235,-361.25 235,-355.25 235,-355.25 235,-170.75 235,-170.75 235,-164.75 241,-158.75 247,-158.75"/>
<text xml:space="preserve" text-anchor="middle" x="294" y="-351.85" font-family="Pretendard" font-size="12.00">req / res adapter</text>
</g>
<g id="clust5" class="cluster">
<title>cluster_execution</title>
<path fill="#ffffff" stroke="#bfdbfe" d="M540,-158.75C540,-158.75 658,-158.75 658,-158.75 664,-158.75 670,-164.75 670,-170.75 670,-170.75 670,-231.5 670,-231.5 670,-237.5 664,-243.5 658,-243.5 658,-243.5 540,-243.5 540,-243.5 534,-243.5 528,-237.5 528,-231.5 528,-231.5 528,-170.75 528,-170.75 528,-164.75 534,-158.75 540,-158.75"/>
<text xml:space="preserve" text-anchor="middle" x="599" y="-228.1" font-family="Pretendard" font-size="12.00">sync execution</text>
</g>
<g id="clust6" class="cluster">
<title>cluster_state</title>
<path fill="#ffffff" stroke="#cbd5e1" d="M244,-46C244,-46 685,-46 685,-46 691,-46 697,-52 697,-58 697,-58 697,-118.75 697,-118.75 697,-124.75 691,-130.75 685,-130.75 685,-130.75 244,-130.75 244,-130.75 238,-130.75 232,-124.75 232,-118.75 232,-118.75 232,-58 232,-58 232,-52 238,-46 244,-46"/>
<text xml:space="preserve" text-anchor="middle" x="464.5" y="-115.35" font-family="Pretendard" font-size="12.00">processor&#45;owned state</text>
</g>
<g id="clust8" class="cluster">
<title>cluster_db</title>
<path fill="#ffffff" stroke="#cbd5e1" d="M747,-158.75C747,-158.75 813,-158.75 813,-158.75 819,-158.75 825,-164.75 825,-170.75 825,-170.75 825,-231.5 825,-231.5 825,-237.5 819,-243.5 813,-243.5 813,-243.5 747,-243.5 747,-243.5 741,-243.5 735,-237.5 735,-231.5 735,-231.5 735,-170.75 735,-170.75 735,-164.75 741,-158.75 747,-158.75"/>
<text xml:space="preserve" text-anchor="middle" x="780" y="-228.1" font-family="Pretendard" font-size="12.00">DB</text>
</g>
<!-- console -->
<g id="node1" class="node">
<title>console</title>
<path fill="white" stroke="#64748b" d="M120.76,-332.5C120.76,-332.5 65.23,-332.5 65.23,-332.5 59.23,-332.5 53.23,-326.5 53.23,-320.5 53.23,-320.5 53.23,-308.5 53.23,-308.5 53.23,-302.5 59.23,-296.5 65.23,-296.5 65.23,-296.5 120.76,-296.5 120.76,-296.5 126.76,-296.5 132.76,-302.5 132.76,-308.5 132.76,-308.5 132.76,-320.5 132.76,-320.5 132.76,-326.5 126.76,-332.5 120.76,-332.5"/>
<text xml:space="preserve" text-anchor="middle" x="93" y="-316.05" font-family="Pretendard" font-size="11.00">console</text>
<text xml:space="preserve" text-anchor="middle" x="93" y="-304.05" font-family="Pretendard" font-size="11.00">input / output</text>
</g>
<!-- repl_loop -->
<g id="node2" class="node">
<title>repl_loop</title>
<path fill="white" stroke="#64748b" d="M147.76,-208.75C147.76,-208.75 38.24,-208.75 38.24,-208.75 32.24,-208.75 26.23,-202.75 26.23,-196.75 26.23,-196.75 26.23,-184.75 26.23,-184.75 26.23,-178.75 32.23,-172.75 38.23,-172.75 38.23,-172.75 147.76,-172.75 147.76,-172.75 153.76,-172.75 159.76,-178.75 159.76,-184.75 159.76,-184.75 159.76,-196.75 159.76,-196.75 159.76,-202.75 153.76,-208.75 147.76,-208.75"/>
<text xml:space="preserve" text-anchor="middle" x="93" y="-192.3" font-family="Pretendard" font-size="11.00">REPL loop</text>
<text xml:space="preserve" text-anchor="middle" x="93" y="-180.3" font-family="Pretendard" font-size="11.00">prompt + SQL assembly</text>
</g>
<!-- console&#45;&gt;repl_loop -->
<g id="edge5" class="edge">
<title>console&#45;&gt;repl_loop</title>
<path fill="none" stroke="#475569" d="M93,-287.57C93,-266.89 93,-238.07 93,-217.45"/>
<polygon fill="#475569" stroke="#475569" points="90.55,-287.54 93,-294.54 95.45,-287.54 90.55,-287.54"/>
<polygon fill="#475569" stroke="#475569" points="95.45,-217.67 93,-210.67 90.55,-217.68 95.45,-217.67"/>
<text xml:space="preserve" text-anchor="middle" x="117" y="-254" font-family="Pretendard" font-size="10.00">콘솔 입출력</text>
</g>
<!-- req -->
<g id="node4" class="node">
<title>req</title>
<path fill="white" stroke="#64748b" d="M322.51,-208.75C322.51,-208.75 265.49,-208.75 265.49,-208.75 259.49,-208.75 253.49,-202.75 253.49,-196.75 253.49,-196.75 253.49,-184.75 253.49,-184.75 253.49,-178.75 259.49,-172.75 265.49,-172.75 265.49,-172.75 322.51,-172.75 322.51,-172.75 328.51,-172.75 334.51,-178.75 334.51,-184.75 334.51,-184.75 334.51,-196.75 334.51,-196.75 334.51,-202.75 328.51,-208.75 322.51,-208.75"/>
<text xml:space="preserve" text-anchor="middle" x="294" y="-186.3" font-family="Pretendard" font-size="11.00">CmdRequest</text>
</g>
<!-- repl_loop&#45;&gt;req -->
<g id="edge6" class="edge">
<title>repl_loop&#45;&gt;req</title>
<path fill="none" stroke="#475569" d="M160.13,-190.75C188.37,-190.75 216.61,-190.75 244.85,-190.75"/>
<polygon fill="#475569" stroke="#475569" points="244.7,-193.2 251.7,-190.75 244.7,-188.3 244.7,-193.2"/>
</g>
<!-- res -->
<g id="node3" class="node">
<title>res</title>
<path fill="white" stroke="#64748b" d="M326.64,-332.5C326.64,-332.5 261.36,-332.5 261.36,-332.5 255.36,-332.5 249.36,-326.5 249.36,-320.5 249.36,-320.5 249.36,-308.5 249.36,-308.5 249.36,-302.5 255.36,-296.5 261.36,-296.5 261.36,-296.5 326.64,-296.5 326.64,-296.5 332.64,-296.5 338.64,-302.5 338.64,-308.5 338.64,-308.5 338.64,-320.5 338.64,-320.5 338.64,-326.5 332.64,-332.5 326.64,-332.5"/>
<text xml:space="preserve" text-anchor="middle" x="294" y="-310.05" font-family="Pretendard" font-size="11.00">CmdResponse</text>
</g>
<!-- res&#45;&gt;repl_loop -->
<g id="edge10" class="edge">
<title>res&#45;&gt;repl_loop</title>
<path fill="none" stroke="#475569" stroke-dasharray="5,2" d="M265.2,-296.06C229.23,-274.27 167.69,-236.99 128.74,-213.4"/>
<polygon fill="#475569" stroke="#475569" points="130.3,-211.48 123.04,-209.95 127.76,-215.67 130.3,-211.48"/>
</g>
<!-- res&#45;&gt;req -->
<!-- response_slots -->
<g id="node7" class="node">
<title>response_slots</title>
<path fill="white" stroke="#64748b" d="M481.14,-96C481.14,-96 400.86,-96 400.86,-96 394.86,-96 388.86,-90 388.86,-84 388.86,-84 388.86,-72 388.86,-72 388.86,-66 394.86,-60 400.86,-60 400.86,-60 481.14,-60 481.14,-60 487.14,-60 493.14,-66 493.14,-72 493.14,-72 493.14,-84 493.14,-84 493.14,-90 487.14,-96 481.14,-96"/>
<text xml:space="preserve" text-anchor="middle" x="441" y="-73.55" font-family="Pretendard" font-size="11.00">response slot pool</text>
</g>
<!-- res&#45;&gt;response_slots -->
<g id="edge12" class="edge">
<title>res&#45;&gt;response_slots</title>
<path fill="none" stroke="#475569" stroke-dasharray="1,5" d="M305.29,-296.33C332.65,-252.31 402.27,-140.31 429.67,-96.23"/>
</g>
<!-- execute -->
<g id="node5" class="node">
<title>execute</title>
<path fill="white" stroke="#64748b" d="M643.64,-208.75C643.64,-208.75 554.36,-208.75 554.36,-208.75 548.36,-208.75 542.36,-202.75 542.36,-196.75 542.36,-196.75 542.36,-184.75 542.36,-184.75 542.36,-178.75 548.36,-172.75 554.36,-172.75 554.36,-172.75 643.64,-172.75 643.64,-172.75 649.64,-172.75 655.64,-178.75 655.64,-184.75 655.64,-184.75 655.64,-196.75 655.64,-196.75 655.64,-202.75 649.64,-208.75 643.64,-208.75"/>
<text xml:space="preserve" text-anchor="middle" x="599" y="-192.3" font-family="Pretendard" font-size="11.00">command execution</text>
<text xml:space="preserve" text-anchor="middle" x="599" y="-180.3" font-family="Pretendard" font-size="11.00">ping / SQL</text>
</g>
<!-- req&#45;&gt;execute -->
<g id="edge7" class="edge">
<title>req&#45;&gt;execute</title>
<path fill="none" stroke="#475569" d="M334.82,-190.75C385.75,-190.75 473.46,-190.75 533.75,-190.75"/>
<polygon fill="#475569" stroke="#475569" points="533.56,-193.2 540.56,-190.75 533.56,-188.3 533.56,-193.2"/>
<text xml:space="preserve" text-anchor="middle" x="438.44" y="-196.25" font-family="Pretendard" font-size="10.00">요청 제출</text>
</g>
<!-- request_slots -->
<g id="node6" class="node">
<title>request_slots</title>
<path fill="white" stroke="#64748b" d="M330.01,-96C330.01,-96 257.99,-96 257.99,-96 251.99,-96 245.99,-90 245.99,-84 245.99,-84 245.99,-72 245.99,-72 245.99,-66 251.99,-60 257.99,-60 257.99,-60 330.01,-60 330.01,-60 336.01,-60 342.01,-66 342.01,-72 342.01,-72 342.01,-84 342.01,-84 342.01,-90 336.01,-96 330.01,-96"/>
<text xml:space="preserve" text-anchor="middle" x="294" y="-73.55" font-family="Pretendard" font-size="11.00">request slot pool</text>
</g>
<!-- req&#45;&gt;request_slots -->
<!-- req&#45;&gt;request_slots -->
<g id="edge11" class="edge">
<title>req&#45;&gt;request_slots</title>
<path fill="none" stroke="#475569" stroke-dasharray="1,5" d="M307.22,-172.45C313.11,-151.64 313.09,-116.94 307.18,-96.18"/>
</g>
<!-- execute&#45;&gt;res -->
<g id="edge9" class="edge">
<title>execute&#45;&gt;res</title>
<path fill="none" stroke="#475569" stroke-dasharray="5,2" d="M555.38,-209.16C499.93,-231.3 404.34,-269.45 345.41,-292.98"/>
<polygon fill="#475569" stroke="#475569" points="344.7,-290.62 339.1,-295.5 346.51,-295.18 344.7,-290.62"/>
</g>
<!-- mutex -->
<g id="node8" class="node">
<title>mutex</title>
<path fill="white" stroke="#64748b" d="M671.39,-96C671.39,-96 598.61,-96 598.61,-96 592.61,-96 586.61,-90 586.61,-84 586.61,-84 586.61,-72 586.61,-72 586.61,-66 592.61,-60 598.61,-60 598.61,-60 671.39,-60 671.39,-60 677.39,-60 683.39,-66 683.39,-72 683.39,-72 683.39,-84 683.39,-84 683.39,-90 677.39,-96 671.39,-96"/>
<text xml:space="preserve" text-anchor="middle" x="635" y="-73.55" font-family="Pretendard" font-size="11.00">processor mutex</text>
</g>
<!-- execute&#45;&gt;mutex -->
<!-- execute&#45;&gt;mutex -->
<g id="edge13" class="edge">
<title>execute&#45;&gt;mutex</title>
<path fill="none" stroke="#475569" stroke-dasharray="1,5" d="M617.84,-172.45C630.49,-151.64 641.76,-116.94 642.6,-96.18"/>
</g>
<!-- db_black_box -->
<g id="node9" class="node">
<title>db_black_box</title>
<path fill="white" stroke="#64748b" d="M799.14,-208.75C799.14,-208.75 760.86,-208.75 760.86,-208.75 754.86,-208.75 748.86,-202.75 748.86,-196.75 748.86,-196.75 748.86,-184.75 748.86,-184.75 748.86,-178.75 754.86,-172.75 760.86,-172.75 760.86,-172.75 799.14,-172.75 799.14,-172.75 805.14,-172.75 811.14,-178.75 811.14,-184.75 811.14,-184.75 811.14,-196.75 811.14,-196.75 811.14,-202.75 805.14,-208.75 799.14,-208.75"/>
<text xml:space="preserve" text-anchor="middle" x="780" y="-186.3" font-family="Pretendard" font-size="11.00">BlackBox</text>
</g>
<!-- execute&#45;&gt;db_black_box -->
<g id="edge8" class="edge">
<title>execute&#45;&gt;db_black_box</title>
<path fill="none" stroke="#475569" d="M664.15,-190.75C689.59,-190.75 717.94,-190.75 740.23,-190.75"/>
<polygon fill="#475569" stroke="#475569" points="664.29,-188.3 657.29,-190.75 664.29,-193.2 664.29,-188.3"/>
<polygon fill="#475569" stroke="#475569" points="739.94,-193.2 746.94,-190.75 739.94,-188.3 739.94,-193.2"/>
<text xml:space="preserve" text-anchor="middle" x="702.25" y="-208.25" font-family="Pretendard" font-size="10.00">실행</text>
<text xml:space="preserve" text-anchor="middle" x="702.25" y="-196.25" font-family="Pretendard" font-size="10.00">동기 반환</text>
</g>
<!-- response_slots&#45;&gt;mutex -->
</g>
</svg>
