<?xml version="1.0" encoding="UTF-8" standalone="no"?>
<!DOCTYPE svg PUBLIC "-//W3C//DTD SVG 1.1//EN"
 "http://www.w3.org/Graphics/SVG/1.1/DTD/svg11.dtd">
<!-- Generated by graphviz version 14.1.5 (20260411.2331)
 -->
<!-- Title: CmdProcessorDICoreOnly Pages: 1 -->
<svg width="777pt" height="139pt"
 viewBox="0.00 0.00 777.00 139.00" xmlns="http://www.w3.org/2000/svg" xmlns:xlink="http://www.w3.org/1999/xlink">
<g id="graph0" class="graph" transform="scale(1 1) rotate(0) translate(14.4 124.4)">
<title>CmdProcessorDICoreOnly</title>
<g id="clust1" class="cluster">
<title>cluster_impl</title>
<path fill="#f8fafc" stroke="#cbd5e1" d="M20,-8C20,-8 128.16,-8 128.16,-8 134.16,-8 140.16,-14 140.16,-20 140.16,-20 140.16,-90 140.16,-90 140.16,-96 134.16,-102 128.16,-102 128.16,-102 20,-102 20,-102 14,-102 8,-96 8,-90 8,-90 8,-20 8,-20 8,-14 14,-8 20,-8"/>
<text xml:space="preserve" text-anchor="middle" x="74.08" y="-85.65" font-family="Pretendard" font-size="13.00">입출력 구현체</text>
</g>
<g id="clust2" class="cluster">
<title>cluster_core</title>
<path fill="#f0f9ff" stroke="#bae6fd" d="M486.43,-9C486.43,-9 727.75,-9 727.75,-9 733.75,-9 739.75,-15 739.75,-21 739.75,-21 739.75,-89 739.75,-89 739.75,-95 733.75,-101 727.75,-101 727.75,-101 486.43,-101 486.43,-101 480.43,-101 474.43,-95 474.43,-89 474.43,-89 474.43,-21 474.43,-21 474.43,-15 480.43,-9 486.43,-9"/>
<text xml:space="preserve" text-anchor="middle" x="607.09" y="-84.65" font-family="Pretendard" font-size="13.00">코어</text>
</g>
<!-- impl_slot -->
<g id="node1" class="node">
<title>impl_slot</title>
<path fill="#ffffff" stroke="#cbd5e1" stroke-dasharray="5,2" d="M114.16,-63.73C114.16,-63.73 34,-63.73 34,-63.73 28,-63.73 22,-57.73 22,-51.73 22,-51.73 22,-34.27 22,-34.27 22,-28.27 28,-22.27 34,-22.27 34,-22.27 114.16,-22.27 114.16,-22.27 120.16,-22.27 126.16,-28.27 126.16,-34.27 126.16,-34.27 126.16,-51.73 126.16,-51.73 126.16,-57.73 120.16,-63.73 114.16,-63.73"/>
<text xml:space="preserve" text-anchor="middle" x="74.08" y="-46.8" font-family="Pretendard" font-size="11.00">아직 선택되지 않음</text>
<text xml:space="preserve" text-anchor="middle" x="74.08" y="-32.55" font-family="Pretendard" font-size="11.00">입출력 관리 없음</text>
</g>
<!-- cmd_contract -->
<g id="node4" class="node">
<title>cmd_contract</title>
<path fill="#dbeafe" stroke="#60a5fa" d="M373.43,-61C373.43,-61 241.16,-61 241.16,-61 235.16,-61 229.16,-55 229.16,-49 229.16,-49 229.16,-37 229.16,-37 229.16,-31 235.16,-25 241.16,-25 241.16,-25 373.43,-25 373.43,-25 379.43,-25 385.43,-31 385.43,-37 385.43,-37 385.43,-49 385.43,-49 385.43,-55 379.43,-61 373.43,-61"/>
<text xml:space="preserve" text-anchor="middle" x="307.3" y="-38.55" font-family="Pretendard" font-size="11.00">CmdRequest / CmdResponse</text>
</g>
<!-- impl_slot&#45;&gt;cmd_contract -->
<g id="edge1" class="edge">
<title>impl_slot&#45;&gt;cmd_contract</title>
<path fill="none" stroke="#475569" stroke-dasharray="5,2" d="M140.16,-43C167.81,-43 200.16,-43 228.99,-43"/>
</g>
<!-- cmd_processor -->
<g id="node2" class="node">
<title>cmd_processor</title>
<path fill="#ffffff" stroke="#64748b" d="M568.59,-62.61C568.59,-62.61 500.43,-62.61 500.43,-62.61 494.43,-62.61 488.43,-56.61 488.43,-50.61 488.43,-50.61 488.43,-35.39 488.43,-35.39 488.43,-29.39 494.43,-23.39 500.43,-23.39 500.43,-23.39 568.59,-23.39 568.59,-23.39 574.59,-23.39 580.59,-29.39 580.59,-35.39 580.59,-35.39 580.59,-50.61 580.59,-50.61 580.59,-56.61 574.59,-62.61 568.59,-62.61"/>
<text xml:space="preserve" text-anchor="middle" x="534.51" y="-45.67" font-family="Pretendard" font-size="11.00">CmdProcessor</text>
<text xml:space="preserve" text-anchor="middle" x="534.51" y="-33.67" font-family="Pretendard" font-size="11.00">요청 처리 정책</text>
</g>
<!-- db -->
<g id="node3" class="node">
<title>db</title>
<path fill="#ffffff" stroke="#cbd5e1" d="M713.75,-62.61C713.75,-62.61 672.59,-62.61 672.59,-62.61 666.59,-62.61 660.59,-56.61 660.59,-50.61 660.59,-50.61 660.59,-35.39 660.59,-35.39 660.59,-29.39 666.59,-23.39 672.59,-23.39 672.59,-23.39 713.75,-23.39 713.75,-23.39 719.75,-23.39 725.75,-29.39 725.75,-35.39 725.75,-35.39 725.75,-50.61 725.75,-50.61 725.75,-56.61 719.75,-62.61 713.75,-62.61"/>
<text xml:space="preserve" text-anchor="middle" x="693.17" y="-45.67" font-family="Pretendard" font-size="11.00">DB 실행</text>
<text xml:space="preserve" text-anchor="middle" x="693.17" y="-31.43" font-family="Pretendard" font-size="11.00">BlackBox</text>
</g>
<!-- cmd_processor&#45;&gt;db -->
<g id="edge3" class="edge">
<title>cmd_processor&#45;&gt;db</title>
<path fill="none" stroke="#475569" d="M580.82,-43C603.32,-43 630.26,-43 652.01,-43"/>
<polygon fill="#475569" stroke="#475569" points="651.86,-45.45 658.86,-43 651.86,-40.55 651.86,-45.45"/>
<text xml:space="preserve" text-anchor="middle" x="620.59" y="-45.7" font-family="Pretendard" font-size="9.00">DB 의존</text>
</g>
<!-- cmd_contract&#45;&gt;cmd_processor -->
<g id="edge2" class="edge">
<title>cmd_contract&#45;&gt;cmd_processor</title>
<path fill="none" stroke="#475569" stroke-dasharray="5,2" d="M385.81,-43C411.9,-43 440.73,-43 466.01,-43"/>
<polygon fill="#475569" stroke="#475569" points="465.92,-45.45 472.92,-43 465.92,-40.55 465.92,-45.45"/>
</g>
</g>
</svg>
