<?xml version="1.0" encoding="UTF-8" standalone="no"?>
<!DOCTYPE svg PUBLIC "-//W3C//DTD SVG 1.1//EN"
 "http://www.w3.org/Graphics/SVG/1.1/DTD/svg11.dtd">
<!-- Generated by graphviz version 14.1.5 (20260411.2331)
 -->
<!-- Title: CmdProcessorDIReplBuild Pages: 1 -->
<svg width="683pt" height="370pt"
 viewBox="0.00 0.00 683.00 370.00" xmlns="http://www.w3.org/2000/svg" xmlns:xlink="http://www.w3.org/1999/xlink">
<g id="graph0" class="graph" transform="scale(1 1) rotate(0) translate(14.4 355.53)">
<title>CmdProcessorDIReplBuild</title>
<g id="clust1" class="cluster">
<title>cluster_entrypoint</title>
<path fill="#f8fafc" stroke="#cbd5e1" d="M20,-235.67C20,-235.67 336,-235.67 336,-235.67 342,-235.67 348,-241.67 348,-247.67 348,-247.67 348,-321.13 348,-321.13 348,-327.13 342,-333.13 336,-333.13 336,-333.13 20,-333.13 20,-333.13 14,-333.13 8,-327.13 8,-321.13 8,-321.13 8,-247.67 8,-247.67 8,-241.67 14,-235.67 20,-235.67"/>
<text xml:space="preserve" text-anchor="middle" x="178" y="-316.78" font-family="Pretendard" font-size="13.00">주입된 진입점 구현체: REPL</text>
</g>
<g id="clust2" class="cluster">
<title>cluster_core</title>
<path fill="#eff6ff" stroke="#93c5fd" d="M214,-8C214,-8 534,-8 534,-8 540,-8 546,-14 546,-20 546,-20 546,-196.42 546,-196.42 546,-202.42 540,-208.42 534,-208.42 534,-208.42 214,-208.42 214,-208.42 208,-208.42 202,-202.42 202,-196.42 202,-196.42 202,-20 202,-20 202,-14 208,-8 214,-8"/>
<text xml:space="preserve" text-anchor="middle" x="374" y="-192.07" font-family="Pretendard" font-size="13.00">코어 구현체: 변경 없음</text>
</g>
<!-- console -->
<g id="node1" class="node">
<title>console</title>
<path fill="white" stroke="#64748b" d="M130.08,-290.15C130.08,-290.15 37.92,-290.15 37.92,-290.15 31.92,-290.15 25.92,-284.15 25.92,-278.15 25.92,-278.15 25.92,-266.15 25.92,-266.15 25.92,-260.15 31.92,-254.15 37.92,-254.15 37.92,-254.15 130.08,-254.15 130.08,-254.15 136.08,-254.15 142.08,-260.15 142.08,-266.15 142.08,-266.15 142.08,-278.15 142.08,-278.15 142.08,-284.15 136.08,-290.15 130.08,-290.15"/>
<text xml:space="preserve" text-anchor="middle" x="84" y="-267.7" font-family="Pretendard" font-size="11.00">console input/output</text>
</g>
<!-- repl_adapter -->
<g id="node2" class="node">
<title>repl_adapter</title>
<path fill="white" stroke="#64748b" d="M317.95,-290.63C317.95,-290.63 234.05,-290.63 234.05,-290.63 228.05,-290.63 222.05,-284.63 222.05,-278.63 222.05,-278.63 222.05,-265.67 222.05,-265.67 222.05,-259.67 228.05,-253.67 234.05,-253.67 234.05,-253.67 317.95,-253.67 317.95,-253.67 323.95,-253.67 329.95,-259.67 329.95,-265.67 329.95,-265.67 329.95,-278.63 329.95,-278.63 329.95,-284.63 323.95,-290.63 317.95,-290.63"/>
<text xml:space="preserve" text-anchor="middle" x="276" y="-273.7" font-family="Pretendard" font-size="11.00">REPL adapter</text>
<text xml:space="preserve" text-anchor="middle" x="276" y="-261.7" font-family="Pretendard" font-size="11.00">prompt + SQL line</text>
</g>
<!-- console&#45;&gt;repl_adapter -->
<g id="edge1" class="edge">
<title>console&#45;&gt;repl_adapter</title>
<path fill="none" stroke="#475569" d="M142.5,-272.15C166.14,-272.15 189.77,-272.15 213.41,-272.15"/>
<polygon fill="#475569" stroke="#475569" points="213.25,-274.6 220.25,-272.15 213.25,-269.7 213.25,-274.6"/>
</g>
<!-- main_core -->
<g id="node3" class="node">
<title>main_core</title>
<path fill="white" stroke="#64748b" d="M320.2,-164.79C320.2,-164.79 231.8,-164.79 231.8,-164.79 225.8,-164.79 219.8,-158.79 219.8,-152.79 219.8,-152.79 219.8,-137.58 219.8,-137.58 219.8,-131.58 225.8,-125.58 231.8,-125.58 231.8,-125.58 320.2,-125.58 320.2,-125.58 326.2,-125.58 332.2,-131.58 332.2,-137.58 332.2,-137.58 332.2,-152.79 332.2,-152.79 332.2,-158.79 326.2,-164.79 320.2,-164.79"/>
<text xml:space="preserve" text-anchor="middle" x="276" y="-147.87" font-family="Pretendard" font-size="11.00">main / request core</text>
<text xml:space="preserve" text-anchor="middle" x="276" y="-135.87" font-family="Pretendard" font-size="11.00">공통 요청 처리 흐름</text>
</g>
<!-- repl_adapter&#45;&gt;main_core -->
<g id="edge2" class="edge">
<title>repl_adapter&#45;&gt;main_core</title>
<path fill="none" stroke="#475569" d="M276,-253.25C276,-232.45 276,-197.91 276,-173.7"/>
<polygon fill="#475569" stroke="#475569" points="278.45,-173.8 276,-166.8 273.55,-173.8 278.45,-173.8"/>
<text xml:space="preserve" text-anchor="middle" x="304.88" y="-218.17" font-family="Pretendard" font-size="10.00">CmdRequest</text>
</g>
<!-- contract -->
<g id="node4" class="node">
<title>contract</title>
<path fill="#dbeafe" stroke="#60a5fa" d="M516.46,-165.92C516.46,-165.92 423.55,-165.92 423.55,-165.92 417.55,-165.92 411.55,-159.92 411.55,-153.92 411.55,-153.92 411.55,-136.46 411.55,-136.46 411.55,-130.46 417.55,-124.46 423.55,-124.46 423.55,-124.46 516.46,-124.46 516.46,-124.46 522.46,-124.46 528.46,-130.46 528.46,-136.46 528.46,-136.46 528.46,-153.92 528.46,-153.92 528.46,-159.92 522.46,-165.92 516.46,-165.92"/>
<text xml:space="preserve" text-anchor="middle" x="470" y="-148.99" font-family="Pretendard" font-size="11.00">CmdProcessor 계약</text>
<text xml:space="preserve" text-anchor="middle" x="470" y="-134.74" font-family="Pretendard" font-size="11.00">요청 제출 + 응답 수신</text>
</g>
<!-- main_core&#45;&gt;contract -->
<g id="edge3" class="edge">
<title>main_core&#45;&gt;contract</title>
<path fill="none" stroke="#475569" d="M332.46,-145.19C355.93,-145.19 379.4,-145.19 402.87,-145.19"/>
<polygon fill="#475569" stroke="#475569" points="402.65,-147.64 409.65,-145.19 402.65,-142.74 402.65,-147.64"/>
</g>
<!-- db -->
<g id="node5" class="node">
<title>db</title>
<path fill="#ffffff" stroke="#cbd5e1" d="M499.95,-65.21C499.95,-65.21 440.05,-65.21 440.05,-65.21 434.05,-65.21 428.05,-59.21 428.05,-53.21 428.05,-53.21 428.05,-38 428.05,-38 428.05,-32 434.05,-26 440.05,-26 440.05,-26 499.95,-26 499.95,-26 505.95,-26 511.95,-32 511.95,-38 511.95,-38 511.95,-53.21 511.95,-53.21 511.95,-59.21 505.95,-65.21 499.95,-65.21"/>
<text xml:space="preserve" text-anchor="middle" x="470" y="-48.28" font-family="Pretendard" font-size="11.00">DB BlackBox</text>
<text xml:space="preserve" text-anchor="middle" x="470" y="-36.28" font-family="Pretendard" font-size="11.00">SQL 실행</text>
</g>
<!-- contract&#45;&gt;db -->
<g id="edge4" class="edge">
<title>contract&#45;&gt;db</title>
<path fill="none" stroke="#475569" d="M470,-123.97C470,-109.46 470,-89.75 470,-73.86"/>
<polygon fill="#475569" stroke="#475569" points="472.45,-73.99 470,-66.99 467.55,-73.99 472.45,-73.99"/>
</g>
<!-- response -->
<g id="node6" class="node">
<title>response</title>
<path fill="white" stroke="#64748b" d="M641.96,-64.09C641.96,-64.09 576.04,-64.09 576.04,-64.09 570.04,-64.09 564.04,-58.09 564.04,-52.09 564.04,-52.09 564.04,-39.12 564.04,-39.12 564.04,-33.12 570.04,-27.13 576.04,-27.13 576.04,-27.13 641.96,-27.13 641.96,-27.13 647.96,-27.13 653.96,-33.13 653.96,-39.13 653.96,-39.13 653.96,-52.09 653.96,-52.09 653.96,-58.09 647.96,-64.09 641.96,-64.09"/>
<text xml:space="preserve" text-anchor="middle" x="609" y="-47.16" font-family="Pretendard" font-size="11.00">console output</text>
<text xml:space="preserve" text-anchor="middle" x="609" y="-35.16" font-family="Pretendard" font-size="11.00">same loop</text>
</g>
<!-- contract&#45;&gt;response -->
<g id="edge5" class="edge">
<title>contract&#45;&gt;response</title>
<path fill="none" stroke="#475569" stroke-dasharray="5,2" d="M498.8,-123.97C521.53,-108.02 553.22,-85.77 576.78,-69.22"/>
<polygon fill="#475569" stroke="#475569" points="577.95,-71.4 582.27,-65.37 575.13,-67.39 577.95,-71.4"/>
<text xml:space="preserve" text-anchor="middle" x="580.45" y="-90.96" font-family="Pretendard" font-size="10.00">CmdResponse</text>
</g>
</g>
</svg>
