<?xml version="1.0" encoding="UTF-8" standalone="no"?>
<!DOCTYPE svg PUBLIC "-//W3C//DTD SVG 1.1//EN"
 "http://www.w3.org/Graphics/SVG/1.1/DTD/svg11.dtd">
<!-- Generated by graphviz version 14.1.5 (20260411.2331)
 -->
<!-- Title: TcpRequestResponseLifecycle Pages: 1 -->
<svg width="926pt" height="452pt"
 viewBox="0.00 0.00 926.00 452.00" xmlns="http://www.w3.org/2000/svg" xmlns:xlink="http://www.w3.org/1999/xlink">
<g id="graph0" class="graph" transform="scale(1 1) rotate(0) translate(14.4 438.07)">
<title>TcpRequestResponseLifecycle</title>
<g id="clust1" class="cluster">
<title>cluster_state_touch</title>
<path fill="#fff7ed" stroke="#fdba74" d="M20,-274.92C20,-274.92 760,-274.92 760,-274.92 766,-274.92 772,-280.92 772,-286.92 772,-286.92 772,-403.67 772,-403.67 772,-409.67 766,-415.67 760,-415.67 760,-415.67 20,-415.67 20,-415.67 14,-415.67 8,-409.67 8,-403.67 8,-403.67 8,-286.92 8,-286.92 8,-280.92 14,-274.92 20,-274.92"/>
<text xml:space="preserve" text-anchor="middle" x="390" y="-399.32" font-family="Pretendard" font-size="13.00">갱신되는 상태</text>
</g>
<g id="clust2" class="cluster">
<title>cluster_request</title>
<path fill="#eff6ff" stroke="#93c5fd" d="M65,-138.71C65,-138.71 503,-138.71 503,-138.71 509,-138.71 515,-144.71 515,-150.71 515,-150.71 515,-242.92 515,-242.92 515,-248.92 509,-254.92 503,-254.92 503,-254.92 65,-254.92 65,-254.92 59,-254.92 53,-248.92 53,-242.92 53,-242.92 53,-150.71 53,-150.71 53,-144.71 59,-138.71 65,-138.71"/>
<text xml:space="preserve" text-anchor="middle" x="284" y="-238.57" font-family="Pretendard" font-size="13.00">request 등록 흐름</text>
</g>
<g id="clust3" class="cluster">
<title>cluster_response</title>
<path fill="#f8fafc" stroke="#cbd5e1" d="M311,-8C311,-8 877,-8 877,-8 883,-8 889,-14 889,-20 889,-20 889,-95.71 889,-95.71 889,-101.71 883,-107.71 877,-107.71 877,-107.71 311,-107.71 311,-107.71 305,-107.71 299,-101.71 299,-95.71 299,-95.71 299,-20 299,-20 299,-14 305,-8 311,-8"/>
<text xml:space="preserve" text-anchor="middle" x="594" y="-91.36" font-family="Pretendard" font-size="13.00">response 반환 흐름</text>
</g>
<g id="clust4" class="cluster">
<title>cluster_processor</title>
<path fill="#f0f9ff" stroke="#bae6fd" d="M718,-146.96C718,-146.96 856,-146.96 856,-146.96 862,-146.96 868,-152.96 868,-158.96 868,-158.96 868,-231.67 868,-231.67 868,-237.67 862,-243.67 856,-243.67 856,-243.67 718,-243.67 718,-243.67 712,-243.67 706,-237.67 706,-231.67 706,-231.67 706,-158.96 706,-158.96 706,-152.96 712,-146.96 718,-146.96"/>
<text xml:space="preserve" text-anchor="middle" x="787" y="-227.32" font-family="Pretendard" font-size="13.00">CmdProcessor</text>
</g>
<!-- state_before -->
<g id="node1" class="node">
<title>state_before</title>
<path fill="white" stroke="none" d="M195.62,-373.17C195.62,-373.17 38.38,-373.17 38.38,-373.17 32.38,-373.17 26.38,-367.17 26.38,-361.17 26.38,-361.17 26.38,-304.92 26.38,-304.92 26.38,-298.92 32.38,-292.92 38.38,-292.92 38.38,-292.92 195.62,-292.92 195.62,-292.92 201.62,-292.92 207.62,-298.92 207.62,-304.92 207.62,-304.92 207.62,-361.17 207.62,-361.17 207.62,-367.17 201.62,-373.17 195.62,-373.17"/>
<polygon fill="#f8fafc" stroke="none" points="26.38,-344.92 26.38,-373.17 207.62,-373.17 207.62,-344.92 26.38,-344.92"/>
<polygon fill="none" stroke="#64748b" points="26.38,-344.92 26.38,-373.17 207.62,-373.17 207.62,-344.92 26.38,-344.92"/>
<text xml:space="preserve" text-anchor="start" x="100.88" y="-355.67" font-family="Pretendard" font-size="11.00">등록 전</text>
<polygon fill="#e0f2fe" stroke="none" points="26.38,-318.92 26.38,-344.92 103.38,-344.92 103.38,-318.92 26.38,-318.92"/>
<polygon fill="none" stroke="#64748b" points="26.38,-318.92 26.38,-344.92 103.38,-344.92 103.38,-318.92 26.38,-318.92"/>
<text xml:space="preserve" text-anchor="start" x="39.75" y="-328.92" font-family="Pretendard" font-size="11.00">inflight_ids</text>
<polygon fill="none" stroke="#64748b" points="103.38,-318.92 103.38,-344.92 141.38,-344.92 141.38,-318.92 103.38,-318.92"/>
<text xml:space="preserve" text-anchor="start" x="110.38" y="-328.92" font-family="Pretendard" font-size="11.00">head</text>
<polygon fill="none" stroke="#64748b" points="141.38,-318.92 141.38,-344.92 165.12,-344.92 165.12,-318.92 141.38,-318.92"/>
<text xml:space="preserve" text-anchor="start" x="148.38" y="-328.92" font-family="Pretendard" font-size="11.00">r2</text>
<polygon fill="#f1f5f9" stroke="none" points="165.12,-318.92 165.12,-344.92 207.62,-344.92 207.62,-318.92 165.12,-318.92"/>
<polygon fill="none" stroke="#64748b" points="165.12,-318.92 165.12,-344.92 207.62,-344.92 207.62,-318.92 165.12,-318.92"/>
<text xml:space="preserve" text-anchor="start" x="172.12" y="-328.92" font-family="Pretendard" font-size="11.00">NULL</text>
<polygon fill="#fef3c7" stroke="none" points="26.38,-292.92 26.38,-318.92 103.38,-318.92 103.38,-292.92 26.38,-292.92"/>
<polygon fill="none" stroke="#64748b" points="26.38,-292.92 26.38,-318.92 103.38,-318.92 103.38,-292.92 26.38,-292.92"/>
<text xml:space="preserve" text-anchor="start" x="33.38" y="-302.92" font-family="Pretendard" font-size="11.00">inflight_count</text>
<polygon fill="none" stroke="#64748b" points="103.38,-292.92 103.38,-318.92 207.62,-318.92 207.62,-292.92 103.38,-292.92"/>
<text xml:space="preserve" text-anchor="start" x="152.5" y="-302.92" font-family="Pretendard" font-size="11.00">1</text>
</g>
<!-- state_registered -->
<g id="node2" class="node">
<title>state_registered</title>
<path fill="white" stroke="none" d="M480.5,-373.17C480.5,-373.17 299.5,-373.17 299.5,-373.17 293.5,-373.17 287.5,-367.17 287.5,-361.17 287.5,-361.17 287.5,-304.92 287.5,-304.92 287.5,-298.92 293.5,-292.92 299.5,-292.92 299.5,-292.92 480.5,-292.92 480.5,-292.92 486.5,-292.92 492.5,-298.92 492.5,-304.92 492.5,-304.92 492.5,-361.17 492.5,-361.17 492.5,-367.17 486.5,-373.17 480.5,-373.17"/>
<polygon fill="#f8fafc" stroke="none" points="287.5,-344.92 287.5,-373.17 492.5,-373.17 492.5,-344.92 287.5,-344.92"/>
<polygon fill="none" stroke="#64748b" points="287.5,-344.92 287.5,-373.17 492.5,-373.17 492.5,-344.92 287.5,-344.92"/>
<text xml:space="preserve" text-anchor="start" x="354.38" y="-355.67" font-family="Pretendard" font-size="11.00">request 등록 후</text>
<polygon fill="#e0f2fe" stroke="none" points="287.5,-318.92 287.5,-344.92 364.5,-344.92 364.5,-318.92 287.5,-318.92"/>
<polygon fill="none" stroke="#64748b" points="287.5,-318.92 287.5,-344.92 364.5,-344.92 364.5,-318.92 287.5,-318.92"/>
<text xml:space="preserve" text-anchor="start" x="300.88" y="-328.92" font-family="Pretendard" font-size="11.00">inflight_ids</text>
<polygon fill="none" stroke="#64748b" points="364.5,-318.92 364.5,-344.92 402.5,-344.92 402.5,-318.92 364.5,-318.92"/>
<text xml:space="preserve" text-anchor="start" x="371.5" y="-328.92" font-family="Pretendard" font-size="11.00">head</text>
<polygon fill="#bfdbfe" stroke="none" points="402.5,-318.92 402.5,-344.92 426.25,-344.92 426.25,-318.92 402.5,-318.92"/>
<polygon fill="none" stroke="#64748b" points="402.5,-318.92 402.5,-344.92 426.25,-344.92 426.25,-318.92 402.5,-318.92"/>
<text xml:space="preserve" text-anchor="start" x="409.5" y="-328.92" font-family="Pretendard" font-size="11.00">r3</text>
<polygon fill="none" stroke="#64748b" points="426.25,-318.92 426.25,-344.92 450,-344.92 450,-318.92 426.25,-318.92"/>
<text xml:space="preserve" text-anchor="start" x="433.25" y="-328.92" font-family="Pretendard" font-size="11.00">r2</text>
<polygon fill="#f1f5f9" stroke="none" points="450,-318.92 450,-344.92 492.5,-344.92 492.5,-318.92 450,-318.92"/>
<polygon fill="none" stroke="#64748b" points="450,-318.92 450,-344.92 492.5,-344.92 492.5,-318.92 450,-318.92"/>
<text xml:space="preserve" text-anchor="start" x="457" y="-328.92" font-family="Pretendard" font-size="11.00">NULL</text>
<polygon fill="#fef3c7" stroke="none" points="287.5,-292.92 287.5,-318.92 364.5,-318.92 364.5,-292.92 287.5,-292.92"/>
<polygon fill="none" stroke="#64748b" points="287.5,-292.92 287.5,-318.92 364.5,-318.92 364.5,-292.92 287.5,-292.92"/>
<text xml:space="preserve" text-anchor="start" x="294.5" y="-302.92" font-family="Pretendard" font-size="11.00">inflight_count</text>
<polygon fill="none" stroke="#64748b" points="364.5,-292.92 364.5,-318.92 492.5,-318.92 492.5,-292.92 364.5,-292.92"/>
<text xml:space="preserve" text-anchor="start" x="425.5" y="-302.92" font-family="Pretendard" font-size="11.00">2</text>
</g>
<!-- state_before&#45;&gt;state_registered -->
<g id="edge1" class="edge">
<title>state_before&#45;&gt;state_registered</title>
<path fill="none" stroke="#475569" d="M207.53,-333.05C230.57,-333.05 255.6,-333.05 279.52,-333.05"/>
<polygon fill="#475569" stroke="#475569" points="279.42,-335.5 286.42,-333.05 279.42,-330.6 279.42,-335.5"/>
<text xml:space="preserve" text-anchor="middle" x="247.56" y="-338.55" font-family="Pretendard" font-size="10.00">등록</text>
</g>
<!-- read -->
<g id="node4" class="node">
<title>read</title>
<path fill="white" stroke="#64748b" d="M150.7,-204.17C150.7,-204.17 83.3,-204.17 83.3,-204.17 77.3,-204.17 71.3,-198.17 71.3,-192.17 71.3,-192.17 71.3,-176.96 71.3,-176.96 71.3,-170.96 77.3,-164.96 83.3,-164.96 83.3,-164.96 150.7,-164.96 150.7,-164.96 156.7,-164.96 162.7,-170.96 162.7,-176.96 162.7,-176.96 162.7,-192.17 162.7,-192.17 162.7,-198.17 156.7,-204.17 150.7,-204.17"/>
<text xml:space="preserve" text-anchor="middle" x="117" y="-187.24" font-family="Pretendard" font-size="11.00">JSON line 수신</text>
<text xml:space="preserve" text-anchor="middle" x="117" y="-172.99" font-family="Pretendard" font-size="11.00">id / op / sql</text>
</g>
<!-- state_before&#45;&gt;read -->
<!-- state_returned -->
<g id="node3" class="node">
<title>state_returned</title>
<path fill="white" stroke="none" d="M741.62,-373.17C741.62,-373.17 584.38,-373.17 584.38,-373.17 578.38,-373.17 572.38,-367.17 572.38,-361.17 572.38,-361.17 572.38,-304.92 572.38,-304.92 572.38,-298.92 578.38,-292.92 584.38,-292.92 584.38,-292.92 741.62,-292.92 741.62,-292.92 747.62,-292.92 753.62,-298.92 753.62,-304.92 753.62,-304.92 753.62,-361.17 753.62,-361.17 753.62,-367.17 747.62,-373.17 741.62,-373.17"/>
<polygon fill="#f8fafc" stroke="none" points="572.38,-344.92 572.38,-373.17 753.62,-373.17 753.62,-344.92 572.38,-344.92"/>
<polygon fill="none" stroke="#64748b" points="572.38,-344.92 572.38,-373.17 753.62,-373.17 753.62,-344.92 572.38,-344.92"/>
<text xml:space="preserve" text-anchor="start" x="623.25" y="-355.67" font-family="Pretendard" font-size="11.00">response 반환 후</text>
<polygon fill="#e0f2fe" stroke="none" points="572.38,-318.92 572.38,-344.92 649.38,-344.92 649.38,-318.92 572.38,-318.92"/>
<polygon fill="none" stroke="#64748b" points="572.38,-318.92 572.38,-344.92 649.38,-344.92 649.38,-318.92 572.38,-318.92"/>
<text xml:space="preserve" text-anchor="start" x="585.75" y="-328.92" font-family="Pretendard" font-size="11.00">inflight_ids</text>
<polygon fill="none" stroke="#64748b" points="649.38,-318.92 649.38,-344.92 687.38,-344.92 687.38,-318.92 649.38,-318.92"/>
<text xml:space="preserve" text-anchor="start" x="656.38" y="-328.92" font-family="Pretendard" font-size="11.00">head</text>
<polygon fill="none" stroke="#64748b" points="687.38,-318.92 687.38,-344.92 711.12,-344.92 711.12,-318.92 687.38,-318.92"/>
<text xml:space="preserve" text-anchor="start" x="694.38" y="-328.92" font-family="Pretendard" font-size="11.00">r2</text>
<polygon fill="#f1f5f9" stroke="none" points="711.12,-318.92 711.12,-344.92 753.62,-344.92 753.62,-318.92 711.12,-318.92"/>
<polygon fill="none" stroke="#64748b" points="711.12,-318.92 711.12,-344.92 753.62,-344.92 753.62,-318.92 711.12,-318.92"/>
<text xml:space="preserve" text-anchor="start" x="718.12" y="-328.92" font-family="Pretendard" font-size="11.00">NULL</text>
<polygon fill="#fef3c7" stroke="none" points="572.38,-292.92 572.38,-318.92 649.38,-318.92 649.38,-292.92 572.38,-292.92"/>
<polygon fill="none" stroke="#64748b" points="572.38,-292.92 572.38,-318.92 649.38,-318.92 649.38,-292.92 572.38,-292.92"/>
<text xml:space="preserve" text-anchor="start" x="579.38" y="-302.92" font-family="Pretendard" font-size="11.00">inflight_count</text>
<polygon fill="none" stroke="#64748b" points="649.38,-292.92 649.38,-318.92 753.62,-318.92 753.62,-292.92 649.38,-292.92"/>
<text xml:space="preserve" text-anchor="start" x="698.5" y="-302.92" font-family="Pretendard" font-size="11.00">1</text>
</g>
<!-- state_registered&#45;&gt;state_returned -->
<g id="edge2" class="edge">
<title>state_registered&#45;&gt;state_returned</title>
<path fill="none" stroke="#475569" d="M492.43,-333.05C515.88,-333.05 540.76,-333.05 564.05,-333.05"/>
<polygon fill="#475569" stroke="#475569" points="564.05,-335.5 571.05,-333.05 564.05,-330.6 564.05,-335.5"/>
<text xml:space="preserve" text-anchor="middle" x="532.44" y="-338.55" font-family="Pretendard" font-size="10.00">반환</text>
</g>
<!-- reserve -->
<g id="node5" class="node">
<title>reserve</title>
<path fill="white" stroke="#64748b" d="M299.45,-212.42C299.45,-212.42 254.55,-212.42 254.55,-212.42 248.55,-212.42 242.55,-206.42 242.55,-200.42 242.55,-200.42 242.55,-168.71 242.55,-168.71 242.55,-162.71 248.55,-156.71 254.55,-156.71 254.55,-156.71 299.45,-156.71 299.45,-156.71 305.45,-156.71 311.45,-162.71 311.45,-168.71 311.45,-168.71 311.45,-200.42 311.45,-200.42 311.45,-206.42 305.45,-212.42 299.45,-212.42"/>
<text xml:space="preserve" text-anchor="middle" x="277" y="-195.49" font-family="Pretendard" font-size="11.00">요청 등록</text>
<text xml:space="preserve" text-anchor="middle" x="277" y="-181.24" font-family="Pretendard" font-size="11.00">id 추가</text>
<text xml:space="preserve" text-anchor="middle" x="277" y="-166.99" font-family="Pretendard" font-size="11.00">count 증가</text>
</g>
<!-- state_registered&#45;&gt;reserve -->
<!-- cleanup -->
<g id="node9" class="node">
<title>cleanup</title>
<path fill="white" stroke="#64748b" d="M858.83,-65.21C858.83,-65.21 735.17,-65.21 735.17,-65.21 729.17,-65.21 723.17,-59.21 723.17,-53.21 723.17,-53.21 723.17,-38 723.17,-38 723.17,-32 729.17,-26 735.17,-26 735.17,-26 858.83,-26 858.83,-26 864.83,-26 870.83,-32 870.83,-38 870.83,-38 870.83,-53.21 870.83,-53.21 870.83,-59.21 864.83,-65.21 858.83,-65.21"/>
<text xml:space="preserve" text-anchor="middle" x="797" y="-48.28" font-family="Pretendard" font-size="11.00">id 제거 + count 감소</text>
<text xml:space="preserve" text-anchor="middle" x="797" y="-34.03" font-family="Pretendard" font-size="11.00">request / response release</text>
</g>
<!-- state_returned&#45;&gt;cleanup -->
<!-- read&#45;&gt;reserve -->
<g id="edge3" class="edge">
<title>read&#45;&gt;reserve</title>
<path fill="none" stroke="#475569" d="M162.94,-184.56C186.59,-184.56 210.23,-184.56 233.88,-184.56"/>
<polygon fill="#475569" stroke="#475569" points="233.73,-187.02 240.73,-184.57 233.73,-182.12 233.73,-187.02"/>
</g>
<!-- submit -->
<g id="node6" class="node">
<title>submit</title>
<path fill="white" stroke="#64748b" d="M485.2,-202.56C485.2,-202.56 402.8,-202.56 402.8,-202.56 396.8,-202.56 390.8,-196.56 390.8,-190.56 390.8,-190.56 390.8,-178.56 390.8,-178.56 390.8,-172.56 396.8,-166.56 402.8,-166.56 402.8,-166.56 485.2,-166.56 485.2,-166.56 491.2,-166.56 497.2,-172.56 497.2,-178.56 497.2,-178.56 497.2,-190.56 497.2,-190.56 497.2,-196.56 491.2,-202.56 485.2,-202.56"/>
<text xml:space="preserve" text-anchor="middle" x="444" y="-181.24" font-family="Pretendard" font-size="11.00">CmdRequest 생성</text>
</g>
<!-- reserve&#45;&gt;submit -->
<g id="edge4" class="edge">
<title>reserve&#45;&gt;submit</title>
<path fill="none" stroke="#475569" d="M311.9,-184.56C335.29,-184.56 358.67,-184.56 382.06,-184.56"/>
<polygon fill="#475569" stroke="#475569" points="381.82,-187.02 388.82,-184.57 381.82,-182.12 381.82,-187.02"/>
</g>
<!-- callback -->
<g id="node7" class="node">
<title>callback</title>
<path fill="white" stroke="#64748b" d="M438.7,-63.61C438.7,-63.61 329.3,-63.61 329.3,-63.61 323.3,-63.61 317.3,-57.61 317.3,-51.61 317.3,-51.61 317.3,-39.61 317.3,-39.61 317.3,-33.61 323.3,-27.61 329.3,-27.61 329.3,-27.61 438.7,-27.61 438.7,-27.61 444.7,-27.61 450.7,-33.61 450.7,-39.61 450.7,-39.61 450.7,-51.61 450.7,-51.61 450.7,-57.61 444.7,-63.61 438.7,-63.61"/>
<text xml:space="preserve" text-anchor="middle" x="384" y="-41.16" font-family="Pretendard" font-size="11.00">CmdResponse callback</text>
</g>
<!-- submit&#45;&gt;callback -->
<!-- processor -->
<g id="node10" class="node">
<title>processor</title>
<path fill="white" stroke="#64748b" d="M838.33,-204.17C838.33,-204.17 735.67,-204.17 735.67,-204.17 729.67,-204.17 723.67,-198.17 723.67,-192.17 723.67,-192.17 723.67,-176.96 723.67,-176.96 723.67,-170.96 729.67,-164.96 735.67,-164.96 735.67,-164.96 838.33,-164.96 838.33,-164.96 844.33,-164.96 850.33,-170.96 850.33,-176.96 850.33,-176.96 850.33,-192.17 850.33,-192.17 850.33,-198.17 844.33,-204.17 838.33,-204.17"/>
<text xml:space="preserve" text-anchor="middle" x="787" y="-187.24" font-family="Pretendard" font-size="11.00">요청 처리</text>
<text xml:space="preserve" text-anchor="middle" x="787" y="-172.99" font-family="Pretendard" font-size="11.00">Engine / REPL / Mock</text>
</g>
<!-- submit&#45;&gt;processor -->
<g id="edge5" class="edge">
<title>submit&#45;&gt;processor</title>
<path fill="none" stroke="#475569" d="M497.59,-184.56C570.07,-184.56 642.55,-184.56 715.03,-184.56"/>
<polygon fill="#475569" stroke="#475569" points="714.9,-187.02 721.9,-184.57 714.9,-182.12 714.9,-187.02"/>
</g>
<!-- write -->
<g id="node8" class="node">
<title>write</title>
<path fill="white" stroke="#64748b" d="M631.96,-63.61C631.96,-63.61 542.04,-63.61 542.04,-63.61 536.04,-63.61 530.04,-57.61 530.04,-51.61 530.04,-51.61 530.04,-39.61 530.04,-39.61 530.04,-33.61 536.04,-27.61 542.04,-27.61 542.04,-27.61 631.96,-27.61 631.96,-27.61 637.96,-27.61 643.96,-33.61 643.96,-39.61 643.96,-39.61 643.96,-51.61 643.96,-51.61 643.96,-57.61 637.96,-63.61 631.96,-63.61"/>
<text xml:space="preserve" text-anchor="middle" x="587" y="-42.28" font-family="Pretendard" font-size="11.00">JSON line 응답 작성</text>
</g>
<!-- callback&#45;&gt;write -->
<g id="edge7" class="edge">
<title>callback&#45;&gt;write</title>
<path fill="none" stroke="#475569" d="M451.01,-45.61C474.45,-45.61 497.89,-45.61 521.34,-45.61"/>
<polygon fill="#475569" stroke="#475569" points="521.11,-48.06 528.11,-45.61 521.11,-43.16 521.11,-48.06"/>
</g>
<!-- write&#45;&gt;cleanup -->
<g id="edge8" class="edge">
<title>write&#45;&gt;cleanup</title>
<path fill="none" stroke="#475569" d="M644.42,-45.61C667.79,-45.61 691.16,-45.61 714.53,-45.61"/>
<polygon fill="#475569" stroke="#475569" points="714.28,-48.06 721.28,-45.61 714.28,-43.16 714.28,-48.06"/>
</g>
<!-- processor&#45;&gt;callback -->
<g id="edge6" class="edge">
<title>processor&#45;&gt;callback</title>
<path fill="none" stroke="#475569" stroke-dasharray="5,2" d="M730.96,-164.52C655.17,-138.76 520.57,-93.02 443.18,-66.72"/>
<polygon fill="#475569" stroke="#475569" points="444.27,-64.5 436.85,-64.57 442.69,-69.14 444.27,-64.5"/>
<text xml:space="preserve" text-anchor="middle" x="585.94" y="-118.21" font-family="Pretendard" font-size="10.00">완료</text>
</g>
</g>
</svg>
