<?xml version="1.0" encoding="UTF-8" standalone="no"?>
<!DOCTYPE svg PUBLIC "-//W3C//DTD SVG 1.1//EN"
 "http://www.w3.org/Graphics/SVG/1.1/DTD/svg11.dtd">
<!-- Generated by graphviz version 14.1.5 (20260411.2331)
 -->
<!-- Title: CmdProcessorBenefitDbBoundary Pages: 1 -->
<svg width="2072pt" height="421pt"
 viewBox="0.00 0.00 2072.00 421.00" xmlns="http://www.w3.org/2000/svg" xmlns:xlink="http://www.w3.org/1999/xlink">
<g id="graph0" class="graph" transform="scale(1 1) rotate(0) translate(14.4 406.4)">
<title>CmdProcessorBenefitDbBoundary</title>
<g id="clust1" class="cluster">
<title>cluster_processor</title>
<path fill="#f0f9ff" stroke="#bae6fd" d="M20,-123C20,-123 766.55,-123 766.55,-123 772.55,-123 778.55,-129 778.55,-135 778.55,-135 778.55,-211 778.55,-211 778.55,-217 772.55,-223 766.55,-223 766.55,-223 20,-223 20,-223 14,-223 8,-217 8,-211 8,-211 8,-135 8,-135 8,-129 14,-123 20,-123"/>
<text xml:space="preserve" text-anchor="middle" x="393.27" y="-206.65" font-family="Pretendard" font-size="13.00">CmdProcessor 구현체: DB 실행을 준비</text>
</g>
<g id="clust2" class="cluster">
<title>cluster_db</title>
<path fill="#f0fdf4" stroke="#bbf7d0" d="M1075.21,-116C1075.21,-116 1845.72,-116 1845.72,-116 1851.72,-116 1857.72,-122 1857.72,-128 1857.72,-128 1857.72,-372 1857.72,-372 1857.72,-378 1851.72,-384 1845.72,-384 1845.72,-384 1075.21,-384 1075.21,-384 1069.21,-384 1063.21,-378 1063.21,-372 1063.21,-372 1063.21,-128 1063.21,-128 1063.21,-122 1069.21,-116 1075.21,-116"/>
<text xml:space="preserve" text-anchor="middle" x="1460.47" y="-367.65" font-family="Pretendard" font-size="13.00">DB 실행 계층: SQL 의미와 저장 구조</text>
</g>
<g id="clust3" class="cluster">
<title>cluster_response</title>
<path fill="#f7fee7" stroke="#d9f99d" d="M1450.53,-8C1450.53,-8 2023.01,-8 2023.01,-8 2029.01,-8 2035.01,-14 2035.01,-20 2035.01,-20 2035.01,-96 2035.01,-96 2035.01,-102 2029.01,-108 2023.01,-108 2023.01,-108 1450.53,-108 1450.53,-108 1444.53,-108 1438.53,-102 1438.53,-96 1438.53,-96 1438.53,-20 1438.53,-20 1438.53,-14 1444.53,-8 1450.53,-8"/>
<text xml:space="preserve" text-anchor="middle" x="1736.77" y="-91.65" font-family="Pretendard" font-size="13.00">CmdProcessor로 반환</text>
</g>
<!-- request -->
<g id="node1" class="node">
<title>request</title>
<path fill="white" stroke="#64748b" d="M97.91,-179.48C97.91,-179.48 38,-179.48 38,-179.48 32,-179.48 26,-173.48 26,-167.48 26,-167.48 26,-154.52 26,-154.52 26,-148.52 32,-142.52 38,-142.52 38,-142.52 97.91,-142.52 97.91,-142.52 103.91,-142.52 109.91,-148.52 109.91,-154.52 109.91,-154.52 109.91,-167.48 109.91,-167.48 109.91,-173.48 103.91,-179.48 97.91,-179.48"/>
<text xml:space="preserve" text-anchor="middle" x="67.95" y="-162.55" font-family="Pretendard" font-size="11.00">CmdRequest</text>
<text xml:space="preserve" text-anchor="middle" x="67.95" y="-150.55" font-family="Pretendard" font-size="11.00">id / op / sql</text>
</g>
<!-- plan -->
<g id="node2" class="node">
<title>plan</title>
<path fill="white" stroke="#64748b" d="M283.82,-179.48C283.82,-179.48 178.91,-179.48 178.91,-179.48 172.91,-179.48 166.91,-173.48 166.91,-167.48 166.91,-167.48 166.91,-154.52 166.91,-154.52 166.91,-148.52 172.91,-142.52 178.91,-142.52 178.91,-142.52 283.82,-142.52 283.82,-142.52 289.82,-142.52 295.82,-148.52 295.82,-154.52 295.82,-154.52 295.82,-167.48 295.82,-167.48 295.82,-173.48 289.82,-179.48 283.82,-179.48"/>
<text xml:space="preserve" text-anchor="middle" x="231.36" y="-162.55" font-family="Pretendard" font-size="11.00">request plan</text>
<text xml:space="preserve" text-anchor="middle" x="231.36" y="-150.55" font-family="Pretendard" font-size="11.00">READ / WRITE / table</text>
</g>
<!-- request&#45;&gt;plan -->
<g id="edge1" class="edge">
<title>request&#45;&gt;plan</title>
<path fill="none" stroke="#475569" d="M110.1,-161C124.87,-161 141.99,-161 158.6,-161"/>
<polygon fill="#475569" stroke="#475569" points="158.18,-163.45 165.18,-161 158.18,-158.55 158.18,-163.45"/>
</g>
<!-- queue -->
<g id="node3" class="node">
<title>queue</title>
<path fill="white" stroke="#64748b" d="M457.73,-180.6C457.73,-180.6 364.82,-180.6 364.82,-180.6 358.82,-180.6 352.82,-174.6 352.82,-168.6 352.82,-168.6 352.82,-153.4 352.82,-153.4 352.82,-147.4 358.82,-141.4 364.82,-141.4 364.82,-141.4 457.73,-141.4 457.73,-141.4 463.73,-141.4 469.73,-147.4 469.73,-153.4 469.73,-153.4 469.73,-168.6 469.73,-168.6 469.73,-174.6 463.73,-180.6 457.73,-180.6"/>
<text xml:space="preserve" text-anchor="middle" x="411.27" y="-163.68" font-family="Pretendard" font-size="11.00">queue / worker</text>
<text xml:space="preserve" text-anchor="middle" x="411.27" y="-151.68" font-family="Pretendard" font-size="11.00">순서 + backpressure</text>
</g>
<!-- plan&#45;&gt;queue -->
<g id="edge2" class="edge">
<title>plan&#45;&gt;queue</title>
<path fill="none" stroke="#475569" d="M296.09,-161C311.71,-161 328.47,-161 344.2,-161"/>
<polygon fill="#475569" stroke="#475569" points="343.81,-163.45 350.81,-161 343.81,-158.55 343.81,-163.45"/>
</g>
<!-- lockplan -->
<g id="node4" class="node">
<title>lockplan</title>
<path fill="white" stroke="#64748b" d="M603.89,-179.48C603.89,-179.48 538.73,-179.48 538.73,-179.48 532.73,-179.48 526.73,-173.48 526.73,-167.48 526.73,-167.48 526.73,-154.52 526.73,-154.52 526.73,-148.52 532.73,-142.52 538.73,-142.52 538.73,-142.52 603.89,-142.52 603.89,-142.52 609.89,-142.52 615.89,-148.52 615.89,-154.52 615.89,-154.52 615.89,-167.48 615.89,-167.48 615.89,-173.48 609.89,-179.48 603.89,-179.48"/>
<text xml:space="preserve" text-anchor="middle" x="571.31" y="-162.55" font-family="Pretendard" font-size="11.00">lock plan</text>
<text xml:space="preserve" text-anchor="middle" x="571.31" y="-150.55" font-family="Pretendard" font-size="11.00">rwlock acquire</text>
</g>
<!-- queue&#45;&gt;lockplan -->
<g id="edge3" class="edge">
<title>queue&#45;&gt;lockplan</title>
<path fill="none" stroke="#475569" d="M470.22,-161C485.83,-161 502.62,-161 517.91,-161"/>
<polygon fill="#475569" stroke="#475569" points="517.72,-163.45 524.72,-161 517.72,-158.55 517.72,-163.45"/>
</g>
<!-- guard -->
<g id="node5" class="node">
<title>guard</title>
<path fill="white" stroke="#64748b" d="M748.55,-180.6C748.55,-180.6 684.89,-180.6 684.89,-180.6 678.89,-180.6 672.89,-174.6 672.89,-168.6 672.89,-168.6 672.89,-153.4 672.89,-153.4 672.89,-147.4 678.89,-141.4 684.89,-141.4 684.89,-141.4 748.55,-141.4 748.55,-141.4 754.55,-141.4 760.55,-147.4 760.55,-153.4 760.55,-153.4 760.55,-168.6 760.55,-168.6 760.55,-174.6 754.55,-180.6 748.55,-180.6"/>
<text xml:space="preserve" text-anchor="middle" x="716.72" y="-163.68" font-family="Pretendard" font-size="11.00">engine_mutex</text>
<text xml:space="preserve" text-anchor="middle" x="716.72" y="-151.68" font-family="Pretendard" font-size="11.00">전역 실행 보호</text>
</g>
<!-- lockplan&#45;&gt;guard -->
<g id="edge4" class="edge">
<title>lockplan&#45;&gt;guard</title>
<path fill="none" stroke="#475569" d="M616.12,-161C631.41,-161 648.71,-161 664.54,-161"/>
<polygon fill="#475569" stroke="#475569" points="664.16,-163.45 671.16,-161 664.16,-158.55 664.16,-163.45"/>
</g>
<!-- boundary -->
<g id="node6" class="node">
<title>boundary</title>
<path fill="#dbeafe" stroke="#60a5fa" d="M1012.21,-180.6C1012.21,-180.6 876.55,-180.6 876.55,-180.6 870.55,-180.6 864.55,-174.6 864.55,-168.6 864.55,-168.6 864.55,-153.4 864.55,-153.4 864.55,-147.4 870.55,-141.4 876.55,-141.4 876.55,-141.4 1012.21,-141.4 1012.21,-141.4 1018.21,-141.4 1024.21,-147.4 1024.21,-153.4 1024.21,-153.4 1024.21,-168.6 1024.21,-168.6 1024.21,-174.6 1018.21,-180.6 1012.21,-180.6"/>
<text xml:space="preserve" text-anchor="middle" x="944.38" y="-163.68" font-family="Pretendard" font-size="11.00">DB 실행 호출 경계</text>
<text xml:space="preserve" text-anchor="middle" x="944.38" y="-149.43" font-family="Pretendard" font-size="11.00">locked SQL &#45;&gt; parse/execute</text>
</g>
<!-- guard&#45;&gt;boundary -->
<g id="edge5" class="edge">
<title>guard&#45;&gt;boundary</title>
<path fill="none" stroke="#475569" d="M760.96,-161C787.86,-161 823.42,-161 855.99,-161"/>
<polygon fill="#475569" stroke="#475569" points="855.69,-163.45 862.69,-161 855.69,-158.55 855.69,-163.45"/>
<text xml:space="preserve" text-anchor="middle" x="812.55" y="-163.5" font-family="Pretendard" font-size="10.00">보호된 실행</text>
</g>
<!-- parser -->
<g id="node7" class="node">
<title>parser</title>
<path fill="white" stroke="#64748b" d="M1177.12,-179.48C1177.12,-179.48 1093.21,-179.48 1093.21,-179.48 1087.21,-179.48 1081.21,-173.48 1081.21,-167.48 1081.21,-167.48 1081.21,-154.52 1081.21,-154.52 1081.21,-148.52 1087.21,-142.52 1093.21,-142.52 1093.21,-142.52 1177.12,-142.52 1177.12,-142.52 1183.12,-142.52 1189.12,-148.52 1189.12,-154.52 1189.12,-154.52 1189.12,-167.48 1189.12,-167.48 1189.12,-173.48 1183.12,-179.48 1177.12,-179.48"/>
<text xml:space="preserve" text-anchor="middle" x="1135.16" y="-162.55" font-family="Pretendard" font-size="11.00">lexer / parser</text>
<text xml:space="preserve" text-anchor="middle" x="1135.16" y="-150.55" font-family="Pretendard" font-size="11.00">SQL &#45;&gt; Statement</text>
</g>
<!-- boundary&#45;&gt;parser -->
<g id="edge6" class="edge">
<title>boundary&#45;&gt;parser</title>
<path fill="none" stroke="#475569" d="M1024.62,-161C1040.63,-161 1057.23,-161 1072.52,-161"/>
<polygon fill="#475569" stroke="#475569" points="1072.36,-163.45 1079.36,-161 1072.36,-158.55 1072.36,-163.45"/>
</g>
<!-- executor -->
<g id="node8" class="node">
<title>executor</title>
<path fill="white" stroke="#64748b" d="M1349.53,-179.48C1349.53,-179.48 1258.12,-179.48 1258.12,-179.48 1252.12,-179.48 1246.12,-173.48 1246.12,-167.48 1246.12,-167.48 1246.12,-154.52 1246.12,-154.52 1246.12,-148.52 1252.12,-142.52 1258.12,-142.52 1258.12,-142.52 1349.53,-142.52 1349.53,-142.52 1355.53,-142.52 1361.53,-148.52 1361.53,-154.52 1361.53,-154.52 1361.53,-167.48 1361.53,-167.48 1361.53,-173.48 1355.53,-179.48 1349.53,-179.48"/>
<text xml:space="preserve" text-anchor="middle" x="1303.82" y="-162.55" font-family="Pretendard" font-size="11.00">executor.c</text>
<text xml:space="preserve" text-anchor="middle" x="1303.82" y="-150.55" font-family="Pretendard" font-size="11.00">CRUD + index path</text>
</g>
<!-- parser&#45;&gt;executor -->
<g id="edge7" class="edge">
<title>parser&#45;&gt;executor</title>
<path fill="none" stroke="#475569" d="M1189.36,-161C1204.69,-161 1221.59,-161 1237.57,-161"/>
<polygon fill="#475569" stroke="#475569" points="1237.31,-163.45 1244.31,-161 1237.31,-158.55 1237.31,-163.45"/>
</g>
<!-- tablecache -->
<g id="node9" class="node">
<title>tablecache</title>
<path fill="white" stroke="#64748b" d="M1567.44,-189.48C1567.44,-189.48 1468.53,-189.48 1468.53,-189.48 1462.53,-189.48 1456.53,-183.48 1456.53,-177.48 1456.53,-177.48 1456.53,-164.52 1456.53,-164.52 1456.53,-158.52 1462.53,-152.52 1468.53,-152.52 1468.53,-152.52 1567.44,-152.52 1567.44,-152.52 1573.44,-152.52 1579.44,-158.52 1579.44,-164.52 1579.44,-164.52 1579.44,-177.48 1579.44,-177.48 1579.44,-183.48 1573.44,-189.48 1567.44,-189.48"/>
<text xml:space="preserve" text-anchor="middle" x="1517.98" y="-172.55" font-family="Pretendard" font-size="11.00">TableCache</text>
<text xml:space="preserve" text-anchor="middle" x="1517.98" y="-160.55" font-family="Pretendard" font-size="11.00">row slots / tail overlay</text>
</g>
<!-- executor&#45;&gt;tablecache -->
<g id="edge8" class="edge">
<title>executor&#45;&gt;tablecache</title>
<path fill="none" stroke="#475569" d="M1361.96,-163.69C1388.32,-164.94 1419.84,-166.42 1447.56,-167.73"/>
<polygon fill="#475569" stroke="#475569" points="1447.41,-170.17 1454.52,-168.06 1447.64,-165.28 1447.41,-170.17"/>
</g>
<!-- result -->
<g id="node12" class="node">
<title>result</title>
<path fill="white" stroke="#64748b" d="M1567.44,-64.48C1567.44,-64.48 1468.53,-64.48 1468.53,-64.48 1462.53,-64.48 1456.53,-58.48 1456.53,-52.48 1456.53,-52.48 1456.53,-39.52 1456.53,-39.52 1456.53,-33.52 1462.53,-27.52 1468.53,-27.52 1468.53,-27.52 1567.44,-27.52 1567.44,-27.52 1573.44,-27.52 1579.44,-33.52 1579.44,-39.52 1579.44,-39.52 1579.44,-52.48 1579.44,-52.48 1579.44,-58.48 1573.44,-64.48 1567.44,-64.48"/>
<text xml:space="preserve" text-anchor="middle" x="1517.98" y="-47.55" font-family="Pretendard" font-size="11.00">DB result</text>
<text xml:space="preserve" text-anchor="middle" x="1517.98" y="-35.55" font-family="Pretendard" font-size="11.00">rows / affected / error</text>
</g>
<!-- executor&#45;&gt;result -->
<g id="edge13" class="edge">
<title>executor&#45;&gt;result</title>
<path fill="none" stroke="#475569" d="M1339.38,-142.27C1376.41,-122.2 1435.21,-90.33 1474.91,-68.81"/>
<polygon fill="#475569" stroke="#475569" points="1475.77,-71.13 1480.76,-65.64 1473.44,-66.82 1475.77,-71.13"/>
<text xml:space="preserve" text-anchor="middle" x="1409.03" y="-116.3" font-family="Pretendard" font-size="10.00">실행 결과</text>
</g>
<!-- bptree -->
<g id="node10" class="node">
<title>bptree</title>
<path fill="white" stroke="#64748b" d="M1819.1,-179.48C1819.1,-179.48 1762.19,-179.48 1762.19,-179.48 1756.19,-179.48 1750.19,-173.48 1750.19,-167.48 1750.19,-167.48 1750.19,-154.52 1750.19,-154.52 1750.19,-148.52 1756.19,-142.52 1762.19,-142.52 1762.19,-142.52 1819.1,-142.52 1819.1,-142.52 1825.1,-142.52 1831.1,-148.52 1831.1,-154.52 1831.1,-154.52 1831.1,-167.48 1831.1,-167.48 1831.1,-173.48 1825.1,-179.48 1819.1,-179.48"/>
<text xml:space="preserve" text-anchor="middle" x="1790.64" y="-162.55" font-family="Pretendard" font-size="11.00">B+ Tree</text>
<text xml:space="preserve" text-anchor="middle" x="1790.64" y="-150.55" font-family="Pretendard" font-size="11.00">key &#45;&gt; slot id</text>
</g>
<!-- tablecache&#45;&gt;bptree -->
<g id="edge9" class="edge">
<title>tablecache&#45;&gt;bptree</title>
<path fill="none" stroke="#475569" d="M1579.73,-168.76C1628.63,-166.95 1696.44,-164.44 1741.61,-162.77"/>
<polygon fill="#475569" stroke="#475569" points="1741.63,-165.23 1748.53,-162.52 1741.45,-160.33 1741.63,-165.23"/>
<text xml:space="preserve" text-anchor="middle" x="1654.69" y="-169.23" font-family="Pretendard" font-size="10.00">lookup / range</text>
</g>
<!-- storage -->
<g id="node11" class="node">
<title>storage</title>
<path fill="white" stroke="#64748b" d="M1827.72,-253.48C1827.72,-253.48 1753.56,-253.48 1753.56,-253.48 1747.56,-253.48 1741.56,-247.48 1741.56,-241.48 1741.56,-241.48 1741.56,-228.52 1741.56,-228.52 1741.56,-222.52 1747.56,-216.52 1753.56,-216.52 1753.56,-216.52 1827.72,-216.52 1827.72,-216.52 1833.72,-216.52 1839.72,-222.52 1839.72,-228.52 1839.72,-228.52 1839.72,-241.48 1839.72,-241.48 1839.72,-247.48 1833.72,-253.48 1827.72,-253.48"/>
<text xml:space="preserve" text-anchor="middle" x="1790.64" y="-236.55" font-family="Pretendard" font-size="11.00">CSV / delta / idx</text>
<text xml:space="preserve" text-anchor="middle" x="1790.64" y="-224.55" font-family="Pretendard" font-size="11.00">persistent state</text>
</g>
<!-- tablecache&#45;&gt;storage -->
<g id="edge10" class="edge">
<title>tablecache&#45;&gt;storage</title>
<path fill="none" stroke="#475569" d="M1579.73,-185.36C1625.65,-196.22 1688.24,-211.02 1733.11,-221.63"/>
<polygon fill="#475569" stroke="#475569" points="1732.42,-223.99 1739.8,-223.21 1733.55,-219.22 1732.42,-223.99"/>
<text xml:space="preserve" text-anchor="middle" x="1654.69" y="-214.22" font-family="Pretendard" font-size="10.00">read / append / replay</text>
</g>
<!-- bptree&#45;&gt;tablecache -->
<g id="edge11" class="edge">
<title>bptree&#45;&gt;tablecache</title>
<path fill="none" stroke="#475569" stroke-dasharray="5,2" d="M1750.05,-162.46C1707.62,-164.03 1639.45,-166.55 1588.13,-168.45"/>
<polygon fill="#475569" stroke="#475569" points="1588.14,-165.99 1581.24,-168.7 1588.32,-170.89 1588.14,-165.99"/>
<text xml:space="preserve" text-anchor="middle" x="1654.69" y="-237.75" font-family="Pretendard" font-size="10.00">slot id</text>
</g>
<!-- storage&#45;&gt;tablecache -->
<g id="edge12" class="edge">
<title>storage&#45;&gt;tablecache</title>
<path fill="none" stroke="#475569" stroke-dasharray="5,2" d="M1741.27,-223.56C1698.57,-213.46 1635.84,-198.63 1587.89,-187.29"/>
<polygon fill="#475569" stroke="#475569" points="1588.58,-184.94 1581.2,-185.71 1587.45,-189.71 1588.58,-184.94"/>
<text xml:space="preserve" text-anchor="middle" x="1654.69" y="-257.75" font-family="Pretendard" font-size="10.00">row / delta</text>
</g>
<!-- response -->
<g id="node13" class="node">
<title>response</title>
<path fill="white" stroke="#64748b" d="M1839.35,-64.48C1839.35,-64.48 1741.94,-64.48 1741.94,-64.48 1735.94,-64.48 1729.94,-58.48 1729.94,-52.48 1729.94,-52.48 1729.94,-39.52 1729.94,-39.52 1729.94,-33.52 1735.94,-27.52 1741.94,-27.52 1741.94,-27.52 1839.35,-27.52 1839.35,-27.52 1845.35,-27.52 1851.35,-33.52 1851.35,-39.52 1851.35,-39.52 1851.35,-52.48 1851.35,-52.48 1851.35,-58.48 1845.35,-64.48 1839.35,-64.48"/>
<text xml:space="preserve" text-anchor="middle" x="1790.64" y="-47.55" font-family="Pretendard" font-size="11.00">CmdResponse</text>
<text xml:space="preserve" text-anchor="middle" x="1790.64" y="-35.55" font-family="Pretendard" font-size="11.00">status / body / counts</text>
</g>
<!-- result&#45;&gt;response -->
<g id="edge14" class="edge">
<title>result&#45;&gt;response</title>
<path fill="none" stroke="#475569" d="M1579.73,-46C1621.75,-46 1677.73,-46 1721.31,-46"/>
<polygon fill="#475569" stroke="#475569" points="1721.06,-48.45 1728.06,-46 1721.06,-43.55 1721.06,-48.45"/>
</g>
<!-- callback -->
<g id="node14" class="node">
<title>callback</title>
<path fill="white" stroke="#64748b" d="M2005.01,-65.61C2005.01,-65.61 1920.35,-65.61 1920.35,-65.61 1914.35,-65.61 1908.35,-59.61 1908.35,-53.61 1908.35,-53.61 1908.35,-38.39 1908.35,-38.39 1908.35,-32.39 1914.35,-26.39 1920.35,-26.39 1920.35,-26.39 2005.01,-26.39 2005.01,-26.39 2011.01,-26.39 2017.01,-32.39 2017.01,-38.39 2017.01,-38.39 2017.01,-53.61 2017.01,-53.61 2017.01,-59.61 2011.01,-65.61 2005.01,-65.61"/>
<text xml:space="preserve" text-anchor="middle" x="1962.68" y="-48.67" font-family="Pretendard" font-size="11.00">callback</text>
<text xml:space="preserve" text-anchor="middle" x="1962.68" y="-36.67" font-family="Pretendard" font-size="11.00">API / REPL로 반환</text>
</g>
<!-- response&#45;&gt;callback -->
<g id="edge15" class="edge">
<title>response&#45;&gt;callback</title>
<path fill="none" stroke="#475569" d="M1851.59,-46C1867.23,-46 1884.1,-46 1899.83,-46"/>
<polygon fill="#475569" stroke="#475569" points="1899.42,-48.45 1906.42,-46 1899.42,-43.55 1899.42,-48.45"/>
</g>
</g>
</svg>
