<?xml version="1.0" encoding="UTF-8" standalone="no"?>
<!DOCTYPE svg PUBLIC "-//W3C//DTD SVG 1.1//EN"
 "http://www.w3.org/Graphics/SVG/1.1/DTD/svg11.dtd">
<!-- Generated by graphviz version 14.1.5 (20260411.2331)
 -->
<!-- Title: CmdProcessorOverallArchitecture Pages: 1 -->
<svg width="819pt" height="151pt"
 viewBox="0.00 0.00 819.00 151.00" xmlns="http://www.w3.org/2000/svg" xmlns:xlink="http://www.w3.org/1999/xlink">
<g id="graph0" class="graph" transform="scale(1 1) rotate(0) translate(14.4 136.4)">
<title>CmdProcessorOverallArchitecture</title>
<g id="clust1" class="cluster">
<title>cluster_io</title>
<path fill="#f8fafc" stroke="#cbd5e1" d="M20,-8C20,-8 136.41,-8 136.41,-8 142.41,-8 148.41,-14 148.41,-20 148.41,-20 148.41,-102 148.41,-102 148.41,-108 142.41,-114 136.41,-114 136.41,-114 20,-114 20,-114 14,-114 8,-108 8,-102 8,-102 8,-20 8,-20 8,-14 14,-8 20,-8"/>
<text xml:space="preserve" text-anchor="middle" x="78.21" y="-97.65" font-family="Pretendard" font-size="13.00">입출력 구현체</text>
</g>
<g id="clust2" class="cluster">
<title>cluster_core</title>
<path fill="#f0f9ff" stroke="#bae6fd" d="M494.68,-8C494.68,-8 769.75,-8 769.75,-8 775.75,-8 781.75,-14 781.75,-20 781.75,-20 781.75,-102 781.75,-102 781.75,-108 775.75,-114 769.75,-114 769.75,-114 494.68,-114 494.68,-114 488.68,-114 482.68,-108 482.68,-102 482.68,-102 482.68,-20 482.68,-20 482.68,-14 488.68,-8 494.68,-8"/>
<text xml:space="preserve" text-anchor="middle" x="632.22" y="-97.65" font-family="Pretendard" font-size="13.00">코어</text>
</g>
<!-- io_impl -->
<g id="node1" class="node">
<title>io_impl</title>
<path fill="#ffffff" stroke="#64748b" d="M122.41,-75.73C122.41,-75.73 34,-75.73 34,-75.73 28,-75.73 22,-69.73 22,-63.73 22,-63.73 22,-34.27 22,-34.27 22,-28.27 28,-22.27 34,-22.27 34,-22.27 122.41,-22.27 122.41,-22.27 128.41,-22.27 134.41,-28.27 134.41,-34.27 134.41,-34.27 134.41,-63.73 134.41,-63.73 134.41,-69.73 128.41,-75.73 122.41,-75.73"/>
<text xml:space="preserve" text-anchor="middle" x="78.21" y="-58.8" font-family="Pretendard" font-size="11.00">TCP / REPL / tests</text>
<text xml:space="preserve" text-anchor="middle" x="78.21" y="-46.8" font-family="Pretendard" font-size="11.00">입력 수신</text>
<text xml:space="preserve" text-anchor="middle" x="78.21" y="-32.55" font-family="Pretendard" font-size="11.00">출력 형식 관리</text>
</g>
<!-- cmd_contract -->
<g id="node4" class="node">
<title>cmd_contract</title>
<path fill="#dbeafe" stroke="#60a5fa" d="M381.68,-67C381.68,-67 249.41,-67 249.41,-67 243.41,-67 237.41,-61 237.41,-55 237.41,-55 237.41,-43 237.41,-43 237.41,-37 243.41,-31 249.41,-31 249.41,-31 381.68,-31 381.68,-31 387.68,-31 393.68,-37 393.68,-43 393.68,-43 393.68,-55 393.68,-55 393.68,-61 387.68,-67 381.68,-67"/>
<text xml:space="preserve" text-anchor="middle" x="315.55" y="-44.55" font-family="Pretendard" font-size="11.00">CmdRequest / CmdResponse</text>
</g>
<!-- io_impl&#45;&gt;cmd_contract -->
<g id="edge1" class="edge">
<title>io_impl&#45;&gt;cmd_contract</title>
<path fill="none" stroke="#475569" d="M148.41,-49C176.25,-49 208.38,-49 236.99,-49"/>
</g>
<!-- cmd_processor -->
<g id="node2" class="node">
<title>cmd_processor</title>
<path fill="#ffffff" stroke="#64748b" d="M610.59,-75.73C610.59,-75.73 508.68,-75.73 508.68,-75.73 502.68,-75.73 496.68,-69.73 496.68,-63.73 496.68,-63.73 496.68,-34.27 496.68,-34.27 496.68,-28.27 502.68,-22.27 508.68,-22.27 508.68,-22.27 610.59,-22.27 610.59,-22.27 616.59,-22.27 622.59,-28.27 622.59,-34.27 622.59,-34.27 622.59,-63.73 622.59,-63.73 622.59,-69.73 616.59,-75.73 610.59,-75.73"/>
<text xml:space="preserve" text-anchor="middle" x="559.64" y="-58.8" font-family="Pretendard" font-size="11.00">CmdProcessor</text>
<text xml:space="preserve" text-anchor="middle" x="559.64" y="-46.8" font-family="Pretendard" font-size="11.00">요청 처리 정책</text>
<text xml:space="preserve" text-anchor="middle" x="559.64" y="-32.55" font-family="Pretendard" font-size="11.00">request/response 소유</text>
</g>
<!-- db_black_box -->
<g id="node3" class="node">
<title>db_black_box</title>
<path fill="#ffffff" stroke="#cbd5e1" d="M755.75,-68.61C755.75,-68.61 714.59,-68.61 714.59,-68.61 708.59,-68.61 702.59,-62.61 702.59,-56.61 702.59,-56.61 702.59,-41.39 702.59,-41.39 702.59,-35.39 708.59,-29.39 714.59,-29.39 714.59,-29.39 755.75,-29.39 755.75,-29.39 761.75,-29.39 767.75,-35.39 767.75,-41.39 767.75,-41.39 767.75,-56.61 767.75,-56.61 767.75,-62.61 761.75,-68.61 755.75,-68.61"/>
<text xml:space="preserve" text-anchor="middle" x="735.17" y="-51.67" font-family="Pretendard" font-size="11.00">DB 실행</text>
<text xml:space="preserve" text-anchor="middle" x="735.17" y="-37.42" font-family="Pretendard" font-size="11.00">BlackBox</text>
</g>
<!-- cmd_processor&#45;&gt;db_black_box -->
<g id="edge3" class="edge">
<title>cmd_processor&#45;&gt;db_black_box</title>
<path fill="none" stroke="#475569" d="M622.79,-49C646.39,-49 672.62,-49 693.7,-49"/>
<polygon fill="#475569" stroke="#475569" points="693.59,-51.45 700.59,-49 693.59,-46.55 693.59,-51.45"/>
<text xml:space="preserve" text-anchor="middle" x="662.59" y="-51.7" font-family="Pretendard" font-size="9.00">DB 의존</text>
</g>
<!-- cmd_contract&#45;&gt;cmd_processor -->
<g id="edge2" class="edge">
<title>cmd_contract&#45;&gt;cmd_processor</title>
<path fill="none" stroke="#475569" d="M394.12,-49C419.72,-49 448.25,-49 474.31,-49"/>
<polygon fill="#475569" stroke="#475569" points="474.17,-51.45 481.17,-49 474.17,-46.55 474.17,-51.45"/>
</g>
</g>
</svg>
