<?xml version="1.0" encoding="UTF-8" standalone="no"?>
<!DOCTYPE svg PUBLIC "-//W3C//DTD SVG 1.1//EN"
 "http://www.w3.org/Graphics/SVG/1.1/DTD/svg11.dtd">
<!-- Generated by graphviz version 14.1.5 (20260411.2331)
 -->
<!-- Title: CmdProcessorBenefitStableMain Pages: 1 -->
<svg width="625pt" height="485pt"
 viewBox="0.00 0.00 625.00 485.00" xmlns="http://www.w3.org/2000/svg" xmlns:xlink="http://www.w3.org/1999/xlink">
<g id="graph0" class="graph" transform="scale(1 1) rotate(0) translate(14.4 470.36)">
<title>CmdProcessorBenefitStableMain</title>
<g id="clust1" class="cluster">
<title>cluster_variable</title>
<path fill="#f8fafc" stroke="#cbd5e1" d="M20,-351.46C20,-351.46 329,-351.46 329,-351.46 335,-351.46 341,-357.46 341,-363.46 341,-363.46 341,-435.96 341,-435.96 341,-441.96 335,-447.96 329,-447.96 329,-447.96 20,-447.96 20,-447.96 14,-447.96 8,-441.96 8,-435.96 8,-435.96 8,-363.46 8,-363.46 8,-357.46 14,-351.46 20,-351.46"/>
<text xml:space="preserve" text-anchor="middle" x="174.5" y="-431.61" font-family="Pretendard" font-size="13.00">바뀌는 영역: 선택된 진입점</text>
</g>
<g id="clust2" class="cluster">
<title>cluster_stable</title>
<path fill="#eff6ff" stroke="#93c5fd" d="M115,-204C115,-204 407,-204 407,-204 413,-204 419,-210 419,-216 419,-216 419,-322.46 419,-322.46 419,-328.46 413,-334.46 407,-334.46 407,-334.46 115,-334.46 115,-334.46 109,-334.46 103,-328.46 103,-322.46 103,-322.46 103,-216 103,-216 103,-210 109,-204 115,-204"/>
<text xml:space="preserve" text-anchor="middle" x="261" y="-318.11" font-family="Pretendard" font-size="13.00">유지되는 영역: main/request core</text>
</g>
<g id="clust3" class="cluster">
<title>cluster_processing</title>
<path fill="#f0f9ff" stroke="#bae6fd" d="M276,-80.25C276,-80.25 576,-80.25 576,-80.25 582,-80.25 588,-86.25 588,-92.25 588,-92.25 588,-164.75 588,-164.75 588,-170.75 582,-176.75 576,-176.75 576,-176.75 276,-176.75 276,-176.75 270,-176.75 264,-170.75 264,-164.75 264,-164.75 264,-92.25 264,-92.25 264,-86.25 270,-80.25 276,-80.25"/>
<text xml:space="preserve" text-anchor="middle" x="426" y="-160.4" font-family="Pretendard" font-size="13.00">교체 가능한 처리 뒤쪽</text>
</g>
<!-- file_entry -->
<g id="node1" class="node">
<title>file_entry</title>
<path fill="white" stroke="#64748b" d="M76.08,-405.46C76.08,-405.46 37.92,-405.46 37.92,-405.46 31.92,-405.46 25.92,-399.46 25.92,-393.46 25.92,-393.46 25.92,-381.46 25.92,-381.46 25.92,-375.46 31.92,-369.46 37.92,-369.46 37.92,-369.46 76.08,-369.46 76.08,-369.46 82.08,-369.46 88.08,-375.46 88.08,-381.46 88.08,-381.46 88.08,-393.46 88.08,-393.46 88.08,-399.46 82.08,-405.46 76.08,-405.46"/>
<text xml:space="preserve" text-anchor="middle" x="57" y="-384.14" font-family="Pretendard" font-size="11.00">파일 실행</text>
</g>
<!-- main_core -->
<g id="node4" class="node">
<title>main_core</title>
<path fill="white" stroke="#64748b" d="M195.45,-291.96C195.45,-291.96 132.54,-291.96 132.54,-291.96 126.55,-291.96 120.55,-285.96 120.55,-279.96 120.55,-279.96 120.55,-234 120.55,-234 120.55,-228 126.55,-222 132.54,-222 132.54,-222 195.45,-222 195.45,-222 201.45,-222 207.45,-228 207.45,-234 207.45,-234 207.45,-279.96 207.45,-279.96 207.45,-285.96 201.45,-291.96 195.45,-291.96"/>
<text xml:space="preserve" text-anchor="middle" x="164" y="-275.03" font-family="Pretendard" font-size="11.00">공통 호출 코드</text>
<text xml:space="preserve" text-anchor="middle" x="164" y="-260.78" font-family="Pretendard" font-size="11.00">request 생성</text>
<text xml:space="preserve" text-anchor="middle" x="164" y="-246.53" font-family="Pretendard" font-size="11.00">submit 호출</text>
<text xml:space="preserve" text-anchor="middle" x="164" y="-232.28" font-family="Pretendard" font-size="11.00">response 처리</text>
</g>
<!-- file_entry&#45;&gt;main_core -->
<g id="edge1" class="edge">
<title>file_entry&#45;&gt;main_core</title>
<path fill="none" stroke="#475569" d="M71.43,-369.13C86.41,-351.15 110.36,-322.38 130.15,-298.62"/>
<polygon fill="#475569" stroke="#475569" points="131.78,-300.49 134.38,-293.54 128.02,-297.36 131.78,-300.49"/>
</g>
<!-- repl_entry -->
<g id="node2" class="node">
<title>repl_entry</title>
<path fill="white" stroke="#64748b" d="M188.33,-405.46C188.33,-405.46 139.67,-405.46 139.67,-405.46 133.67,-405.46 127.67,-399.46 127.67,-393.46 127.67,-393.46 127.67,-381.46 127.67,-381.46 127.67,-375.46 133.67,-369.46 139.67,-369.46 139.67,-369.46 188.33,-369.46 188.33,-369.46 194.33,-369.46 200.33,-375.46 200.33,-381.46 200.33,-381.46 200.33,-393.46 200.33,-393.46 200.33,-399.46 194.33,-405.46 188.33,-405.46"/>
<text xml:space="preserve" text-anchor="middle" x="164" y="-383.01" font-family="Pretendard" font-size="11.00">REPL loop</text>
</g>
<!-- repl_entry&#45;&gt;main_core -->
<g id="edge2" class="edge">
<title>repl_entry&#45;&gt;main_core</title>
<path fill="none" stroke="#475569" d="M164,-369.13C164,-351.69 164,-324.09 164,-300.76"/>
<polygon fill="#475569" stroke="#475569" points="166.45,-300.89 164,-293.89 161.55,-300.89 166.45,-300.89"/>
</g>
<!-- tcp_entry -->
<g id="node3" class="node">
<title>tcp_entry</title>
<path fill="white" stroke="#64748b" d="M311.2,-405.46C311.2,-405.46 252.8,-405.46 252.8,-405.46 246.8,-405.46 240.8,-399.46 240.8,-393.46 240.8,-393.46 240.8,-381.46 240.8,-381.46 240.8,-375.46 246.8,-369.46 252.8,-369.46 252.8,-369.46 311.2,-369.46 311.2,-369.46 317.2,-369.46 323.2,-375.46 323.2,-381.46 323.2,-381.46 323.2,-393.46 323.2,-393.46 323.2,-399.46 317.2,-405.46 311.2,-405.46"/>
<text xml:space="preserve" text-anchor="middle" x="282" y="-383.01" font-family="Pretendard" font-size="11.00">TCP adapter</text>
</g>
<!-- tcp_entry&#45;&gt;main_core -->
<g id="edge3" class="edge">
<title>tcp_entry&#45;&gt;main_core</title>
<path fill="none" stroke="#475569" d="M266.09,-369.13C249.57,-351.15 223.15,-322.38 201.33,-298.62"/>
<polygon fill="#475569" stroke="#475569" points="203.16,-296.99 196.62,-293.5 199.55,-300.31 203.16,-296.99"/>
</g>
<!-- contract -->
<g id="node5" class="node">
<title>contract</title>
<path fill="#dbeafe" stroke="#60a5fa" d="M389.33,-277.71C389.33,-277.71 298.67,-277.71 298.67,-277.71 292.67,-277.71 286.67,-271.71 286.67,-265.71 286.67,-265.71 286.67,-248.25 286.67,-248.25 286.67,-242.25 292.67,-236.25 298.67,-236.25 298.67,-236.25 389.33,-236.25 389.33,-236.25 395.33,-236.25 401.33,-242.25 401.33,-248.25 401.33,-248.25 401.33,-265.71 401.33,-265.71 401.33,-271.71 395.33,-277.71 389.33,-277.71"/>
<text xml:space="preserve" text-anchor="middle" x="344" y="-260.78" font-family="Pretendard" font-size="11.00">CmdProcessor 계약</text>
<text xml:space="preserve" text-anchor="middle" x="344" y="-246.53" font-family="Pretendard" font-size="11.00">동일한 호출 표면</text>
</g>
<!-- main_core&#45;&gt;contract -->
<g id="edge4" class="edge">
<title>main_core&#45;&gt;contract</title>
<path fill="none" stroke="#475569" d="M207.95,-256.98C231.32,-256.98 254.69,-256.98 278.07,-256.98"/>
<polygon fill="#475569" stroke="#475569" points="277.82,-259.43 284.82,-256.98 277.82,-254.53 277.82,-259.43"/>
</g>
<!-- processor -->
<g id="node6" class="node">
<title>processor</title>
<path fill="white" stroke="#64748b" d="M394.2,-134.25C394.2,-134.25 293.8,-134.25 293.8,-134.25 287.8,-134.25 281.8,-128.25 281.8,-122.25 281.8,-122.25 281.8,-110.25 281.8,-110.25 281.8,-104.25 287.8,-98.25 293.8,-98.25 293.8,-98.25 394.2,-98.25 394.2,-98.25 400.2,-98.25 406.2,-104.25 406.2,-110.25 406.2,-110.25 406.2,-122.25 406.2,-122.25 406.2,-128.25 400.2,-134.25 394.2,-134.25"/>
<text xml:space="preserve" text-anchor="middle" x="344" y="-112.92" font-family="Pretendard" font-size="11.00">CmdProcessor 구현체</text>
</g>
<!-- contract&#45;&gt;processor -->
<g id="edge5" class="edge">
<title>contract&#45;&gt;processor</title>
<path fill="none" stroke="#475569" d="M344,-235.81C344,-211.23 344,-169.68 344,-142.87"/>
<polygon fill="#475569" stroke="#475569" points="346.45,-142.9 344,-135.9 341.55,-142.9 346.45,-142.9"/>
<text xml:space="preserve" text-anchor="middle" x="358.62" y="-186.5" font-family="Pretendard" font-size="10.00">submit</text>
</g>
<!-- db -->
<g id="node7" class="node">
<title>db</title>
<path fill="white" stroke="#64748b" d="M557.96,-134.25C557.96,-134.25 498.05,-134.25 498.05,-134.25 492.05,-134.25 486.05,-128.25 486.05,-122.25 486.05,-122.25 486.05,-110.25 486.05,-110.25 486.05,-104.25 492.05,-98.25 498.05,-98.25 498.05,-98.25 557.96,-98.25 557.96,-98.25 563.96,-98.25 569.96,-104.25 569.96,-110.25 569.96,-110.25 569.96,-122.25 569.96,-122.25 569.96,-128.25 563.96,-134.25 557.96,-134.25"/>
<text xml:space="preserve" text-anchor="middle" x="528" y="-111.8" font-family="Pretendard" font-size="11.00">DB BlackBox</text>
</g>
<!-- processor&#45;&gt;db -->
<g id="edge6" class="edge">
<title>processor&#45;&gt;db</title>
<path fill="none" stroke="#475569" d="M406.53,-116.25C430.16,-116.25 453.79,-116.25 477.41,-116.25"/>
<polygon fill="#475569" stroke="#475569" points="477.26,-118.7 484.26,-116.25 477.26,-113.8 477.26,-118.7"/>
</g>
<!-- response -->
<g id="node8" class="node">
<title>response</title>
<path fill="#f8fafc" stroke="#cbd5e1" d="M405.08,-36C405.08,-36 282.92,-36 282.92,-36 276.92,-36 270.92,-30 270.92,-24 270.92,-24 270.92,-12 270.92,-12 270.92,-6 276.92,0 282.92,0 282.92,0 405.08,0 405.08,0 411.08,0 417.08,-6 417.08,-12 417.08,-12 417.08,-24 417.08,-24 417.08,-30 411.08,-36 405.08,-36"/>
<text xml:space="preserve" text-anchor="middle" x="344" y="-14.68" font-family="Pretendard" font-size="11.00">선택된 진입점으로 응답 반환</text>
</g>
<!-- processor&#45;&gt;response -->
<g id="edge7" class="edge">
<title>processor&#45;&gt;response</title>
<path fill="none" stroke="#475569" stroke-dasharray="5,2" d="M344,-98.04C344,-83.22 344,-61.6 344,-44.72"/>
<polygon fill="#475569" stroke="#475569" points="346.45,-44.9 344,-37.9 341.55,-44.9 346.45,-44.9"/>
<text xml:space="preserve" text-anchor="middle" x="362" y="-62.75" font-family="Pretendard" font-size="10.00">callback</text>
</g>
</g>
</svg>
