<?xml version="1.0" encoding="UTF-8" standalone="no"?>
<!DOCTYPE svg PUBLIC "-//W3C//DTD SVG 1.1//EN"
 "http://www.w3.org/Graphics/SVG/1.1/DTD/svg11.dtd">
<!-- Generated by graphviz version 14.1.5 (20260411.2331)
 -->
<!-- Title: CmdProcessorDITcpBuild Pages: 1 -->
<svg width="818pt" height="151pt"
 viewBox="0.00 0.00 818.00 151.00" xmlns="http://www.w3.org/2000/svg" xmlns:xlink="http://www.w3.org/1999/xlink">
<g id="graph0" class="graph" transform="scale(1 1) rotate(0) translate(14.4 136.4)">
<title>CmdProcessorDITcpBuild</title>
<g id="clust1" class="cluster">
<title>cluster_impl</title>
<path fill="#f8fafc" stroke="#cbd5e1" d="M20,-8C20,-8 169.41,-8 169.41,-8 175.41,-8 181.41,-14 181.41,-20 181.41,-20 181.41,-102 181.41,-102 181.41,-108 175.41,-114 169.41,-114 169.41,-114 20,-114 20,-114 14,-114 8,-108 8,-102 8,-102 8,-20 8,-20 8,-14 14,-8 20,-8"/>
<text xml:space="preserve" text-anchor="middle" x="94.71" y="-97.65" font-family="Pretendard" font-size="13.00">입출력 구현체: TCP</text>
</g>
<g id="clust2" class="cluster">
<title>cluster_core</title>
<path fill="#f0f9ff" stroke="#bae6fd" d="M527.68,-15C527.68,-15 769,-15 769,-15 775,-15 781,-21 781,-27 781,-27 781,-95 781,-95 781,-101 775,-107 769,-107 769,-107 527.68,-107 527.68,-107 521.68,-107 515.68,-101 515.68,-95 515.68,-95 515.68,-27 515.68,-27 515.68,-21 521.68,-15 527.68,-15"/>
<text xml:space="preserve" text-anchor="middle" x="648.34" y="-90.65" font-family="Pretendard" font-size="13.00">코어</text>
</g>
<!-- tcp_impl -->
<g id="node1" class="node">
<title>tcp_impl</title>
<path fill="#ffffff" stroke="#64748b" d="M155.41,-75.73C155.41,-75.73 34,-75.73 34,-75.73 28,-75.73 22,-69.73 22,-63.73 22,-63.73 22,-34.27 22,-34.27 22,-28.27 28,-22.27 34,-22.27 34,-22.27 155.41,-22.27 155.41,-22.27 161.41,-22.27 167.41,-28.27 167.41,-34.27 167.41,-34.27 167.41,-63.73 167.41,-63.73 167.41,-69.73 161.41,-75.73 155.41,-75.73"/>
<text xml:space="preserve" text-anchor="middle" x="94.71" y="-58.8" font-family="Pretendard" font-size="11.00">TCPCmdProcessor</text>
<text xml:space="preserve" text-anchor="middle" x="94.71" y="-46.8" font-family="Pretendard" font-size="11.00">입력: connection + JSONL</text>
<text xml:space="preserve" text-anchor="middle" x="94.71" y="-32.55" font-family="Pretendard" font-size="11.00">출력: 같은 connection</text>
</g>
<!-- cmd_contract -->
<g id="node4" class="node">
<title>cmd_contract</title>
<path fill="#dbeafe" stroke="#60a5fa" d="M414.68,-67C414.68,-67 282.41,-67 282.41,-67 276.41,-67 270.41,-61 270.41,-55 270.41,-55 270.41,-43 270.41,-43 270.41,-37 276.41,-31 282.41,-31 282.41,-31 414.68,-31 414.68,-31 420.68,-31 426.68,-37 426.68,-43 426.68,-43 426.68,-55 426.68,-55 426.68,-61 420.68,-67 414.68,-67"/>
<text xml:space="preserve" text-anchor="middle" x="348.55" y="-44.55" font-family="Pretendard" font-size="11.00">CmdRequest / CmdResponse</text>
</g>
<!-- tcp_impl&#45;&gt;cmd_contract -->
<g id="edge1" class="edge">
<title>tcp_impl&#45;&gt;cmd_contract</title>
<path fill="none" stroke="#475569" d="M181.41,-49C210.21,-49 242.09,-49 270.22,-49"/>
</g>
<!-- cmd_processor -->
<g id="node2" class="node">
<title>cmd_processor</title>
<path fill="#ffffff" stroke="#64748b" d="M609.84,-68.61C609.84,-68.61 541.68,-68.61 541.68,-68.61 535.68,-68.61 529.68,-62.61 529.68,-56.61 529.68,-56.61 529.68,-41.39 529.68,-41.39 529.68,-35.39 535.68,-29.39 541.68,-29.39 541.68,-29.39 609.84,-29.39 609.84,-29.39 615.84,-29.39 621.84,-35.39 621.84,-41.39 621.84,-41.39 621.84,-56.61 621.84,-56.61 621.84,-62.61 615.84,-68.61 609.84,-68.61"/>
<text xml:space="preserve" text-anchor="middle" x="575.76" y="-51.67" font-family="Pretendard" font-size="11.00">CmdProcessor</text>
<text xml:space="preserve" text-anchor="middle" x="575.76" y="-39.67" font-family="Pretendard" font-size="11.00">요청 처리 정책</text>
</g>
<!-- db -->
<g id="node3" class="node">
<title>db</title>
<path fill="#ffffff" stroke="#cbd5e1" d="M755,-68.61C755,-68.61 713.84,-68.61 713.84,-68.61 707.84,-68.61 701.84,-62.61 701.84,-56.61 701.84,-56.61 701.84,-41.39 701.84,-41.39 701.84,-35.39 707.84,-29.39 713.84,-29.39 713.84,-29.39 755,-29.39 755,-29.39 761,-29.39 767,-35.39 767,-41.39 767,-41.39 767,-56.61 767,-56.61 767,-62.61 761,-68.61 755,-68.61"/>
<text xml:space="preserve" text-anchor="middle" x="734.42" y="-51.67" font-family="Pretendard" font-size="11.00">DB 실행</text>
<text xml:space="preserve" text-anchor="middle" x="734.42" y="-37.42" font-family="Pretendard" font-size="11.00">BlackBox</text>
</g>
<!-- cmd_processor&#45;&gt;db -->
<g id="edge3" class="edge">
<title>cmd_processor&#45;&gt;db</title>
<path fill="none" stroke="#475569" d="M622.07,-49C644.57,-49 671.51,-49 693.26,-49"/>
<polygon fill="#475569" stroke="#475569" points="693.11,-51.45 700.11,-49 693.11,-46.55 693.11,-51.45"/>
<text xml:space="preserve" text-anchor="middle" x="661.84" y="-51.7" font-family="Pretendard" font-size="9.00">DB 의존</text>
</g>
<!-- cmd_contract&#45;&gt;cmd_processor -->
<g id="edge2" class="edge">
<title>cmd_contract&#45;&gt;cmd_processor</title>
<path fill="none" stroke="#475569" d="M427.06,-49C453.15,-49 481.98,-49 507.26,-49"/>
<polygon fill="#475569" stroke="#475569" points="507.17,-51.45 514.17,-49 507.17,-46.55 507.17,-51.45"/>
</g>
</g>
</svg>
