<?xml version="1.0" encoding="UTF-8" standalone="no"?>
<!DOCTYPE svg PUBLIC "-//W3C//DTD SVG 1.1//EN"
 "http://www.w3.org/Graphics/SVG/1.1/DTD/svg11.dtd">
<!-- Generated by graphviz version 14.1.5 (20260411.2331)
 -->
<!-- Title: CmdProcessorDIReplBuild Pages: 1 -->
<svg width="794pt" height="151pt"
 viewBox="0.00 0.00 794.00 151.00" xmlns="http://www.w3.org/2000/svg" xmlns:xlink="http://www.w3.org/1999/xlink">
<g id="graph0" class="graph" transform="scale(1 1) rotate(0) translate(14.4 136.4)">
<title>CmdProcessorDIReplBuild</title>
<g id="clust1" class="cluster">
<title>cluster_impl</title>
<path fill="#f8fafc" stroke="#cbd5e1" d="M20,-8C20,-8 145.41,-8 145.41,-8 151.41,-8 157.41,-14 157.41,-20 157.41,-20 157.41,-102 157.41,-102 157.41,-108 151.41,-114 145.41,-114 145.41,-114 20,-114 20,-114 14,-114 8,-108 8,-102 8,-102 8,-20 8,-20 8,-14 14,-8 20,-8"/>
<text xml:space="preserve" text-anchor="middle" x="82.71" y="-97.65" font-family="Pretendard" font-size="13.00">입출력 구현체: REPL</text>
</g>
<g id="clust2" class="cluster">
<title>cluster_core</title>
<path fill="#f0f9ff" stroke="#bae6fd" d="M503.68,-15C503.68,-15 745,-15 745,-15 751,-15 757,-21 757,-27 757,-27 757,-95 757,-95 757,-101 751,-107 745,-107 745,-107 503.68,-107 503.68,-107 497.68,-107 491.68,-101 491.68,-95 491.68,-95 491.68,-27 491.68,-27 491.68,-21 497.68,-15 503.68,-15"/>
<text xml:space="preserve" text-anchor="middle" x="624.34" y="-90.65" font-family="Pretendard" font-size="13.00">코어</text>
</g>
<!-- repl_impl -->
<g id="node1" class="node">
<title>repl_impl</title>
<path fill="#ffffff" stroke="#64748b" d="M131.41,-75.73C131.41,-75.73 34,-75.73 34,-75.73 28,-75.73 22,-69.73 22,-63.73 22,-63.73 22,-34.27 22,-34.27 22,-28.27 28,-22.27 34,-22.27 34,-22.27 131.41,-22.27 131.41,-22.27 137.41,-22.27 143.41,-28.27 143.41,-34.27 143.41,-34.27 143.41,-63.73 143.41,-63.73 143.41,-69.73 137.41,-75.73 131.41,-75.73"/>
<text xml:space="preserve" text-anchor="middle" x="82.71" y="-58.8" font-family="Pretendard" font-size="11.00">REPLCmdProcessor</text>
<text xml:space="preserve" text-anchor="middle" x="82.71" y="-46.8" font-family="Pretendard" font-size="11.00">입력: console line</text>
<text xml:space="preserve" text-anchor="middle" x="82.71" y="-32.55" font-family="Pretendard" font-size="11.00">출력: console</text>
</g>
<!-- cmd_contract -->
<g id="node4" class="node">
<title>cmd_contract</title>
<path fill="#dbeafe" stroke="#60a5fa" d="M390.68,-67C390.68,-67 258.41,-67 258.41,-67 252.41,-67 246.41,-61 246.41,-55 246.41,-55 246.41,-43 246.41,-43 246.41,-37 252.41,-31 258.41,-31 258.41,-31 390.68,-31 390.68,-31 396.68,-31 402.68,-37 402.68,-43 402.68,-43 402.68,-55 402.68,-55 402.68,-61 396.68,-67 390.68,-67"/>
<text xml:space="preserve" text-anchor="middle" x="324.55" y="-44.55" font-family="Pretendard" font-size="11.00">CmdRequest / CmdResponse</text>
</g>
<!-- repl_impl&#45;&gt;cmd_contract -->
<g id="edge1" class="edge">
<title>repl_impl&#45;&gt;cmd_contract</title>
<path fill="none" stroke="#475569" d="M157.41,-49C185.56,-49 217.65,-49 246.13,-49"/>
</g>
<!-- cmd_processor -->
<g id="node2" class="node">
<title>cmd_processor</title>
<path fill="#ffffff" stroke="#64748b" d="M585.84,-68.61C585.84,-68.61 517.68,-68.61 517.68,-68.61 511.68,-68.61 505.68,-62.61 505.68,-56.61 505.68,-56.61 505.68,-41.39 505.68,-41.39 505.68,-35.39 511.68,-29.39 517.68,-29.39 517.68,-29.39 585.84,-29.39 585.84,-29.39 591.84,-29.39 597.84,-35.39 597.84,-41.39 597.84,-41.39 597.84,-56.61 597.84,-56.61 597.84,-62.61 591.84,-68.61 585.84,-68.61"/>
<text xml:space="preserve" text-anchor="middle" x="551.76" y="-51.67" font-family="Pretendard" font-size="11.00">CmdProcessor</text>
<text xml:space="preserve" text-anchor="middle" x="551.76" y="-39.67" font-family="Pretendard" font-size="11.00">요청 처리 정책</text>
</g>
<!-- db -->
<g id="node3" class="node">
<title>db</title>
<path fill="#ffffff" stroke="#cbd5e1" d="M731,-68.61C731,-68.61 689.84,-68.61 689.84,-68.61 683.84,-68.61 677.84,-62.61 677.84,-56.61 677.84,-56.61 677.84,-41.39 677.84,-41.39 677.84,-35.39 683.84,-29.39 689.84,-29.39 689.84,-29.39 731,-29.39 731,-29.39 737,-29.39 743,-35.39 743,-41.39 743,-41.39 743,-56.61 743,-56.61 743,-62.61 737,-68.61 731,-68.61"/>
<text xml:space="preserve" text-anchor="middle" x="710.42" y="-51.67" font-family="Pretendard" font-size="11.00">DB 실행</text>
<text xml:space="preserve" text-anchor="middle" x="710.42" y="-37.42" font-family="Pretendard" font-size="11.00">BlackBox</text>
</g>
<!-- cmd_processor&#45;&gt;db -->
<g id="edge3" class="edge">
<title>cmd_processor&#45;&gt;db</title>
<path fill="none" stroke="#475569" d="M598.07,-49C620.57,-49 647.51,-49 669.26,-49"/>
<polygon fill="#475569" stroke="#475569" points="669.11,-51.45 676.11,-49 669.11,-46.55 669.11,-51.45"/>
<text xml:space="preserve" text-anchor="middle" x="637.84" y="-51.7" font-family="Pretendard" font-size="9.00">DB 의존</text>
</g>
<!-- cmd_contract&#45;&gt;cmd_processor -->
<g id="edge2" class="edge">
<title>cmd_contract&#45;&gt;cmd_processor</title>
<path fill="none" stroke="#475569" d="M403.06,-49C429.15,-49 457.98,-49 483.26,-49"/>
<polygon fill="#475569" stroke="#475569" points="483.17,-51.45 490.17,-49 483.17,-46.55 483.17,-51.45"/>
</g>
</g>
</svg>
