<?xml version="1.0" encoding="UTF-8" standalone="no"?>
<!DOCTYPE svg PUBLIC "-//W3C//DTD SVG 1.1//EN"
 "http://www.w3.org/Graphics/SVG/1.1/DTD/svg11.dtd">
<!-- Generated by graphviz version 14.1.5 (20260411.2331)
 -->
<!-- Title: CmdProcessorDICoreOnly Pages: 1 -->
<svg width="493pt" height="323pt"
 viewBox="0.00 0.00 493.00 323.00" xmlns="http://www.w3.org/2000/svg" xmlns:xlink="http://www.w3.org/1999/xlink">
<g id="graph0" class="graph" transform="scale(1 1) rotate(0) translate(14.4 308.66)">
<title>CmdProcessorDICoreOnly</title>
<g id="clust1" class="cluster">
<title>cluster_core</title>
<path fill="#eff6ff" stroke="#93c5fd" d="M20,-8C20,-8 340,-8 340,-8 346,-8 352,-14 352,-20 352,-20 352,-197.55 352,-197.55 352,-203.55 346,-209.55 340,-209.55 340,-209.55 20,-209.55 20,-209.55 14,-209.55 8,-203.55 8,-197.55 8,-197.55 8,-20 8,-20 8,-14 14,-8 20,-8"/>
<text xml:space="preserve" text-anchor="middle" x="180" y="-193.2" font-family="Pretendard" font-size="13.00">코어 구현체</text>
</g>
<!-- placeholder -->
<g id="node1" class="node">
<title>placeholder</title>
<path fill="#f8fafc" stroke="#cbd5e1" stroke-dasharray="5,2" d="M122.08,-294.26C122.08,-294.26 41.92,-294.26 41.92,-294.26 35.92,-294.26 29.92,-288.26 29.92,-282.26 29.92,-282.26 29.92,-264.8 29.92,-264.8 29.92,-258.8 35.92,-252.8 41.92,-252.8 41.92,-252.8 122.08,-252.8 122.08,-252.8 128.08,-252.8 134.08,-258.8 134.08,-264.8 134.08,-264.8 134.08,-282.26 134.08,-282.26 134.08,-288.26 128.08,-294.26 122.08,-294.26"/>
<text xml:space="preserve" text-anchor="middle" x="82" y="-277.33" font-family="Pretendard" font-size="11.00">진입점 구현체 자리</text>
<text xml:space="preserve" text-anchor="middle" x="82" y="-263.08" font-family="Pretendard" font-size="11.00">아직 주입되지 않음</text>
</g>
<!-- main_core -->
<g id="node2" class="node">
<title>main_core</title>
<path fill="white" stroke="#64748b" d="M126.2,-165.92C126.2,-165.92 37.8,-165.92 37.8,-165.92 31.79,-165.92 25.8,-159.92 25.8,-153.92 25.8,-153.92 25.8,-138.71 25.8,-138.71 25.8,-132.71 31.8,-126.71 37.8,-126.71 37.8,-126.71 126.2,-126.71 126.2,-126.71 132.2,-126.71 138.2,-132.71 138.2,-138.71 138.2,-138.71 138.2,-153.92 138.2,-153.92 138.2,-159.92 132.2,-165.92 126.2,-165.92"/>
<text xml:space="preserve" text-anchor="middle" x="82" y="-148.99" font-family="Pretendard" font-size="11.00">main / request core</text>
<text xml:space="preserve" text-anchor="middle" x="82" y="-136.99" font-family="Pretendard" font-size="11.00">공통 요청 처리 흐름</text>
</g>
<!-- placeholder&#45;&gt;main_core -->
<g id="edge1" class="edge">
<title>placeholder&#45;&gt;main_core</title>
<path fill="none" stroke="#475569" stroke-dasharray="5,2" d="M82,-252.41C82,-231.32 82,-198.06 82,-174.61"/>
<polygon fill="#475569" stroke="#475569" points="84.45,-174.67 82,-167.67 79.55,-174.67 84.45,-174.67"/>
<text xml:space="preserve" text-anchor="middle" x="96.62" y="-219.3" font-family="Pretendard" font-size="10.00">DI slot</text>
</g>
<!-- contract -->
<g id="node3" class="node">
<title>contract</title>
<path fill="#dbeafe" stroke="#60a5fa" d="M322.45,-167.04C322.45,-167.04 229.55,-167.04 229.55,-167.04 223.55,-167.04 217.55,-161.04 217.55,-155.04 217.55,-155.04 217.55,-137.58 217.55,-137.58 217.55,-131.58 223.55,-125.58 229.55,-125.58 229.55,-125.58 322.45,-125.58 322.45,-125.58 328.45,-125.58 334.45,-131.58 334.45,-137.58 334.45,-137.58 334.45,-155.04 334.45,-155.04 334.45,-161.04 328.45,-167.04 322.45,-167.04"/>
<text xml:space="preserve" text-anchor="middle" x="276" y="-150.12" font-family="Pretendard" font-size="11.00">CmdProcessor 계약</text>
<text xml:space="preserve" text-anchor="middle" x="276" y="-135.87" font-family="Pretendard" font-size="11.00">요청 제출 + 응답 수신</text>
</g>
<!-- main_core&#45;&gt;contract -->
<g id="edge2" class="edge">
<title>main_core&#45;&gt;contract</title>
<path fill="none" stroke="#475569" d="M138.46,-146.31C161.93,-146.31 185.4,-146.31 208.87,-146.31"/>
<polygon fill="#475569" stroke="#475569" points="208.65,-148.77 215.65,-146.32 208.65,-143.87 208.65,-148.77"/>
</g>
<!-- db -->
<g id="node4" class="node">
<title>db</title>
<path fill="#ffffff" stroke="#cbd5e1" d="M305.95,-65.21C305.95,-65.21 246.05,-65.21 246.05,-65.21 240.05,-65.21 234.05,-59.21 234.05,-53.21 234.05,-53.21 234.05,-38 234.05,-38 234.05,-32 240.05,-26 246.05,-26 246.05,-26 305.95,-26 305.95,-26 311.95,-26 317.95,-32 317.95,-38 317.95,-38 317.95,-53.21 317.95,-53.21 317.95,-59.21 311.95,-65.21 305.95,-65.21"/>
<text xml:space="preserve" text-anchor="middle" x="276" y="-48.28" font-family="Pretendard" font-size="11.00">DB BlackBox</text>
<text xml:space="preserve" text-anchor="middle" x="276" y="-36.28" font-family="Pretendard" font-size="11.00">SQL 실행</text>
</g>
<!-- contract&#45;&gt;db -->
<g id="edge3" class="edge">
<title>contract&#45;&gt;db</title>
<path fill="none" stroke="#475569" d="M276,-125.34C276,-110.47 276,-90 276,-73.66"/>
<polygon fill="#475569" stroke="#475569" points="278.45,-74.06 276,-67.06 273.55,-74.06 278.45,-74.06"/>
</g>
<!-- output -->
<g id="node5" class="node">
<title>output</title>
<path fill="#f8fafc" stroke="#cbd5e1" d="M452.2,-66.34C452.2,-66.34 381.8,-66.34 381.8,-66.34 375.8,-66.34 369.8,-60.34 369.8,-54.34 369.8,-54.34 369.8,-36.88 369.8,-36.88 369.8,-30.88 375.8,-24.88 381.8,-24.88 381.8,-24.88 452.2,-24.88 452.2,-24.88 458.2,-24.88 464.2,-30.88 464.2,-36.88 464.2,-36.88 464.2,-54.34 464.2,-54.34 464.2,-60.34 458.2,-66.34 452.2,-66.34"/>
<text xml:space="preserve" text-anchor="middle" x="417" y="-49.41" font-family="Pretendard" font-size="11.00">외부 출력 없음</text>
<text xml:space="preserve" text-anchor="middle" x="417" y="-35.16" font-family="Pretendard" font-size="11.00">사용자 접점 없음</text>
</g>
<!-- contract&#45;&gt;output -->
<g id="edge4" class="edge">
<title>contract&#45;&gt;output</title>
<path fill="none" stroke="#475569" stroke-dasharray="5,2" d="M304.87,-125.1C327.02,-109.6 357.7,-88.12 381.37,-71.55"/>
<polygon fill="#475569" stroke="#475569" points="382.6,-73.68 386.93,-67.66 379.79,-69.67 382.6,-73.68"/>
<text xml:space="preserve" text-anchor="middle" x="370.6" y="-92.09" font-family="Pretendard" font-size="10.00">response</text>
</g>
</g>
</svg>
