<?xml version="1.0" encoding="UTF-8" standalone="no"?>
<!DOCTYPE svg PUBLIC "-//W3C//DTD SVG 1.1//EN"
 "http://www.w3.org/Graphics/SVG/1.1/DTD/svg11.dtd">
<!-- Generated by graphviz version 14.1.5 (20260411.2331)
 -->
<!-- Title: TcpMultiRequestInflightFlow Pages: 1 -->
<svg width="848pt" height="295pt"
 viewBox="0.00 0.00 848.00 295.00" xmlns="http://www.w3.org/2000/svg" xmlns:xlink="http://www.w3.org/1999/xlink">
<g id="graph0" class="graph" transform="scale(1 1) rotate(0) translate(14.4 280.52)">
<title>TcpMultiRequestInflightFlow</title>
<g id="clust1" class="cluster">
<title>cluster_r1</title>
<path fill="#f8fafc" stroke="#cbd5e1" d="M20,-148.66C20,-148.66 624,-148.66 624,-148.66 630,-148.66 636,-154.66 636,-160.66 636,-160.66 636,-246.12 636,-246.12 636,-252.12 630,-258.12 624,-258.12 624,-258.12 20,-258.12 20,-258.12 14,-258.12 8,-252.12 8,-246.12 8,-246.12 8,-160.66 8,-160.66 8,-154.66 14,-148.66 20,-148.66"/>
<text xml:space="preserve" text-anchor="middle" x="322" y="-241.77" font-family="Pretendard" font-size="13.00">r1: 느린 요청</text>
</g>
<g id="clust2" class="cluster">
<title>cluster_r2</title>
<path fill="#eff6ff" stroke="#93c5fd" d="M20,-8C20,-8 624,-8 624,-8 630,-8 636,-14 636,-20 636,-20 636,-105.46 636,-105.46 636,-111.46 630,-117.46 624,-117.46 624,-117.46 20,-117.46 20,-117.46 14,-117.46 8,-111.46 8,-105.46 8,-105.46 8,-20 8,-20 8,-14 14,-8 20,-8"/>
<text xml:space="preserve" text-anchor="middle" x="322" y="-101.11" font-family="Pretendard" font-size="13.00">r2: 빠른 요청</text>
</g>
<!-- r1_start -->
<g id="node1" class="node">
<title>r1_start</title>
<path fill="white" stroke="#64748b" d="M108.2,-209.62C108.2,-209.62 37.79,-209.62 37.79,-209.62 31.79,-209.62 25.8,-203.62 25.8,-197.62 25.8,-197.62 25.8,-184.66 25.8,-184.66 25.8,-178.66 31.8,-172.66 37.8,-172.66 37.8,-172.66 108.2,-172.66 108.2,-172.66 114.2,-172.66 120.2,-178.66 120.2,-184.66 120.2,-184.66 120.2,-197.62 120.2,-197.62 120.2,-203.62 114.2,-209.62 108.2,-209.62"/>
<text xml:space="preserve" text-anchor="middle" x="73" y="-192.69" font-family="Pretendard" font-size="11.00">client send r1</text>
<text xml:space="preserve" text-anchor="middle" x="73" y="-180.69" font-family="Pretendard" font-size="11.00">TCP register r1</text>
</g>
<!-- r1_proc -->
<g id="node2" class="node">
<title>r1_proc</title>
<path fill="white" stroke="#64748b" d="M280.08,-210.74C280.08,-210.74 211.92,-210.74 211.92,-210.74 205.92,-210.74 199.92,-204.74 199.92,-198.74 199.92,-198.74 199.92,-183.53 199.92,-183.53 199.92,-177.53 205.92,-171.53 211.92,-171.53 211.92,-171.53 280.08,-171.53 280.08,-171.53 286.08,-171.53 292.08,-177.53 292.08,-183.53 292.08,-183.53 292.08,-198.74 292.08,-198.74 292.08,-204.74 286.08,-210.74 280.08,-210.74"/>
<text xml:space="preserve" text-anchor="middle" x="246" y="-193.81" font-family="Pretendard" font-size="11.00">CmdProcessor</text>
<text xml:space="preserve" text-anchor="middle" x="246" y="-181.81" font-family="Pretendard" font-size="11.00">r1 처리 중</text>
</g>
<!-- r1_start&#45;&gt;r1_proc -->
<g id="edge1" class="edge">
<title>r1_start&#45;&gt;r1_proc</title>
<path fill="none" stroke="#475569" d="M120.64,-191.14C144.15,-191.14 167.66,-191.14 191.17,-191.14"/>
<polygon fill="#475569" stroke="#475569" points="190.97,-193.59 197.97,-191.14 190.97,-188.69 190.97,-193.59"/>
</g>
<!-- r2_start -->
<g id="node5" class="node">
<title>r2_start</title>
<path fill="white" stroke="#64748b" d="M108.2,-74.96C108.2,-74.96 37.79,-74.96 37.79,-74.96 31.79,-74.96 25.8,-68.96 25.8,-62.96 25.8,-62.96 25.8,-38 25.8,-38 25.8,-32 31.8,-26 37.8,-26 37.8,-26 108.2,-26 108.2,-26 114.2,-26 120.2,-32 120.2,-38 120.2,-38 120.2,-62.96 120.2,-62.96 120.2,-68.96 114.2,-74.96 108.2,-74.96"/>
<text xml:space="preserve" text-anchor="middle" x="73" y="-58.03" font-family="Pretendard" font-size="11.00">client send r2</text>
<text xml:space="preserve" text-anchor="middle" x="73" y="-46.03" font-family="Pretendard" font-size="11.00">TCP register r2</text>
<text xml:space="preserve" text-anchor="middle" x="73" y="-34.03" font-family="Pretendard" font-size="11.00">in&#45;flight [r2, r1]</text>
</g>
<!-- r1_start&#45;&gt;r2_start -->
<g id="edge7" class="edge">
<title>r1_start&#45;&gt;r2_start</title>
<path fill="none" stroke="#475569" stroke-dasharray="1,5" d="M73,-172.3C73,-147.57 73,-102.84 73,-75.29"/>
<text xml:space="preserve" text-anchor="middle" x="107.12" y="-128.16" font-family="Pretendard" font-size="10.00">같은 connection</text>
</g>
<!-- r1_cb -->
<g id="node3" class="node">
<title>r1_cb</title>
<path fill="white" stroke="#64748b" d="M430.58,-210.74C430.58,-210.74 383.42,-210.74 383.42,-210.74 377.42,-210.74 371.42,-204.74 371.42,-198.74 371.42,-198.74 371.42,-183.53 371.42,-183.53 371.42,-177.53 377.42,-171.53 383.42,-171.53 383.42,-171.53 430.58,-171.53 430.58,-171.53 436.58,-171.53 442.58,-177.53 442.58,-183.53 442.58,-183.53 442.58,-198.74 442.58,-198.74 442.58,-204.74 436.58,-210.74 430.58,-210.74"/>
<text xml:space="preserve" text-anchor="middle" x="407" y="-193.81" font-family="Pretendard" font-size="11.00">callback r1</text>
<text xml:space="preserve" text-anchor="middle" x="407" y="-181.81" font-family="Pretendard" font-size="11.00">나중</text>
</g>
<!-- r1_proc&#45;&gt;r1_cb -->
<g id="edge2" class="edge">
<title>r1_proc&#45;&gt;r1_cb</title>
<path fill="none" stroke="#475569" d="M292.54,-191.14C316,-191.14 339.47,-191.14 362.93,-191.14"/>
<polygon fill="#475569" stroke="#475569" points="362.72,-193.59 369.72,-191.14 362.72,-188.69 362.72,-193.59"/>
</g>
<!-- r1_done -->
<g id="node4" class="node">
<title>r1_done</title>
<path fill="white" stroke="#64748b" d="M605.58,-215.62C605.58,-215.62 534.42,-215.62 534.42,-215.62 528.42,-215.62 522.42,-209.62 522.42,-203.62 522.42,-203.62 522.42,-178.66 522.42,-178.66 522.42,-172.66 528.42,-166.66 534.42,-166.66 534.42,-166.66 605.58,-166.66 605.58,-166.66 611.58,-166.66 617.58,-172.66 617.58,-178.66 617.58,-178.66 617.58,-203.62 617.58,-203.62 617.58,-209.62 611.58,-215.62 605.58,-215.62"/>
<text xml:space="preserve" text-anchor="middle" x="570" y="-198.69" font-family="Pretendard" font-size="11.00">TCP write r1</text>
<text xml:space="preserve" text-anchor="middle" x="570" y="-186.69" font-family="Pretendard" font-size="11.00">client receive r1</text>
<text xml:space="preserve" text-anchor="middle" x="570" y="-174.69" font-family="Pretendard" font-size="11.00">in&#45;flight []</text>
</g>
<!-- r1_cb&#45;&gt;r1_done -->
<g id="edge3" class="edge">
<title>r1_cb&#45;&gt;r1_done</title>
<path fill="none" stroke="#475569" d="M442.97,-191.14C466.65,-191.14 490.32,-191.14 513.99,-191.14"/>
<polygon fill="#475569" stroke="#475569" points="513.85,-193.59 520.85,-191.14 513.85,-188.69 513.85,-193.59"/>
</g>
<!-- r2_proc -->
<g id="node6" class="node">
<title>r2_proc</title>
<path fill="white" stroke="#64748b" d="M280.08,-70.09C280.08,-70.09 211.92,-70.09 211.92,-70.09 205.92,-70.09 199.92,-64.09 199.92,-58.09 199.92,-58.09 199.92,-42.88 199.92,-42.88 199.92,-36.88 205.92,-30.88 211.92,-30.88 211.92,-30.88 280.08,-30.88 280.08,-30.88 286.08,-30.88 292.08,-36.88 292.08,-42.88 292.08,-42.88 292.08,-58.09 292.08,-58.09 292.08,-64.09 286.08,-70.09 280.08,-70.09"/>
<text xml:space="preserve" text-anchor="middle" x="246" y="-53.16" font-family="Pretendard" font-size="11.00">CmdProcessor</text>
<text xml:space="preserve" text-anchor="middle" x="246" y="-41.16" font-family="Pretendard" font-size="11.00">r2 처리</text>
</g>
<!-- r2_start&#45;&gt;r2_proc -->
<g id="edge4" class="edge">
<title>r2_start&#45;&gt;r2_proc</title>
<path fill="none" stroke="#475569" d="M120.64,-50.48C144.15,-50.48 167.66,-50.48 191.17,-50.48"/>
<polygon fill="#475569" stroke="#475569" points="190.97,-52.93 197.97,-50.48 190.97,-48.03 190.97,-52.93"/>
</g>
<!-- r2_cb -->
<g id="node7" class="node">
<title>r2_cb</title>
<path fill="white" stroke="#64748b" d="M430.58,-70.09C430.58,-70.09 383.42,-70.09 383.42,-70.09 377.42,-70.09 371.42,-64.09 371.42,-58.09 371.42,-58.09 371.42,-42.88 371.42,-42.88 371.42,-36.88 377.42,-30.88 383.42,-30.88 383.42,-30.88 430.58,-30.88 430.58,-30.88 436.58,-30.88 442.58,-36.88 442.58,-42.88 442.58,-42.88 442.58,-58.09 442.58,-58.09 442.58,-64.09 436.58,-70.09 430.58,-70.09"/>
<text xml:space="preserve" text-anchor="middle" x="407" y="-53.16" font-family="Pretendard" font-size="11.00">callback r2</text>
<text xml:space="preserve" text-anchor="middle" x="407" y="-41.16" font-family="Pretendard" font-size="11.00">먼저</text>
</g>
<!-- r2_proc&#45;&gt;r2_cb -->
<g id="edge5" class="edge">
<title>r2_proc&#45;&gt;r2_cb</title>
<path fill="none" stroke="#475569" d="M292.54,-50.48C316,-50.48 339.47,-50.48 362.93,-50.48"/>
<polygon fill="#475569" stroke="#475569" points="362.72,-52.93 369.72,-50.48 362.72,-48.03 362.72,-52.93"/>
</g>
<!-- r2_cb&#45;&gt;r1_cb -->
<g id="edge8" class="edge">
<title>r2_cb&#45;&gt;r1_cb</title>
<path fill="none" stroke="#475569" stroke-dasharray="1,5" d="M407,-70.24C407,-96.67 407,-144.6 407,-171.15"/>
<text xml:space="preserve" text-anchor="middle" x="436.62" y="-128.06" font-family="Pretendard" font-size="10.00">r2가 먼저 완료</text>
</g>
<!-- r2_done -->
<g id="node8" class="node">
<title>r2_done</title>
<path fill="white" stroke="#64748b" d="M605.58,-74.96C605.58,-74.96 534.42,-74.96 534.42,-74.96 528.42,-74.96 522.42,-68.96 522.42,-62.96 522.42,-62.96 522.42,-38 522.42,-38 522.42,-32 528.42,-26 534.42,-26 534.42,-26 605.58,-26 605.58,-26 611.58,-26 617.58,-32 617.58,-38 617.58,-38 617.58,-62.96 617.58,-62.96 617.58,-68.96 611.58,-74.96 605.58,-74.96"/>
<text xml:space="preserve" text-anchor="middle" x="570" y="-58.03" font-family="Pretendard" font-size="11.00">TCP write r2</text>
<text xml:space="preserve" text-anchor="middle" x="570" y="-46.03" font-family="Pretendard" font-size="11.00">client receive r2</text>
<text xml:space="preserve" text-anchor="middle" x="570" y="-34.03" font-family="Pretendard" font-size="11.00">in&#45;flight [r1]</text>
</g>
<!-- r2_cb&#45;&gt;r2_done -->
<g id="edge6" class="edge">
<title>r2_cb&#45;&gt;r2_done</title>
<path fill="none" stroke="#475569" d="M442.97,-50.48C466.65,-50.48 490.32,-50.48 513.99,-50.48"/>
<polygon fill="#475569" stroke="#475569" points="513.85,-52.93 520.85,-50.48 513.85,-48.03 513.85,-52.93"/>
</g>
<!-- note -->
<g id="node9" class="node">
<title>note</title>
<path fill="#fefce8" stroke="#facc15" d="M807.08,-71.21C807.08,-71.21 708.92,-71.21 708.92,-71.21 702.92,-71.21 696.92,-65.21 696.92,-59.21 696.92,-59.21 696.92,-41.75 696.92,-41.75 696.92,-35.75 702.92,-29.75 708.92,-29.75 708.92,-29.75 807.08,-29.75 807.08,-29.75 813.08,-29.75 819.08,-35.75 819.08,-41.75 819.08,-41.75 819.08,-59.21 819.08,-59.21 819.08,-65.21 813.08,-71.21 807.08,-71.21"/>
<text xml:space="preserve" text-anchor="middle" x="758" y="-54.28" font-family="Pretendard" font-size="11.00">응답 순서는 완료 순서</text>
<text xml:space="preserve" text-anchor="middle" x="758" y="-40.03" font-family="Pretendard" font-size="11.00">클라이언트는 id로 매칭</text>
</g>
<!-- note&#45;&gt;r1_done -->
<g id="edge10" class="edge">
<title>note&#45;&gt;r1_done</title>
<path fill="none" stroke="#475569" stroke-dasharray="5,2" d="M730.68,-71.63C698.63,-95.27 645.26,-134.63 608.9,-161.45"/>
<polygon fill="#475569" stroke="#475569" points="607.72,-159.28 603.54,-165.41 610.62,-163.22 607.72,-159.28"/>
</g>
<!-- note&#45;&gt;r2_done -->
<g id="edge9" class="edge">
<title>note&#45;&gt;r2_done</title>
<path fill="none" stroke="#475569" stroke-dasharray="5,2" d="M696.63,-50.48C673.11,-50.48 649.58,-50.48 626.06,-50.48"/>
<polygon fill="#475569" stroke="#475569" points="626.25,-48.03 619.25,-50.48 626.25,-52.93 626.25,-48.03"/>
</g>
</g>
</svg>
