<?xml version="1.0" encoding="UTF-8" standalone="no"?>
<!DOCTYPE svg PUBLIC "-//W3C//DTD SVG 1.1//EN"
 "http://www.w3.org/Graphics/SVG/1.1/DTD/svg11.dtd">
<!-- Generated by graphviz version 14.1.5 (20260411.2331)
 -->
<!-- Title: CmdProcessorDITcpBuild Pages: 1 -->
<svg width="656pt" height="370pt"
 viewBox="0.00 0.00 656.00 370.00" xmlns="http://www.w3.org/2000/svg" xmlns:xlink="http://www.w3.org/1999/xlink">
<g id="graph0" class="graph" transform="scale(1 1) rotate(0) translate(14.4 355.53)">
<title>CmdProcessorDITcpBuild</title>
<g id="clust1" class="cluster">
<title>cluster_entrypoint</title>
<path fill="#f8fafc" stroke="#cbd5e1" d="M20,-235.67C20,-235.67 304,-235.67 304,-235.67 310,-235.67 316,-241.67 316,-247.67 316,-247.67 316,-321.13 316,-321.13 316,-327.13 310,-333.13 304,-333.13 304,-333.13 20,-333.13 20,-333.13 14,-333.13 8,-327.13 8,-321.13 8,-321.13 8,-247.67 8,-247.67 8,-241.67 14,-235.67 20,-235.67"/>
<text xml:space="preserve" text-anchor="middle" x="162" y="-316.78" font-family="Pretendard" font-size="13.00">주입된 진입점 구현체: TCP</text>
</g>
<g id="clust2" class="cluster">
<title>cluster_core</title>
<path fill="#eff6ff" stroke="#93c5fd" d="M176,-8C176,-8 496,-8 496,-8 502,-8 508,-14 508,-20 508,-20 508,-196.42 508,-196.42 508,-202.42 502,-208.42 496,-208.42 496,-208.42 176,-208.42 176,-208.42 170,-208.42 164,-202.42 164,-196.42 164,-196.42 164,-20 164,-20 164,-14 170,-8 176,-8"/>
<text xml:space="preserve" text-anchor="middle" x="336" y="-192.07" font-family="Pretendard" font-size="13.00">코어 구현체: 변경 없음</text>
</g>
<!-- clients -->
<g id="node1" class="node">
<title>clients</title>
<path fill="white" stroke="#64748b" d="M86.33,-290.15C86.33,-290.15 37.67,-290.15 37.67,-290.15 31.67,-290.15 25.67,-284.15 25.67,-278.15 25.67,-278.15 25.67,-266.15 25.67,-266.15 25.67,-260.15 31.67,-254.15 37.67,-254.15 37.67,-254.15 86.33,-254.15 86.33,-254.15 92.33,-254.15 98.33,-260.15 98.33,-266.15 98.33,-266.15 98.33,-278.15 98.33,-278.15 98.33,-284.15 92.33,-290.15 86.33,-290.15"/>
<text xml:space="preserve" text-anchor="middle" x="62" y="-268.83" font-family="Pretendard" font-size="11.00">외부 clients</text>
</g>
<!-- tcp_adapter -->
<g id="node2" class="node">
<title>tcp_adapter</title>
<path fill="white" stroke="#64748b" d="M285.95,-290.63C285.95,-290.63 190.05,-290.63 190.05,-290.63 184.05,-290.63 178.05,-284.63 178.05,-278.63 178.05,-278.63 178.05,-265.67 178.05,-265.67 178.05,-259.67 184.05,-253.67 190.05,-253.67 190.05,-253.67 285.95,-253.67 285.95,-253.67 291.95,-253.67 297.95,-259.67 297.95,-265.67 297.95,-265.67 297.95,-278.63 297.95,-278.63 297.95,-284.63 291.95,-290.63 285.95,-290.63"/>
<text xml:space="preserve" text-anchor="middle" x="238" y="-273.7" font-family="Pretendard" font-size="11.00">TCP adapter</text>
<text xml:space="preserve" text-anchor="middle" x="238" y="-261.7" font-family="Pretendard" font-size="11.00">connection + JSONL</text>
</g>
<!-- clients&#45;&gt;tcp_adapter -->
<g id="edge1" class="edge">
<title>clients&#45;&gt;tcp_adapter</title>
<path fill="none" stroke="#475569" d="M98.78,-272.15C122.29,-272.15 145.81,-272.15 169.32,-272.15"/>
<polygon fill="#475569" stroke="#475569" points="169.12,-274.6 176.12,-272.15 169.12,-269.7 169.12,-274.6"/>
</g>
<!-- main_core -->
<g id="node3" class="node">
<title>main_core</title>
<path fill="white" stroke="#64748b" d="M282.2,-164.79C282.2,-164.79 193.8,-164.79 193.8,-164.79 187.8,-164.79 181.8,-158.79 181.8,-152.79 181.8,-152.79 181.8,-137.58 181.8,-137.58 181.8,-131.58 187.8,-125.58 193.8,-125.58 193.8,-125.58 282.2,-125.58 282.2,-125.58 288.2,-125.58 294.2,-131.58 294.2,-137.58 294.2,-137.58 294.2,-152.79 294.2,-152.79 294.2,-158.79 288.2,-164.79 282.2,-164.79"/>
<text xml:space="preserve" text-anchor="middle" x="238" y="-147.87" font-family="Pretendard" font-size="11.00">main / request core</text>
<text xml:space="preserve" text-anchor="middle" x="238" y="-135.87" font-family="Pretendard" font-size="11.00">공통 요청 처리 흐름</text>
</g>
<!-- tcp_adapter&#45;&gt;main_core -->
<g id="edge2" class="edge">
<title>tcp_adapter&#45;&gt;main_core</title>
<path fill="none" stroke="#475569" d="M238,-253.25C238,-232.45 238,-197.91 238,-173.7"/>
<polygon fill="#475569" stroke="#475569" points="240.45,-173.8 238,-166.8 235.55,-173.8 240.45,-173.8"/>
<text xml:space="preserve" text-anchor="middle" x="266.88" y="-218.17" font-family="Pretendard" font-size="10.00">CmdRequest</text>
</g>
<!-- contract -->
<g id="node4" class="node">
<title>contract</title>
<path fill="#dbeafe" stroke="#60a5fa" d="M478.45,-165.92C478.45,-165.92 385.55,-165.92 385.55,-165.92 379.55,-165.92 373.55,-159.92 373.55,-153.92 373.55,-153.92 373.55,-136.46 373.55,-136.46 373.55,-130.46 379.55,-124.46 385.55,-124.46 385.55,-124.46 478.45,-124.46 478.45,-124.46 484.45,-124.46 490.45,-130.46 490.45,-136.46 490.45,-136.46 490.45,-153.92 490.45,-153.92 490.45,-159.92 484.45,-165.92 478.45,-165.92"/>
<text xml:space="preserve" text-anchor="middle" x="432" y="-148.99" font-family="Pretendard" font-size="11.00">CmdProcessor 계약</text>
<text xml:space="preserve" text-anchor="middle" x="432" y="-134.74" font-family="Pretendard" font-size="11.00">요청 제출 + 응답 수신</text>
</g>
<!-- main_core&#45;&gt;contract -->
<g id="edge3" class="edge">
<title>main_core&#45;&gt;contract</title>
<path fill="none" stroke="#475569" d="M294.46,-145.19C317.93,-145.19 341.4,-145.19 364.87,-145.19"/>
<polygon fill="#475569" stroke="#475569" points="364.65,-147.64 371.65,-145.19 364.65,-142.74 364.65,-147.64"/>
</g>
<!-- db -->
<g id="node5" class="node">
<title>db</title>
<path fill="#ffffff" stroke="#cbd5e1" d="M461.95,-65.21C461.95,-65.21 402.05,-65.21 402.05,-65.21 396.05,-65.21 390.05,-59.21 390.05,-53.21 390.05,-53.21 390.05,-38 390.05,-38 390.05,-32 396.05,-26 402.05,-26 402.05,-26 461.95,-26 461.95,-26 467.95,-26 473.95,-32 473.95,-38 473.95,-38 473.95,-53.21 473.95,-53.21 473.95,-59.21 467.95,-65.21 461.95,-65.21"/>
<text xml:space="preserve" text-anchor="middle" x="432" y="-48.28" font-family="Pretendard" font-size="11.00">DB BlackBox</text>
<text xml:space="preserve" text-anchor="middle" x="432" y="-36.28" font-family="Pretendard" font-size="11.00">SQL 실행</text>
</g>
<!-- contract&#45;&gt;db -->
<g id="edge4" class="edge">
<title>contract&#45;&gt;db</title>
<path fill="none" stroke="#475569" d="M432,-123.97C432,-109.46 432,-89.75 432,-73.86"/>
<polygon fill="#475569" stroke="#475569" points="434.45,-73.99 432,-66.99 429.55,-73.99 434.45,-73.99"/>
</g>
<!-- response -->
<g id="node6" class="node">
<title>response</title>
<path fill="white" stroke="#64748b" d="M615.58,-64.09C615.58,-64.09 538.42,-64.09 538.42,-64.09 532.42,-64.09 526.42,-58.09 526.42,-52.09 526.42,-52.09 526.42,-39.12 526.42,-39.12 526.42,-33.12 532.42,-27.13 538.42,-27.13 538.42,-27.13 615.58,-27.13 615.58,-27.13 621.58,-27.13 627.58,-33.13 627.58,-39.13 627.58,-39.13 627.58,-52.09 627.58,-52.09 627.58,-58.09 621.58,-64.09 615.58,-64.09"/>
<text xml:space="preserve" text-anchor="middle" x="577" y="-47.16" font-family="Pretendard" font-size="11.00">TCP response</text>
<text xml:space="preserve" text-anchor="middle" x="577" y="-35.16" font-family="Pretendard" font-size="11.00">same connection</text>
</g>
<!-- contract&#45;&gt;response -->
<g id="edge5" class="edge">
<title>contract&#45;&gt;response</title>
<path fill="none" stroke="#475569" stroke-dasharray="5,2" d="M462.04,-123.97C485.75,-108.02 518.81,-85.77 543.39,-69.22"/>
<polygon fill="#475569" stroke="#475569" points="544.71,-71.29 549.15,-65.35 541.98,-67.22 544.71,-71.29"/>
<text xml:space="preserve" text-anchor="middle" x="545.81" y="-90.96" font-family="Pretendard" font-size="10.00">CmdResponse</text>
</g>
</g>
</svg>
