<?xml version="1.0" encoding="UTF-8" standalone="no"?>
<!DOCTYPE svg PUBLIC "-//W3C//DTD SVG 1.1//EN"
 "http://www.w3.org/Graphics/SVG/1.1/DTD/svg11.dtd">
<!-- Generated by graphviz version 14.1.5 (20260411.2331)
 -->
<!-- Title: ClientCliDbmsOverallArchitecture Pages: 1 -->
<svg width="2012pt" height="445pt"
 viewBox="0.00 0.00 2012.00 445.00" xmlns="http://www.w3.org/2000/svg" xmlns:xlink="http://www.w3.org/1999/xlink">
<g id="graph0" class="graph" transform="scale(1 1) rotate(0) translate(14.4 430.4)">
<title>ClientCliDbmsOverallArchitecture</title>
<g id="clust1" class="cluster">
<title>cluster_client_cli</title>
<path fill="#f8fafc" stroke="#cbd5e1" d="M20,-12C20,-12 642.48,-12 642.48,-12 648.48,-12 654.48,-18 654.48,-24 654.48,-24 654.48,-110 654.48,-110 654.48,-116 648.48,-122 642.48,-122 642.48,-122 20,-122 20,-122 14,-122 8,-116 8,-110 8,-110 8,-24 8,-24 8,-18 14,-12 20,-12"/>
<text xml:space="preserve" text-anchor="middle" x="331.24" y="-105.65" font-family="Pretendard" font-size="13.00">Client CLI</text>
</g>
<g id="clust2" class="cluster">
<title>cluster_protocol</title>
<path fill="#f0f9ff" stroke="#bae6fd" d="M766.73,-28C766.73,-28 914.39,-28 914.39,-28 920.39,-28 926.39,-34 926.39,-40 926.39,-40 926.39,-113 926.39,-113 926.39,-119 920.39,-125 914.39,-125 914.39,-125 766.73,-125 766.73,-125 760.73,-125 754.73,-119 754.73,-113 754.73,-113 754.73,-40 754.73,-40 754.73,-34 760.73,-28 766.73,-28"/>
<text xml:space="preserve" text-anchor="middle" x="840.56" y="-108.65" font-family="Pretendard" font-size="13.00">TCP / JSONL 경계</text>
</g>
<g id="clust3" class="cluster">
<title>cluster_dbms</title>
<path fill="#f1f5f9" stroke="#94a3b8" d="M1056.14,-8C1056.14,-8 1962.78,-8 1962.78,-8 1968.78,-8 1974.78,-14 1974.78,-20 1974.78,-20 1974.78,-396 1974.78,-396 1974.78,-402 1968.78,-408 1962.78,-408 1962.78,-408 1056.14,-408 1056.14,-408 1050.14,-408 1044.14,-402 1044.14,-396 1044.14,-396 1044.14,-20 1044.14,-20 1044.14,-14 1050.14,-8 1056.14,-8"/>
<text xml:space="preserve" text-anchor="middle" x="1509.46" y="-391.65" font-family="Pretendard" font-size="13.00">DBMS</text>
</g>
<g id="clust4" class="cluster">
<title>cluster_tcp</title>
<path fill="#eff6ff" stroke="#93c5fd" d="M1076.14,-28C1076.14,-28 1230.55,-28 1230.55,-28 1236.55,-28 1242.55,-34 1242.55,-40 1242.55,-40 1242.55,-354 1242.55,-354 1242.55,-360 1236.55,-366 1230.55,-366 1230.55,-366 1076.14,-366 1076.14,-366 1070.14,-366 1064.14,-360 1064.14,-354 1064.14,-354 1064.14,-40 1064.14,-40 1064.14,-34 1070.14,-28 1076.14,-28"/>
<text xml:space="preserve" text-anchor="middle" x="1153.34" y="-349.65" font-family="Pretendard" font-size="13.00">TCPCmdProcessor</text>
</g>
<g id="clust5" class="cluster">
<title>cluster_contract</title>
<path fill="#ffffff" stroke="#bfdbfe" d="M1372.3,-47C1372.3,-47 1516.46,-47 1516.46,-47 1522.46,-47 1528.46,-53 1528.46,-59 1528.46,-59 1528.46,-354 1528.46,-354 1528.46,-360 1522.46,-366 1516.46,-366 1516.46,-366 1372.3,-366 1372.3,-366 1366.3,-366 1360.3,-360 1360.3,-354 1360.3,-354 1360.3,-59 1360.3,-59 1360.3,-53 1366.3,-47 1372.3,-47"/>
<text xml:space="preserve" text-anchor="middle" x="1444.38" y="-350.6" font-family="Pretendard" font-size="12.00">CmdProcessor 공통 계약</text>
</g>
<g id="clust6" class="cluster">
<title>cluster_engine</title>
<path fill="#ffffff" stroke="#bae6fd" d="M1575.46,-163C1575.46,-163 1707.62,-163 1707.62,-163 1713.62,-163 1719.62,-169 1719.62,-175 1719.62,-175 1719.62,-236 1719.62,-236 1719.62,-242 1713.62,-248 1707.62,-248 1707.62,-248 1575.46,-248 1575.46,-248 1569.46,-248 1563.46,-242 1563.46,-236 1563.46,-236 1563.46,-175 1563.46,-175 1563.46,-169 1569.46,-163 1575.46,-163"/>
<text xml:space="preserve" text-anchor="middle" x="1641.54" y="-232.6" font-family="Pretendard" font-size="12.00">EngineCmdProcessor</text>
</g>
<g id="clust7" class="cluster">
<title>cluster_sql</title>
<path fill="#ffffff" stroke="#cbd5e1" d="M1805.37,-163C1805.37,-163 1942.78,-163 1942.78,-163 1948.78,-163 1954.78,-169 1954.78,-175 1954.78,-175 1954.78,-354 1954.78,-354 1954.78,-360 1948.78,-366 1942.78,-366 1942.78,-366 1805.37,-366 1805.37,-366 1799.37,-366 1793.37,-360 1793.37,-354 1793.37,-354 1793.37,-175 1793.37,-175 1793.37,-169 1799.37,-163 1805.37,-163"/>
<text xml:space="preserve" text-anchor="middle" x="1874.07" y="-350.6" font-family="Pretendard" font-size="12.00">SQL 실행 계층</text>
</g>
<!-- terminal -->
<g id="node1" class="node">
<title>terminal</title>
<path fill="white" stroke="#64748b" d="M129.41,-82.61C129.41,-82.61 38,-82.61 38,-82.61 32,-82.61 26,-76.61 26,-70.61 26,-70.61 26,-55.39 26,-55.39 26,-49.39 32,-43.39 38,-43.39 38,-43.39 129.41,-43.39 129.41,-43.39 135.41,-43.39 141.41,-49.39 141.41,-55.39 141.41,-55.39 141.41,-70.61 141.41,-70.61 141.41,-76.61 135.41,-82.61 129.41,-82.61"/>
<text xml:space="preserve" text-anchor="middle" x="83.7" y="-65.67" font-family="Pretendard" font-size="11.00">terminal</text>
<text xml:space="preserve" text-anchor="middle" x="83.7" y="-53.67" font-family="Pretendard" font-size="11.00">SQL 입력 / 결과 출력</text>
</g>
<!-- cli -->
<g id="node2" class="node">
<title>cli</title>
<path fill="white" stroke="#64748b" d="M401.32,-82.48C401.32,-82.48 263.41,-82.48 263.41,-82.48 257.41,-82.48 251.41,-76.48 251.41,-70.48 251.41,-70.48 251.41,-57.52 251.41,-57.52 251.41,-51.52 257.41,-45.52 263.41,-45.52 263.41,-45.52 401.32,-45.52 401.32,-45.52 407.32,-45.52 413.32,-51.52 413.32,-57.52 413.32,-57.52 413.32,-70.48 413.32,-70.48 413.32,-76.48 407.32,-82.48 401.32,-82.48"/>
<text xml:space="preserve" text-anchor="middle" x="332.36" y="-65.55" font-family="Pretendard" font-size="11.00">client CLI</text>
<text xml:space="preserve" text-anchor="middle" x="332.36" y="-53.55" font-family="Pretendard" font-size="11.00">prompt + command assembly</text>
</g>
<!-- terminal&#45;&gt;cli -->
<g id="edge1" class="edge">
<title>terminal&#45;&gt;cli</title>
<path fill="none" stroke="#475569" d="M149.76,-63.26C178.22,-63.38 212.06,-63.52 242.77,-63.64"/>
<polygon fill="#475569" stroke="#475569" points="150.13,-60.82 143.12,-63.24 150.11,-65.72 150.13,-60.82"/>
<polygon fill="#475569" stroke="#475569" points="242.4,-66.09 249.41,-63.67 242.42,-61.19 242.4,-66.09"/>
<text xml:space="preserve" text-anchor="middle" x="196.41" y="-66.03" font-family="Pretendard" font-size="10.00">콘솔 입출력</text>
</g>
<!-- json_client -->
<g id="node3" class="node">
<title>json_client</title>
<path fill="white" stroke="#64748b" d="M624.48,-82.48C624.48,-82.48 553.32,-82.48 553.32,-82.48 547.32,-82.48 541.32,-76.48 541.32,-70.48 541.32,-70.48 541.32,-57.52 541.32,-57.52 541.32,-51.52 547.32,-45.52 553.32,-45.52 553.32,-45.52 624.48,-45.52 624.48,-45.52 630.48,-45.52 636.48,-51.52 636.48,-57.52 636.48,-57.52 636.48,-70.48 636.48,-70.48 636.48,-76.48 630.48,-82.48 624.48,-82.48"/>
<text xml:space="preserve" text-anchor="middle" x="588.9" y="-65.55" font-family="Pretendard" font-size="11.00">JSONL adapter</text>
<text xml:space="preserve" text-anchor="middle" x="588.9" y="-53.55" font-family="Pretendard" font-size="11.00">id / op / sql</text>
</g>
<!-- cli&#45;&gt;json_client -->
<g id="edge2" class="edge">
<title>cli&#45;&gt;json_client</title>
<path fill="none" stroke="#475569" d="M422.01,-64C458.8,-64 500.34,-64 532.65,-64"/>
<polygon fill="#475569" stroke="#475569" points="422.07,-61.55 415.07,-64 422.07,-66.45 422.07,-61.55"/>
<polygon fill="#475569" stroke="#475569" points="532.57,-66.45 539.57,-64 532.57,-61.55 532.57,-66.45"/>
<text xml:space="preserve" text-anchor="middle" x="477.32" y="-66.7" font-family="Pretendard" font-size="10.00">요청 / 응답 변환</text>
</g>
<!-- tcp_link -->
<g id="node4" class="node">
<title>tcp_link</title>
<path fill="white" stroke="#64748b" d="M896.39,-82.48C896.39,-82.48 784.73,-82.48 784.73,-82.48 778.73,-82.48 772.73,-76.48 772.73,-70.48 772.73,-70.48 772.73,-57.52 772.73,-57.52 772.73,-51.52 778.73,-45.52 784.73,-45.52 784.73,-45.52 896.39,-45.52 896.39,-45.52 902.39,-45.52 908.39,-51.52 908.39,-57.52 908.39,-57.52 908.39,-70.48 908.39,-70.48 908.39,-76.48 902.39,-82.48 896.39,-82.48"/>
<text xml:space="preserve" text-anchor="middle" x="840.56" y="-65.55" font-family="Pretendard" font-size="11.00">TCP connection</text>
<text xml:space="preserve" text-anchor="middle" x="840.56" y="-53.55" font-family="Pretendard" font-size="11.00">newline&#45;delimited JSON</text>
</g>
<!-- json_client&#45;&gt;tcp_link -->
<g id="edge3" class="edge">
<title>json_client&#45;&gt;tcp_link</title>
<path fill="none" stroke="#475569" d="M636.86,-64C672.67,-64 722.72,-64 764.12,-64"/>
<polygon fill="#475569" stroke="#475569" points="764.04,-66.45 771.04,-64 764.04,-61.55 764.04,-66.45"/>
<text xml:space="preserve" text-anchor="middle" x="704.6" y="-65.75" font-family="Pretendard" font-size="10.00">JSONL request</text>
</g>
<!-- tcp_link&#45;&gt;json_client -->
<g id="edge18" class="edge">
<title>tcp_link&#45;&gt;json_client</title>
<path fill="none" stroke="#475569" stroke-dasharray="5,2" d="M772.55,-64C732.7,-64 682.75,-64 645.17,-64"/>
<polygon fill="#475569" stroke="#475569" points="645.37,-61.55 638.37,-64 645.37,-66.45 645.37,-61.55"/>
<text xml:space="preserve" text-anchor="middle" x="704.6" y="-44.5" font-family="Pretendard" font-size="10.00">JSONL response</text>
</g>
<!-- tcp_server -->
<g id="node5" class="node">
<title>tcp_server</title>
<path fill="white" stroke="#64748b" d="M1200.92,-82.48C1200.92,-82.48 1105.76,-82.48 1105.76,-82.48 1099.76,-82.48 1093.76,-76.48 1093.76,-70.48 1093.76,-70.48 1093.76,-57.52 1093.76,-57.52 1093.76,-51.52 1099.76,-45.52 1105.76,-45.52 1105.76,-45.52 1200.92,-45.52 1200.92,-45.52 1206.92,-45.52 1212.92,-51.52 1212.92,-57.52 1212.92,-57.52 1212.92,-70.48 1212.92,-70.48 1212.92,-76.48 1206.92,-82.48 1200.92,-82.48"/>
<text xml:space="preserve" text-anchor="middle" x="1153.34" y="-65.55" font-family="Pretendard" font-size="11.00">listener + connection</text>
<text xml:space="preserve" text-anchor="middle" x="1153.34" y="-53.55" font-family="Pretendard" font-size="11.00">accept / read / write</text>
</g>
<!-- tcp_link&#45;&gt;tcp_server -->
<g id="edge4" class="edge">
<title>tcp_link&#45;&gt;tcp_server</title>
<path fill="none" stroke="#475569" d="M908.61,-64C960.78,-64 1032.84,-64 1085.07,-64"/>
<polygon fill="#475569" stroke="#475569" points="1084.76,-66.45 1091.76,-64 1084.76,-61.55 1084.76,-66.45"/>
<text xml:space="preserve" text-anchor="middle" x="987.76" y="-65.75" font-family="Pretendard" font-size="10.00">connect + request line</text>
</g>
<!-- tcp_server&#45;&gt;tcp_link -->
<g id="edge17" class="edge">
<title>tcp_server&#45;&gt;tcp_link</title>
<path fill="none" stroke="#475569" stroke-dasharray="5,2" d="M1093.27,-64C1043.18,-64 971.04,-64 916.82,-64"/>
<polygon fill="#475569" stroke="#475569" points="917.13,-61.55 910.13,-64 917.13,-66.45 917.13,-61.55"/>
<text xml:space="preserve" text-anchor="middle" x="987.76" y="-44.5" font-family="Pretendard" font-size="10.00">response line</text>
</g>
<!-- tcp_adapter -->
<g id="node6" class="node">
<title>tcp_adapter</title>
<path fill="white" stroke="#64748b" d="M1212.55,-198.48C1212.55,-198.48 1094.14,-198.48 1094.14,-198.48 1088.14,-198.48 1082.14,-192.48 1082.14,-186.48 1082.14,-186.48 1082.14,-173.52 1082.14,-173.52 1082.14,-167.52 1088.14,-161.52 1094.14,-161.52 1094.14,-161.52 1212.55,-161.52 1212.55,-161.52 1218.55,-161.52 1224.55,-167.52 1224.55,-173.52 1224.55,-173.52 1224.55,-186.48 1224.55,-186.48 1224.55,-192.48 1218.55,-198.48 1212.55,-198.48"/>
<text xml:space="preserve" text-anchor="middle" x="1153.34" y="-181.55" font-family="Pretendard" font-size="11.00">req / res adapter</text>
<text xml:space="preserve" text-anchor="middle" x="1153.34" y="-169.55" font-family="Pretendard" font-size="11.00">JSONL &lt;&#45;&gt; CmdRequest</text>
</g>
<!-- tcp_server&#45;&gt;tcp_adapter -->
<g id="edge5" class="edge">
<title>tcp_server&#45;&gt;tcp_adapter</title>
<path fill="none" stroke="#475569" d="M1177.39,-82.58C1202.85,-106.89 1204.76,-131.2 1183.12,-155.51"/>
<polygon fill="#475569" stroke="#475569" points="1181.62,-153.53 1178.51,-160.27 1185.14,-156.94 1181.62,-153.53"/>
</g>
<!-- tcp_state -->
<g id="node7" class="node">
<title>tcp_state</title>
<path fill="white" stroke="#64748b" d="M1190.42,-326.48C1190.42,-326.48 1116.26,-326.48 1116.26,-326.48 1110.26,-326.48 1104.26,-320.48 1104.26,-314.48 1104.26,-314.48 1104.26,-289.52 1104.26,-289.52 1104.26,-283.52 1110.26,-277.52 1116.26,-277.52 1116.26,-277.52 1190.42,-277.52 1190.42,-277.52 1196.42,-277.52 1202.42,-283.52 1202.42,-289.52 1202.42,-289.52 1202.42,-314.48 1202.42,-314.48 1202.42,-320.48 1196.42,-326.48 1190.42,-326.48"/>
<text xml:space="preserve" text-anchor="middle" x="1153.34" y="-309.55" font-family="Pretendard" font-size="11.00">connection state</text>
<text xml:space="preserve" text-anchor="middle" x="1153.34" y="-297.55" font-family="Pretendard" font-size="11.00">client counters</text>
<text xml:space="preserve" text-anchor="middle" x="1153.34" y="-285.55" font-family="Pretendard" font-size="11.00">in&#45;flight ids</text>
</g>
<!-- tcp_server&#45;&gt;tcp_state -->
<g id="edge11" class="edge">
<title>tcp_server&#45;&gt;tcp_state</title>
<path fill="none" stroke="#475569" stroke-dasharray="1,5" d="M1127.35,-82.9C1082.13,-115.77 993.76,-180 993.76,-180 993.76,-180 1074.42,-241.66 1121.05,-277.31"/>
<text xml:space="preserve" text-anchor="middle" x="987.76" y="-176.5" font-family="Pretendard" font-size="10.00">connection 추적</text>
</g>
<!-- tcp_adapter&#45;&gt;tcp_server -->
<g id="edge16" class="edge">
<title>tcp_adapter&#45;&gt;tcp_server</title>
<path fill="none" stroke="#475569" stroke-dasharray="5,2" d="M1129.23,-161.35C1103.82,-137.04 1101.95,-112.73 1123.63,-88.42"/>
<polygon fill="#475569" stroke="#475569" points="1125.14,-90.4 1128.25,-83.66 1121.62,-86.98 1125.14,-90.4"/>
</g>
<!-- tcp_adapter&#45;&gt;tcp_state -->
<g id="edge12" class="edge">
<title>tcp_adapter&#45;&gt;tcp_state</title>
<path fill="none" stroke="#475569" stroke-dasharray="1,5" d="M1153.34,-198.8C1153.34,-219.78 1153.34,-253.84 1153.34,-277.05"/>
<text xml:space="preserve" text-anchor="middle" x="1144.34" y="-234.5" font-family="Pretendard" font-size="10.00">in&#45;flight 등록</text>
</g>
<!-- request -->
<g id="node8" class="node">
<title>request</title>
<path fill="white" stroke="#64748b" d="M1474.33,-97C1474.33,-97 1414.42,-97 1414.42,-97 1408.42,-97 1402.42,-91 1402.42,-85 1402.42,-85 1402.42,-73 1402.42,-73 1402.42,-67 1408.42,-61 1414.42,-61 1414.42,-61 1474.33,-61 1474.33,-61 1480.33,-61 1486.33,-67 1486.33,-73 1486.33,-73 1486.33,-85 1486.33,-85 1486.33,-91 1480.33,-97 1474.33,-97"/>
<text xml:space="preserve" text-anchor="middle" x="1444.38" y="-74.55" font-family="Pretendard" font-size="11.00">CmdRequest</text>
</g>
<!-- tcp_adapter&#45;&gt;request -->
<g id="edge6" class="edge">
<title>tcp_adapter&#45;&gt;request</title>
<path fill="none" stroke="#475569" d="M1208.37,-161.12C1261.72,-142.48 1342.61,-114.21 1394.21,-96.18"/>
<polygon fill="#475569" stroke="#475569" points="1395,-98.5 1400.8,-93.88 1393.39,-93.87 1395,-98.5"/>
<text xml:space="preserve" text-anchor="middle" x="1299.42" y="-146.95" font-family="Pretendard" font-size="10.00">CmdRequest 채우기</text>
</g>
<!-- api -->
<g id="node9" class="node">
<title>api</title>
<path fill="white" stroke="#64748b" d="M1502.46,-213.48C1502.46,-213.48 1386.3,-213.48 1386.3,-213.48 1380.3,-213.48 1374.3,-207.48 1374.3,-201.48 1374.3,-201.48 1374.3,-188.52 1374.3,-188.52 1374.3,-182.52 1380.3,-176.52 1386.3,-176.52 1386.3,-176.52 1502.46,-176.52 1502.46,-176.52 1508.46,-176.52 1514.46,-182.52 1514.46,-188.52 1514.46,-188.52 1514.46,-201.48 1514.46,-201.48 1514.46,-207.48 1508.46,-213.48 1502.46,-213.48"/>
<text xml:space="preserve" text-anchor="middle" x="1444.38" y="-196.55" font-family="Pretendard" font-size="11.00">CmdProcessor interface</text>
<text xml:space="preserve" text-anchor="middle" x="1444.38" y="-184.55" font-family="Pretendard" font-size="11.00">acquire / submit / release</text>
</g>
<!-- request&#45;&gt;api -->
<g id="edge7" class="edge">
<title>request&#45;&gt;api</title>
<path fill="none" stroke="#475569" d="M1444.38,-97.38C1444.38,-116.36 1444.38,-146.18 1444.38,-167.87"/>
<polygon fill="#475569" stroke="#475569" points="1441.93,-167.81 1444.38,-174.81 1446.83,-167.81 1441.93,-167.81"/>
<text xml:space="preserve" text-anchor="middle" x="1435.75" y="-132.88" font-family="Pretendard" font-size="10.00">submit</text>
</g>
<!-- api&#45;&gt;tcp_adapter -->
<g id="edge15" class="edge">
<title>api&#45;&gt;tcp_adapter</title>
<path fill="none" stroke="#475569" stroke-dasharray="5,2" d="M1373.98,-191.4C1331.53,-189.2 1277.11,-186.37 1233.06,-184.09"/>
<polygon fill="#475569" stroke="#475569" points="1233.31,-181.64 1226.19,-183.73 1233.06,-186.54 1233.31,-181.64"/>
<text xml:space="preserve" text-anchor="middle" x="1299.42" y="-191.47" font-family="Pretendard" font-size="10.00">callback</text>
</g>
<!-- engine -->
<g id="node11" class="node">
<title>engine</title>
<path fill="white" stroke="#64748b" d="M1693.62,-213.48C1693.62,-213.48 1589.46,-213.48 1589.46,-213.48 1583.46,-213.48 1577.46,-207.48 1577.46,-201.48 1577.46,-201.48 1577.46,-188.52 1577.46,-188.52 1577.46,-182.52 1583.46,-176.52 1589.46,-176.52 1589.46,-176.52 1693.62,-176.52 1693.62,-176.52 1699.62,-176.52 1705.62,-182.52 1705.62,-188.52 1705.62,-188.52 1705.62,-201.48 1705.62,-201.48 1705.62,-207.48 1699.62,-213.48 1693.62,-213.48"/>
<text xml:space="preserve" text-anchor="middle" x="1641.54" y="-196.55" font-family="Pretendard" font-size="11.00">queue + worker model</text>
<text xml:space="preserve" text-anchor="middle" x="1641.54" y="-184.55" font-family="Pretendard" font-size="11.00">planning / dispatch</text>
</g>
<!-- api&#45;&gt;engine -->
<g id="edge8" class="edge">
<title>api&#45;&gt;engine</title>
<path fill="none" stroke="#475569" d="M1514.74,-195C1532.41,-195 1551.43,-195 1569.2,-195"/>
<polygon fill="#475569" stroke="#475569" points="1568.75,-197.45 1575.75,-195 1568.75,-192.55 1568.75,-197.45"/>
</g>
<!-- response -->
<g id="node10" class="node">
<title>response</title>
<path fill="white" stroke="#64748b" d="M1478.46,-329C1478.46,-329 1410.3,-329 1410.3,-329 1404.3,-329 1398.3,-323 1398.3,-317 1398.3,-317 1398.3,-305 1398.3,-305 1398.3,-299 1404.3,-293 1410.3,-293 1410.3,-293 1478.46,-293 1478.46,-293 1484.46,-293 1490.46,-299 1490.46,-305 1490.46,-305 1490.46,-317 1490.46,-317 1490.46,-323 1484.46,-329 1478.46,-329"/>
<text xml:space="preserve" text-anchor="middle" x="1444.38" y="-306.55" font-family="Pretendard" font-size="11.00">CmdResponse</text>
</g>
<!-- response&#45;&gt;api -->
<g id="edge14" class="edge">
<title>response&#45;&gt;api</title>
<path fill="none" stroke="#475569" stroke-dasharray="5,2" d="M1444.38,-292.73C1444.38,-269.13 1444.38,-245.53 1444.38,-221.93"/>
<polygon fill="#475569" stroke="#475569" points="1446.83,-222.09 1444.38,-215.09 1441.93,-222.09 1446.83,-222.09"/>
</g>
<!-- sql_core -->
<g id="node12" class="node">
<title>sql_core</title>
<path fill="white" stroke="#64748b" d="M1928.78,-213C1928.78,-213 1819.37,-213 1819.37,-213 1813.37,-213 1807.37,-207 1807.37,-201 1807.37,-201 1807.37,-189 1807.37,-189 1807.37,-183 1813.37,-177 1819.37,-177 1819.37,-177 1928.78,-177 1928.78,-177 1934.78,-177 1940.78,-183 1940.78,-189 1940.78,-189 1940.78,-201 1940.78,-201 1940.78,-207 1934.78,-213 1928.78,-213"/>
<text xml:space="preserve" text-anchor="middle" x="1874.07" y="-190.55" font-family="Pretendard" font-size="11.00">lexer / parser / executor</text>
</g>
<!-- engine&#45;&gt;sql_core -->
<g id="edge9" class="edge">
<title>engine&#45;&gt;sql_core</title>
<path fill="none" stroke="#475569" d="M1705.84,-195C1734.59,-195 1768.81,-195 1798.77,-195"/>
<polygon fill="#475569" stroke="#475569" points="1798.59,-197.45 1805.59,-195 1798.59,-192.55 1798.59,-197.45"/>
<text xml:space="preserve" text-anchor="middle" x="1756.49" y="-197.5" font-family="Pretendard" font-size="10.00">SQL 처리</text>
</g>
<!-- sql_core&#45;&gt;response -->
<g id="edge13" class="edge">
<title>sql_core&#45;&gt;response</title>
<path fill="none" stroke="#475569" stroke-dasharray="5,2" d="M1839.03,-213.49C1769.78,-250.04 1622.04,-328 1622.04,-328 1622.04,-328 1551.03,-321.21 1498.8,-316.21"/>
<polygon fill="#475569" stroke="#475569" points="1499.3,-313.79 1492.1,-315.57 1498.84,-318.67 1499.3,-313.79"/>
<text xml:space="preserve" text-anchor="middle" x="1641.54" y="-330.5" font-family="Pretendard" font-size="10.00">실행 결과</text>
</g>
<!-- storage -->
<g id="node13" class="node">
<title>storage</title>
<path fill="white" stroke="#64748b" d="M1906.28,-329.48C1906.28,-329.48 1841.87,-329.48 1841.87,-329.48 1835.87,-329.48 1829.87,-323.48 1829.87,-317.48 1829.87,-317.48 1829.87,-304.52 1829.87,-304.52 1829.87,-298.52 1835.87,-292.52 1841.87,-292.52 1841.87,-292.52 1906.28,-292.52 1906.28,-292.52 1912.28,-292.52 1918.28,-298.52 1918.28,-304.52 1918.28,-304.52 1918.28,-317.48 1918.28,-317.48 1918.28,-323.48 1912.28,-329.48 1906.28,-329.48"/>
<text xml:space="preserve" text-anchor="middle" x="1874.07" y="-312.55" font-family="Pretendard" font-size="11.00">B+Tree tables</text>
<text xml:space="preserve" text-anchor="middle" x="1874.07" y="-300.55" font-family="Pretendard" font-size="11.00">row storage</text>
</g>
<!-- sql_core&#45;&gt;storage -->
<g id="edge10" class="edge">
<title>sql_core&#45;&gt;storage</title>
<path fill="none" stroke="#475569" d="M1874.07,-221.79C1874.07,-240.44 1874.07,-265.23 1874.07,-283.94"/>
<polygon fill="#475569" stroke="#475569" points="1876.53,-221.89 1874.08,-214.89 1871.63,-221.89 1876.53,-221.89"/>
<polygon fill="#475569" stroke="#475569" points="1871.63,-283.81 1874.08,-290.81 1876.53,-283.81 1871.63,-283.81"/>
<text xml:space="preserve" text-anchor="middle" x="1865.45" y="-248.88" font-family="Pretendard" font-size="10.00">read / write</text>
</g>
</g>
</svg>
