<svg xmlns="http://www.w3.org/2000/svg" width="1180" height="720" viewBox="0 0 1180 720">
  <rect width="100%" height="100%" fill="#fafaf9" />
  <text x="90" y="38" font-size="28" font-weight="700" fill="#1c1917">Local 1M rows / 1M requests by worker count</text>
  <text x="90" y="62" font-size="16" fill="#57534e">Current code path, PK SELECT workload, throughput in k requests/sec</text>
  <rect x="90" y="70" width="1040" height="560" rx="16" fill="#ffffff" stroke="#e7e5e4" />
  <line x1="90" y1="630.0" x2="1130" y2="630.0" stroke="#d6d3d1" stroke-width="1" /><text x="78" y="635.0" text-anchor="end" font-size="15" fill="#44403c">0k</text><line x1="90" y1="518.0" x2="1130" y2="518.0" stroke="#d6d3d1" stroke-width="1" /><text x="78" y="523.0" text-anchor="end" font-size="15" fill="#44403c">74k</text><line x1="90" y1="406.0" x2="1130" y2="406.0" stroke="#d6d3d1" stroke-width="1" /><text x="78" y="411.0" text-anchor="end" font-size="15" fill="#44403c">148k</text><line x1="90" y1="294.0" x2="1130" y2="294.0" stroke="#d6d3d1" stroke-width="1" /><text x="78" y="299.0" text-anchor="end" font-size="15" fill="#44403c">222k</text><line x1="90" y1="182.0" x2="1130" y2="182.0" stroke="#d6d3d1" stroke-width="1" /><text x="78" y="187.0" text-anchor="end" font-size="15" fill="#44403c">296k</text><line x1="90" y1="70.0" x2="1130" y2="70.0" stroke="#d6d3d1" stroke-width="1" /><text x="78" y="75.0" text-anchor="end" font-size="15" fill="#44403c">370k</text><line x1="90.0" y1="70" x2="90.0" y2="630" stroke="#f5f5f4" stroke-width="1" /><text x="90.0" y="660" text-anchor="middle" font-size="15" fill="#44403c">1</text><line x1="194.0" y1="70" x2="194.0" y2="630" stroke="#f5f5f4" stroke-width="1" /><text x="194.0" y="660" text-anchor="middle" font-size="15" fill="#44403c">2</text><line x1="298.0" y1="70" x2="298.0" y2="630" stroke="#f5f5f4" stroke-width="1" /><text x="298.0" y="660" text-anchor="middle" font-size="15" fill="#44403c">3</text><line x1="402.0" y1="70" x2="402.0" y2="630" stroke="#f5f5f4" stroke-width="1" /><text x="402.0" y="660" text-anchor="middle" font-size="15" fill="#44403c">4</text><line x1="506.0" y1="70" x2="506.0" y2="630" stroke="#f5f5f4" stroke-width="1" /><text x="506.0" y="660" text-anchor="middle" font-size="15" fill="#44403c">5</text><line x1="610.0" y1="70" x2="610.0" y2="630" stroke="#f5f5f4" stroke-width="1" /><text x="610.0" y="660" text-anchor="middle" font-size="15" fill="#44403c">6</text><line x1="714.0" y1="70" x2="714.0" y2="630" stroke="#f5f5f4" stroke-width="1" /><text x="714.0" y="660" text-anchor="middle" font-size="15" fill="#44403c">7</text><line x1="818.0" y1="70" x2="818.0" y2="630" stroke="#f5f5f4" stroke-width="1" /><text x="818.0" y="660" text-anchor="middle" font-size="15" fill="#44403c">8</text><line x1="922.0" y1="70" x2="922.0" y2="630" stroke="#f5f5f4" stroke-width="1" /><text x="922.0" y="660" text-anchor="middle" font-size="15" fill="#44403c">16</text><line x1="1026.0" y1="70" x2="1026.0" y2="630" stroke="#f5f5f4" stroke-width="1" /><text x="1026.0" y="660" text-anchor="middle" font-size="15" fill="#44403c">24</text><line x1="1130.0" y1="70" x2="1130.0" y2="630" stroke="#f5f5f4" stroke-width="1" /><text x="1130.0" y="660" text-anchor="middle" font-size="15" fill="#44403c">32</text>
  <polygon points="90,630 90.0,597.8 194.0,496.2 298.0,462.6 402.0,399.6 506.0,347.0 610.0,311.2 714.0,344.1 818.0,248.2 922.0,70.0 1026.0,134.3 1130.0,215.9 1130,630" fill="#99f6e4" opacity="0.28" />
  <polyline points="90.0,597.8 194.0,496.2 298.0,462.6 402.0,399.6 506.0,347.0 610.0,311.2 714.0,344.1 818.0,248.2 922.0,70.0 1026.0,134.3 1130.0,215.9" fill="none" stroke="#0f766e" stroke-width="6" stroke-linecap="round" stroke-linejoin="round" />
  <circle cx="90.0" cy="597.8" r="6" fill="#0f766e" stroke="white" stroke-width="2" /><text x="90.0" y="583.8" text-anchor="middle" font-size="14" fill="#134e4a">21.3k</text><circle cx="194.0" cy="496.2" r="6" fill="#0f766e" stroke="white" stroke-width="2" /><text x="194.0" y="482.2" text-anchor="middle" font-size="14" fill="#134e4a">88.4k</text><circle cx="298.0" cy="462.6" r="6" fill="#0f766e" stroke="white" stroke-width="2" /><text x="298.0" y="448.6" text-anchor="middle" font-size="14" fill="#134e4a">110.6k</text><circle cx="402.0" cy="399.6" r="6" fill="#0f766e" stroke="white" stroke-width="2" /><text x="402.0" y="385.6" text-anchor="middle" font-size="14" fill="#134e4a">152.2k</text><circle cx="506.0" cy="347.0" r="6" fill="#0f766e" stroke="white" stroke-width="2" /><text x="506.0" y="333.0" text-anchor="middle" font-size="14" fill="#134e4a">186.9k</text><circle cx="610.0" cy="311.2" r="6" fill="#0f766e" stroke="white" stroke-width="2" /><text x="610.0" y="297.2" text-anchor="middle" font-size="14" fill="#134e4a">210.6k</text><circle cx="714.0" cy="344.1" r="6" fill="#0f766e" stroke="white" stroke-width="2" /><text x="714.0" y="330.1" text-anchor="middle" font-size="14" fill="#134e4a">188.8k</text><circle cx="818.0" cy="248.2" r="6" fill="#0f766e" stroke="white" stroke-width="2" /><text x="818.0" y="234.2" text-anchor="middle" font-size="14" fill="#134e4a">252.2k</text><circle cx="922.0" cy="70.0" r="6" fill="#0f766e" stroke="white" stroke-width="2" /><text x="922.0" y="56.0" text-anchor="middle" font-size="14" fill="#134e4a">369.9k</text><circle cx="1026.0" cy="134.3" r="6" fill="#0f766e" stroke="white" stroke-width="2" /><text x="1026.0" y="120.3" text-anchor="middle" font-size="14" fill="#134e4a">327.4k</text><circle cx="1130.0" cy="215.9" r="6" fill="#0f766e" stroke="white" stroke-width="2" /><text x="1130.0" y="201.9" text-anchor="middle" font-size="14" fill="#134e4a">273.6k</text>
  <text x="610.0" y="696" text-anchor="middle" font-size="18" fill="#292524">Worker count</text>
  <text x="26" y="350.0" text-anchor="middle" font-size="18" fill="#292524" transform="rotate(-90 26 350.0)">Throughput (k req/s)</text>
  <text x="90" y="664" font-size="16" fill="#0f766e">Best throughput: worker 16 = 369.9k rps</text>
</svg>