<?xml version="1.0" encoding="UTF-8" standalone="no"?>
<!DOCTYPE svg PUBLIC "-//W3C//DTD SVG 1.1//EN"
 "http://www.w3.org/Graphics/SVG/1.1/DTD/svg11.dtd">
<!-- Generated by graphviz version 14.1.5 (20260411.2331)
 -->
<!-- Title: ReadmeProjectOverallFlow Pages: 1 -->
<svg width="1864pt" height="502pt"
 viewBox="0.00 0.00 1864.00 502.00" xmlns="http://www.w3.org/2000/svg" xmlns:xlink="http://www.w3.org/1999/xlink">
<g id="graph0" class="graph" transform="scale(1 1) rotate(0) translate(14.4 487.4)">
<title>ReadmeProjectOverallFlow</title>
<g id="clust1" class="cluster">
<title>cluster_entry</title>
<path fill="#f8fafc" stroke="#cbd5e1" d="M26,-214C26,-214 152.66,-214 152.66,-214 158.66,-214 164.66,-220 164.66,-226 164.66,-226 164.66,-453 164.66,-453 164.66,-459 158.66,-465 152.66,-465 152.66,-465 26,-465 26,-465 20,-465 14,-459 14,-453 14,-453 14,-226 14,-226 14,-220 20,-214 26,-214"/>
<text xml:space="preserve" text-anchor="middle" x="89.33" y="-448.65" font-family="Pretendard" font-size="13.00">진입점</text>
</g>
<g id="clust2" class="cluster">
<title>cluster_processor</title>
<path fill="#eff6ff" stroke="#93c5fd" d="M287.41,-214C287.41,-214 724.98,-214 724.98,-214 730.98,-214 736.98,-220 736.98,-226 736.98,-226 736.98,-376 736.98,-376 736.98,-382 730.98,-388 724.98,-388 724.98,-388 287.41,-388 287.41,-388 281.41,-388 275.41,-382 275.41,-376 275.41,-376 275.41,-226 275.41,-226 275.41,-220 281.41,-214 287.41,-214"/>
<text xml:space="preserve" text-anchor="middle" x="506.19" y="-371.65" font-family="Pretendard" font-size="13.00">요청 처리 계층</text>
</g>
<g id="clust3" class="cluster">
<title>cluster_sql</title>
<path fill="#f0f9ff" stroke="#bae6fd" d="M809.48,-199C809.48,-199 1502.46,-199 1502.46,-199 1508.46,-199 1514.46,-205 1514.46,-211 1514.46,-211 1514.46,-299 1514.46,-299 1514.46,-305 1508.46,-311 1502.46,-311 1502.46,-311 809.48,-311 809.48,-311 803.48,-311 797.48,-305 797.48,-299 797.48,-299 797.48,-211 797.48,-211 797.48,-205 803.48,-199 809.48,-199"/>
<text xml:space="preserve" text-anchor="middle" x="1155.97" y="-294.65" font-family="Pretendard" font-size="13.00">SQL 실행 계층</text>
</g>
<g id="clust4" class="cluster">
<title>cluster_storage</title>
<path fill="#ffffff" stroke="#cbd5e1" d="M1662.71,-60C1662.71,-60 1815.62,-60 1815.62,-60 1821.62,-60 1827.62,-66 1827.62,-72 1827.62,-72 1827.62,-376 1827.62,-376 1827.62,-382 1821.62,-388 1815.62,-388 1815.62,-388 1662.71,-388 1662.71,-388 1656.71,-388 1650.71,-382 1650.71,-376 1650.71,-376 1650.71,-72 1650.71,-72 1650.71,-66 1656.71,-60 1662.71,-60"/>
<text xml:space="preserve" text-anchor="middle" x="1739.16" y="-371.65" font-family="Pretendard" font-size="13.00">저장소와 인덱스</text>
</g>
<g id="clust5" class="cluster">
<title>cluster_output</title>
<path fill="#f7fee7" stroke="#d9f99d" d="M20,-8C20,-8 1515.21,-8 1515.21,-8 1521.21,-8 1527.21,-14 1527.21,-20 1527.21,-20 1527.21,-93 1527.21,-93 1527.21,-99 1521.21,-105 1515.21,-105 1515.21,-105 20,-105 20,-105 14,-105 8,-99 8,-93 8,-93 8,-20 8,-20 8,-14 14,-8 20,-8"/>
<text xml:space="preserve" text-anchor="middle" x="767.6" y="-88.65" font-family="Pretendard" font-size="13.00">결과</text>
</g>
<!-- cli -->
<g id="node1" class="node">
<title>cli</title>
<path fill="white" stroke="#64748b" d="M116.66,-422.48C116.66,-422.48 62,-422.48 62,-422.48 56,-422.48 50,-416.48 50,-410.48 50,-410.48 50,-397.52 50,-397.52 50,-391.52 56,-385.52 62,-385.52 62,-385.52 116.66,-385.52 116.66,-385.52 122.66,-385.52 128.66,-391.52 128.66,-397.52 128.66,-397.52 128.66,-410.48 128.66,-410.48 128.66,-416.48 122.66,-422.48 116.66,-422.48"/>
<text xml:space="preserve" text-anchor="middle" x="89.33" y="-405.55" font-family="Pretendard" font-size="11.00">CLI SQL file</text>
<text xml:space="preserve" text-anchor="middle" x="89.33" y="-393.55" font-family="Pretendard" font-size="11.00">main.c</text>
</g>
<!-- cmd_contract -->
<g id="node4" class="node">
<title>cmd_contract</title>
<path fill="white" stroke="#64748b" d="M446.32,-345.48C446.32,-345.48 305.41,-345.48 305.41,-345.48 299.41,-345.48 293.41,-339.48 293.41,-333.48 293.41,-333.48 293.41,-320.52 293.41,-320.52 293.41,-314.52 299.41,-308.52 305.41,-308.52 305.41,-308.52 446.32,-308.52 446.32,-308.52 452.32,-308.52 458.32,-314.52 458.32,-320.52 458.32,-320.52 458.32,-333.48 458.32,-333.48 458.32,-339.48 452.32,-345.48 446.32,-345.48"/>
<text xml:space="preserve" text-anchor="middle" x="375.86" y="-328.55" font-family="Pretendard" font-size="11.00">CmdProcessor contract</text>
<text xml:space="preserve" text-anchor="middle" x="375.86" y="-316.55" font-family="Pretendard" font-size="11.00">CmdRequest / CmdResponse</text>
</g>
<!-- cli&#45;&gt;cmd_contract -->
<g id="edge1" class="edge">
<title>cli&#45;&gt;cmd_contract</title>
<path fill="none" stroke="#475569" d="M129,-393.54C171.94,-381.91 242.38,-362.85 296.88,-348.1"/>
<polygon fill="#475569" stroke="#475569" points="297.23,-350.55 303.34,-346.35 295.95,-345.82 297.23,-350.55"/>
<text xml:space="preserve" text-anchor="middle" x="223.03" y="-378.65" font-family="Pretendard" font-size="10.00">SQL request</text>
</g>
<!-- tcp -->
<g id="node2" class="node">
<title>tcp</title>
<path fill="white" stroke="#64748b" d="M134.66,-345.48C134.66,-345.48 44,-345.48 44,-345.48 38,-345.48 32,-339.48 32,-333.48 32,-333.48 32,-320.52 32,-320.52 32,-314.52 38,-308.52 44,-308.52 44,-308.52 134.66,-308.52 134.66,-308.52 140.66,-308.52 146.66,-314.52 146.66,-320.52 146.66,-320.52 146.66,-333.48 146.66,-333.48 146.66,-339.48 140.66,-345.48 134.66,-345.48"/>
<text xml:space="preserve" text-anchor="middle" x="89.33" y="-328.55" font-family="Pretendard" font-size="11.00">TCP JSONL API</text>
<text xml:space="preserve" text-anchor="middle" x="89.33" y="-316.55" font-family="Pretendard" font-size="11.00">TCPCmdProcessor</text>
</g>
<!-- tcp&#45;&gt;cmd_contract -->
<g id="edge2" class="edge">
<title>tcp&#45;&gt;cmd_contract</title>
<path fill="none" stroke="#475569" d="M146.89,-327C186.25,-327 239.57,-327 284.75,-327"/>
<polygon fill="#475569" stroke="#475569" points="284.57,-329.45 291.57,-327 284.57,-324.55 284.57,-329.45"/>
<text xml:space="preserve" text-anchor="middle" x="223.03" y="-328.75" font-family="Pretendard" font-size="10.00">JSONL &#45;&gt; request</text>
</g>
<!-- tests -->
<g id="node3" class="node">
<title>tests</title>
<path fill="white" stroke="#64748b" d="M129.78,-268.48C129.78,-268.48 48.87,-268.48 48.87,-268.48 42.87,-268.48 36.87,-262.48 36.87,-256.48 36.87,-256.48 36.87,-243.52 36.87,-243.52 36.87,-237.52 42.87,-231.52 48.87,-231.52 48.87,-231.52 129.78,-231.52 129.78,-231.52 135.78,-231.52 141.78,-237.52 141.78,-243.52 141.78,-243.52 141.78,-256.48 141.78,-256.48 141.78,-262.48 135.78,-268.48 129.78,-268.48"/>
<text xml:space="preserve" text-anchor="middle" x="89.33" y="-251.55" font-family="Pretendard" font-size="11.00">tests / benchmark</text>
<text xml:space="preserve" text-anchor="middle" x="89.33" y="-239.55" font-family="Pretendard" font-size="11.00">Makefile + test.sh</text>
</g>
<!-- tests&#45;&gt;cmd_contract -->
<g id="edge3" class="edge">
<title>tests&#45;&gt;cmd_contract</title>
<path fill="none" stroke="#475569" d="M142.19,-264.03C185.39,-275.72 247.57,-292.55 296.79,-305.87"/>
<polygon fill="#475569" stroke="#475569" points="296.03,-308.2 303.42,-307.67 297.31,-303.47 296.03,-308.2"/>
<text xml:space="preserve" text-anchor="middle" x="223.03" y="-302.05" font-family="Pretendard" font-size="10.00">API story</text>
</g>
<!-- report -->
<g id="node15" class="node">
<title>report</title>
<path fill="white" stroke="#64748b" d="M140.66,-62.48C140.66,-62.48 38,-62.48 38,-62.48 32,-62.48 26,-56.48 26,-50.48 26,-50.48 26,-37.52 26,-37.52 26,-31.52 32,-25.52 38,-25.52 38,-25.52 140.66,-25.52 140.66,-25.52 146.66,-25.52 152.66,-31.52 152.66,-37.52 152.66,-37.52 152.66,-50.48 152.66,-50.48 152.66,-56.48 146.66,-62.48 140.66,-62.48"/>
<text xml:space="preserve" text-anchor="middle" x="89.33" y="-45.55" font-family="Pretendard" font-size="11.00">artifacts/bench</text>
<text xml:space="preserve" text-anchor="middle" x="89.33" y="-33.55" font-family="Pretendard" font-size="11.00">report.json / report.md</text>
</g>
<!-- tests&#45;&gt;report -->
<g id="edge4" class="edge">
<title>tests&#45;&gt;report</title>
<path fill="none" stroke="#475569" stroke-dasharray="5,2" d="M89.33,-231.25C89.33,-194.64 89.33,-113.53 89.33,-71.08"/>
<polygon fill="#475569" stroke="#475569" points="91.78,-71.16 89.33,-64.16 86.88,-71.16 91.78,-71.16"/>
<text xml:space="preserve" text-anchor="middle" x="80.7" y="-143.12" font-family="Pretendard" font-size="10.00">score run</text>
</g>
<!-- engine -->
<g id="node5" class="node">
<title>engine</title>
<path fill="white" stroke="#64748b" d="M706.98,-345.48C706.98,-345.48 580.32,-345.48 580.32,-345.48 574.32,-345.48 568.32,-339.48 568.32,-333.48 568.32,-333.48 568.32,-320.52 568.32,-320.52 568.32,-314.52 574.32,-308.52 580.32,-308.52 580.32,-308.52 706.98,-308.52 706.98,-308.52 712.98,-308.52 718.98,-314.52 718.98,-320.52 718.98,-320.52 718.98,-333.48 718.98,-333.48 718.98,-339.48 712.98,-345.48 706.98,-345.48"/>
<text xml:space="preserve" text-anchor="middle" x="643.65" y="-328.55" font-family="Pretendard" font-size="11.00">EngineCmdProcessor</text>
<text xml:space="preserve" text-anchor="middle" x="643.65" y="-316.55" font-family="Pretendard" font-size="11.00">queue + worker + lock plan</text>
</g>
<!-- cmd_contract&#45;&gt;engine -->
<g id="edge5" class="edge">
<title>cmd_contract&#45;&gt;engine</title>
<path fill="none" stroke="#475569" d="M458.78,-327C490.84,-327 527.57,-327 559.73,-327"/>
<polygon fill="#475569" stroke="#475569" points="559.72,-329.45 566.72,-327 559.72,-324.55 559.72,-329.45"/>
<text xml:space="preserve" text-anchor="middle" x="513.32" y="-328.75" font-family="Pretendard" font-size="10.00">async path</text>
</g>
<!-- repl -->
<g id="node6" class="node">
<title>repl</title>
<path fill="white" stroke="#64748b" d="M692.35,-268.48C692.35,-268.48 594.94,-268.48 594.94,-268.48 588.94,-268.48 582.94,-262.48 582.94,-256.48 582.94,-256.48 582.94,-243.52 582.94,-243.52 582.94,-237.52 588.94,-231.52 594.94,-231.52 594.94,-231.52 692.35,-231.52 692.35,-231.52 698.35,-231.52 704.35,-237.52 704.35,-243.52 704.35,-243.52 704.35,-256.48 704.35,-256.48 704.35,-262.48 698.35,-268.48 692.35,-268.48"/>
<text xml:space="preserve" text-anchor="middle" x="643.65" y="-251.55" font-family="Pretendard" font-size="11.00">REPLCmdProcessor</text>
<text xml:space="preserve" text-anchor="middle" x="643.65" y="-239.55" font-family="Pretendard" font-size="11.00">sync evaluation</text>
</g>
<!-- cmd_contract&#45;&gt;repl -->
<g id="edge6" class="edge">
<title>cmd_contract&#45;&gt;repl</title>
<path fill="none" stroke="#475569" d="M442.22,-308.07C482.43,-296.42 533.86,-281.52 574.56,-269.73"/>
<polygon fill="#475569" stroke="#475569" points="575.05,-272.13 581.1,-267.83 573.69,-267.43 575.05,-272.13"/>
<text xml:space="preserve" text-anchor="middle" x="513.32" y="-296.23" font-family="Pretendard" font-size="10.00">sync path</text>
</g>
<!-- parser -->
<g id="node7" class="node">
<title>parser</title>
<path fill="white" stroke="#64748b" d="M911.39,-268.48C911.39,-268.48 827.48,-268.48 827.48,-268.48 821.48,-268.48 815.48,-262.48 815.48,-256.48 815.48,-256.48 815.48,-243.52 815.48,-243.52 815.48,-237.52 821.48,-231.52 827.48,-231.52 827.48,-231.52 911.39,-231.52 911.39,-231.52 917.39,-231.52 923.39,-237.52 923.39,-243.52 923.39,-243.52 923.39,-256.48 923.39,-256.48 923.39,-262.48 917.39,-268.48 911.39,-268.48"/>
<text xml:space="preserve" text-anchor="middle" x="869.43" y="-251.55" font-family="Pretendard" font-size="11.00">lexer.c / parser.c</text>
<text xml:space="preserve" text-anchor="middle" x="869.43" y="-239.55" font-family="Pretendard" font-size="11.00">SQL &#45;&gt; Statement</text>
</g>
<!-- engine&#45;&gt;parser -->
<g id="edge7" class="edge">
<title>engine&#45;&gt;parser</title>
<path fill="none" stroke="#475569" d="M699.68,-308.07C732.27,-296.85 773.62,-282.62 807.24,-271.06"/>
<polygon fill="#475569" stroke="#475569" points="807.91,-273.42 813.73,-268.82 806.31,-268.78 807.91,-273.42"/>
<text xml:space="preserve" text-anchor="middle" x="767.23" y="-301.03" font-family="Pretendard" font-size="10.00">parse</text>
</g>
<!-- repl&#45;&gt;parser -->
<g id="edge8" class="edge">
<title>repl&#45;&gt;parser</title>
<path fill="none" stroke="#475569" d="M704.62,-250C736.23,-250 774.95,-250 806.81,-250"/>
<polygon fill="#475569" stroke="#475569" points="806.66,-252.45 813.66,-250 806.66,-247.55 806.66,-252.45"/>
<text xml:space="preserve" text-anchor="middle" x="767.23" y="-251.75" font-family="Pretendard" font-size="10.00">parse</text>
</g>
<!-- executor -->
<g id="node8" class="node">
<title>executor</title>
<path fill="white" stroke="#64748b" d="M1143.55,-268.48C1143.55,-268.48 1042.39,-268.48 1042.39,-268.48 1036.39,-268.48 1030.39,-262.48 1030.39,-256.48 1030.39,-256.48 1030.39,-243.52 1030.39,-243.52 1030.39,-237.52 1036.39,-231.52 1042.39,-231.52 1042.39,-231.52 1143.55,-231.52 1143.55,-231.52 1149.55,-231.52 1155.55,-237.52 1155.55,-243.52 1155.55,-243.52 1155.55,-256.48 1155.55,-256.48 1155.55,-262.48 1149.55,-268.48 1143.55,-268.48"/>
<text xml:space="preserve" text-anchor="middle" x="1092.97" y="-251.55" font-family="Pretendard" font-size="11.00">executor.c</text>
<text xml:space="preserve" text-anchor="middle" x="1092.97" y="-239.55" font-family="Pretendard" font-size="11.00">CRUD execution plan</text>
</g>
<!-- parser&#45;&gt;executor -->
<g id="edge9" class="edge">
<title>parser&#45;&gt;executor</title>
<path fill="none" stroke="#475569" d="M923.78,-250C953.16,-250 990,-250 1021.7,-250"/>
<polygon fill="#475569" stroke="#475569" points="1021.55,-252.45 1028.55,-250 1021.55,-247.55 1021.55,-252.45"/>
<text xml:space="preserve" text-anchor="middle" x="976.89" y="-251.75" font-family="Pretendard" font-size="10.00">Statement</text>
</g>
<!-- table_cache -->
<g id="node9" class="node">
<title>table_cache</title>
<path fill="white" stroke="#64748b" d="M1484.46,-268.48C1484.46,-268.48 1390.8,-268.48 1390.8,-268.48 1384.8,-268.48 1378.8,-262.48 1378.8,-256.48 1378.8,-256.48 1378.8,-243.52 1378.8,-243.52 1378.8,-237.52 1384.8,-231.52 1390.8,-231.52 1390.8,-231.52 1484.46,-231.52 1484.46,-231.52 1490.46,-231.52 1496.46,-237.52 1496.46,-243.52 1496.46,-243.52 1496.46,-256.48 1496.46,-256.48 1496.46,-262.48 1490.46,-268.48 1484.46,-268.48"/>
<text xml:space="preserve" text-anchor="middle" x="1437.63" y="-251.55" font-family="Pretendard" font-size="11.00">TableCache</text>
<text xml:space="preserve" text-anchor="middle" x="1437.63" y="-239.55" font-family="Pretendard" font-size="11.00">slot / row cache / tail</text>
</g>
<!-- executor&#45;&gt;table_cache -->
<g id="edge10" class="edge">
<title>executor&#45;&gt;table_cache</title>
<path fill="none" stroke="#475569" d="M1156.02,-250C1216.56,-250 1308.35,-250 1370.31,-250"/>
<polygon fill="#475569" stroke="#475569" points="1369.95,-252.45 1376.95,-250 1369.95,-247.55 1369.95,-252.45"/>
<text xml:space="preserve" text-anchor="middle" x="1260.8" y="-251.75" font-family="Pretendard" font-size="10.00">load / mutate / query</text>
</g>
<!-- response -->
<g id="node14" class="node">
<title>response</title>
<path fill="white" stroke="#64748b" d="M1497.21,-62C1497.21,-62 1378.05,-62 1378.05,-62 1372.05,-62 1366.05,-56 1366.05,-50 1366.05,-50 1366.05,-38 1366.05,-38 1366.05,-32 1372.05,-26 1378.05,-26 1378.05,-26 1497.21,-26 1497.21,-26 1503.21,-26 1509.21,-32 1509.21,-38 1509.21,-38 1509.21,-50 1509.21,-50 1509.21,-56 1503.21,-62 1497.21,-62"/>
<text xml:space="preserve" text-anchor="middle" x="1437.63" y="-39.55" font-family="Pretendard" font-size="11.00">CLI text / JSON response</text>
</g>
<!-- executor&#45;&gt;response -->
<g id="edge16" class="edge">
<title>executor&#45;&gt;response</title>
<path fill="none" stroke="#475569" d="M1125.29,-231.17C1188.41,-193.22 1330.71,-107.68 1398.86,-66.71"/>
<polygon fill="#475569" stroke="#475569" points="1399.97,-68.9 1404.71,-63.19 1397.44,-64.7 1399.97,-68.9"/>
<text xml:space="preserve" text-anchor="middle" x="1260.8" y="-206.95" font-family="Pretendard" font-size="10.00">row_count / affected_count / body</text>
</g>
<!-- bptree -->
<g id="node10" class="node">
<title>bptree</title>
<path fill="white" stroke="#64748b" d="M1794.24,-345.48C1794.24,-345.48 1684.08,-345.48 1684.08,-345.48 1678.08,-345.48 1672.08,-339.48 1672.08,-333.48 1672.08,-333.48 1672.08,-320.52 1672.08,-320.52 1672.08,-314.52 1678.08,-308.52 1684.08,-308.52 1684.08,-308.52 1794.24,-308.52 1794.24,-308.52 1800.24,-308.52 1806.24,-314.52 1806.24,-320.52 1806.24,-320.52 1806.24,-333.48 1806.24,-333.48 1806.24,-339.48 1800.24,-345.48 1794.24,-345.48"/>
<text xml:space="preserve" text-anchor="middle" x="1739.16" y="-328.55" font-family="Pretendard" font-size="11.00">bptree.c</text>
<text xml:space="preserve" text-anchor="middle" x="1739.16" y="-316.55" font-family="Pretendard" font-size="11.00">PK numeric + UK string</text>
</g>
<!-- table_cache&#45;&gt;bptree -->
<g id="edge11" class="edge">
<title>table_cache&#45;&gt;bptree</title>
<path fill="none" stroke="#475569" d="M1496.74,-264.94C1544.3,-277.16 1611.89,-294.54 1663.47,-307.8"/>
<polygon fill="#475569" stroke="#475569" points="1662.75,-310.14 1670.14,-309.51 1663.97,-305.4 1662.75,-310.14"/>
<text xml:space="preserve" text-anchor="middle" x="1588.96" y="-301.65" font-family="Pretendard" font-size="10.00">index lookup / range</text>
</g>
<!-- csv -->
<g id="node11" class="node">
<title>csv</title>
<path fill="white" stroke="#64748b" d="M1761.99,-268.48C1761.99,-268.48 1716.33,-268.48 1716.33,-268.48 1710.33,-268.48 1704.33,-262.48 1704.33,-256.48 1704.33,-256.48 1704.33,-243.52 1704.33,-243.52 1704.33,-237.52 1710.33,-231.52 1716.33,-231.52 1716.33,-231.52 1761.99,-231.52 1761.99,-231.52 1767.99,-231.52 1773.99,-237.52 1773.99,-243.52 1773.99,-243.52 1773.99,-256.48 1773.99,-256.48 1773.99,-262.48 1767.99,-268.48 1761.99,-268.48"/>
<text xml:space="preserve" text-anchor="middle" x="1739.16" y="-251.55" font-family="Pretendard" font-size="11.00">*.csv</text>
<text xml:space="preserve" text-anchor="middle" x="1739.16" y="-239.55" font-family="Pretendard" font-size="11.00">base table</text>
</g>
<!-- table_cache&#45;&gt;csv -->
<g id="edge12" class="edge">
<title>table_cache&#45;&gt;csv</title>
<path fill="none" stroke="#475569" d="M1496.74,-250C1555.08,-250 1643.57,-250 1695.65,-250"/>
<polygon fill="#475569" stroke="#475569" points="1695.49,-252.45 1702.49,-250 1695.49,-247.55 1695.49,-252.45"/>
<text xml:space="preserve" text-anchor="middle" x="1588.96" y="-251.75" font-family="Pretendard" font-size="10.00">read / append / rewrite</text>
</g>
<!-- delta -->
<g id="node12" class="node">
<title>delta</title>
<path fill="white" stroke="#64748b" d="M1797.62,-191.48C1797.62,-191.48 1680.71,-191.48 1680.71,-191.48 1674.71,-191.48 1668.71,-185.48 1668.71,-179.48 1668.71,-179.48 1668.71,-166.52 1668.71,-166.52 1668.71,-160.52 1674.71,-154.52 1680.71,-154.52 1680.71,-154.52 1797.62,-154.52 1797.62,-154.52 1803.62,-154.52 1809.62,-160.52 1809.62,-166.52 1809.62,-166.52 1809.62,-179.48 1809.62,-179.48 1809.62,-185.48 1803.62,-191.48 1797.62,-191.48"/>
<text xml:space="preserve" text-anchor="middle" x="1739.16" y="-174.55" font-family="Pretendard" font-size="11.00">*.delta</text>
<text xml:space="preserve" text-anchor="middle" x="1739.16" y="-162.55" font-family="Pretendard" font-size="11.00">append&#45;only mutation log</text>
</g>
<!-- table_cache&#45;&gt;delta -->
<g id="edge13" class="edge">
<title>table_cache&#45;&gt;delta</title>
<path fill="none" stroke="#475569" d="M1496.74,-235.06C1543.33,-223.09 1609.15,-206.17 1660.3,-193.02"/>
<polygon fill="#475569" stroke="#475569" points="1660.74,-195.43 1666.91,-191.32 1659.52,-190.69 1660.74,-195.43"/>
<text xml:space="preserve" text-anchor="middle" x="1588.96" y="-224.65" font-family="Pretendard" font-size="10.00">UPDATE / DELETE</text>
</g>
<!-- snapshot -->
<g id="node13" class="node">
<title>snapshot</title>
<path fill="white" stroke="#64748b" d="M1791.24,-114.48C1791.24,-114.48 1687.08,-114.48 1687.08,-114.48 1681.08,-114.48 1675.08,-108.48 1675.08,-102.48 1675.08,-102.48 1675.08,-89.52 1675.08,-89.52 1675.08,-83.52 1681.08,-77.52 1687.08,-77.52 1687.08,-77.52 1791.24,-77.52 1791.24,-77.52 1797.24,-77.52 1803.24,-83.52 1803.24,-89.52 1803.24,-89.52 1803.24,-102.48 1803.24,-102.48 1803.24,-108.48 1797.24,-114.48 1791.24,-114.48"/>
<text xml:space="preserve" text-anchor="middle" x="1739.16" y="-97.55" font-family="Pretendard" font-size="11.00">*.idx</text>
<text xml:space="preserve" text-anchor="middle" x="1739.16" y="-85.55" font-family="Pretendard" font-size="11.00">index / parse snapshot</text>
</g>
<!-- table_cache&#45;&gt;snapshot -->
<g id="edge14" class="edge">
<title>table_cache&#45;&gt;snapshot</title>
<path fill="none" stroke="#475569" d="M1475.36,-231.12C1530.64,-202.7 1635.04,-149.02 1694.26,-118.57"/>
<polygon fill="#475569" stroke="#475569" points="1695.15,-120.87 1700.26,-115.49 1692.91,-116.51 1695.15,-120.87"/>
<text xml:space="preserve" text-anchor="middle" x="1588.96" y="-180.5" font-family="Pretendard" font-size="10.00">fast reopen</text>
</g>
<!-- bptree&#45;&gt;table_cache -->
<g id="edge15" class="edge">
<title>bptree&#45;&gt;table_cache</title>
<path fill="none" stroke="#475569" stroke-dasharray="5,2" d="M1671.6,-309.89C1621.95,-297.12 1554.42,-279.76 1504.84,-267.02"/>
<polygon fill="#475569" stroke="#475569" points="1505.59,-264.68 1498.2,-265.31 1504.37,-269.43 1505.59,-264.68"/>
<text xml:space="preserve" text-anchor="middle" x="1588.96" y="-61.5" font-family="Pretendard" font-size="10.00">slot id</text>
</g>
<!-- response&#45;&gt;cli -->
<g id="edge18" class="edge">
<title>response&#45;&gt;cli</title>
<path fill="none" stroke="#475569" stroke-dasharray="5,2" d="M1368.49,-62.46C1129.17,-126.36 339.62,-337.17 137.03,-391.26"/>
<polygon fill="#475569" stroke="#475569" points="136.55,-388.86 130.41,-393.03 137.81,-393.59 136.55,-388.86"/>
</g>
<!-- response&#45;&gt;tcp -->
<g id="edge17" class="edge">
<title>response&#45;&gt;tcp</title>
<path fill="none" stroke="#475569" stroke-dasharray="5,2" d="M1365.86,-49.74C1196.19,-63.31 784.48,-96.25 784.48,-96.25 784.48,-96.25 326.88,-248.15 154.22,-305.46"/>
<polygon fill="#475569" stroke="#475569" points="153.53,-303.11 147.65,-307.64 155.07,-307.76 153.53,-303.11"/>
<text xml:space="preserve" text-anchor="middle" x="767.23" y="-86.75" font-family="Pretendard" font-size="10.00">same id</text>
</g>
</g>
</svg>
