<?xml version="1.0" encoding="UTF-8" standalone="no"?>
<!DOCTYPE svg PUBLIC "-//W3C//DTD SVG 1.1//EN"
 "http://www.w3.org/Graphics/SVG/1.1/DTD/svg11.dtd">
<!-- Generated by graphviz version 14.1.5 (20260411.2331)
 -->
<!-- Title: ReadmeDbConcurrencyFlow Pages: 1 -->
<svg width="3023pt" height="740pt"
 viewBox="0.00 0.00 3023.00 740.00" xmlns="http://www.w3.org/2000/svg" xmlns:xlink="http://www.w3.org/1999/xlink">
<g id="graph0" class="graph" transform="scale(1 1) rotate(0) translate(14.4 725.4)">
<title>ReadmeDbConcurrencyFlow</title>
<g id="clust1" class="cluster">
<title>cluster_api</title>
<path fill="#eff6ff" stroke="#bfdbfe" d="M26,-593C26,-593 566.73,-593 566.73,-593 572.73,-593 578.73,-599 578.73,-605 578.73,-605 578.73,-691 578.73,-691 578.73,-697 572.73,-703 566.73,-703 566.73,-703 26,-703 26,-703 20,-703 14,-697 14,-691 14,-691 14,-605 14,-605 14,-599 20,-593 26,-593"/>
<text xml:space="preserve" text-anchor="middle" x="296.36" y="-686.65" font-family="Pretendard" font-size="13.00">API 계층: 동시에 받고 추적</text>
</g>
<g id="clust2" class="cluster">
<title>cluster_plan</title>
<path fill="#f0f9ff" stroke="#bae6fd" d="M27.88,-365C27.88,-365 1191.46,-365 1191.46,-365 1197.46,-365 1203.46,-371 1203.46,-377 1203.46,-377 1203.46,-515 1203.46,-515 1203.46,-521 1197.46,-527 1191.46,-527 1191.46,-527 27.88,-527 27.88,-527 21.88,-527 15.88,-521 15.88,-515 15.88,-515 15.88,-377 15.88,-377 15.88,-371 21.88,-365 27.88,-365"/>
<text xml:space="preserve" text-anchor="middle" x="609.67" y="-510.65" font-family="Pretendard" font-size="13.00">EngineCmdProcessor: 실행 전 계획</text>
</g>
<g id="clust3" class="cluster">
<title>cluster_worker</title>
<path fill="#f5f3ff" stroke="#c4b5fd" d="M20,-105C20,-105 1631.44,-105 1631.44,-105 1637.44,-105 1643.44,-111 1643.44,-117 1643.44,-117 1643.44,-279 1643.44,-279 1643.44,-285 1637.44,-291 1631.44,-291 1631.44,-291 20,-291 20,-291 14,-291 8,-285 8,-279 8,-279 8,-117 8,-117 8,-111 14,-105 20,-105"/>
<text xml:space="preserve" text-anchor="middle" x="825.72" y="-274.65" font-family="Pretendard" font-size="13.00">Worker / Lock 계층</text>
</g>
<g id="clust4" class="cluster">
<title>cluster_db</title>
<path fill="#f0fdf4" stroke="#bbf7d0" d="M1719.69,-35C1719.69,-35 2788.99,-35 2788.99,-35 2794.99,-35 2800.99,-41 2800.99,-47 2800.99,-47 2800.99,-291 2800.99,-291 2800.99,-297 2794.99,-303 2788.99,-303 2788.99,-303 1719.69,-303 1719.69,-303 1713.69,-303 1707.69,-297 1707.69,-291 1707.69,-291 1707.69,-47 1707.69,-47 1707.69,-41 1713.69,-35 1719.69,-35"/>
<text xml:space="preserve" text-anchor="middle" x="2254.34" y="-286.65" font-family="Pretendard" font-size="13.00">DB 실행 계층: 전역 상태 보호</text>
</g>
<g id="clust5" class="cluster">
<title>cluster_response</title>
<path fill="#f7fee7" stroke="#d9f99d" d="M2404.29,-311C2404.29,-311 2974.15,-311 2974.15,-311 2980.15,-311 2986.15,-317 2986.15,-323 2986.15,-323 2986.15,-396 2986.15,-396 2986.15,-402 2980.15,-408 2974.15,-408 2974.15,-408 2404.29,-408 2404.29,-408 2398.29,-408 2392.29,-402 2392.29,-396 2392.29,-396 2392.29,-323 2392.29,-323 2392.29,-317 2398.29,-311 2404.29,-311"/>
<text xml:space="preserve" text-anchor="middle" x="2689.22" y="-391.65" font-family="Pretendard" font-size="13.00">응답</text>
</g>
<!-- tcp_req -->
<g id="node1" class="node">
<title>tcp_req</title>
<path fill="white" stroke="#64748b" d="M139.91,-660.48C139.91,-660.48 44,-660.48 44,-660.48 38,-660.48 32,-654.48 32,-648.48 32,-648.48 32,-635.52 32,-635.52 32,-629.52 38,-623.52 44,-623.52 44,-623.52 139.91,-623.52 139.91,-623.52 145.91,-623.52 151.91,-629.52 151.91,-635.52 151.91,-635.52 151.91,-648.48 151.91,-648.48 151.91,-654.48 145.91,-660.48 139.91,-660.48"/>
<text xml:space="preserve" text-anchor="middle" x="91.95" y="-643.55" font-family="Pretendard" font-size="11.00">TCP JSONL request</text>
<text xml:space="preserve" text-anchor="middle" x="91.95" y="-631.55" font-family="Pretendard" font-size="11.00">id / op / sql</text>
</g>
<!-- inflight -->
<g id="node2" class="node">
<title>inflight</title>
<path fill="white" stroke="#64748b" d="M345.07,-660.73C345.07,-660.73 264.91,-660.73 264.91,-660.73 258.91,-660.73 252.91,-654.73 252.91,-648.73 252.91,-648.73 252.91,-631.27 252.91,-631.27 252.91,-625.27 258.91,-619.27 264.91,-619.27 264.91,-619.27 345.07,-619.27 345.07,-619.27 351.07,-619.27 357.07,-625.27 357.07,-631.27 357.07,-631.27 357.07,-648.73 357.07,-648.73 357.07,-654.73 351.07,-660.73 345.07,-660.73"/>
<text xml:space="preserve" text-anchor="middle" x="304.99" y="-643.8" font-family="Pretendard" font-size="11.00">in&#45;flight id 등록</text>
<text xml:space="preserve" text-anchor="middle" x="304.99" y="-629.55" font-family="Pretendard" font-size="11.00">connection별 추적</text>
</g>
<!-- tcp_req&#45;&gt;inflight -->
<g id="edge1" class="edge">
<title>tcp_req&#45;&gt;inflight</title>
<path fill="none" stroke="#475569" d="M152.3,-641.44C181.04,-641.17 215.47,-640.84 244.26,-640.57"/>
<polygon fill="#475569" stroke="#475569" points="244.12,-643.02 251.1,-640.5 244.07,-638.12 244.12,-643.02"/>
<text xml:space="preserve" text-anchor="middle" x="205.41" y="-643.56" font-family="Pretendard" font-size="10.00">검증 성공</text>
</g>
<!-- submit -->
<g id="node3" class="node">
<title>submit</title>
<path fill="white" stroke="#64748b" d="M548.73,-659.61C548.73,-659.61 446.82,-659.61 446.82,-659.61 440.82,-659.61 434.82,-653.61 434.82,-647.61 434.82,-647.61 434.82,-632.39 434.82,-632.39 434.82,-626.39 440.82,-620.39 446.82,-620.39 446.82,-620.39 548.73,-620.39 548.73,-620.39 554.73,-620.39 560.73,-626.39 560.73,-632.39 560.73,-632.39 560.73,-647.61 560.73,-647.61 560.73,-653.61 554.73,-659.61 548.73,-659.61"/>
<text xml:space="preserve" text-anchor="middle" x="497.77" y="-642.67" font-family="Pretendard" font-size="11.00">CmdProcessor.submit</text>
<text xml:space="preserve" text-anchor="middle" x="497.77" y="-630.67" font-family="Pretendard" font-size="11.00">요청 제출</text>
</g>
<!-- inflight&#45;&gt;submit -->
<g id="edge2" class="edge">
<title>inflight&#45;&gt;submit</title>
<path fill="none" stroke="#475569" d="M357.37,-640C378.5,-640 403.33,-640 426.13,-640"/>
<polygon fill="#475569" stroke="#475569" points="425.91,-642.45 432.91,-640 425.91,-637.55 425.91,-642.45"/>
</g>
<!-- classify -->
<g id="node4" class="node">
<title>classify</title>
<path fill="white" stroke="#64748b" d="M802.89,-481.48C802.89,-481.48 629.73,-481.48 629.73,-481.48 623.73,-481.48 617.73,-475.48 617.73,-469.48 617.73,-469.48 617.73,-444.52 617.73,-444.52 617.73,-438.52 623.73,-432.52 629.73,-432.52 629.73,-432.52 802.89,-432.52 802.89,-432.52 808.89,-432.52 814.89,-438.52 814.89,-444.52 814.89,-444.52 814.89,-469.48 814.89,-469.48 814.89,-475.48 808.89,-481.48 802.89,-481.48"/>
<text xml:space="preserve" text-anchor="middle" x="716.31" y="-464.55" font-family="Pretendard" font-size="11.00">request plan</text>
<text xml:space="preserve" text-anchor="middle" x="716.31" y="-452.55" font-family="Pretendard" font-size="11.00">SELECT=READ</text>
<text xml:space="preserve" text-anchor="middle" x="716.31" y="-440.55" font-family="Pretendard" font-size="11.00">INSERT/UPDATE/DELETE=WRITE</text>
</g>
<!-- submit&#45;&gt;classify -->
<g id="edge3" class="edge">
<title>submit&#45;&gt;classify</title>
<path fill="none" stroke="#475569" d="M522.36,-620.07C560.28,-588.02 635.06,-524.82 679.57,-487.21"/>
<polygon fill="#475569" stroke="#475569" points="680.99,-489.22 684.75,-482.83 677.82,-485.47 680.99,-489.22"/>
</g>
<!-- route -->
<g id="node5" class="node">
<title>route</title>
<path fill="white" stroke="#64748b" d="M1006.05,-419.48C1006.05,-419.48 883.89,-419.48 883.89,-419.48 877.89,-419.48 871.89,-413.48 871.89,-407.48 871.89,-407.48 871.89,-394.52 871.89,-394.52 871.89,-388.52 877.89,-382.52 883.89,-382.52 883.89,-382.52 1006.05,-382.52 1006.05,-382.52 1012.05,-382.52 1018.05,-388.52 1018.05,-394.52 1018.05,-394.52 1018.05,-407.48 1018.05,-407.48 1018.05,-413.48 1012.05,-419.48 1006.05,-419.48"/>
<text xml:space="preserve" text-anchor="middle" x="944.97" y="-402.55" font-family="Pretendard" font-size="11.00">route plan</text>
<text xml:space="preserve" text-anchor="middle" x="944.97" y="-390.55" font-family="Pretendard" font-size="11.00">table hash &#45;&gt; shard queue</text>
</g>
<!-- classify&#45;&gt;route -->
<g id="edge4" class="edge">
<title>classify&#45;&gt;route</title>
<path fill="none" stroke="#475569" d="M815.08,-432.84C831.2,-428.86 847.75,-424.77 863.39,-420.91"/>
<polygon fill="#475569" stroke="#475569" points="863.8,-423.33 870.01,-419.27 862.62,-418.57 863.8,-423.33"/>
</g>
<!-- lockplan -->
<g id="node6" class="node">
<title>lockplan</title>
<path fill="white" stroke="#64748b" d="M1173.46,-449.61C1173.46,-449.61 1058.05,-449.61 1058.05,-449.61 1052.05,-449.61 1046.05,-443.61 1046.05,-437.61 1046.05,-437.61 1046.05,-422.39 1046.05,-422.39 1046.05,-416.39 1052.05,-410.39 1058.05,-410.39 1058.05,-410.39 1173.46,-410.39 1173.46,-410.39 1179.46,-410.39 1185.46,-416.39 1185.46,-422.39 1185.46,-422.39 1185.46,-437.61 1185.46,-437.61 1185.46,-443.61 1179.46,-449.61 1173.46,-449.61"/>
<text xml:space="preserve" text-anchor="middle" x="1115.75" y="-432.68" font-family="Pretendard" font-size="11.00">lock plan</text>
<text xml:space="preserve" text-anchor="middle" x="1115.75" y="-420.68" font-family="Pretendard" font-size="11.00">table 단위 READ/WRITE</text>
</g>
<!-- classify&#45;&gt;lockplan -->
<g id="edge5" class="edge">
<title>classify&#45;&gt;lockplan</title>
<path fill="none" stroke="#475569" d="M815.31,-450.31C883.85,-445.68 973.84,-439.59 1037.41,-435.3"/>
<polygon fill="#475569" stroke="#475569" points="1037.47,-437.75 1044.29,-434.83 1037.14,-432.86 1037.47,-437.75"/>
</g>
<!-- planner_cache -->
<g id="node7" class="node">
<title>planner_cache</title>
<path fill="white" stroke="#64748b" d="M138.03,-451.48C138.03,-451.48 45.87,-451.48 45.87,-451.48 39.87,-451.48 33.87,-445.48 33.87,-439.48 33.87,-439.48 33.87,-426.52 33.87,-426.52 33.87,-420.52 39.87,-414.52 45.87,-414.52 45.87,-414.52 138.03,-414.52 138.03,-414.52 144.03,-414.52 150.03,-420.52 150.03,-426.52 150.03,-426.52 150.03,-439.48 150.03,-439.48 150.03,-445.48 144.03,-451.48 138.03,-451.48"/>
<text xml:space="preserve" text-anchor="middle" x="91.95" y="-434.55" font-family="Pretendard" font-size="11.00">planner cache</text>
<text xml:space="preserve" text-anchor="middle" x="91.95" y="-422.55" font-family="Pretendard" font-size="11.00">SQL template reuse</text>
</g>
<!-- classify&#45;&gt;planner_cache -->
<g id="edge7" class="edge">
<title>classify&#45;&gt;planner_cache</title>
<path fill="none" stroke="#475569" stroke-dasharray="5,2" d="M617.38,-461.78C519.77,-466.49 385.07,-473 385.07,-473 385.07,-473 244.89,-453.87 158.41,-442.07"/>
<polygon fill="#475569" stroke="#475569" points="158.98,-439.67 151.72,-441.16 158.32,-444.53 158.98,-439.67"/>
<text xml:space="preserve" text-anchor="middle" x="395.94" y="-474.75" font-family="Pretendard" font-size="10.00">store</text>
</g>
<!-- queue -->
<g id="node8" class="node">
<title>queue</title>
<path fill="white" stroke="#64748b" d="M1296.62,-170.48C1296.62,-170.48 1225.46,-170.48 1225.46,-170.48 1219.46,-170.48 1213.46,-164.48 1213.46,-158.48 1213.46,-158.48 1213.46,-145.52 1213.46,-145.52 1213.46,-139.52 1219.46,-133.52 1225.46,-133.52 1225.46,-133.52 1296.62,-133.52 1296.62,-133.52 1302.62,-133.52 1308.62,-139.52 1308.62,-145.52 1308.62,-145.52 1308.62,-158.48 1308.62,-158.48 1308.62,-164.48 1302.62,-170.48 1296.62,-170.48"/>
<text xml:space="preserve" text-anchor="middle" x="1261.04" y="-153.55" font-family="Pretendard" font-size="11.00">WorkQueue</text>
<text xml:space="preserve" text-anchor="middle" x="1261.04" y="-141.55" font-family="Pretendard" font-size="11.00">bounded queue</text>
</g>
<!-- route&#45;&gt;queue -->
<g id="edge8" class="edge">
<title>route&#45;&gt;queue</title>
<path fill="none" stroke="#475569" d="M969.83,-382.08C1026.19,-337.4 1167.44,-225.42 1229.73,-176.03"/>
<polygon fill="#475569" stroke="#475569" points="1231.06,-178.1 1235.03,-171.83 1228.02,-174.26 1231.06,-178.1"/>
<text xml:space="preserve" text-anchor="middle" x="1115.75" y="-362.48" font-family="Pretendard" font-size="10.00">target shard</text>
</g>
<!-- rwlock -->
<g id="node10" class="node">
<title>rwlock</title>
<path fill="white" stroke="#64748b" d="M1613.44,-221.48C1613.44,-221.48 1552.03,-221.48 1552.03,-221.48 1546.03,-221.48 1540.03,-215.48 1540.03,-209.48 1540.03,-209.48 1540.03,-196.52 1540.03,-196.52 1540.03,-190.52 1546.03,-184.52 1552.03,-184.52 1552.03,-184.52 1613.44,-184.52 1613.44,-184.52 1619.44,-184.52 1625.44,-190.52 1625.44,-196.52 1625.44,-196.52 1625.44,-209.48 1625.44,-209.48 1625.44,-215.48 1619.44,-221.48 1613.44,-221.48"/>
<text xml:space="preserve" text-anchor="middle" x="1582.73" y="-204.55" font-family="Pretendard" font-size="11.00">LockManager</text>
<text xml:space="preserve" text-anchor="middle" x="1582.73" y="-192.55" font-family="Pretendard" font-size="11.00">bucket rwlock</text>
</g>
<!-- lockplan&#45;&gt;rwlock -->
<g id="edge10" class="edge">
<title>lockplan&#45;&gt;rwlock</title>
<path fill="none" stroke="#475569" d="M1159.71,-410.01C1232.02,-377.14 1368.12,-315.25 1368.12,-315.25 1368.12,-315.25 1476.71,-258.45 1539.41,-225.66"/>
<polygon fill="#475569" stroke="#475569" points="1540.4,-227.9 1545.47,-222.49 1538.13,-223.56 1540.4,-227.9"/>
<text xml:space="preserve" text-anchor="middle" x="1352.37" y="-305.75" font-family="Pretendard" font-size="10.00">acquire</text>
</g>
<!-- planner_cache&#45;&gt;classify -->
<g id="edge6" class="edge">
<title>planner_cache&#45;&gt;classify</title>
<path fill="none" stroke="#475569" stroke-dasharray="5,2" d="M150.48,-432.67C240.14,-432.16 401.19,-431.25 401.19,-431.25 401.19,-431.25 517.67,-440.77 609,-448.23"/>
<polygon fill="#475569" stroke="#475569" points="608.79,-450.67 615.96,-448.8 609.18,-445.79 608.79,-450.67"/>
<text xml:space="preserve" text-anchor="middle" x="395.94" y="-421.75" font-family="Pretendard" font-size="10.00">hit</text>
</g>
<!-- worker -->
<g id="node9" class="node">
<title>worker</title>
<path fill="white" stroke="#64748b" d="M1471.03,-185.48C1471.03,-185.48 1408.12,-185.48 1408.12,-185.48 1402.12,-185.48 1396.12,-179.48 1396.12,-173.48 1396.12,-173.48 1396.12,-160.52 1396.12,-160.52 1396.12,-154.52 1402.12,-148.52 1408.12,-148.52 1408.12,-148.52 1471.03,-148.52 1471.03,-148.52 1477.03,-148.52 1483.03,-154.52 1483.03,-160.52 1483.03,-160.52 1483.03,-173.48 1483.03,-173.48 1483.03,-179.48 1477.03,-185.48 1471.03,-185.48"/>
<text xml:space="preserve" text-anchor="middle" x="1439.57" y="-168.55" font-family="Pretendard" font-size="11.00">worker thread</text>
<text xml:space="preserve" text-anchor="middle" x="1439.57" y="-156.55" font-family="Pretendard" font-size="11.00">job pop</text>
</g>
<!-- queue&#45;&gt;worker -->
<g id="edge9" class="edge">
<title>queue&#45;&gt;worker</title>
<path fill="none" stroke="#475569" d="M1308.88,-155.98C1333.11,-158.04 1362.73,-160.56 1387.53,-162.66"/>
<polygon fill="#475569" stroke="#475569" points="1387.06,-165.08 1394.24,-163.23 1387.47,-160.2 1387.06,-165.08"/>
</g>
<!-- worker&#45;&gt;rwlock -->
<g id="edge11" class="edge">
<title>worker&#45;&gt;rwlock</title>
<path fill="none" stroke="#475569" d="M1483.31,-177.9C1498.51,-181.78 1515.77,-186.18 1531.54,-190.2"/>
<polygon fill="#475569" stroke="#475569" points="1530.78,-192.53 1538.16,-191.89 1531.99,-187.78 1530.78,-192.53"/>
</g>
<!-- metrics -->
<g id="node11" class="node">
<title>metrics</title>
<path fill="white" stroke="#64748b" d="M145.91,-203.48C145.91,-203.48 38,-203.48 38,-203.48 32,-203.48 26,-197.48 26,-191.48 26,-191.48 26,-178.52 26,-178.52 26,-172.52 32,-166.52 38,-166.52 38,-166.52 145.91,-166.52 145.91,-166.52 151.91,-166.52 157.91,-172.52 157.91,-178.52 157.91,-178.52 157.91,-191.48 157.91,-191.48 157.91,-197.48 151.91,-203.48 145.91,-203.48"/>
<text xml:space="preserve" text-anchor="middle" x="91.95" y="-186.55" font-family="Pretendard" font-size="11.00">metrics</text>
<text xml:space="preserve" text-anchor="middle" x="91.95" y="-174.55" font-family="Pretendard" font-size="11.00">queue / lock / exec wait</text>
</g>
<!-- worker&#45;&gt;metrics -->
<g id="edge24" class="edge">
<title>worker&#45;&gt;metrics</title>
<path fill="none" stroke="#475569" stroke-dasharray="1,5" d="M1395.73,-167.27C1242.91,-168.2 742.93,-171.25 742.93,-171.25 742.93,-171.25 337.76,-179.81 166.72,-183.42"/>
<polygon fill="#475569" stroke="#475569" points="166.72,-180.97 159.77,-183.57 166.82,-185.87 166.72,-180.97"/>
<text xml:space="preserve" text-anchor="middle" x="716.31" y="-161.75" font-family="Pretendard" font-size="10.00">record waits</text>
</g>
<!-- rwlock&#45;&gt;metrics -->
<g id="edge25" class="edge">
<title>rwlock&#45;&gt;metrics</title>
<path fill="none" stroke="#475569" stroke-dasharray="1,5" d="M1539.81,-202.48C1332.34,-199.98 432.54,-189.11 166.38,-185.9"/>
<polygon fill="#475569" stroke="#475569" points="166.48,-183.45 159.45,-185.81 166.42,-188.35 166.48,-183.45"/>
</g>
<!-- engine_mutex -->
<g id="node12" class="node">
<title>engine_mutex</title>
<path fill="white" stroke="#64748b" d="M1863.6,-221.48C1863.6,-221.48 1737.69,-221.48 1737.69,-221.48 1731.69,-221.48 1725.69,-215.48 1725.69,-209.48 1725.69,-209.48 1725.69,-196.52 1725.69,-196.52 1725.69,-190.52 1731.69,-184.52 1737.69,-184.52 1737.69,-184.52 1863.6,-184.52 1863.6,-184.52 1869.6,-184.52 1875.6,-190.52 1875.6,-196.52 1875.6,-196.52 1875.6,-209.48 1875.6,-209.48 1875.6,-215.48 1869.6,-221.48 1863.6,-221.48"/>
<text xml:space="preserve" text-anchor="middle" x="1800.64" y="-204.55" font-family="Pretendard" font-size="11.00">engine_mutex</text>
<text xml:space="preserve" text-anchor="middle" x="1800.64" y="-192.55" font-family="Pretendard" font-size="11.00">parse/execute global guard</text>
</g>
<!-- rwlock&#45;&gt;engine_mutex -->
<g id="edge12" class="edge">
<title>rwlock&#45;&gt;engine_mutex</title>
<path fill="none" stroke="#475569" d="M1625.88,-203C1651.79,-203 1685.88,-203 1717,-203"/>
<polygon fill="#475569" stroke="#475569" points="1716.74,-205.45 1723.74,-203 1716.74,-200.55 1716.74,-205.45"/>
<text xml:space="preserve" text-anchor="middle" x="1675.56" y="-204.75" font-family="Pretendard" font-size="10.00">locked job</text>
</g>
<!-- parser -->
<g id="node13" class="node">
<title>parser</title>
<path fill="white" stroke="#64748b" d="M2028.51,-221.48C2028.51,-221.48 1944.6,-221.48 1944.6,-221.48 1938.6,-221.48 1932.6,-215.48 1932.6,-209.48 1932.6,-209.48 1932.6,-196.52 1932.6,-196.52 1932.6,-190.52 1938.6,-184.52 1944.6,-184.52 1944.6,-184.52 2028.51,-184.52 2028.51,-184.52 2034.51,-184.52 2040.51,-190.52 2040.51,-196.52 2040.51,-196.52 2040.51,-209.48 2040.51,-209.48 2040.51,-215.48 2034.51,-221.48 2028.51,-221.48"/>
<text xml:space="preserve" text-anchor="middle" x="1986.55" y="-204.55" font-family="Pretendard" font-size="11.00">lexer / parser</text>
<text xml:space="preserve" text-anchor="middle" x="1986.55" y="-192.55" font-family="Pretendard" font-size="11.00">SQL &#45;&gt; Statement</text>
</g>
<!-- engine_mutex&#45;&gt;parser -->
<g id="edge13" class="edge">
<title>engine_mutex&#45;&gt;parser</title>
<path fill="none" stroke="#475569" d="M1875.92,-203C1891.82,-203 1908.45,-203 1923.81,-203"/>
<polygon fill="#475569" stroke="#475569" points="1923.69,-205.45 1930.69,-203 1923.69,-200.55 1923.69,-205.45"/>
</g>
<!-- executor -->
<g id="node14" class="node">
<title>executor</title>
<path fill="white" stroke="#64748b" d="M2200.92,-221.48C2200.92,-221.48 2109.51,-221.48 2109.51,-221.48 2103.51,-221.48 2097.51,-215.48 2097.51,-209.48 2097.51,-209.48 2097.51,-196.52 2097.51,-196.52 2097.51,-190.52 2103.51,-184.52 2109.51,-184.52 2109.51,-184.52 2200.92,-184.52 2200.92,-184.52 2206.92,-184.52 2212.92,-190.52 2212.92,-196.52 2212.92,-196.52 2212.92,-209.48 2212.92,-209.48 2212.92,-215.48 2206.92,-221.48 2200.92,-221.48"/>
<text xml:space="preserve" text-anchor="middle" x="2155.21" y="-204.55" font-family="Pretendard" font-size="11.00">executor.c</text>
<text xml:space="preserve" text-anchor="middle" x="2155.21" y="-192.55" font-family="Pretendard" font-size="11.00">CRUD + index path</text>
</g>
<!-- parser&#45;&gt;executor -->
<g id="edge14" class="edge">
<title>parser&#45;&gt;executor</title>
<path fill="none" stroke="#475569" d="M2040.75,-203C2056.08,-203 2072.98,-203 2088.96,-203"/>
<polygon fill="#475569" stroke="#475569" points="2088.7,-205.45 2095.7,-203 2088.7,-200.55 2088.7,-205.45"/>
</g>
<!-- executor&#45;&gt;metrics -->
<g id="edge26" class="edge">
<title>executor&#45;&gt;metrics</title>
<path fill="none" stroke="#475569" stroke-dasharray="1,5" d="M2097.18,-202.49C1804.87,-199.94 495.07,-188.52 166.77,-185.65"/>
<polygon fill="#475569" stroke="#475569" points="166.8,-183.2 159.78,-185.59 166.76,-188.1 166.8,-183.2"/>
</g>
<!-- tablecache -->
<g id="node15" class="node">
<title>tablecache</title>
<path fill="white" stroke="#64748b" d="M2522.33,-161.48C2522.33,-161.48 2399.42,-161.48 2399.42,-161.48 2393.42,-161.48 2387.42,-155.48 2387.42,-149.48 2387.42,-149.48 2387.42,-136.52 2387.42,-136.52 2387.42,-130.52 2393.42,-124.52 2399.42,-124.52 2399.42,-124.52 2522.33,-124.52 2522.33,-124.52 2528.33,-124.52 2534.33,-130.52 2534.33,-136.52 2534.33,-136.52 2534.33,-149.48 2534.33,-149.48 2534.33,-155.48 2528.33,-161.48 2522.33,-161.48"/>
<text xml:space="preserve" text-anchor="middle" x="2460.87" y="-144.55" font-family="Pretendard" font-size="11.00">TableCache</text>
<text xml:space="preserve" text-anchor="middle" x="2460.87" y="-132.55" font-family="Pretendard" font-size="11.00">open_tables / slots / cache</text>
</g>
<!-- executor&#45;&gt;tablecache -->
<g id="edge15" class="edge">
<title>executor&#45;&gt;tablecache</title>
<path fill="none" stroke="#475569" d="M2213.33,-191.71C2260.05,-182.48 2326.7,-169.31 2378.92,-159"/>
<polygon fill="#475569" stroke="#475569" points="2379.3,-161.42 2385.69,-157.66 2378.35,-156.61 2379.3,-161.42"/>
</g>
<!-- response -->
<g id="node18" class="node">
<title>response</title>
<path fill="white" stroke="#64748b" d="M2499.45,-365.48C2499.45,-365.48 2422.29,-365.48 2422.29,-365.48 2416.29,-365.48 2410.29,-359.48 2410.29,-353.48 2410.29,-353.48 2410.29,-340.52 2410.29,-340.52 2410.29,-334.52 2416.29,-328.52 2422.29,-328.52 2422.29,-328.52 2499.45,-328.52 2499.45,-328.52 2505.45,-328.52 2511.45,-334.52 2511.45,-340.52 2511.45,-340.52 2511.45,-353.48 2511.45,-353.48 2511.45,-359.48 2505.45,-365.48 2499.45,-365.48"/>
<text xml:space="preserve" text-anchor="middle" x="2460.87" y="-348.55" font-family="Pretendard" font-size="11.00">CmdResponse</text>
<text xml:space="preserve" text-anchor="middle" x="2460.87" y="-336.55" font-family="Pretendard" font-size="11.00">ok / status / body</text>
</g>
<!-- executor&#45;&gt;response -->
<g id="edge20" class="edge">
<title>executor&#45;&gt;response</title>
<path fill="none" stroke="#475569" d="M2196.23,-221.97C2252.13,-248.49 2353.43,-296.52 2412.87,-324.71"/>
<polygon fill="#475569" stroke="#475569" points="2411.52,-326.78 2418.89,-327.56 2413.62,-322.35 2411.52,-326.78"/>
<text xml:space="preserve" text-anchor="middle" x="2300.17" y="-298.06" font-family="Pretendard" font-size="10.00">row_count / affected_count</text>
</g>
<!-- bptree -->
<g id="node16" class="node">
<title>bptree</title>
<path fill="white" stroke="#64748b" d="M2766.11,-98.48C2766.11,-98.48 2701.7,-98.48 2701.7,-98.48 2695.7,-98.48 2689.7,-92.48 2689.7,-86.48 2689.7,-86.48 2689.7,-73.52 2689.7,-73.52 2689.7,-67.52 2695.7,-61.52 2701.7,-61.52 2701.7,-61.52 2766.11,-61.52 2766.11,-61.52 2772.11,-61.52 2778.11,-67.52 2778.11,-73.52 2778.11,-73.52 2778.11,-86.48 2778.11,-86.48 2778.11,-92.48 2772.11,-98.48 2766.11,-98.48"/>
<text xml:space="preserve" text-anchor="middle" x="2733.91" y="-81.55" font-family="Pretendard" font-size="11.00">B+ Tree</text>
<text xml:space="preserve" text-anchor="middle" x="2733.91" y="-69.55" font-family="Pretendard" font-size="11.00">PK / UK index</text>
</g>
<!-- tablecache&#45;&gt;bptree -->
<g id="edge16" class="edge">
<title>tablecache&#45;&gt;bptree</title>
<path fill="none" stroke="#475569" d="M2534.51,-126.12C2580.81,-115.35 2639.71,-101.66 2681.26,-92.01"/>
<polygon fill="#475569" stroke="#475569" points="2681.6,-94.44 2687.86,-90.47 2680.49,-89.67 2681.6,-94.44"/>
<text xml:space="preserve" text-anchor="middle" x="2609.58" y="-120.75" font-family="Pretendard" font-size="10.00">lookup / range</text>
</g>
<!-- storage -->
<g id="node17" class="node">
<title>storage</title>
<path fill="white" stroke="#64748b" d="M2770.99,-172.48C2770.99,-172.48 2696.83,-172.48 2696.83,-172.48 2690.83,-172.48 2684.83,-166.48 2684.83,-160.48 2684.83,-160.48 2684.83,-147.52 2684.83,-147.52 2684.83,-141.52 2690.83,-135.52 2696.83,-135.52 2696.83,-135.52 2770.99,-135.52 2770.99,-135.52 2776.99,-135.52 2782.99,-141.52 2782.99,-147.52 2782.99,-147.52 2782.99,-160.48 2782.99,-160.48 2782.99,-166.48 2776.99,-172.48 2770.99,-172.48"/>
<text xml:space="preserve" text-anchor="middle" x="2733.91" y="-155.55" font-family="Pretendard" font-size="11.00">CSV / delta / idx</text>
<text xml:space="preserve" text-anchor="middle" x="2733.91" y="-143.55" font-family="Pretendard" font-size="11.00">persistent state</text>
</g>
<!-- tablecache&#45;&gt;storage -->
<g id="edge17" class="edge">
<title>tablecache&#45;&gt;storage</title>
<path fill="none" stroke="#475569" d="M2534.51,-145.95C2578.96,-147.75 2635,-150.03 2676.18,-151.7"/>
<polygon fill="#475569" stroke="#475569" points="2675.87,-154.14 2682.96,-151.97 2676.06,-149.24 2675.87,-154.14"/>
<text xml:space="preserve" text-anchor="middle" x="2609.58" y="-143.5" font-family="Pretendard" font-size="10.00">read / append / replay</text>
</g>
<!-- bptree&#45;&gt;tablecache -->
<g id="edge19" class="edge">
<title>bptree&#45;&gt;tablecache</title>
<path fill="none" stroke="#475569" stroke-dasharray="5,2" d="M2689.33,-90.13C2649.9,-99.3 2590.8,-113.03 2542.73,-124.21"/>
<polygon fill="#475569" stroke="#475569" points="2542.25,-121.8 2535.98,-125.77 2543.35,-126.58 2542.25,-121.8"/>
<text xml:space="preserve" text-anchor="middle" x="2609.58" y="-156.75" font-family="Pretendard" font-size="10.00">slot id</text>
</g>
<!-- storage&#45;&gt;tablecache -->
<g id="edge18" class="edge">
<title>storage&#45;&gt;tablecache</title>
<path fill="none" stroke="#475569" stroke-dasharray="5,2" d="M2684.47,-152.03C2645.22,-150.44 2589.07,-148.16 2542.99,-146.29"/>
<polygon fill="#475569" stroke="#475569" points="2543.11,-143.85 2536.02,-146.01 2542.91,-148.74 2543.11,-143.85"/>
<text xml:space="preserve" text-anchor="middle" x="2609.58" y="-209.75" font-family="Pretendard" font-size="10.00">row / delta / snapshot</text>
</g>
<!-- callback -->
<g id="node19" class="node">
<title>callback</title>
<path fill="white" stroke="#64748b" d="M2770.24,-365.48C2770.24,-365.48 2697.58,-365.48 2697.58,-365.48 2691.58,-365.48 2685.58,-359.48 2685.58,-353.48 2685.58,-353.48 2685.58,-340.52 2685.58,-340.52 2685.58,-334.52 2691.58,-328.52 2697.58,-328.52 2697.58,-328.52 2770.24,-328.52 2770.24,-328.52 2776.24,-328.52 2782.24,-334.52 2782.24,-340.52 2782.24,-340.52 2782.24,-353.48 2782.24,-353.48 2782.24,-359.48 2776.24,-365.48 2770.24,-365.48"/>
<text xml:space="preserve" text-anchor="middle" x="2733.91" y="-348.55" font-family="Pretendard" font-size="11.00">callback</text>
<text xml:space="preserve" text-anchor="middle" x="2733.91" y="-336.55" font-family="Pretendard" font-size="11.00">same request id</text>
</g>
<!-- response&#45;&gt;callback -->
<g id="edge21" class="edge">
<title>response&#45;&gt;callback</title>
<path fill="none" stroke="#475569" d="M2511.9,-347C2558.65,-347 2628.35,-347 2676.93,-347"/>
<polygon fill="#475569" stroke="#475569" points="2676.93,-349.45 2683.93,-347 2676.93,-344.55 2676.93,-349.45"/>
</g>
<!-- tcp_res -->
<g id="node20" class="node">
<title>tcp_res</title>
<path fill="white" stroke="#64748b" d="M2956.15,-365C2956.15,-365 2851.99,-365 2851.99,-365 2845.99,-365 2839.99,-359 2839.99,-353 2839.99,-353 2839.99,-341 2839.99,-341 2839.99,-335 2845.99,-329 2851.99,-329 2851.99,-329 2956.15,-329 2956.15,-329 2962.15,-329 2968.15,-335 2968.15,-341 2968.15,-341 2968.15,-353 2968.15,-353 2968.15,-359 2962.15,-365 2956.15,-365"/>
<text xml:space="preserve" text-anchor="middle" x="2904.07" y="-342.55" font-family="Pretendard" font-size="11.00">TCP JSONL response</text>
</g>
<!-- callback&#45;&gt;tcp_res -->
<g id="edge22" class="edge">
<title>callback&#45;&gt;tcp_res</title>
<path fill="none" stroke="#475569" d="M2782.65,-347C2797.7,-347 2814.67,-347 2831.02,-347"/>
<polygon fill="#475569" stroke="#475569" points="2830.99,-349.45 2837.99,-347 2830.99,-344.55 2830.99,-349.45"/>
</g>
<!-- tcp_res&#45;&gt;inflight -->
<g id="edge23" class="edge">
<title>tcp_res&#45;&gt;inflight</title>
<path fill="none" stroke="#475569" stroke-dasharray="5,2" d="M2839.85,-330.39C2578.53,-262.79 1608.98,-12 1608.98,-12 1608.98,-12 597.85,-498.96 356.34,-615.27"/>
<polygon fill="#475569" stroke="#475569" points="355.36,-613.02 350.11,-618.27 357.48,-617.44 355.36,-613.02"/>
<text xml:space="preserve" text-anchor="middle" x="1582.73" y="-2.5" font-family="Pretendard" font-size="10.00">in&#45;flight 제거</text>
</g>
</g>
</svg>
